G04*
G04 #@! TF.GenerationSoftware,Altium Limited,Altium Designer,22.9.1 (49)*
G04*
G04 Layer_Physical_Order=3*
G04 Layer_Color=16440176*
%FSLAX44Y44*%
%MOMM*%
G71*
G04*
G04 #@! TF.SameCoordinates,DBEF2CFB-25A5-4AA8-B732-6DF96BC3893C*
G04*
G04*
G04 #@! TF.FilePolarity,Positive*
G04*
G01*
G75*
%ADD18C,1.3000*%
%ADD19R,1.3000X1.3000*%
%ADD34C,2.0000*%
%ADD42C,0.3810*%
%ADD46C,1.5000*%
%ADD50R,1.3500X1.3500*%
%ADD52R,2.3000X2.3000*%
%ADD53C,2.3000*%
G36*
X845000Y975000D02*
Y745000D01*
X843683D01*
X841140Y744318D01*
X838860Y743002D01*
X836998Y741140D01*
X835682Y738860D01*
X835000Y736317D01*
Y733683D01*
X835682Y731140D01*
X836998Y728860D01*
X838860Y726998D01*
X841140Y725682D01*
X843683Y725000D01*
X845000D01*
Y321750D01*
X830250D01*
Y298250D01*
X845000D01*
Y224072D01*
X843730Y223165D01*
X841547Y223750D01*
X838453D01*
X835465Y222949D01*
X832785Y221402D01*
X830598Y219215D01*
X829051Y216535D01*
X828250Y213547D01*
Y210453D01*
X829051Y207465D01*
X830598Y204785D01*
X832785Y202598D01*
X835465Y201051D01*
X838453Y200250D01*
X841547D01*
X843730Y200835D01*
X845000Y199928D01*
Y170000D01*
X106489D01*
X105603Y171536D01*
X104933Y172206D01*
X104702Y179764D01*
X105603Y180664D01*
X107347Y183686D01*
X108250Y187056D01*
Y190544D01*
X107347Y193914D01*
X105603Y196936D01*
X104134Y198404D01*
X103951Y204412D01*
X105603Y206064D01*
X107347Y209086D01*
X108250Y212456D01*
Y215944D01*
X107347Y219314D01*
X105603Y222336D01*
X103335Y224603D01*
X103199Y229061D01*
X105603Y231464D01*
X107347Y234486D01*
X108250Y237856D01*
Y241344D01*
X107347Y244714D01*
X105603Y247736D01*
X103136Y250203D01*
X102544Y250544D01*
X102439Y253995D01*
X103136Y254397D01*
X105603Y256864D01*
X107347Y259886D01*
X108250Y263256D01*
Y266744D01*
X107347Y270114D01*
X105603Y273136D01*
X103136Y275603D01*
X102655Y275880D01*
X102996Y277150D01*
X108250D01*
Y303650D01*
X100925D01*
X88912Y697701D01*
X89444Y698250D01*
X92814Y699153D01*
X95836Y700897D01*
X98303Y703364D01*
X100047Y706386D01*
X100950Y709756D01*
Y713244D01*
X100047Y716614D01*
X98303Y719636D01*
X95836Y722103D01*
X93473Y723467D01*
Y724933D01*
X95836Y726297D01*
X98303Y728764D01*
X100047Y731786D01*
X100950Y735156D01*
Y738644D01*
X100047Y742014D01*
X98303Y745036D01*
X95836Y747503D01*
X93473Y748867D01*
Y750333D01*
X95836Y751697D01*
X98303Y754164D01*
X100047Y757186D01*
X100950Y760556D01*
Y764044D01*
X100047Y767414D01*
X98303Y770436D01*
X95836Y772903D01*
X93473Y774267D01*
Y775733D01*
X95836Y777097D01*
X98303Y779564D01*
X100047Y782586D01*
X100950Y785956D01*
Y789444D01*
X100047Y792814D01*
X98303Y795836D01*
X95836Y798303D01*
X93473Y799667D01*
Y801133D01*
X95836Y802497D01*
X98303Y804964D01*
X100047Y807986D01*
X100950Y811356D01*
Y814844D01*
X100047Y818214D01*
X98303Y821236D01*
X95836Y823703D01*
X95280Y824023D01*
X95609Y825250D01*
X100950D01*
Y851750D01*
X84215D01*
X80028Y989088D01*
X80912Y990000D01*
X830000D01*
X845000Y975000D01*
D02*
G37*
%LPC*%
G36*
X785500Y951075D02*
X755500D01*
Y945105D01*
X754230Y944579D01*
X752700Y946109D01*
X749840Y947760D01*
X747540Y948377D01*
Y936075D01*
Y923773D01*
X749840Y924390D01*
X752700Y926040D01*
X754230Y927571D01*
X755500Y927045D01*
Y921075D01*
X785500D01*
Y951075D01*
D02*
G37*
G36*
X407112Y948000D02*
X403689D01*
X400382Y947114D01*
X397418Y945403D01*
X394997Y942982D01*
X394270Y941722D01*
X393000Y942063D01*
Y948000D01*
X367000D01*
Y922000D01*
X393000D01*
Y927937D01*
X394270Y928278D01*
X394997Y927018D01*
X397418Y924597D01*
X400382Y922886D01*
X403689Y922000D01*
X407112D01*
X410418Y922886D01*
X413382Y924597D01*
X415803Y927018D01*
X417514Y929982D01*
X418400Y933288D01*
Y936712D01*
X417514Y940018D01*
X415803Y942982D01*
X413382Y945403D01*
X410418Y947114D01*
X407112Y948000D01*
D02*
G37*
G36*
X555700D02*
X529700D01*
Y942063D01*
X528430Y941722D01*
X527703Y942982D01*
X525282Y945403D01*
X522318Y947114D01*
X519011Y948000D01*
X515588D01*
X512282Y947114D01*
X509318Y945403D01*
X506897Y942982D01*
X505186Y940018D01*
X504300Y936712D01*
Y933288D01*
X505186Y929982D01*
X506897Y927018D01*
X509318Y924597D01*
X512282Y922886D01*
X515588Y922000D01*
X519011D01*
X522318Y922886D01*
X525282Y924597D01*
X527703Y927018D01*
X528430Y928278D01*
X529700Y927937D01*
Y922000D01*
X555700D01*
Y948000D01*
D02*
G37*
G36*
X288948Y921000D02*
X286052D01*
X283254Y920250D01*
X280746Y918802D01*
X278698Y916754D01*
X277250Y914246D01*
X276500Y911448D01*
Y908552D01*
X277250Y905754D01*
X278698Y903246D01*
X280746Y901198D01*
X283254Y899750D01*
X286052Y899000D01*
X288948D01*
X291746Y899750D01*
X294254Y901198D01*
X296302Y903246D01*
X297750Y905754D01*
X298500Y908552D01*
Y911448D01*
X297750Y914246D01*
X296302Y916754D01*
X294254Y918802D01*
X291746Y920250D01*
X288948Y921000D01*
D02*
G37*
G36*
X273500D02*
X251500D01*
Y899000D01*
X273500D01*
Y921000D01*
D02*
G37*
G36*
X691317Y880000D02*
X688683D01*
X686140Y879318D01*
X683860Y878002D01*
X681998Y876140D01*
X680682Y873860D01*
X680000Y871317D01*
Y868683D01*
X680682Y866140D01*
X681998Y863860D01*
X683860Y861998D01*
X686140Y860682D01*
X688683Y860000D01*
X691317D01*
X693860Y860682D01*
X696140Y861998D01*
X698002Y863860D01*
X699318Y866140D01*
X700000Y868683D01*
Y871317D01*
X699318Y873860D01*
X698002Y876140D01*
X696140Y878002D01*
X693860Y879318D01*
X691317Y880000D01*
D02*
G37*
G36*
X606316Y875000D02*
X603684D01*
X601140Y874318D01*
X598860Y873002D01*
X596998Y871140D01*
X595681Y868860D01*
X595000Y866317D01*
Y863683D01*
X595681Y861140D01*
X596998Y858860D01*
X598860Y856998D01*
X601140Y855682D01*
X603684Y855000D01*
X606316D01*
X608860Y855682D01*
X611140Y856998D01*
X613002Y858860D01*
X614319Y861140D01*
X615000Y863683D01*
Y866317D01*
X614319Y868860D01*
X613002Y871140D01*
X611140Y873002D01*
X608860Y874318D01*
X606316Y875000D01*
D02*
G37*
G36*
X299200Y861500D02*
X276200D01*
Y838500D01*
X299200D01*
Y861500D01*
D02*
G37*
G36*
X263814D02*
X260786D01*
X257861Y860716D01*
X255239Y859202D01*
X253098Y857061D01*
X251584Y854439D01*
X250800Y851514D01*
Y848486D01*
X251584Y845561D01*
X253098Y842939D01*
X255239Y840798D01*
X257861Y839284D01*
X260786Y838500D01*
X263814D01*
X266739Y839284D01*
X269361Y840798D01*
X271502Y842939D01*
X273016Y845561D01*
X273800Y848486D01*
Y851514D01*
X273016Y854439D01*
X271502Y857061D01*
X269361Y859202D01*
X266739Y860716D01*
X263814Y861500D01*
D02*
G37*
G36*
X795000Y986965D02*
X650000D01*
X648197Y986727D01*
X646518Y986031D01*
X645075Y984925D01*
X527014Y866864D01*
X476446D01*
X474643Y866626D01*
X472964Y865931D01*
X471521Y864824D01*
X315075Y708378D01*
X313969Y706936D01*
X313273Y705256D01*
X313035Y703453D01*
Y572885D01*
X310520Y570370D01*
X233764D01*
X231961Y570132D01*
X230282Y569436D01*
X228839Y568330D01*
X155434Y494925D01*
X141051Y480541D01*
X139813Y481054D01*
X136625Y481688D01*
X133375D01*
X130187Y481054D01*
X127184Y479810D01*
X124482Y478004D01*
X122184Y475706D01*
X120378Y473004D01*
X119134Y470001D01*
X118500Y466813D01*
Y463563D01*
X119134Y460375D01*
X120378Y457372D01*
X122184Y454670D01*
X124482Y452372D01*
X127184Y450566D01*
X130187Y449322D01*
X133375Y448688D01*
X136625D01*
X139813Y449322D01*
X142816Y450566D01*
X145518Y452372D01*
X147816Y454670D01*
X149622Y457372D01*
X150866Y460375D01*
X151500Y463563D01*
Y466813D01*
X150866Y470001D01*
X150674Y470465D01*
X163244Y483035D01*
X370742D01*
X370798Y482939D01*
X372939Y480798D01*
X373784Y480310D01*
X373443Y479040D01*
X370960D01*
Y476965D01*
X367785D01*
X365982Y476727D01*
X364303Y476032D01*
X362860Y474925D01*
X352805Y464870D01*
X254498D01*
X252695Y464632D01*
X251015Y463937D01*
X249573Y462830D01*
X219272Y432529D01*
X149040D01*
Y439604D01*
X137540D01*
Y425564D01*
Y411524D01*
X149040D01*
Y418599D01*
X222157D01*
X223959Y418837D01*
X225639Y419533D01*
X227081Y420639D01*
X257383Y450940D01*
X355690D01*
X357492Y451178D01*
X359172Y451874D01*
X360615Y452980D01*
X369690Y462056D01*
X370960Y461530D01*
Y460960D01*
X377460D01*
Y470000D01*
X382540D01*
Y460960D01*
X389040D01*
X389040Y460960D01*
Y460960D01*
X389950Y460200D01*
X403931Y446220D01*
Y436891D01*
X404168Y435088D01*
X404864Y433408D01*
X405971Y431966D01*
X426866Y411070D01*
X428309Y409963D01*
X429989Y409268D01*
X431791Y409030D01*
X433753D01*
X433866Y408835D01*
X435735Y406966D01*
X438025Y405644D01*
X439360Y405286D01*
Y415000D01*
Y424714D01*
X438025Y424356D01*
X435735Y423034D01*
X435661Y422960D01*
X434676D01*
X417860Y439775D01*
Y449104D01*
X417623Y450907D01*
X416927Y452587D01*
X415820Y454029D01*
X394925Y474925D01*
X393482Y476032D01*
X391802Y476727D01*
X390000Y476965D01*
X389040D01*
Y479040D01*
X386557D01*
X386216Y480310D01*
X387061Y480798D01*
X389202Y482939D01*
X390716Y485561D01*
X391500Y488486D01*
Y491514D01*
X390716Y494439D01*
X389202Y497061D01*
X387061Y499202D01*
X384439Y500716D01*
X381514Y501500D01*
X378486D01*
X375561Y500716D01*
X372939Y499202D01*
X370798Y497061D01*
X370742Y496965D01*
X178832D01*
X178346Y498138D01*
X236649Y556440D01*
X313405D01*
X315208Y556678D01*
X316887Y557374D01*
X318330Y558480D01*
X324925Y565075D01*
X326031Y566518D01*
X326727Y568197D01*
X326965Y570000D01*
Y700568D01*
X479331Y852934D01*
X529899D01*
X531702Y853172D01*
X533381Y853868D01*
X534824Y854974D01*
X652885Y973035D01*
X792115D01*
X813035Y952115D01*
Y912885D01*
X799615Y899465D01*
X743478D01*
X741676Y899227D01*
X739996Y898531D01*
X738554Y897425D01*
X646420Y805291D01*
X645313Y803849D01*
X644618Y802169D01*
X644380Y800367D01*
Y706062D01*
X644618Y704260D01*
X645313Y702580D01*
X646420Y701137D01*
X691690Y655867D01*
Y633269D01*
X691368Y632490D01*
X691130Y630688D01*
Y563587D01*
X549508Y421965D01*
X528513D01*
X528102Y422675D01*
X525775Y425003D01*
X522925Y426648D01*
X521453Y427043D01*
Y428357D01*
X522925Y428752D01*
X525775Y430397D01*
X528102Y432725D01*
X529748Y435575D01*
X530600Y438754D01*
Y442046D01*
X529748Y445225D01*
X528102Y448075D01*
X525775Y450402D01*
X522925Y452048D01*
X521453Y452443D01*
Y453757D01*
X522925Y454152D01*
X525775Y455798D01*
X528102Y458125D01*
X529748Y460975D01*
X530600Y464154D01*
Y467446D01*
X529748Y470625D01*
X528102Y473475D01*
X525775Y475802D01*
X522925Y477448D01*
X521453Y477843D01*
Y479157D01*
X522925Y479552D01*
X525775Y481198D01*
X528102Y483525D01*
X529748Y486375D01*
X530600Y489554D01*
Y492846D01*
X529748Y496025D01*
X528102Y498875D01*
X525775Y501203D01*
X522925Y502848D01*
X519746Y503700D01*
X516454D01*
X513275Y502848D01*
X510425Y501203D01*
X508097Y498875D01*
X506452Y496025D01*
X505600Y492846D01*
Y489554D01*
X506452Y486375D01*
X508097Y483525D01*
X510425Y481198D01*
X513275Y479552D01*
X514747Y479157D01*
Y477843D01*
X513275Y477448D01*
X510425Y475802D01*
X508097Y473475D01*
X506452Y470625D01*
X505600Y467446D01*
Y464154D01*
X506452Y460975D01*
X508097Y458125D01*
X510425Y455798D01*
X513275Y454152D01*
X514747Y453757D01*
Y452443D01*
X513275Y452048D01*
X510425Y450402D01*
X508097Y448075D01*
X506452Y445225D01*
X505600Y442046D01*
Y438754D01*
X506452Y435575D01*
X508097Y432725D01*
X510425Y430397D01*
X513275Y428752D01*
X514747Y428357D01*
Y427043D01*
X513275Y426648D01*
X510425Y425003D01*
X508097Y422675D01*
X506452Y419825D01*
X505600Y416646D01*
Y413354D01*
X506452Y410175D01*
X508097Y407325D01*
X510425Y404997D01*
X513275Y403352D01*
X514747Y402957D01*
Y401643D01*
X513275Y401248D01*
X510425Y399603D01*
X508097Y397275D01*
X506452Y394425D01*
X505600Y391246D01*
Y387954D01*
X506452Y384775D01*
X508097Y381925D01*
X510425Y379598D01*
X513275Y377952D01*
X514747Y377557D01*
Y376243D01*
X513275Y375848D01*
X510425Y374202D01*
X508097Y371875D01*
X506452Y369025D01*
X505600Y365846D01*
Y362554D01*
X506452Y359375D01*
X508097Y356525D01*
X510425Y354198D01*
X513275Y352552D01*
X514747Y352157D01*
Y350843D01*
X513275Y350448D01*
X510425Y348802D01*
X508097Y346475D01*
X506452Y343625D01*
X505600Y340446D01*
Y337154D01*
X506452Y333975D01*
X508097Y331125D01*
X510425Y328797D01*
X513275Y327152D01*
X516454Y326300D01*
X519746D01*
X522925Y327152D01*
X525775Y328797D01*
X528102Y331125D01*
X529748Y333975D01*
X530600Y337154D01*
Y340446D01*
X529748Y343625D01*
X528102Y346475D01*
X525775Y348802D01*
X522925Y350448D01*
X521453Y350843D01*
Y352157D01*
X522925Y352552D01*
X525775Y354198D01*
X528102Y356525D01*
X529748Y359375D01*
X530600Y362554D01*
Y365846D01*
X529748Y369025D01*
X528102Y371875D01*
X525775Y374202D01*
X522925Y375848D01*
X521453Y376243D01*
Y377557D01*
X522925Y377952D01*
X525775Y379598D01*
X528102Y381925D01*
X529748Y384775D01*
X530600Y387954D01*
Y391246D01*
X529748Y394425D01*
X528102Y397275D01*
X525775Y399603D01*
X522925Y401248D01*
X521453Y401643D01*
Y402957D01*
X522925Y403352D01*
X525775Y404997D01*
X528102Y407325D01*
X528513Y408035D01*
X585000D01*
X586803Y408273D01*
X588482Y408969D01*
X589925Y410075D01*
X604925Y425075D01*
X606031Y426518D01*
X606727Y428197D01*
X606965Y430000D01*
Y438035D01*
X663035D01*
Y282885D01*
X616901Y236750D01*
X603250D01*
Y213250D01*
X626750D01*
Y226901D01*
X674925Y275075D01*
X676031Y276518D01*
X676727Y278197D01*
X676965Y280000D01*
Y442768D01*
X676727Y444571D01*
X676031Y446250D01*
X674925Y447693D01*
X672693Y449925D01*
X671250Y451031D01*
X669571Y451727D01*
X667768Y451965D01*
X602232D01*
X600816Y451778D01*
X600180Y452938D01*
X703020Y555778D01*
X704127Y557220D01*
X704822Y558900D01*
X705060Y560702D01*
Y628666D01*
X705382Y629445D01*
X705620Y631248D01*
Y658752D01*
Y758221D01*
X754925Y807526D01*
X756031Y808968D01*
X756727Y810648D01*
X756853Y811603D01*
X757105Y811707D01*
X759230Y813127D01*
X760500Y812641D01*
Y810000D01*
X790500D01*
Y840000D01*
X760500D01*
Y837359D01*
X759230Y836873D01*
X757105Y838293D01*
X754375Y839424D01*
X751477Y840000D01*
X748523D01*
X745625Y839424D01*
X742895Y838293D01*
X740438Y836651D01*
X738349Y834562D01*
X737885Y833868D01*
X736615D01*
X736151Y834562D01*
X734062Y836651D01*
X731605Y838293D01*
X728875Y839424D01*
X725977Y840000D01*
X723023D01*
X720125Y839424D01*
X717395Y838293D01*
X714938Y836651D01*
X712849Y834562D01*
X711207Y832105D01*
X710077Y829375D01*
X709500Y826477D01*
Y823523D01*
X710077Y820625D01*
X711207Y817895D01*
X712849Y815438D01*
X714938Y813349D01*
X717395Y811707D01*
X720125Y810576D01*
X723023Y810000D01*
X725977D01*
X728875Y810576D01*
X731605Y811707D01*
X734062Y813349D01*
X736151Y815438D01*
X736615Y816132D01*
X737885D01*
X738349Y815438D01*
X740438Y813349D01*
X740493Y812793D01*
X693730Y766030D01*
X692624Y764588D01*
X691928Y762908D01*
X691690Y761106D01*
Y677226D01*
X690517Y676740D01*
X658310Y708947D01*
Y797482D01*
X746363Y885535D01*
X802500D01*
X804303Y885773D01*
X805982Y886469D01*
X807425Y887575D01*
X824925Y905075D01*
X826031Y906518D01*
X826727Y908197D01*
X826965Y910000D01*
Y955000D01*
X826965Y955000D01*
X826727Y956803D01*
X826031Y958482D01*
X824925Y959925D01*
X799925Y984925D01*
X798482Y986031D01*
X796803Y986727D01*
X795000Y986965D01*
D02*
G37*
G36*
X391750Y831750D02*
X368250D01*
Y808250D01*
X391750D01*
Y831750D01*
D02*
G37*
G36*
X299200Y791500D02*
X276200D01*
Y768500D01*
X299200D01*
Y791500D01*
D02*
G37*
G36*
X263814D02*
X260786D01*
X257861Y790716D01*
X255239Y789202D01*
X253098Y787061D01*
X251584Y784439D01*
X250800Y781514D01*
Y778486D01*
X251584Y775561D01*
X253098Y772939D01*
X255239Y770798D01*
X257861Y769284D01*
X260786Y768500D01*
X263814D01*
X266739Y769284D01*
X269361Y770798D01*
X271502Y772939D01*
X273016Y775561D01*
X273800Y778486D01*
Y781514D01*
X273016Y784439D01*
X271502Y787061D01*
X269361Y789202D01*
X266739Y790716D01*
X263814Y791500D01*
D02*
G37*
G36*
X560025Y788100D02*
X557392D01*
X554848Y787419D01*
X552568Y786102D01*
X550706Y784240D01*
X549390Y781960D01*
X548708Y779417D01*
Y776784D01*
X549390Y774240D01*
X550706Y771960D01*
X552568Y770098D01*
X554848Y768782D01*
X557392Y768100D01*
X560025D01*
X562568Y768782D01*
X564848Y770098D01*
X566710Y771960D01*
X568027Y774240D01*
X568708Y776784D01*
Y779417D01*
X568027Y781960D01*
X566710Y784240D01*
X564848Y786102D01*
X562568Y787419D01*
X560025Y788100D01*
D02*
G37*
G36*
X676317Y785000D02*
X673683D01*
X671140Y784318D01*
X668860Y783002D01*
X666998Y781140D01*
X665682Y778860D01*
X665000Y776317D01*
Y773683D01*
X665682Y771140D01*
X666998Y768860D01*
X668860Y766998D01*
X671140Y765682D01*
X673683Y765000D01*
X676317D01*
X678860Y765682D01*
X681140Y766998D01*
X683002Y768860D01*
X684318Y771140D01*
X685000Y773683D01*
Y776317D01*
X684318Y778860D01*
X683002Y781140D01*
X681140Y783002D01*
X678860Y784318D01*
X676317Y785000D01*
D02*
G37*
G36*
X746317Y745000D02*
X743683D01*
X741140Y744318D01*
X738860Y743002D01*
X736998Y741140D01*
X735682Y738860D01*
X735000Y736317D01*
Y733683D01*
X735682Y731140D01*
X736998Y728860D01*
X738860Y726998D01*
X741140Y725682D01*
X743683Y725000D01*
X746317D01*
X748860Y725682D01*
X751140Y726998D01*
X753002Y728860D01*
X754318Y731140D01*
X755000Y733683D01*
Y736317D01*
X754318Y738860D01*
X753002Y741140D01*
X751140Y743002D01*
X748860Y744318D01*
X746317Y745000D01*
D02*
G37*
G36*
X791547Y746750D02*
X788453D01*
X785465Y745949D01*
X782785Y744402D01*
X780598Y742215D01*
X779051Y739535D01*
X778250Y736547D01*
Y733453D01*
X779051Y730465D01*
X780598Y727785D01*
X782785Y725598D01*
X785465Y724051D01*
X788453Y723250D01*
X791547D01*
X794535Y724051D01*
X797215Y725598D01*
X799402Y727785D01*
X800949Y730465D01*
X801750Y733453D01*
Y736547D01*
X800949Y739535D01*
X799402Y742215D01*
X797215Y744402D01*
X794535Y745949D01*
X791547Y746750D01*
D02*
G37*
G36*
X676547D02*
X673453D01*
X670465Y745949D01*
X667785Y744402D01*
X665598Y742215D01*
X664051Y739535D01*
X663250Y736547D01*
Y733453D01*
X664051Y730465D01*
X665598Y727785D01*
X667785Y725598D01*
X670465Y724051D01*
X673453Y723250D01*
X676547D01*
X679535Y724051D01*
X682215Y725598D01*
X684402Y727785D01*
X685949Y730465D01*
X686750Y733453D01*
Y736547D01*
X685949Y739535D01*
X684402Y742215D01*
X682215Y744402D01*
X679535Y745949D01*
X676547Y746750D01*
D02*
G37*
G36*
X381547Y741750D02*
X378453D01*
X375465Y740949D01*
X372785Y739402D01*
X370598Y737215D01*
X369051Y734535D01*
X368250Y731547D01*
Y728453D01*
X369051Y725465D01*
X370598Y722785D01*
X372785Y720598D01*
X375465Y719051D01*
X378453Y718250D01*
X381547D01*
X384535Y719051D01*
X387215Y720598D01*
X389402Y722785D01*
X390949Y725465D01*
X391750Y728453D01*
Y731547D01*
X390949Y734535D01*
X389402Y737215D01*
X387215Y739402D01*
X384535Y740949D01*
X381547Y741750D01*
D02*
G37*
G36*
X299200Y706500D02*
X276200D01*
Y683500D01*
X299200D01*
Y706500D01*
D02*
G37*
G36*
X263814D02*
X260786D01*
X257861Y705716D01*
X255239Y704202D01*
X253098Y702061D01*
X251584Y699439D01*
X250800Y696514D01*
Y693486D01*
X251584Y690561D01*
X253098Y687939D01*
X255239Y685798D01*
X257861Y684284D01*
X260786Y683500D01*
X263814D01*
X266739Y684284D01*
X269361Y685798D01*
X271502Y687939D01*
X273016Y690561D01*
X273800Y693486D01*
Y696514D01*
X273016Y699439D01*
X271502Y702061D01*
X269361Y704202D01*
X266739Y705716D01*
X263814Y706500D01*
D02*
G37*
G36*
X584746Y828700D02*
X581454D01*
X578275Y827848D01*
X575425Y826202D01*
X573097Y823875D01*
X571452Y821025D01*
X570600Y817846D01*
Y814554D01*
X571452Y811375D01*
X573097Y808525D01*
X575425Y806198D01*
X578275Y804552D01*
X579747Y804157D01*
Y802843D01*
X578275Y802448D01*
X575425Y800803D01*
X573097Y798475D01*
X571452Y795625D01*
X570600Y792446D01*
Y789154D01*
X571452Y785975D01*
X573097Y783125D01*
X575425Y780798D01*
X578275Y779152D01*
X579747Y778757D01*
Y777443D01*
X578275Y777048D01*
X575425Y775403D01*
X573097Y773075D01*
X571452Y770225D01*
X570600Y767046D01*
Y763754D01*
X571452Y760575D01*
X573097Y757725D01*
X575425Y755397D01*
X578275Y753752D01*
X579747Y753357D01*
Y752043D01*
X578275Y751648D01*
X575425Y750003D01*
X573097Y747675D01*
X571452Y744825D01*
X570600Y741646D01*
Y738354D01*
X571452Y735175D01*
X573097Y732325D01*
X575425Y729997D01*
X578275Y728352D01*
X579747Y727957D01*
Y726643D01*
X578275Y726248D01*
X575425Y724603D01*
X573097Y722275D01*
X571452Y719425D01*
X570600Y716246D01*
Y712954D01*
X571452Y709775D01*
X573097Y706925D01*
X575425Y704597D01*
X578275Y702952D01*
X579747Y702557D01*
Y701243D01*
X578275Y700848D01*
X575425Y699202D01*
X573097Y696875D01*
X571452Y694025D01*
X570600Y690846D01*
Y687554D01*
X571452Y684375D01*
X573097Y681525D01*
X575425Y679197D01*
X578275Y677552D01*
X579747Y677157D01*
Y675843D01*
X578275Y675448D01*
X575425Y673802D01*
X573097Y671475D01*
X571452Y668625D01*
X570600Y665446D01*
Y662154D01*
X571452Y658975D01*
X573097Y656125D01*
X575425Y653798D01*
X578275Y652152D01*
X581454Y651300D01*
X584746D01*
X587925Y652152D01*
X590775Y653798D01*
X593102Y656125D01*
X594748Y658975D01*
X595600Y662154D01*
Y665446D01*
X594748Y668625D01*
X593102Y671475D01*
X590775Y673802D01*
X587925Y675448D01*
X586453Y675843D01*
Y677157D01*
X587925Y677552D01*
X590775Y679197D01*
X593102Y681525D01*
X594748Y684375D01*
X595600Y687554D01*
Y690846D01*
X594748Y694025D01*
X593102Y696875D01*
X590775Y699202D01*
X587925Y700848D01*
X586453Y701243D01*
Y702557D01*
X587925Y702952D01*
X590775Y704597D01*
X593102Y706925D01*
X594748Y709775D01*
X595600Y712954D01*
Y716246D01*
X594748Y719425D01*
X593102Y722275D01*
X590775Y724603D01*
X587925Y726248D01*
X586453Y726643D01*
Y727957D01*
X587925Y728352D01*
X590775Y729997D01*
X593102Y732325D01*
X594748Y735175D01*
X595600Y738354D01*
Y741646D01*
X594748Y744825D01*
X593102Y747675D01*
X590775Y750003D01*
X587925Y751648D01*
X586453Y752043D01*
Y753357D01*
X587925Y753752D01*
X590775Y755397D01*
X593102Y757725D01*
X594748Y760575D01*
X595600Y763754D01*
Y767046D01*
X594748Y770225D01*
X593102Y773075D01*
X590775Y775403D01*
X587925Y777048D01*
X586453Y777443D01*
Y778757D01*
X587925Y779152D01*
X590775Y780798D01*
X593102Y783125D01*
X594748Y785975D01*
X595600Y789154D01*
Y792446D01*
X594748Y795625D01*
X593102Y798475D01*
X590775Y800803D01*
X587925Y802448D01*
X586453Y802843D01*
Y804157D01*
X587925Y804552D01*
X590775Y806198D01*
X593102Y808525D01*
X594748Y811375D01*
X595600Y814554D01*
Y817846D01*
X594748Y821025D01*
X593102Y823875D01*
X590775Y826202D01*
X587925Y827848D01*
X584746Y828700D01*
D02*
G37*
G36*
X519400D02*
X494400D01*
Y803700D01*
X501840D01*
X502075Y802448D01*
X499225Y800803D01*
X496898Y798475D01*
X495252Y795625D01*
X494400Y792446D01*
Y789154D01*
X495252Y785975D01*
X496898Y783125D01*
X499225Y780798D01*
X502075Y779152D01*
X503547Y778757D01*
Y777443D01*
X502075Y777048D01*
X499225Y775403D01*
X496898Y773075D01*
X495252Y770225D01*
X494400Y767046D01*
Y763754D01*
X495252Y760575D01*
X496898Y757725D01*
X499225Y755397D01*
X502075Y753752D01*
X503547Y753357D01*
Y752043D01*
X502075Y751648D01*
X499225Y750003D01*
X496898Y747675D01*
X495252Y744825D01*
X494400Y741646D01*
Y738354D01*
X495252Y735175D01*
X496898Y732325D01*
X499225Y729997D01*
X502075Y728352D01*
X503547Y727957D01*
Y726643D01*
X502075Y726248D01*
X499225Y724603D01*
X496898Y722275D01*
X495252Y719425D01*
X494400Y716246D01*
Y712954D01*
X495252Y709775D01*
X496898Y706925D01*
X499225Y704597D01*
X502075Y702952D01*
X503547Y702557D01*
Y701243D01*
X502075Y700848D01*
X499225Y699202D01*
X496898Y696875D01*
X495252Y694025D01*
X494400Y690846D01*
Y687554D01*
X495252Y684375D01*
X496898Y681525D01*
X499225Y679197D01*
X502075Y677552D01*
X503547Y677157D01*
Y675843D01*
X502075Y675448D01*
X499225Y673802D01*
X496898Y671475D01*
X495252Y668625D01*
X494400Y665446D01*
Y662154D01*
X495252Y658975D01*
X496898Y656125D01*
X499225Y653798D01*
X502075Y652152D01*
X505254Y651300D01*
X508546D01*
X511725Y652152D01*
X514575Y653798D01*
X516903Y656125D01*
X518548Y658975D01*
X519400Y662154D01*
Y665446D01*
X518548Y668625D01*
X516903Y671475D01*
X514575Y673802D01*
X511725Y675448D01*
X510253Y675843D01*
Y677157D01*
X511725Y677552D01*
X514575Y679197D01*
X516903Y681525D01*
X518548Y684375D01*
X519400Y687554D01*
Y690846D01*
X518548Y694025D01*
X516903Y696875D01*
X514575Y699202D01*
X511725Y700848D01*
X510253Y701243D01*
Y702557D01*
X511725Y702952D01*
X514575Y704597D01*
X516903Y706925D01*
X518548Y709775D01*
X519400Y712954D01*
Y716246D01*
X518548Y719425D01*
X516903Y722275D01*
X514575Y724603D01*
X511725Y726248D01*
X510253Y726643D01*
Y727957D01*
X511725Y728352D01*
X514575Y729997D01*
X516903Y732325D01*
X518548Y735175D01*
X519400Y738354D01*
Y741646D01*
X518548Y744825D01*
X516903Y747675D01*
X514575Y750003D01*
X511725Y751648D01*
X510253Y752043D01*
Y753357D01*
X511725Y753752D01*
X514575Y755397D01*
X516903Y757725D01*
X518548Y760575D01*
X519400Y763754D01*
Y767046D01*
X518548Y770225D01*
X516903Y773075D01*
X514575Y775403D01*
X511725Y777048D01*
X510253Y777443D01*
Y778757D01*
X511725Y779152D01*
X514575Y780798D01*
X516903Y783125D01*
X518548Y785975D01*
X519400Y789154D01*
Y792446D01*
X518548Y795625D01*
X516903Y798475D01*
X514575Y800803D01*
X511725Y802448D01*
X511960Y803700D01*
X519400D01*
Y828700D01*
D02*
G37*
G36*
X616316Y655000D02*
X613684D01*
X611140Y654318D01*
X608860Y653002D01*
X606998Y651140D01*
X605681Y648860D01*
X605000Y646317D01*
Y643683D01*
X605681Y641140D01*
X606998Y638860D01*
X608860Y636998D01*
X611140Y635681D01*
X613684Y635000D01*
X616316D01*
X618860Y635681D01*
X621140Y636998D01*
X623002Y638860D01*
X624319Y641140D01*
X625000Y643683D01*
Y646317D01*
X624319Y648860D01*
X623002Y651140D01*
X621140Y653002D01*
X618860Y654318D01*
X616316Y655000D01*
D02*
G37*
G36*
X801750Y656750D02*
X778250D01*
Y633250D01*
X801750D01*
Y656750D01*
D02*
G37*
G36*
X686750D02*
X663250D01*
Y633250D01*
X686750D01*
Y656750D01*
D02*
G37*
G36*
X736317Y635000D02*
X733683D01*
X731140Y634319D01*
X728860Y633002D01*
X726998Y631140D01*
X725682Y628860D01*
X725000Y626316D01*
Y623684D01*
X725682Y621140D01*
X726998Y618860D01*
X728860Y616998D01*
X731140Y615681D01*
X733683Y615000D01*
X736317D01*
X738860Y615681D01*
X741140Y616998D01*
X743002Y618860D01*
X744318Y621140D01*
X745000Y623684D01*
Y626316D01*
X744318Y628860D01*
X743002Y631140D01*
X741140Y633002D01*
X738860Y634319D01*
X736317Y635000D01*
D02*
G37*
G36*
X376500Y656500D02*
X353500D01*
Y633500D01*
X355577D01*
X356063Y632327D01*
X355798Y632061D01*
X354284Y629439D01*
X353500Y626514D01*
Y623486D01*
X354284Y620561D01*
X355798Y617939D01*
X357939Y615798D01*
X360561Y614284D01*
X363486Y613500D01*
X366514D01*
X369439Y614284D01*
X372061Y615798D01*
X374202Y617939D01*
X375716Y620561D01*
X376500Y623486D01*
Y626514D01*
X375716Y629439D01*
X374202Y632061D01*
X373937Y632327D01*
X374423Y633500D01*
X376500D01*
Y656500D01*
D02*
G37*
G36*
X288948Y626000D02*
X286052D01*
X283254Y625250D01*
X280746Y623802D01*
X278698Y621754D01*
X277250Y619246D01*
X276500Y616448D01*
Y613552D01*
X277250Y610754D01*
X278698Y608246D01*
X280746Y606198D01*
X283254Y604750D01*
X286052Y604000D01*
X288948D01*
X291746Y604750D01*
X294254Y606198D01*
X296302Y608246D01*
X297750Y610754D01*
X298500Y613552D01*
Y616448D01*
X297750Y619246D01*
X296302Y621754D01*
X294254Y623802D01*
X291746Y625250D01*
X288948Y626000D01*
D02*
G37*
G36*
X273500D02*
X251500D01*
Y604000D01*
X273500D01*
Y626000D01*
D02*
G37*
G36*
X561316Y620000D02*
X558684D01*
X556140Y619319D01*
X553860Y618002D01*
X551998Y616140D01*
X550681Y613860D01*
X550000Y611316D01*
Y608684D01*
X550681Y606140D01*
X551998Y603860D01*
X553860Y601998D01*
X556140Y600681D01*
X558684Y600000D01*
X561316D01*
X563860Y600681D01*
X566140Y601998D01*
X568002Y603860D01*
X569319Y606140D01*
X570000Y608684D01*
Y611316D01*
X569319Y613860D01*
X568002Y616140D01*
X566140Y618002D01*
X563860Y619319D01*
X561316Y620000D01*
D02*
G37*
G36*
X721317Y610000D02*
X718683D01*
X716140Y609319D01*
X713860Y608002D01*
X711998Y606140D01*
X710682Y603860D01*
X710000Y601316D01*
Y598684D01*
X710682Y596140D01*
X711998Y593860D01*
X713860Y591998D01*
X716140Y590681D01*
X718683Y590000D01*
X721317D01*
X723860Y590681D01*
X726140Y591998D01*
X728002Y593860D01*
X729318Y596140D01*
X730000Y598684D01*
Y601316D01*
X729318Y603860D01*
X728002Y606140D01*
X726140Y608002D01*
X723860Y609319D01*
X721317Y610000D01*
D02*
G37*
G36*
X826317Y590000D02*
X823683D01*
X821140Y589319D01*
X818860Y588002D01*
X816998Y586140D01*
X815682Y583860D01*
X815000Y581316D01*
Y578684D01*
X815682Y576140D01*
X816998Y573860D01*
X818860Y571998D01*
X821140Y570681D01*
X823683Y570000D01*
X826317D01*
X828860Y570681D01*
X831140Y571998D01*
X833002Y573860D01*
X834318Y576140D01*
X835000Y578684D01*
Y581316D01*
X834318Y583860D01*
X833002Y586140D01*
X831140Y588002D01*
X828860Y589319D01*
X826317Y590000D01*
D02*
G37*
G36*
X661317D02*
X658683D01*
X656140Y589319D01*
X653860Y588002D01*
X651998Y586140D01*
X650682Y583860D01*
X650000Y581316D01*
Y578684D01*
X650682Y576140D01*
X651998Y573860D01*
X653860Y571998D01*
X656140Y570681D01*
X658683Y570000D01*
X661317D01*
X663860Y570681D01*
X666140Y571998D01*
X668002Y573860D01*
X669318Y576140D01*
X670000Y578684D01*
Y581316D01*
X669318Y583860D01*
X668002Y586140D01*
X666140Y588002D01*
X663860Y589319D01*
X661317Y590000D01*
D02*
G37*
G36*
X421316D02*
X418684D01*
X416140Y589319D01*
X413860Y588002D01*
X411998Y586140D01*
X410681Y583860D01*
X410000Y581316D01*
Y578684D01*
X410681Y576140D01*
X411998Y573860D01*
X413860Y571998D01*
X416140Y570681D01*
X418684Y570000D01*
X421316D01*
X423860Y570681D01*
X426140Y571998D01*
X428002Y573860D01*
X429319Y576140D01*
X430000Y578684D01*
Y581316D01*
X429319Y583860D01*
X428002Y586140D01*
X426140Y588002D01*
X423860Y589319D01*
X421316Y590000D01*
D02*
G37*
G36*
X646000Y591000D02*
X624000D01*
Y569000D01*
X646000D01*
Y591000D01*
D02*
G37*
G36*
X781514Y566500D02*
X778486D01*
X775561Y565716D01*
X772939Y564202D01*
X772673Y563937D01*
X771500Y564423D01*
Y566500D01*
X748500D01*
Y543500D01*
X771500D01*
Y545577D01*
X772673Y546063D01*
X772939Y545798D01*
X775561Y544284D01*
X778486Y543500D01*
X781514D01*
X784439Y544284D01*
X787061Y545798D01*
X789202Y547939D01*
X790716Y550561D01*
X791500Y553486D01*
Y556514D01*
X790716Y559439D01*
X789202Y562061D01*
X787061Y564202D01*
X784439Y565716D01*
X781514Y566500D01*
D02*
G37*
G36*
X516316Y570000D02*
X513684D01*
X511140Y569319D01*
X508860Y568002D01*
X506998Y566140D01*
X505681Y563860D01*
X505000Y561316D01*
Y558684D01*
X505681Y556140D01*
X506998Y553860D01*
X508860Y551998D01*
X511140Y550681D01*
X513684Y550000D01*
X516316D01*
X518860Y550681D01*
X521140Y551998D01*
X523002Y553860D01*
X524319Y556140D01*
X525000Y558684D01*
Y561316D01*
X524319Y563860D01*
X523002Y566140D01*
X521140Y568002D01*
X518860Y569319D01*
X516316Y570000D01*
D02*
G37*
G36*
X296500Y551500D02*
X273500D01*
Y549423D01*
X272327Y548937D01*
X272061Y549202D01*
X269439Y550716D01*
X266514Y551500D01*
X263486D01*
X260561Y550716D01*
X257939Y549202D01*
X255798Y547061D01*
X254284Y544439D01*
X253500Y541514D01*
Y538486D01*
X254284Y535561D01*
X255798Y532939D01*
X257939Y530798D01*
X260561Y529284D01*
X263486Y528500D01*
X266514D01*
X269439Y529284D01*
X272061Y530798D01*
X272327Y531063D01*
X273500Y530577D01*
Y528500D01*
X296500D01*
Y551500D01*
D02*
G37*
G36*
X136625Y560936D02*
X133375D01*
X130187Y560302D01*
X127184Y559058D01*
X124482Y557252D01*
X122184Y554954D01*
X120378Y552252D01*
X119134Y549249D01*
X118500Y546061D01*
Y542811D01*
X119134Y539623D01*
X120378Y536620D01*
X122184Y533918D01*
X124482Y531620D01*
X127184Y529814D01*
X130187Y528570D01*
X133375Y527936D01*
X136625D01*
X139813Y528570D01*
X142816Y529814D01*
X145518Y531620D01*
X147816Y533918D01*
X149622Y536620D01*
X150866Y539623D01*
X151500Y542811D01*
Y546061D01*
X150866Y549249D01*
X149622Y552252D01*
X147816Y554954D01*
X145518Y557252D01*
X142816Y559058D01*
X139813Y560302D01*
X136625Y560936D01*
D02*
G37*
G36*
X636448Y541000D02*
X633552D01*
X630754Y540250D01*
X628246Y538802D01*
X626198Y536754D01*
X624750Y534246D01*
X624000Y531448D01*
Y528552D01*
X624750Y525754D01*
X626198Y523246D01*
X628246Y521198D01*
X630754Y519750D01*
X633552Y519000D01*
X636448D01*
X639246Y519750D01*
X641754Y521198D01*
X643802Y523246D01*
X645250Y525754D01*
X646000Y528552D01*
Y531448D01*
X645250Y534246D01*
X643802Y536754D01*
X641754Y538802D01*
X639246Y540250D01*
X636448Y541000D01*
D02*
G37*
G36*
X786317Y525000D02*
X783683D01*
X781140Y524319D01*
X778860Y523002D01*
X776998Y521140D01*
X775682Y518860D01*
X775000Y516316D01*
Y513684D01*
X775682Y511140D01*
X776998Y508860D01*
X778860Y506998D01*
X781140Y505681D01*
X783683Y505000D01*
X786317D01*
X788860Y505681D01*
X791140Y506998D01*
X793002Y508860D01*
X794318Y511140D01*
X795000Y513684D01*
Y516316D01*
X794318Y518860D01*
X793002Y521140D01*
X791140Y523002D01*
X788860Y524319D01*
X786317Y525000D01*
D02*
G37*
G36*
X701317D02*
X698683D01*
X696140Y524319D01*
X693860Y523002D01*
X691998Y521140D01*
X690682Y518860D01*
X690000Y516316D01*
Y513684D01*
X690682Y511140D01*
X691998Y508860D01*
X693860Y506998D01*
X696140Y505681D01*
X698683Y505000D01*
X701317D01*
X703860Y505681D01*
X706140Y506998D01*
X708002Y508860D01*
X709318Y511140D01*
X710000Y513684D01*
Y516316D01*
X709318Y518860D01*
X708002Y521140D01*
X706140Y523002D01*
X703860Y524319D01*
X701317Y525000D01*
D02*
G37*
G36*
X751317Y515000D02*
X748683D01*
X746140Y514319D01*
X743860Y513002D01*
X741998Y511140D01*
X740682Y508860D01*
X740000Y506316D01*
Y503684D01*
X740682Y501140D01*
X741998Y498860D01*
X743860Y496998D01*
X746140Y495681D01*
X748683Y495000D01*
X751317D01*
X753860Y495681D01*
X756140Y496998D01*
X758002Y498860D01*
X759318Y501140D01*
X760000Y503684D01*
Y506316D01*
X759318Y508860D01*
X758002Y511140D01*
X756140Y513002D01*
X753860Y514319D01*
X751317Y515000D01*
D02*
G37*
G36*
X136625Y521312D02*
X133375D01*
X130187Y520678D01*
X127184Y519434D01*
X124482Y517628D01*
X122184Y515330D01*
X120378Y512628D01*
X119134Y509625D01*
X118500Y506437D01*
Y503187D01*
X119134Y499999D01*
X120378Y496996D01*
X122184Y494294D01*
X124482Y491996D01*
X127184Y490190D01*
X130187Y488946D01*
X133375Y488312D01*
X136625D01*
X139813Y488946D01*
X142816Y490190D01*
X145518Y491996D01*
X147816Y494294D01*
X149622Y496996D01*
X150866Y499999D01*
X151500Y503187D01*
Y506437D01*
X150866Y509625D01*
X149622Y512628D01*
X147816Y515330D01*
X145518Y517628D01*
X142816Y519434D01*
X139813Y520678D01*
X136625Y521312D01*
D02*
G37*
G36*
X821317Y485000D02*
X818683D01*
X816140Y484319D01*
X813860Y483002D01*
X811998Y481140D01*
X810682Y478860D01*
X810000Y476316D01*
Y473684D01*
X810682Y471140D01*
X811998Y468860D01*
X813860Y466998D01*
X816140Y465681D01*
X818683Y465000D01*
X821317D01*
X823860Y465681D01*
X826140Y466998D01*
X828002Y468860D01*
X829318Y471140D01*
X830000Y473684D01*
Y476316D01*
X829318Y478860D01*
X828002Y481140D01*
X826140Y483002D01*
X823860Y484319D01*
X821317Y485000D01*
D02*
G37*
G36*
X786547Y471750D02*
X783453D01*
X780465Y470949D01*
X777785Y469402D01*
X775598Y467215D01*
X774051Y464535D01*
X773250Y461547D01*
Y458453D01*
X774051Y455465D01*
X775598Y452785D01*
X777785Y450598D01*
X780465Y449051D01*
X783453Y448250D01*
X786547D01*
X789535Y449051D01*
X792215Y450598D01*
X794402Y452785D01*
X795949Y455465D01*
X796750Y458453D01*
Y461547D01*
X795949Y464535D01*
X794402Y467215D01*
X792215Y469402D01*
X789535Y470949D01*
X786547Y471750D01*
D02*
G37*
G36*
X706750D02*
X683250D01*
Y448250D01*
X706750D01*
Y471750D01*
D02*
G37*
G36*
X132460Y439604D02*
X120960D01*
Y428104D01*
X132460D01*
Y439604D01*
D02*
G37*
G36*
X454400Y503700D02*
X429400D01*
Y478700D01*
X436840D01*
X437075Y477448D01*
X434225Y475802D01*
X431898Y473475D01*
X430252Y470625D01*
X429400Y467446D01*
Y464154D01*
X430252Y460975D01*
X431898Y458125D01*
X434225Y455798D01*
X437075Y454152D01*
X438547Y453757D01*
Y452443D01*
X437075Y452048D01*
X434225Y450402D01*
X431898Y448075D01*
X430252Y445225D01*
X429400Y442046D01*
Y438754D01*
X430252Y435575D01*
X431898Y432725D01*
X434225Y430397D01*
X437075Y428752D01*
X440254Y427900D01*
X443546D01*
X446725Y428752D01*
X449575Y430397D01*
X451903Y432725D01*
X453548Y435575D01*
X454400Y438754D01*
Y442046D01*
X453548Y445225D01*
X451903Y448075D01*
X449575Y450402D01*
X446725Y452048D01*
X445253Y452443D01*
Y453757D01*
X446725Y454152D01*
X449575Y455798D01*
X451903Y458125D01*
X453548Y460975D01*
X454400Y464154D01*
Y467446D01*
X453548Y470625D01*
X451903Y473475D01*
X449575Y475802D01*
X446725Y477448D01*
X446960Y478700D01*
X454400D01*
Y503700D01*
D02*
G37*
G36*
X293948Y446000D02*
X291052D01*
X288254Y445250D01*
X285746Y443802D01*
X283698Y441754D01*
X282250Y439246D01*
X281500Y436448D01*
Y433552D01*
X282250Y430754D01*
X283698Y428246D01*
X285746Y426198D01*
X288254Y424750D01*
X291052Y424000D01*
X293948D01*
X296746Y424750D01*
X299254Y426198D01*
X301302Y428246D01*
X302750Y430754D01*
X303500Y433552D01*
Y436448D01*
X302750Y439246D01*
X301302Y441754D01*
X299254Y443802D01*
X296746Y445250D01*
X293948Y446000D01*
D02*
G37*
G36*
X278500D02*
X256500D01*
Y424000D01*
X278500D01*
Y446000D01*
D02*
G37*
G36*
X720977Y951075D02*
X718023D01*
X715125Y950499D01*
X712395Y949368D01*
X709938Y947726D01*
X707849Y945637D01*
X706207Y943180D01*
X705077Y940450D01*
X704500Y937552D01*
Y934598D01*
X705077Y931700D01*
X706207Y928970D01*
X707849Y926513D01*
X709938Y924424D01*
X712395Y922782D01*
X715125Y921651D01*
X718023Y921075D01*
X718491D01*
X718977Y919902D01*
X713933Y914858D01*
X670125D01*
X668323Y914621D01*
X666643Y913925D01*
X665201Y912818D01*
X627610Y875228D01*
X626503Y873785D01*
X625808Y872106D01*
X625570Y870303D01*
Y698271D01*
X625808Y696468D01*
X626503Y694789D01*
X627610Y693346D01*
X629940Y691016D01*
Y638811D01*
X528093Y536965D01*
X467232D01*
X465429Y536727D01*
X463750Y536031D01*
X462307Y534925D01*
X460075Y532693D01*
X458969Y531250D01*
X458273Y529571D01*
X458035Y527768D01*
Y507007D01*
X458273Y505205D01*
X458969Y503525D01*
X459340Y503040D01*
Y421965D01*
X449134D01*
X448065Y423034D01*
X445775Y424356D01*
X444440Y424714D01*
Y415000D01*
Y405286D01*
X445775Y405644D01*
X448065Y406966D01*
X449134Y408035D01*
X478035D01*
Y307232D01*
X478273Y305429D01*
X478969Y303750D01*
X480075Y302307D01*
X482307Y300075D01*
X483750Y298969D01*
X485429Y298273D01*
X487232Y298035D01*
X530978D01*
X532781Y298273D01*
X534461Y298969D01*
X535903Y300075D01*
X599539Y363711D01*
X600646Y365154D01*
X601341Y366833D01*
X601579Y368636D01*
Y376729D01*
X625559Y400710D01*
X634290D01*
Y407460D01*
X625000D01*
Y410000D01*
X622460D01*
Y419290D01*
X615710D01*
Y410559D01*
X589689Y384539D01*
X588583Y383097D01*
X587887Y381417D01*
X587650Y379614D01*
Y371521D01*
X528093Y311965D01*
X491965D01*
Y412768D01*
X491727Y414571D01*
X491031Y416250D01*
X489925Y417693D01*
X487693Y419925D01*
X486250Y421031D01*
X484571Y421727D01*
X482768Y421965D01*
X473270D01*
Y505702D01*
X473032Y507505D01*
X472337Y509185D01*
X471965Y509669D01*
Y523035D01*
X530978D01*
X532781Y523273D01*
X534461Y523969D01*
X535903Y525075D01*
X641830Y631002D01*
X642936Y632444D01*
X643632Y634124D01*
X643870Y635927D01*
Y693901D01*
X643632Y695704D01*
X642936Y697383D01*
X641830Y698826D01*
X639500Y701156D01*
Y867418D01*
X673010Y900929D01*
X716818D01*
X718621Y901166D01*
X720301Y901862D01*
X721743Y902969D01*
X742460Y923686D01*
Y936075D01*
Y948377D01*
X740160Y947760D01*
X737300Y946109D01*
X734966Y943775D01*
X734275Y942579D01*
X733008Y942662D01*
X732793Y943180D01*
X731151Y945637D01*
X729062Y947726D01*
X726605Y949368D01*
X723875Y950499D01*
X720977Y951075D01*
D02*
G37*
G36*
X634290Y419290D02*
X627540D01*
Y412540D01*
X634290D01*
Y419290D01*
D02*
G37*
G36*
X132460Y423024D02*
X120960D01*
Y411524D01*
X132460D01*
Y423024D01*
D02*
G37*
G36*
X306900Y391500D02*
X283900D01*
Y368500D01*
X306900D01*
Y391500D01*
D02*
G37*
G36*
X271514D02*
X268486D01*
X265561Y390716D01*
X262939Y389202D01*
X260798Y387061D01*
X259284Y384439D01*
X258500Y381514D01*
Y378486D01*
X259284Y375561D01*
X260798Y372939D01*
X262939Y370798D01*
X265561Y369284D01*
X268486Y368500D01*
X271514D01*
X274439Y369284D01*
X277061Y370798D01*
X279202Y372939D01*
X280716Y375561D01*
X281500Y378486D01*
Y381514D01*
X280716Y384439D01*
X279202Y387061D01*
X277061Y389202D01*
X274439Y390716D01*
X271514Y391500D01*
D02*
G37*
G36*
X561316Y375000D02*
X558684D01*
X556140Y374319D01*
X553860Y373002D01*
X551998Y371140D01*
X550681Y368860D01*
X550000Y366316D01*
Y363684D01*
X550681Y361140D01*
X551998Y358860D01*
X553860Y356998D01*
X556140Y355681D01*
X558684Y355000D01*
X561316D01*
X563860Y355681D01*
X566140Y356998D01*
X568002Y358860D01*
X569319Y361140D01*
X570000Y363684D01*
Y366316D01*
X569319Y368860D01*
X568002Y371140D01*
X566140Y373002D01*
X563860Y374319D01*
X561316Y375000D01*
D02*
G37*
G36*
X443546Y402100D02*
X440254D01*
X437075Y401248D01*
X434225Y399603D01*
X431898Y397275D01*
X430252Y394425D01*
X429400Y391246D01*
Y387954D01*
X430252Y384775D01*
X431898Y381925D01*
X434225Y379598D01*
X437075Y377952D01*
X438547Y377557D01*
Y376243D01*
X437075Y375848D01*
X434225Y374202D01*
X431898Y371875D01*
X430252Y369025D01*
X429400Y365846D01*
Y362554D01*
X430252Y359375D01*
X431898Y356525D01*
X434225Y354198D01*
X437075Y352552D01*
X438547Y352157D01*
Y350843D01*
X437075Y350448D01*
X434225Y348802D01*
X431898Y346475D01*
X430252Y343625D01*
X429400Y340446D01*
Y337154D01*
X430252Y333975D01*
X431898Y331125D01*
X434225Y328797D01*
X437075Y327152D01*
X440254Y326300D01*
X443546D01*
X446725Y327152D01*
X449575Y328797D01*
X451903Y331125D01*
X453548Y333975D01*
X454400Y337154D01*
Y340446D01*
X453548Y343625D01*
X451903Y346475D01*
X449575Y348802D01*
X446725Y350448D01*
X445253Y350843D01*
Y352157D01*
X446725Y352552D01*
X449575Y354198D01*
X451903Y356525D01*
X453548Y359375D01*
X454400Y362554D01*
Y365846D01*
X453548Y369025D01*
X451903Y371875D01*
X449575Y374202D01*
X446725Y375848D01*
X445253Y376243D01*
Y377557D01*
X446725Y377952D01*
X449575Y379598D01*
X451903Y381925D01*
X453548Y384775D01*
X454400Y387954D01*
Y391246D01*
X453548Y394425D01*
X451903Y397275D01*
X449575Y399603D01*
X446725Y401248D01*
X443546Y402100D01*
D02*
G37*
G36*
X306900Y336500D02*
X283900D01*
Y313500D01*
X306900D01*
Y336500D01*
D02*
G37*
G36*
X271514D02*
X268486D01*
X265561Y335716D01*
X262939Y334202D01*
X260798Y332061D01*
X259284Y329439D01*
X258500Y326514D01*
Y323486D01*
X259284Y320561D01*
X260798Y317939D01*
X262939Y315798D01*
X265561Y314284D01*
X268486Y313500D01*
X271514D01*
X274439Y314284D01*
X277061Y315798D01*
X279202Y317939D01*
X280716Y320561D01*
X281500Y323486D01*
Y326514D01*
X280716Y329439D01*
X279202Y332061D01*
X277061Y334202D01*
X274439Y335716D01*
X271514Y336500D01*
D02*
G37*
G36*
X711317Y330000D02*
X708683D01*
X706140Y329319D01*
X703860Y328002D01*
X701998Y326140D01*
X700682Y323860D01*
X700000Y321316D01*
Y318683D01*
X700682Y316140D01*
X701998Y313860D01*
X703860Y311998D01*
X706140Y310681D01*
X708683Y310000D01*
X711317D01*
X713860Y310681D01*
X716140Y311998D01*
X718002Y313860D01*
X719318Y316140D01*
X720000Y318683D01*
Y321316D01*
X719318Y323860D01*
X718002Y326140D01*
X716140Y328002D01*
X713860Y329319D01*
X711317Y330000D01*
D02*
G37*
G36*
X626547Y331750D02*
X623453D01*
X620465Y330949D01*
X617785Y329402D01*
X615598Y327215D01*
X614051Y324535D01*
X613250Y321547D01*
Y318453D01*
X614051Y315465D01*
X615598Y312785D01*
X617785Y310598D01*
X620465Y309051D01*
X623453Y308250D01*
X626547D01*
X629535Y309051D01*
X632215Y310598D01*
X634402Y312785D01*
X635949Y315465D01*
X636750Y318453D01*
Y321547D01*
X635949Y324535D01*
X634402Y327215D01*
X632215Y329402D01*
X629535Y330949D01*
X626547Y331750D01*
D02*
G37*
G36*
X596316Y325000D02*
X593684D01*
X591140Y324319D01*
X588860Y323002D01*
X586998Y321140D01*
X585681Y318860D01*
X585000Y316317D01*
Y313683D01*
X585681Y311140D01*
X586998Y308860D01*
X588860Y306998D01*
X591140Y305681D01*
X593684Y305000D01*
X596316D01*
X598860Y305681D01*
X601140Y306998D01*
X603002Y308860D01*
X604319Y311140D01*
X605000Y313683D01*
Y316317D01*
X604319Y318860D01*
X603002Y321140D01*
X601140Y323002D01*
X598860Y324319D01*
X596316Y325000D01*
D02*
G37*
G36*
X779547Y321750D02*
X776453D01*
X773465Y320949D01*
X770785Y319402D01*
X768598Y317215D01*
X767051Y314535D01*
X766250Y311547D01*
Y308453D01*
X767051Y305465D01*
X768598Y302785D01*
X770785Y300598D01*
X773465Y299051D01*
X776453Y298250D01*
X779547D01*
X782535Y299051D01*
X785215Y300598D01*
X787402Y302785D01*
X788949Y305465D01*
X789750Y308453D01*
Y311547D01*
X788949Y314535D01*
X787402Y317215D01*
X785215Y319402D01*
X782535Y320949D01*
X779547Y321750D01*
D02*
G37*
G36*
X311500Y276500D02*
X288500D01*
Y253500D01*
X311500D01*
Y276500D01*
D02*
G37*
G36*
X276114D02*
X273086D01*
X270161Y275716D01*
X267539Y274202D01*
X265398Y272061D01*
X263884Y269439D01*
X263100Y266514D01*
Y263486D01*
X263884Y260561D01*
X265398Y257939D01*
X267539Y255798D01*
X270161Y254284D01*
X273086Y253500D01*
X276114D01*
X279039Y254284D01*
X281661Y255798D01*
X283802Y257939D01*
X285316Y260561D01*
X286100Y263486D01*
Y266514D01*
X285316Y269439D01*
X283802Y272061D01*
X281661Y274202D01*
X279039Y275716D01*
X276114Y276500D01*
D02*
G37*
G36*
X751317Y270000D02*
X748683D01*
X746140Y269319D01*
X743860Y268002D01*
X741998Y266140D01*
X740682Y263860D01*
X740000Y261317D01*
Y258683D01*
X740682Y256140D01*
X741998Y253860D01*
X743860Y251998D01*
X746140Y250681D01*
X748683Y250000D01*
X751317D01*
X753860Y250681D01*
X756140Y251998D01*
X758002Y253860D01*
X759318Y256140D01*
X760000Y258683D01*
Y261317D01*
X759318Y263860D01*
X758002Y266140D01*
X756140Y268002D01*
X753860Y269319D01*
X751317Y270000D01*
D02*
G37*
G36*
X541547Y236750D02*
X538453D01*
X535465Y235949D01*
X532785Y234402D01*
X530598Y232215D01*
X529051Y229535D01*
X528250Y226547D01*
Y223453D01*
X529051Y220465D01*
X530598Y217785D01*
X532785Y215598D01*
X535465Y214051D01*
X538453Y213250D01*
X541547D01*
X544535Y214051D01*
X547215Y215598D01*
X549402Y217785D01*
X550949Y220465D01*
X551750Y223453D01*
Y226547D01*
X550949Y229535D01*
X549402Y232215D01*
X547215Y234402D01*
X544535Y235949D01*
X541547Y236750D01*
D02*
G37*
G36*
X761547Y231750D02*
X758453D01*
X755465Y230949D01*
X752785Y229402D01*
X750598Y227215D01*
X749051Y224535D01*
X748250Y221547D01*
Y218453D01*
X749051Y215465D01*
X750598Y212785D01*
X752785Y210598D01*
X755465Y209051D01*
X758453Y208250D01*
X761547D01*
X764535Y209051D01*
X767215Y210598D01*
X769402Y212785D01*
X770949Y215465D01*
X771750Y218453D01*
Y221547D01*
X770949Y224535D01*
X769402Y227215D01*
X767215Y229402D01*
X764535Y230949D01*
X761547Y231750D01*
D02*
G37*
G36*
X686547D02*
X683453D01*
X680465Y230949D01*
X677785Y229402D01*
X675598Y227215D01*
X674051Y224535D01*
X673250Y221547D01*
Y218453D01*
X674051Y215465D01*
X675598Y212785D01*
X677785Y210598D01*
X680465Y209051D01*
X683453Y208250D01*
X686547D01*
X689535Y209051D01*
X692215Y210598D01*
X694402Y212785D01*
X695949Y215465D01*
X696750Y218453D01*
Y221547D01*
X695949Y224535D01*
X694402Y227215D01*
X692215Y229402D01*
X689535Y230949D01*
X686547Y231750D01*
D02*
G37*
G36*
X466547D02*
X463453D01*
X460465Y230949D01*
X457785Y229402D01*
X455598Y227215D01*
X454051Y224535D01*
X453250Y221547D01*
Y218453D01*
X454051Y215465D01*
X455598Y212785D01*
X457785Y210598D01*
X460465Y209051D01*
X463453Y208250D01*
X466547D01*
X469535Y209051D01*
X472215Y210598D01*
X474402Y212785D01*
X475949Y215465D01*
X476750Y218453D01*
Y221547D01*
X475949Y224535D01*
X474402Y227215D01*
X472215Y229402D01*
X469535Y230949D01*
X466547Y231750D01*
D02*
G37*
G36*
X386547D02*
X383453D01*
X380465Y230949D01*
X377785Y229402D01*
X375598Y227215D01*
X374051Y224535D01*
X373250Y221547D01*
Y218453D01*
X374051Y215465D01*
X375598Y212785D01*
X377785Y210598D01*
X380465Y209051D01*
X383453Y208250D01*
X386547D01*
X389535Y209051D01*
X392215Y210598D01*
X394402Y212785D01*
X395949Y215465D01*
X396750Y218453D01*
Y221547D01*
X395949Y224535D01*
X394402Y227215D01*
X392215Y229402D01*
X389535Y230949D01*
X386547Y231750D01*
D02*
G37*
G36*
X303948Y206000D02*
X301052D01*
X298254Y205250D01*
X295746Y203802D01*
X293698Y201754D01*
X292250Y199246D01*
X291500Y196448D01*
Y193552D01*
X292250Y190754D01*
X293698Y188246D01*
X295746Y186198D01*
X298254Y184750D01*
X301052Y184000D01*
X303948D01*
X306746Y184750D01*
X309254Y186198D01*
X311302Y188246D01*
X312750Y190754D01*
X313500Y193552D01*
Y196448D01*
X312750Y199246D01*
X311302Y201754D01*
X309254Y203802D01*
X306746Y205250D01*
X303948Y206000D01*
D02*
G37*
G36*
X288500D02*
X266500D01*
Y184000D01*
X288500D01*
Y206000D01*
D02*
G37*
%LPD*%
G36*
X593222Y444184D02*
X593035Y442768D01*
Y432885D01*
X582115Y421965D01*
X570866D01*
X570380Y423138D01*
X592062Y444820D01*
X593222Y444184D01*
D02*
G37*
D18*
X380000Y490000D02*
D03*
D19*
Y470000D02*
D03*
D34*
X745000Y936075D02*
D03*
X750000Y825000D02*
D03*
D42*
X651345Y800367D02*
X743478Y892500D01*
X530978Y530000D02*
X636905Y635927D01*
X651345Y706062D02*
Y800367D01*
X467232Y530000D02*
X530978D01*
X698655Y658752D02*
Y761106D01*
X636905Y635927D02*
Y693901D01*
X651345Y706062D02*
X698655Y658752D01*
X632535Y870303D02*
X670125Y907893D01*
X698655Y631248D02*
Y658752D01*
X632535Y698271D02*
X636905Y693901D01*
X632535Y698271D02*
Y870303D01*
X487232Y305000D02*
X530978D01*
X594614Y379614D02*
X625000Y410000D01*
X594614Y368636D02*
Y379614D01*
X530978Y305000D02*
X594614Y368636D01*
X670125Y907893D02*
X716818D01*
X743478Y892500D02*
X802500D01*
X716818Y907893D02*
X745000Y936075D01*
X698655Y761106D02*
X750000Y812451D01*
X698095Y630688D02*
X698655Y631248D01*
X528209Y415000D02*
X552393D01*
X698095Y560702D02*
Y630688D01*
X518100Y415000D02*
X528209D01*
X552393D02*
X698095Y560702D01*
X233764Y563405D02*
X313405D01*
X160359Y490000D02*
X233764Y563405D01*
X313405D02*
X320000Y570000D01*
Y703453D01*
X476446Y859899D01*
X529899D01*
X650000Y980000D01*
X795000D01*
X820000Y955000D01*
Y910000D02*
Y955000D01*
X802500Y892500D02*
X820000Y910000D01*
X465000Y507007D02*
X466305Y505702D01*
X485000Y307232D02*
Y412768D01*
X466305Y416305D02*
Y505702D01*
X465000Y415000D02*
X466305Y416305D01*
X482768Y415000D02*
X485000Y412768D01*
X441900Y415000D02*
X465000D01*
X410896Y436891D02*
X431791Y415995D01*
X465000Y415000D02*
X482768D01*
X465000Y527768D02*
X467232Y530000D01*
X465000Y507007D02*
Y527768D01*
X485000Y307232D02*
X487232Y305000D01*
X390000Y470000D02*
X410896Y449104D01*
X431791Y415995D02*
X440905D01*
X441900Y415000D01*
X410896Y436891D02*
Y449104D01*
X367785Y470000D02*
X380000D01*
X390000D01*
X135547Y465188D02*
X160359Y490000D01*
X135000Y465188D02*
X135547D01*
X160359Y490000D02*
X380000D01*
X552393Y415000D02*
X585000D01*
X615000Y225000D02*
X670000Y280000D01*
X602232Y445000D02*
X667768D01*
X670000Y280000D02*
Y442768D01*
X667768Y445000D02*
X670000Y442768D01*
X600000D02*
X602232Y445000D01*
X600000Y430000D02*
Y442768D01*
X585000Y415000D02*
X600000Y430000D01*
X750000Y812451D02*
Y825000D01*
X135000Y425564D02*
X222157D01*
X254498Y457905D01*
X355690D02*
X367785Y470000D01*
X254498Y457905D02*
X355690D01*
D46*
X518100Y415000D02*
D03*
X441900D02*
D03*
D50*
X625000Y410000D02*
D03*
X615000Y225000D02*
D03*
D52*
X135000Y425564D02*
D03*
D53*
Y465188D02*
D03*
M02*
