G04*
G04 #@! TF.GenerationSoftware,Altium Limited,Altium Designer,22.9.1 (49)*
G04*
G04 Layer_Color=16711935*
%FSLAX44Y44*%
%MOMM*%
G71*
G04*
G04 #@! TF.SameCoordinates,DBEF2CFB-25A5-4AA8-B732-6DF96BC3893C*
G04*
G04*
G04 #@! TF.FilePolarity,Positive*
G04*
G01*
G75*
%ADD12C,0.2000*%
%ADD57C,0.1000*%
D12*
X899000Y121000D02*
X921000D01*
X899000Y59000D02*
Y121000D01*
Y59000D02*
X921000D01*
Y121000D01*
X262000Y422500D02*
Y447500D01*
Y422500D02*
X298000D01*
Y447500D01*
X262000D02*
X298000D01*
X265000Y179000D02*
Y211000D01*
Y179000D02*
X315000D01*
Y211000D01*
X265000D02*
X315000D01*
X693000Y953000D02*
X797000D01*
X693000Y907000D02*
Y953000D01*
Y907000D02*
X797000D01*
Y953000D01*
X622500Y573000D02*
X647500D01*
X622500Y537000D02*
Y573000D01*
Y537000D02*
X647500D01*
Y573000D01*
X698000Y841925D02*
X802000D01*
X698000Y795925D02*
Y841925D01*
Y795925D02*
X802000D01*
Y841925D01*
X904000Y204000D02*
X926000D01*
Y266000D01*
X904000D02*
X926000D01*
X904000Y204000D02*
Y266000D01*
X841000Y34000D02*
Y56000D01*
X779000D02*
X841000D01*
X779000Y34000D02*
Y56000D01*
Y34000D02*
X841000D01*
X711000D02*
Y56000D01*
X649000D02*
X711000D01*
X649000Y34000D02*
Y56000D01*
Y34000D02*
X711000D01*
X581000D02*
Y56000D01*
X519000D02*
X581000D01*
X519000Y34000D02*
Y56000D01*
Y34000D02*
X581000D01*
X257000Y897500D02*
Y922500D01*
Y897500D02*
X293000D01*
Y922500D01*
X257000D02*
X293000D01*
X250000Y599000D02*
Y631000D01*
Y599000D02*
X300000D01*
Y631000D01*
X250000D02*
X300000D01*
D57*
X461000Y504500D02*
G03*
X461000Y504500I-5000J0D01*
G01*
X320000Y120000D02*
G03*
X320000Y120000I-25000J0D01*
G01*
X795000Y555000D02*
G03*
X795000Y555000I-25000J0D01*
G01*
X405000Y480000D02*
G03*
X405000Y480000I-25000J0D01*
G01*
X526000Y829500D02*
G03*
X526000Y829500I-5000J0D01*
G01*
X390000Y635000D02*
G03*
X390000Y635000I-25000J0D01*
G01*
X300000Y540000D02*
G03*
X300000Y540000I-25000J0D01*
G01*
X902300Y879600D02*
X927700D01*
Y930400D01*
X902300D02*
X927700D01*
X902300Y879600D02*
Y930400D01*
X447000Y316500D02*
X513000D01*
X447000Y513500D02*
X513000D01*
Y316500D02*
Y513500D01*
X447000Y316500D02*
Y513500D01*
X263650Y367300D02*
X301750D01*
X263650Y392700D02*
X301750D01*
Y367300D02*
Y392700D01*
X263650Y367300D02*
Y392700D01*
Y312300D02*
X301750D01*
X263650Y337700D02*
X301750D01*
Y312300D02*
Y337700D01*
X263650Y312300D02*
Y337700D01*
X195000Y187600D02*
Y190000D01*
X193000Y192000D02*
X195000Y190000D01*
X193000Y185600D02*
X195000Y187600D01*
X135000Y192000D02*
X193000D01*
X135000Y185600D02*
X193000D01*
X195000Y238400D02*
Y240800D01*
X193000Y242800D02*
X195000Y240800D01*
X193000Y236400D02*
X195000Y238400D01*
X135000Y242800D02*
X193000D01*
X135000Y236400D02*
X193000D01*
X109600Y150700D02*
X135000D01*
Y303100D01*
X109600D02*
X135000D01*
X109600Y150700D02*
Y303100D01*
X135000Y261800D02*
X193000D01*
X135000Y268200D02*
X193000D01*
Y261800D02*
X195000Y263800D01*
X193000Y268200D02*
X195000Y266200D01*
Y263800D02*
Y266200D01*
Y289200D02*
Y291600D01*
X193000Y293600D02*
X195000Y291600D01*
X193000Y287200D02*
X195000Y289200D01*
X135000Y293600D02*
X193000D01*
X135000Y287200D02*
X193000D01*
X135000Y211000D02*
X193000D01*
X135000Y217400D02*
X193000D01*
Y211000D02*
X195000Y213000D01*
X193000Y217400D02*
X195000Y215400D01*
Y213000D02*
Y215400D01*
X135000Y160200D02*
X193000D01*
X135000Y166600D02*
X193000D01*
Y160200D02*
X195000Y162200D01*
X193000Y166600D02*
X195000Y164600D01*
Y162200D02*
Y164600D01*
X261900Y249100D02*
X312700D01*
X261900D02*
Y280900D01*
X312700Y249100D02*
Y280900D01*
X261900D02*
X312700D01*
X902300Y756900D02*
X927700D01*
Y807700D01*
X902300D02*
X927700D01*
X902300Y756900D02*
Y807700D01*
X778000Y658500D02*
X802000D01*
X778000D02*
Y721500D01*
X802000Y658500D02*
Y721500D01*
X778000D02*
X802000D01*
X897300Y609600D02*
X922700D01*
Y660400D01*
X897300D02*
X922700D01*
X897300Y609600D02*
Y660400D01*
X849520Y534058D02*
X925720D01*
Y375566D02*
Y534058D01*
X849520Y375562D02*
X925720D01*
X849520D02*
Y534053D01*
X748000Y143500D02*
X772000D01*
X748000D02*
Y206500D01*
X772000Y143500D02*
Y206500D01*
X748000D02*
X772000D01*
X373000Y143500D02*
X397000D01*
X373000D02*
Y206500D01*
X397000Y143500D02*
Y206500D01*
X373000D02*
X397000D01*
X663000Y658500D02*
X687000D01*
X663000D02*
Y721500D01*
X687000Y658500D02*
Y721500D01*
X663000D02*
X687000D01*
X708500Y448000D02*
Y472000D01*
X771500D01*
X708500Y448000D02*
X771500D01*
Y472000D01*
X791125Y318825D02*
X828875D01*
X791125Y301175D02*
Y318825D01*
Y301175D02*
X828875D01*
Y318825D01*
X613000Y396500D02*
X637000D01*
Y333500D02*
Y396500D01*
X613000Y333500D02*
Y396500D01*
Y333500D02*
X637000D01*
X848825Y161125D02*
Y198875D01*
X831175D02*
X848825D01*
X831175Y161125D02*
Y198875D01*
Y161125D02*
X848825D01*
X443100Y32300D02*
Y57700D01*
X392300D02*
X443100D01*
X392300Y32300D02*
Y57700D01*
Y32300D02*
X443100D01*
X603000Y211500D02*
X627000D01*
Y148500D02*
Y211500D01*
X603000Y148500D02*
Y211500D01*
Y148500D02*
X627000D01*
X256900Y32300D02*
Y57700D01*
Y32300D02*
X307700D01*
Y57700D01*
X256900D02*
X307700D01*
X528000Y148500D02*
X552000D01*
X528000D02*
Y211500D01*
X552000Y148500D02*
Y211500D01*
X528000D02*
X552000D01*
X255950Y837300D02*
X294050D01*
X255950Y862700D02*
X294050D01*
Y837300D02*
Y862700D01*
X255950Y837300D02*
Y862700D01*
X453000Y143500D02*
X477000D01*
X453000D02*
Y206500D01*
X477000Y143500D02*
Y206500D01*
X453000D02*
X477000D01*
X187700Y735700D02*
Y738100D01*
X185700Y740100D02*
X187700Y738100D01*
X185700Y733700D02*
X187700Y735700D01*
X127700Y740100D02*
X185700D01*
X127700Y733700D02*
X185700D01*
X187700Y786500D02*
Y788900D01*
X185700Y790900D02*
X187700Y788900D01*
X185700Y784500D02*
X187700Y786500D01*
X127700Y790900D02*
X185700D01*
X127700Y784500D02*
X185700D01*
X102300Y698800D02*
X127700D01*
Y851200D01*
X102300D02*
X127700D01*
X102300Y698800D02*
Y851200D01*
X127700Y809900D02*
X185700D01*
X127700Y816300D02*
X185700D01*
Y809900D02*
X187700Y811900D01*
X185700Y816300D02*
X187700Y814300D01*
Y811900D02*
Y814300D01*
Y837300D02*
Y839700D01*
X185700Y841700D02*
X187700Y839700D01*
X185700Y835300D02*
X187700Y837300D01*
X127700Y841700D02*
X185700D01*
X127700Y835300D02*
X185700D01*
X127700Y759100D02*
X185700D01*
X127700Y765500D02*
X185700D01*
Y759100D02*
X187700Y761100D01*
X185700Y765500D02*
X187700Y763500D01*
Y761100D02*
Y763500D01*
X127700Y708300D02*
X185700D01*
X127700Y714700D02*
X185700D01*
Y708300D02*
X187700Y710300D01*
X185700Y714700D02*
X187700Y712700D01*
Y710300D02*
Y712700D01*
X555400Y922300D02*
Y947700D01*
X504600D02*
X555400D01*
X504600Y922300D02*
Y947700D01*
Y922300D02*
X555400D01*
X512000Y641500D02*
X578000D01*
X512000Y838500D02*
X578000D01*
Y641500D02*
Y838500D01*
X512000Y641500D02*
Y838500D01*
X255950Y767300D02*
X294050D01*
X255950Y792700D02*
X294050D01*
Y767300D02*
Y792700D01*
X255950Y767300D02*
Y792700D01*
X673000Y143500D02*
X697000D01*
X673000D02*
Y206500D01*
X697000Y143500D02*
Y206500D01*
X673000D02*
X697000D01*
X249600Y679100D02*
X300400D01*
X249600D02*
Y710900D01*
X300400Y679100D02*
Y710900D01*
X249600D02*
X300400D01*
X89280Y405754D02*
X165480D01*
X89280D02*
Y564245D01*
X89280Y564250D02*
X165480D01*
Y405759D02*
Y564250D01*
X368000Y806500D02*
X392000D01*
Y743500D02*
Y806500D01*
X368000Y743500D02*
Y806500D01*
Y743500D02*
X392000D01*
X367300Y922300D02*
Y947700D01*
Y922300D02*
X418100D01*
Y947700D01*
X367300D02*
X418100D01*
M02*
