G04*
G04 #@! TF.GenerationSoftware,Altium Limited,Altium Designer,22.9.1 (49)*
G04*
G04 Layer_Physical_Order=2*
G04 Layer_Color=36540*
%FSLAX44Y44*%
%MOMM*%
G71*
G04*
G04 #@! TF.SameCoordinates,DBEF2CFB-25A5-4AA8-B732-6DF96BC3893C*
G04*
G04*
G04 #@! TF.FilePolarity,Positive*
G04*
G01*
G75*
%ADD18C,1.3000*%
%ADD24C,1.2000*%
%ADD39R,1.3000X1.3000*%
%ADD42C,0.3810*%
%ADD45C,1.6000*%
%ADD46C,1.5000*%
%ADD50R,1.3500X1.3500*%
%ADD53C,2.3000*%
G36*
X925000Y927744D02*
X923827Y927258D01*
X922982Y928103D01*
X920018Y929814D01*
X916712Y930700D01*
X913288D01*
X909982Y929814D01*
X907018Y928103D01*
X904597Y925682D01*
X902886Y922718D01*
X902000Y919411D01*
Y915988D01*
X902886Y912682D01*
X904597Y909718D01*
X907018Y907297D01*
X908278Y906570D01*
X907937Y905300D01*
X902000D01*
Y879300D01*
X925000D01*
Y805044D01*
X923827Y804558D01*
X922982Y805403D01*
X920018Y807114D01*
X916712Y808000D01*
X913288D01*
X909982Y807114D01*
X907018Y805403D01*
X904597Y802982D01*
X902886Y800018D01*
X902000Y796712D01*
Y793288D01*
X902886Y789982D01*
X904597Y787018D01*
X907018Y784597D01*
X908278Y783870D01*
X907937Y782600D01*
X902000D01*
Y756600D01*
X925000D01*
Y583660D01*
X923860Y583002D01*
X921998Y581140D01*
X920682Y578860D01*
X920000Y576316D01*
Y573684D01*
X920682Y571140D01*
X921998Y568860D01*
X923860Y566998D01*
X925000Y566340D01*
Y276965D01*
X921965D01*
Y347768D01*
X921727Y349571D01*
X921031Y351250D01*
X919925Y352693D01*
X917693Y354925D01*
X916250Y356031D01*
X914571Y356727D01*
X912768Y356965D01*
X650478D01*
X612917Y394525D01*
X611475Y395631D01*
X609795Y396327D01*
X607993Y396565D01*
X525334D01*
X524265Y397634D01*
X521975Y398956D01*
X520640Y399314D01*
Y389600D01*
Y379886D01*
X521975Y380244D01*
X524265Y381566D01*
X525334Y382635D01*
X605108D01*
X642668Y345075D01*
X644110Y343969D01*
X645790Y343273D01*
X647593Y343035D01*
X908035D01*
Y270000D01*
Y260820D01*
X907766Y260551D01*
X906576Y258489D01*
X906322Y257540D01*
X915000D01*
Y252460D01*
X906322D01*
X906576Y251511D01*
X907766Y249449D01*
X909449Y247766D01*
X910671Y247061D01*
X910577Y245916D01*
X910510Y245687D01*
X907939Y244202D01*
X905798Y242061D01*
X904284Y239439D01*
X903500Y236514D01*
Y233486D01*
X904284Y230561D01*
X905798Y227939D01*
X906063Y227673D01*
X905577Y226500D01*
X903500D01*
Y203500D01*
X925000D01*
Y94849D01*
X922572Y92421D01*
X921155Y92801D01*
X920716Y94439D01*
X919202Y97061D01*
X918937Y97327D01*
X919423Y98500D01*
X921500D01*
Y121500D01*
X898500D01*
Y98500D01*
X900577D01*
X901063Y97327D01*
X900798Y97061D01*
X899284Y94439D01*
X898500Y91514D01*
Y88486D01*
X899284Y85561D01*
X900798Y82939D01*
X902939Y80798D01*
X905510Y79313D01*
X905577Y79084D01*
X905671Y77939D01*
X904449Y77234D01*
X902766Y75551D01*
X901576Y73489D01*
X901322Y72540D01*
X910000D01*
Y70000D01*
X912540D01*
Y61322D01*
X913489Y61576D01*
X915551Y62766D01*
X917234Y64449D01*
X918424Y66511D01*
X919040Y68810D01*
Y69191D01*
X923827Y73977D01*
X925000Y73491D01*
Y45000D01*
X841500D01*
Y56500D01*
X818500D01*
Y54423D01*
X817327Y53937D01*
X817061Y54202D01*
X814439Y55716D01*
X811514Y56500D01*
X808486D01*
X805561Y55716D01*
X802939Y54202D01*
X800798Y52061D01*
X800635Y51779D01*
X799365D01*
X799202Y52061D01*
X797061Y54202D01*
X794439Y55716D01*
X791514Y56500D01*
X788486D01*
X785561Y55716D01*
X782939Y54202D01*
X780798Y52061D01*
X779284Y49439D01*
X778500Y46514D01*
Y45000D01*
X711500D01*
Y56500D01*
X688500D01*
Y54423D01*
X687327Y53937D01*
X687061Y54202D01*
X684439Y55716D01*
X681514Y56500D01*
X678486D01*
X675561Y55716D01*
X672939Y54202D01*
X670798Y52061D01*
X670635Y51779D01*
X669365D01*
X669202Y52061D01*
X667061Y54202D01*
X664439Y55716D01*
X661514Y56500D01*
X658486D01*
X655561Y55716D01*
X652939Y54202D01*
X650798Y52061D01*
X649284Y49439D01*
X648500Y46514D01*
Y45000D01*
X581500D01*
Y56500D01*
X558500D01*
Y54423D01*
X557327Y53937D01*
X557061Y54202D01*
X554439Y55716D01*
X551514Y56500D01*
X548486D01*
X545561Y55716D01*
X542939Y54202D01*
X540798Y52061D01*
X540635Y51779D01*
X539365D01*
X539202Y52061D01*
X537061Y54202D01*
X534439Y55716D01*
X531514Y56500D01*
X528486D01*
X525561Y55716D01*
X522939Y54202D01*
X520798Y52061D01*
X519284Y49439D01*
X518500Y46514D01*
Y45000D01*
X443400D01*
Y58000D01*
X417400D01*
Y52063D01*
X416130Y51722D01*
X415403Y52982D01*
X412982Y55403D01*
X410018Y57114D01*
X406712Y58000D01*
X403288D01*
X399982Y57114D01*
X397018Y55403D01*
X394597Y52982D01*
X392886Y50018D01*
X392000Y46712D01*
Y45000D01*
X308000D01*
Y46712D01*
X307114Y50018D01*
X305403Y52982D01*
X302982Y55403D01*
X300018Y57114D01*
X296712Y58000D01*
X293288D01*
X289982Y57114D01*
X287018Y55403D01*
X284597Y52982D01*
X283870Y51722D01*
X282600Y52063D01*
Y58000D01*
X256600D01*
Y45000D01*
X25000D01*
Y950000D01*
X711055D01*
X711440Y948730D01*
X709938Y947726D01*
X707849Y945637D01*
X706207Y943180D01*
X705077Y940450D01*
X704500Y937552D01*
Y934598D01*
X705077Y931700D01*
X706207Y928970D01*
X707849Y926513D01*
X709938Y924424D01*
X712395Y922782D01*
X715125Y921651D01*
X718023Y921075D01*
X720977D01*
X723875Y921651D01*
X726605Y922782D01*
X729062Y924424D01*
X731151Y926513D01*
X731615Y927207D01*
X732885D01*
X733349Y926513D01*
X735438Y924424D01*
X737895Y922782D01*
X740625Y921651D01*
X743523Y921075D01*
X746477D01*
X749375Y921651D01*
X752105Y922782D01*
X754230Y924202D01*
X755500Y923716D01*
Y921075D01*
X785500D01*
Y950000D01*
X925000D01*
Y927744D01*
D02*
G37*
%LPC*%
G36*
X555700Y948000D02*
X529700D01*
Y942063D01*
X528430Y941722D01*
X527703Y942982D01*
X525282Y945403D01*
X522318Y947114D01*
X519011Y948000D01*
X515588D01*
X512282Y947114D01*
X509318Y945403D01*
X506897Y942982D01*
X505186Y940018D01*
X504300Y936712D01*
Y933288D01*
X505186Y929982D01*
X506897Y927018D01*
X509318Y924597D01*
X512282Y922886D01*
X515588Y922000D01*
X519011D01*
X522318Y922886D01*
X525282Y924597D01*
X527703Y927018D01*
X528430Y928278D01*
X529700Y927937D01*
Y922000D01*
X555700D01*
Y948000D01*
D02*
G37*
G36*
X407940Y945231D02*
Y937540D01*
X415631D01*
X415222Y939068D01*
X413834Y941472D01*
X411872Y943434D01*
X409468Y944822D01*
X407940Y945231D01*
D02*
G37*
G36*
X402860D02*
X401332Y944822D01*
X398928Y943434D01*
X396966Y941472D01*
X395578Y939068D01*
X395169Y937540D01*
X402860D01*
Y945231D01*
D02*
G37*
G36*
X393000Y948000D02*
X367000D01*
Y922000D01*
X393000D01*
Y948000D01*
D02*
G37*
G36*
X415631Y932460D02*
X395169D01*
X395578Y930932D01*
X396966Y928528D01*
X398035Y927459D01*
Y916965D01*
X292517D01*
X290796Y917958D01*
X290040Y918161D01*
Y910000D01*
X287500D01*
Y907460D01*
X279339D01*
X279542Y906704D01*
X280535Y904983D01*
Y859040D01*
X278660D01*
Y852540D01*
X287700D01*
X296740D01*
Y859040D01*
X294465D01*
Y903035D01*
X402768D01*
X404571Y903273D01*
X406250Y903969D01*
X407693Y905075D01*
X409925Y907307D01*
X411031Y908750D01*
X411727Y910429D01*
X411965Y912232D01*
Y926659D01*
X413834Y928528D01*
X415222Y930932D01*
X415631Y932460D01*
D02*
G37*
G36*
X284960Y918161D02*
X284204Y917958D01*
X282256Y916834D01*
X280666Y915244D01*
X279542Y913296D01*
X279339Y912540D01*
X284960D01*
Y918161D01*
D02*
G37*
G36*
X273500Y921000D02*
X251500D01*
Y899000D01*
X273500D01*
Y921000D01*
D02*
G37*
G36*
X691317Y880000D02*
X688683D01*
X686140Y879318D01*
X683860Y878002D01*
X681998Y876140D01*
X680682Y873860D01*
X680000Y871317D01*
Y868683D01*
X680682Y866140D01*
X681998Y863860D01*
X683860Y861998D01*
X686140Y860682D01*
X688683Y860000D01*
X691317D01*
X693860Y860682D01*
X696140Y861998D01*
X698002Y863860D01*
X699318Y866140D01*
X700000Y868683D01*
Y871317D01*
X699318Y873860D01*
X698002Y876140D01*
X696140Y878002D01*
X693860Y879318D01*
X691317Y880000D01*
D02*
G37*
G36*
X606316Y875000D02*
X603684D01*
X601140Y874318D01*
X598860Y873002D01*
X596998Y871140D01*
X595681Y868860D01*
X595000Y866317D01*
Y863683D01*
X595681Y861140D01*
X596998Y858860D01*
X598860Y856998D01*
X601140Y855682D01*
X603684Y855000D01*
X606316D01*
X608860Y855682D01*
X611140Y856998D01*
X613002Y858860D01*
X614319Y861140D01*
X615000Y863683D01*
Y866317D01*
X614319Y868860D01*
X613002Y871140D01*
X611140Y873002D01*
X608860Y874318D01*
X606316Y875000D01*
D02*
G37*
G36*
X100950Y851750D02*
X74450D01*
Y846409D01*
X73223Y846080D01*
X72903Y846636D01*
X70436Y849103D01*
X67414Y850847D01*
X64044Y851750D01*
X60556D01*
X57186Y850847D01*
X54164Y849103D01*
X51697Y846636D01*
X49953Y843614D01*
X49050Y840244D01*
Y836756D01*
X49953Y833386D01*
X51697Y830364D01*
X54164Y827897D01*
X56527Y826533D01*
Y825067D01*
X54164Y823703D01*
X51697Y821236D01*
X49953Y818214D01*
X49050Y814844D01*
Y811356D01*
X49953Y807986D01*
X51697Y804964D01*
X54164Y802497D01*
X56527Y801133D01*
Y799667D01*
X54164Y798303D01*
X51697Y795836D01*
X49953Y792814D01*
X49050Y789444D01*
Y785956D01*
X49953Y782586D01*
X51697Y779564D01*
X54164Y777097D01*
X56527Y775733D01*
Y774267D01*
X54164Y772903D01*
X51697Y770436D01*
X49953Y767414D01*
X49050Y764044D01*
Y760556D01*
X49953Y757186D01*
X51697Y754164D01*
X54164Y751697D01*
X56527Y750333D01*
Y748867D01*
X54164Y747503D01*
X51697Y745036D01*
X49953Y742014D01*
X49050Y738644D01*
Y735156D01*
X49953Y731786D01*
X51697Y728764D01*
X54164Y726297D01*
X56527Y724933D01*
Y723467D01*
X54164Y722103D01*
X51697Y719636D01*
X49953Y716614D01*
X49050Y713244D01*
Y709756D01*
X49953Y706386D01*
X51697Y703364D01*
X54164Y700897D01*
X57186Y699153D01*
X60556Y698250D01*
X64044D01*
X67414Y699153D01*
X70436Y700897D01*
X72903Y703364D01*
X74267Y705727D01*
X75733D01*
X77097Y703364D01*
X79564Y700897D01*
X82586Y699153D01*
X85956Y698250D01*
X89444D01*
X92814Y699153D01*
X95836Y700897D01*
X98303Y703364D01*
X100047Y706386D01*
X100950Y709756D01*
Y713244D01*
X100047Y716614D01*
X98303Y719636D01*
X95836Y722103D01*
X93473Y723467D01*
Y724933D01*
X95836Y726297D01*
X98303Y728764D01*
X100047Y731786D01*
X100950Y735156D01*
Y738644D01*
X100047Y742014D01*
X98303Y745036D01*
X95836Y747503D01*
X93473Y748867D01*
Y750333D01*
X95836Y751697D01*
X98303Y754164D01*
X100047Y757186D01*
X100950Y760556D01*
Y764044D01*
X100047Y767414D01*
X98303Y770436D01*
X95836Y772903D01*
X93473Y774267D01*
Y775733D01*
X95836Y777097D01*
X98303Y779564D01*
X100047Y782586D01*
X100950Y785956D01*
Y789444D01*
X100047Y792814D01*
X98303Y795836D01*
X95836Y798303D01*
X93473Y799667D01*
Y801133D01*
X95836Y802497D01*
X98303Y804964D01*
X100047Y807986D01*
X100950Y811356D01*
Y814844D01*
X100047Y818214D01*
X98303Y821236D01*
X95836Y823703D01*
X95280Y824023D01*
X95609Y825250D01*
X100950D01*
Y851750D01*
D02*
G37*
G36*
X263814Y861500D02*
X260786D01*
X257861Y860716D01*
X255239Y859202D01*
X253098Y857061D01*
X251584Y854439D01*
X250800Y851514D01*
Y848486D01*
X251584Y845561D01*
X253098Y842939D01*
X255239Y840798D01*
X257861Y839284D01*
X260786Y838500D01*
X263814D01*
X266739Y839284D01*
X269361Y840798D01*
X271502Y842939D01*
X273016Y845561D01*
X273800Y848486D01*
Y851514D01*
X273016Y854439D01*
X271502Y857061D01*
X269361Y859202D01*
X266739Y860716D01*
X263814Y861500D01*
D02*
G37*
G36*
X790500Y840000D02*
X760500D01*
Y837359D01*
X759230Y836873D01*
X757105Y838293D01*
X754375Y839424D01*
X751477Y840000D01*
X748523D01*
X745625Y839424D01*
X742895Y838293D01*
X740438Y836651D01*
X738349Y834562D01*
X737885Y833868D01*
X736615D01*
X736151Y834562D01*
X734062Y836651D01*
X731605Y838293D01*
X728875Y839424D01*
X725977Y840000D01*
X723023D01*
X720125Y839424D01*
X717395Y838293D01*
X714938Y836651D01*
X712849Y834562D01*
X711207Y832105D01*
X710077Y829375D01*
X709500Y826477D01*
Y823523D01*
X710077Y820625D01*
X711207Y817895D01*
X712849Y815438D01*
X714938Y813349D01*
X717395Y811707D01*
X720125Y810576D01*
X723023Y810000D01*
X725977D01*
X728875Y810576D01*
X731605Y811707D01*
X734062Y813349D01*
X736151Y815438D01*
X736615Y816132D01*
X737885D01*
X738349Y815438D01*
X740438Y813349D01*
X742895Y811707D01*
X745625Y810576D01*
X748523Y810000D01*
X751477D01*
X754375Y810576D01*
X757105Y811707D01*
X759230Y813127D01*
X760500Y812641D01*
Y810000D01*
X790500D01*
Y840000D01*
D02*
G37*
G36*
X391750Y831750D02*
X368250D01*
Y808250D01*
X391750D01*
Y831750D01*
D02*
G37*
G36*
X296740Y847460D02*
X287700D01*
X278660D01*
Y840960D01*
X280735D01*
Y789040D01*
X278660D01*
Y782540D01*
X287700D01*
X296740D01*
Y789040D01*
X294665D01*
Y840960D01*
X296740D01*
Y847460D01*
D02*
G37*
G36*
X263814Y791500D02*
X260786D01*
X257861Y790716D01*
X255239Y789202D01*
X253098Y787061D01*
X251584Y784439D01*
X250800Y781514D01*
Y778486D01*
X251584Y775561D01*
X253098Y772939D01*
X255239Y770798D01*
X257861Y769284D01*
X260786Y768500D01*
X263814D01*
X266739Y769284D01*
X269361Y770798D01*
X271502Y772939D01*
X273016Y775561D01*
X273800Y778486D01*
Y781514D01*
X273016Y784439D01*
X271502Y787061D01*
X269361Y789202D01*
X266739Y790716D01*
X263814Y791500D01*
D02*
G37*
G36*
X560025Y788100D02*
X557392D01*
X554848Y787419D01*
X552568Y786102D01*
X550706Y784240D01*
X549390Y781960D01*
X548708Y779417D01*
Y776784D01*
X549390Y774240D01*
X550706Y771960D01*
X552568Y770098D01*
X554848Y768782D01*
X557392Y768100D01*
X560025D01*
X562568Y768782D01*
X564848Y770098D01*
X566710Y771960D01*
X568027Y774240D01*
X568708Y776784D01*
Y779417D01*
X568027Y781960D01*
X566710Y784240D01*
X564848Y786102D01*
X562568Y787419D01*
X560025Y788100D01*
D02*
G37*
G36*
X676317Y785000D02*
X673683D01*
X671140Y784318D01*
X668860Y783002D01*
X666998Y781140D01*
X665682Y778860D01*
X665000Y776317D01*
Y773683D01*
X665682Y771140D01*
X666998Y768860D01*
X668860Y766998D01*
X671140Y765682D01*
X673683Y765000D01*
X676317D01*
X678860Y765682D01*
X681140Y766998D01*
X683002Y768860D01*
X684318Y771140D01*
X685000Y773683D01*
Y776317D01*
X684318Y778860D01*
X683002Y781140D01*
X681140Y783002D01*
X678860Y784318D01*
X676317Y785000D01*
D02*
G37*
G36*
X519400Y828700D02*
X494400D01*
Y803700D01*
X501840D01*
X502075Y802448D01*
X499225Y800803D01*
X496898Y798475D01*
X495252Y795625D01*
X494400Y792446D01*
Y789154D01*
X495252Y785975D01*
X496898Y783125D01*
X499225Y780798D01*
X502075Y779152D01*
X503547Y778757D01*
Y777443D01*
X502075Y777048D01*
X499225Y775403D01*
X496898Y773075D01*
X495252Y770225D01*
X494400Y767046D01*
Y763754D01*
X495252Y760575D01*
X496898Y757725D01*
X499225Y755397D01*
X502075Y753752D01*
X503547Y753357D01*
Y752043D01*
X502075Y751648D01*
X499225Y750003D01*
X496898Y747675D01*
X495252Y744825D01*
X494400Y741646D01*
Y738354D01*
X495252Y735175D01*
X496898Y732325D01*
X499225Y729997D01*
X502075Y728352D01*
X505254Y727500D01*
X508546D01*
X511725Y728352D01*
X514575Y729997D01*
X516903Y732325D01*
X518548Y735175D01*
X519400Y738354D01*
Y741646D01*
X518548Y744825D01*
X516903Y747675D01*
X514575Y750003D01*
X511725Y751648D01*
X510253Y752043D01*
Y753357D01*
X511725Y753752D01*
X514575Y755397D01*
X516903Y757725D01*
X518548Y760575D01*
X519400Y763754D01*
Y767046D01*
X518548Y770225D01*
X516903Y773075D01*
X514575Y775403D01*
X511725Y777048D01*
X510253Y777443D01*
Y778757D01*
X511725Y779152D01*
X514575Y780798D01*
X516903Y783125D01*
X518548Y785975D01*
X519400Y789154D01*
Y792446D01*
X518548Y795625D01*
X516903Y798475D01*
X514575Y800803D01*
X511725Y802448D01*
X511960Y803700D01*
X519400D01*
Y828700D01*
D02*
G37*
G36*
X846317Y745000D02*
X843683D01*
X841140Y744318D01*
X838860Y743002D01*
X836998Y741140D01*
X835682Y738860D01*
X835000Y736317D01*
Y733683D01*
X835682Y731140D01*
X836998Y728860D01*
X838860Y726998D01*
X841140Y725682D01*
X843683Y725000D01*
X846317D01*
X848860Y725682D01*
X851140Y726998D01*
X853002Y728860D01*
X854318Y731140D01*
X855000Y733683D01*
Y736317D01*
X854318Y738860D01*
X853002Y741140D01*
X851140Y743002D01*
X848860Y744318D01*
X846317Y745000D01*
D02*
G37*
G36*
X746317D02*
X743683D01*
X741140Y744318D01*
X738860Y743002D01*
X736998Y741140D01*
X735682Y738860D01*
X735000Y736317D01*
Y733683D01*
X735682Y731140D01*
X736998Y728860D01*
X738860Y726998D01*
X741140Y725682D01*
X743683Y725000D01*
X746317D01*
X748860Y725682D01*
X751140Y726998D01*
X753002Y728860D01*
X754318Y731140D01*
X755000Y733683D01*
Y736317D01*
X754318Y738860D01*
X753002Y741140D01*
X751140Y743002D01*
X748860Y744318D01*
X746317Y745000D01*
D02*
G37*
G36*
X791547Y746750D02*
X788453D01*
X785465Y745949D01*
X782785Y744402D01*
X780598Y742215D01*
X779051Y739535D01*
X778250Y736547D01*
Y733453D01*
X779051Y730465D01*
X780598Y727785D01*
X782785Y725598D01*
X785465Y724051D01*
X788453Y723250D01*
X791547D01*
X794535Y724051D01*
X797215Y725598D01*
X799402Y727785D01*
X800949Y730465D01*
X801750Y733453D01*
Y736547D01*
X800949Y739535D01*
X799402Y742215D01*
X797215Y744402D01*
X794535Y745949D01*
X791547Y746750D01*
D02*
G37*
G36*
X676547D02*
X673453D01*
X670465Y745949D01*
X667785Y744402D01*
X665598Y742215D01*
X664051Y739535D01*
X663250Y736547D01*
Y733453D01*
X664051Y730465D01*
X665598Y727785D01*
X667785Y725598D01*
X670465Y724051D01*
X673453Y723250D01*
X676547D01*
X679535Y724051D01*
X682215Y725598D01*
X684402Y727785D01*
X685949Y730465D01*
X686750Y733453D01*
Y736547D01*
X685949Y739535D01*
X684402Y742215D01*
X682215Y744402D01*
X679535Y745949D01*
X676547Y746750D01*
D02*
G37*
G36*
X381547Y741750D02*
X378453D01*
X375465Y740949D01*
X372785Y739402D01*
X370598Y737215D01*
X369051Y734535D01*
X368250Y731547D01*
Y728453D01*
X369051Y725465D01*
X370598Y722785D01*
X372785Y720598D01*
X375465Y719051D01*
X378453Y718250D01*
X381547D01*
X384535Y719051D01*
X387215Y720598D01*
X389402Y722785D01*
X390949Y725465D01*
X391750Y728453D01*
Y731547D01*
X390949Y734535D01*
X389402Y737215D01*
X387215Y739402D01*
X384535Y740949D01*
X381547Y741750D01*
D02*
G37*
G36*
X509440Y724314D02*
Y717140D01*
X516614D01*
X516256Y718475D01*
X514934Y720765D01*
X513065Y722634D01*
X510775Y723956D01*
X509440Y724314D01*
D02*
G37*
G36*
X516614Y712060D02*
X509440D01*
Y704886D01*
X510775Y705244D01*
X513065Y706566D01*
X514934Y708435D01*
X516256Y710725D01*
X516614Y712060D01*
D02*
G37*
G36*
X296740Y777460D02*
X287700D01*
X278660D01*
Y770960D01*
X280735D01*
Y704040D01*
X278660D01*
Y697540D01*
X287700D01*
Y692460D01*
X278660D01*
Y685960D01*
X280535D01*
Y620017D01*
X279542Y618296D01*
X278960Y616124D01*
Y615389D01*
X278678Y614708D01*
X278440Y612905D01*
Y609000D01*
X278449Y608932D01*
X278174Y606843D01*
X278234Y606830D01*
X278035Y605322D01*
Y549040D01*
X275960D01*
Y546557D01*
X274690Y546217D01*
X274202Y547061D01*
X272061Y549202D01*
X269439Y550716D01*
X266514Y551500D01*
X263486D01*
X260561Y550716D01*
X257939Y549202D01*
X255798Y547061D01*
X254284Y544439D01*
X253500Y541514D01*
Y538486D01*
X254284Y535561D01*
X255798Y532939D01*
X257939Y530798D01*
X260561Y529284D01*
X263486Y528500D01*
X266514D01*
X269439Y529284D01*
X272061Y530798D01*
X274202Y532939D01*
X274690Y533784D01*
X275960Y533443D01*
Y530960D01*
X278035D01*
Y511965D01*
X177868D01*
X148661Y541171D01*
X148855Y541896D01*
X137540D01*
Y530581D01*
X139127Y531007D01*
X170058Y500075D01*
X171500Y498969D01*
X173180Y498273D01*
X174983Y498035D01*
X282768D01*
X284571Y498273D01*
X286250Y498969D01*
X287693Y500075D01*
X289925Y502307D01*
X291031Y503750D01*
X291727Y505429D01*
X291965Y507232D01*
Y530960D01*
X294040D01*
Y537460D01*
X285000D01*
Y542540D01*
X294040D01*
Y549040D01*
X291965D01*
Y604329D01*
X291966Y604332D01*
X292319Y607921D01*
X292744Y608166D01*
X294334Y609756D01*
X295458Y611704D01*
X295661Y612460D01*
X287500D01*
Y617540D01*
X295661D01*
X295458Y618296D01*
X294465Y620017D01*
Y685960D01*
X296740D01*
Y688035D01*
X399063D01*
X400866Y688273D01*
X402545Y688969D01*
X403988Y690075D01*
X421548Y707635D01*
X475530D01*
Y466891D01*
X475768Y465089D01*
X476464Y463409D01*
X477570Y461966D01*
X499137Y440400D01*
X488770Y430034D01*
X487663Y428591D01*
X486968Y426911D01*
X486730Y425109D01*
Y404891D01*
X486968Y403089D01*
X487663Y401409D01*
X488770Y399966D01*
X499137Y389600D01*
X488770Y379234D01*
X487663Y377791D01*
X486968Y376111D01*
X486730Y374309D01*
Y291580D01*
X436420Y241270D01*
X435313Y239827D01*
X434618Y238148D01*
X434380Y236345D01*
Y189230D01*
X384441Y139290D01*
X375710D01*
Y132540D01*
X385000D01*
Y130000D01*
X387540D01*
Y120710D01*
X394290D01*
Y129441D01*
X446270Y181420D01*
X447377Y182863D01*
X448072Y184542D01*
X448310Y186345D01*
Y233460D01*
X498620Y283770D01*
X499726Y285213D01*
X500422Y286892D01*
X500660Y288695D01*
Y371424D01*
X510876Y381640D01*
X511861D01*
X511935Y381566D01*
X514225Y380244D01*
X515560Y379886D01*
Y389600D01*
Y399314D01*
X514225Y398956D01*
X511935Y397634D01*
X511861Y397560D01*
X510876D01*
X500660Y407776D01*
Y422224D01*
X510876Y432440D01*
X511861D01*
X511935Y432366D01*
X514225Y431044D01*
X515560Y430686D01*
Y440400D01*
Y450114D01*
X514225Y449756D01*
X511935Y448434D01*
X511861Y448360D01*
X510876D01*
X489460Y469776D01*
Y707635D01*
X499666D01*
X500735Y706566D01*
X503025Y705244D01*
X504360Y704886D01*
Y714600D01*
Y724314D01*
X503025Y723956D01*
X500735Y722634D01*
X499666Y721565D01*
X484600D01*
X484600Y721565D01*
X484600Y721565D01*
X418663D01*
X416860Y721327D01*
X415181Y720631D01*
X413738Y719525D01*
X396178Y701965D01*
X296740D01*
Y704040D01*
X294665D01*
Y770960D01*
X296740D01*
Y777460D01*
D02*
G37*
G36*
X263814Y706500D02*
X260786D01*
X257861Y705716D01*
X255239Y704202D01*
X253098Y702061D01*
X251584Y699439D01*
X250800Y696514D01*
Y693486D01*
X251584Y690561D01*
X253098Y687939D01*
X255239Y685798D01*
X257861Y684284D01*
X260786Y683500D01*
X263814D01*
X266739Y684284D01*
X269361Y685798D01*
X271502Y687939D01*
X273016Y690561D01*
X273800Y693486D01*
Y696514D01*
X273016Y699439D01*
X271502Y702061D01*
X269361Y704202D01*
X266739Y705716D01*
X263814Y706500D01*
D02*
G37*
G36*
X584746Y828700D02*
X581454D01*
X578275Y827848D01*
X575425Y826202D01*
X573097Y823875D01*
X571452Y821025D01*
X570600Y817846D01*
Y814554D01*
X571452Y811375D01*
X573097Y808525D01*
X575425Y806198D01*
X578275Y804552D01*
X579747Y804157D01*
Y802843D01*
X578275Y802448D01*
X575425Y800803D01*
X573097Y798475D01*
X571452Y795625D01*
X570600Y792446D01*
Y789154D01*
X571452Y785975D01*
X573097Y783125D01*
X575425Y780798D01*
X578275Y779152D01*
X579747Y778757D01*
Y777443D01*
X578275Y777048D01*
X575425Y775403D01*
X573097Y773075D01*
X571452Y770225D01*
X570600Y767046D01*
Y763754D01*
X571452Y760575D01*
X573097Y757725D01*
X575425Y755397D01*
X578275Y753752D01*
X579747Y753357D01*
Y752043D01*
X578275Y751648D01*
X575425Y750003D01*
X573097Y747675D01*
X571452Y744825D01*
X570600Y741646D01*
Y738354D01*
X571452Y735175D01*
X573097Y732325D01*
X575425Y729997D01*
X578275Y728352D01*
X579747Y727957D01*
Y726643D01*
X578275Y726248D01*
X575425Y724603D01*
X573097Y722275D01*
X571452Y719425D01*
X570600Y716246D01*
Y712954D01*
X571452Y709775D01*
X573097Y706925D01*
X575425Y704597D01*
X578275Y702952D01*
X579747Y702557D01*
Y701243D01*
X578275Y700848D01*
X575425Y699202D01*
X573097Y696875D01*
X571452Y694025D01*
X570600Y690846D01*
Y687554D01*
X571452Y684375D01*
X573097Y681525D01*
X575425Y679197D01*
X578275Y677552D01*
X579747Y677157D01*
Y675843D01*
X578275Y675448D01*
X575425Y673802D01*
X573097Y671475D01*
X571452Y668625D01*
X570600Y665446D01*
Y662154D01*
X571452Y658975D01*
X573097Y656125D01*
X575425Y653798D01*
X578275Y652152D01*
X581454Y651300D01*
X584746D01*
X587925Y652152D01*
X590775Y653798D01*
X593102Y656125D01*
X594748Y658975D01*
X595600Y662154D01*
Y665446D01*
X594748Y668625D01*
X593102Y671475D01*
X590775Y673802D01*
X587925Y675448D01*
X586453Y675843D01*
Y677157D01*
X587925Y677552D01*
X590775Y679197D01*
X593102Y681525D01*
X594748Y684375D01*
X595600Y687554D01*
Y690846D01*
X594748Y694025D01*
X593102Y696875D01*
X590775Y699202D01*
X587925Y700848D01*
X586453Y701243D01*
Y702557D01*
X587925Y702952D01*
X590775Y704597D01*
X593102Y706925D01*
X594748Y709775D01*
X595600Y712954D01*
Y716246D01*
X594748Y719425D01*
X593102Y722275D01*
X590775Y724603D01*
X587925Y726248D01*
X586453Y726643D01*
Y727957D01*
X587925Y728352D01*
X590775Y729997D01*
X593102Y732325D01*
X594748Y735175D01*
X595600Y738354D01*
Y741646D01*
X594748Y744825D01*
X593102Y747675D01*
X590775Y750003D01*
X587925Y751648D01*
X586453Y752043D01*
Y753357D01*
X587925Y753752D01*
X590775Y755397D01*
X593102Y757725D01*
X594748Y760575D01*
X595600Y763754D01*
Y767046D01*
X594748Y770225D01*
X593102Y773075D01*
X590775Y775403D01*
X587925Y777048D01*
X586453Y777443D01*
Y778757D01*
X587925Y779152D01*
X590775Y780798D01*
X593102Y783125D01*
X594748Y785975D01*
X595600Y789154D01*
Y792446D01*
X594748Y795625D01*
X593102Y798475D01*
X590775Y800803D01*
X587925Y802448D01*
X586453Y802843D01*
Y804157D01*
X587925Y804552D01*
X590775Y806198D01*
X593102Y808525D01*
X594748Y811375D01*
X595600Y814554D01*
Y817846D01*
X594748Y821025D01*
X593102Y823875D01*
X590775Y826202D01*
X587925Y827848D01*
X584746Y828700D01*
D02*
G37*
G36*
X508546Y701700D02*
X505254D01*
X502075Y700848D01*
X499225Y699202D01*
X496898Y696875D01*
X495252Y694025D01*
X494400Y690846D01*
Y687554D01*
X495252Y684375D01*
X496898Y681525D01*
X499225Y679197D01*
X502075Y677552D01*
X503547Y677157D01*
Y675843D01*
X502075Y675448D01*
X499225Y673802D01*
X496898Y671475D01*
X495252Y668625D01*
X494400Y665446D01*
Y662154D01*
X495252Y658975D01*
X496898Y656125D01*
X499225Y653798D01*
X502075Y652152D01*
X505254Y651300D01*
X508546D01*
X511725Y652152D01*
X514575Y653798D01*
X516903Y656125D01*
X518548Y658975D01*
X519400Y662154D01*
Y665446D01*
X518548Y668625D01*
X516903Y671475D01*
X514575Y673802D01*
X511725Y675448D01*
X510253Y675843D01*
Y677157D01*
X511725Y677552D01*
X514575Y679197D01*
X516903Y681525D01*
X518548Y684375D01*
X519400Y687554D01*
Y690846D01*
X518548Y694025D01*
X516903Y696875D01*
X514575Y699202D01*
X511725Y700848D01*
X508546Y701700D01*
D02*
G37*
G36*
X616316Y655000D02*
X613684D01*
X611140Y654318D01*
X608860Y653002D01*
X606998Y651140D01*
X605681Y648860D01*
X605000Y646317D01*
Y643683D01*
X605681Y641140D01*
X606998Y638860D01*
X608860Y636998D01*
X611140Y635681D01*
X613684Y635000D01*
X616316D01*
X618860Y635681D01*
X621140Y636998D01*
X623002Y638860D01*
X624319Y641140D01*
X625000Y643683D01*
Y646317D01*
X624319Y648860D01*
X623002Y651140D01*
X621140Y653002D01*
X618860Y654318D01*
X616316Y655000D01*
D02*
G37*
G36*
X801750Y656750D02*
X778250D01*
Y633250D01*
X801750D01*
Y656750D01*
D02*
G37*
G36*
X686750D02*
X663250D01*
Y633250D01*
X686750D01*
Y656750D01*
D02*
G37*
G36*
X736317Y635000D02*
X733683D01*
X731140Y634319D01*
X728860Y633002D01*
X726998Y631140D01*
X725682Y628860D01*
X725000Y626316D01*
Y623684D01*
X725682Y621140D01*
X726998Y618860D01*
X728860Y616998D01*
X731140Y615681D01*
X733683Y615000D01*
X736317D01*
X738860Y615681D01*
X741140Y616998D01*
X743002Y618860D01*
X744318Y621140D01*
X745000Y623684D01*
Y626316D01*
X744318Y628860D01*
X743002Y631140D01*
X741140Y633002D01*
X738860Y634319D01*
X736317Y635000D01*
D02*
G37*
G36*
X376500Y656500D02*
X353500D01*
Y633500D01*
X355577D01*
X356063Y632327D01*
X355798Y632061D01*
X354284Y629439D01*
X353500Y626514D01*
Y623486D01*
X354284Y620561D01*
X355798Y617939D01*
X357939Y615798D01*
X360561Y614284D01*
X363486Y613500D01*
X366514D01*
X369439Y614284D01*
X372061Y615798D01*
X374202Y617939D01*
X375716Y620561D01*
X376500Y623486D01*
Y626514D01*
X375716Y629439D01*
X374202Y632061D01*
X373937Y632327D01*
X374423Y633500D01*
X376500D01*
Y656500D01*
D02*
G37*
G36*
X911712Y660700D02*
X908288D01*
X904982Y659814D01*
X902018Y658103D01*
X899597Y655682D01*
X897886Y652718D01*
X897000Y649411D01*
Y645988D01*
X897886Y642682D01*
X899597Y639718D01*
X902018Y637297D01*
X903278Y636570D01*
X902937Y635300D01*
X897000D01*
Y609300D01*
X923000D01*
Y635300D01*
X917063D01*
X916722Y636570D01*
X917982Y637297D01*
X920403Y639718D01*
X922114Y642682D01*
X923000Y645988D01*
Y649411D01*
X922114Y652718D01*
X920403Y655682D01*
X917982Y658103D01*
X915018Y659814D01*
X911712Y660700D01*
D02*
G37*
G36*
X273500Y626000D02*
X251500D01*
Y604000D01*
X273500D01*
Y626000D01*
D02*
G37*
G36*
X561316Y620000D02*
X558684D01*
X556140Y619319D01*
X553860Y618002D01*
X551998Y616140D01*
X550681Y613860D01*
X550000Y611316D01*
Y608684D01*
X550681Y606140D01*
X551998Y603860D01*
X553860Y601998D01*
X556140Y600681D01*
X558684Y600000D01*
X561316D01*
X563860Y600681D01*
X566140Y601998D01*
X568002Y603860D01*
X569319Y606140D01*
X570000Y608684D01*
Y611316D01*
X569319Y613860D01*
X568002Y616140D01*
X566140Y618002D01*
X563860Y619319D01*
X561316Y620000D01*
D02*
G37*
G36*
X721317Y610000D02*
X718683D01*
X716140Y609319D01*
X713860Y608002D01*
X711998Y606140D01*
X710682Y603860D01*
X710000Y601316D01*
Y598684D01*
X710682Y596140D01*
X711998Y593860D01*
X713860Y591998D01*
X716140Y590681D01*
X718683Y590000D01*
X721317D01*
X723860Y590681D01*
X726140Y591998D01*
X728002Y593860D01*
X729318Y596140D01*
X730000Y598684D01*
Y601316D01*
X729318Y603860D01*
X728002Y606140D01*
X726140Y608002D01*
X723860Y609319D01*
X721317Y610000D01*
D02*
G37*
G36*
X826317Y590000D02*
X823683D01*
X821140Y589319D01*
X818860Y588002D01*
X816998Y586140D01*
X815682Y583860D01*
X815000Y581316D01*
Y578684D01*
X815682Y576140D01*
X816998Y573860D01*
X818860Y571998D01*
X821140Y570681D01*
X823683Y570000D01*
X826317D01*
X828860Y570681D01*
X831140Y571998D01*
X833002Y573860D01*
X834318Y576140D01*
X835000Y578684D01*
Y581316D01*
X834318Y583860D01*
X833002Y586140D01*
X831140Y588002D01*
X828860Y589319D01*
X826317Y590000D01*
D02*
G37*
G36*
X661317D02*
X658683D01*
X656140Y589319D01*
X653860Y588002D01*
X651998Y586140D01*
X650682Y583860D01*
X650000Y581316D01*
Y578684D01*
X650682Y576140D01*
X651998Y573860D01*
X653860Y571998D01*
X656140Y570681D01*
X658683Y570000D01*
X661317D01*
X663860Y570681D01*
X666140Y571998D01*
X668002Y573860D01*
X669318Y576140D01*
X670000Y578684D01*
Y581316D01*
X669318Y583860D01*
X668002Y586140D01*
X666140Y588002D01*
X663860Y589319D01*
X661317Y590000D01*
D02*
G37*
G36*
X421316D02*
X418684D01*
X416140Y589319D01*
X413860Y588002D01*
X411998Y586140D01*
X410681Y583860D01*
X410000Y581316D01*
Y578684D01*
X410681Y576140D01*
X411998Y573860D01*
X413860Y571998D01*
X416140Y570681D01*
X418684Y570000D01*
X421316D01*
X423860Y570681D01*
X426140Y571998D01*
X428002Y573860D01*
X429319Y576140D01*
X430000Y578684D01*
Y581316D01*
X429319Y583860D01*
X428002Y586140D01*
X426140Y588002D01*
X423860Y589319D01*
X421316Y590000D01*
D02*
G37*
G36*
X646000Y591000D02*
X624000D01*
Y569000D01*
X646000D01*
Y591000D01*
D02*
G37*
G36*
X781514Y566500D02*
X778486D01*
X775561Y565716D01*
X772939Y564202D01*
X772673Y563937D01*
X771500Y564423D01*
Y566500D01*
X748500D01*
Y543500D01*
X771500D01*
Y545577D01*
X772673Y546063D01*
X772939Y545798D01*
X775561Y544284D01*
X778486Y543500D01*
X781514D01*
X784439Y544284D01*
X787061Y545798D01*
X789202Y547939D01*
X790716Y550561D01*
X791500Y553486D01*
Y556514D01*
X790716Y559439D01*
X789202Y562061D01*
X787061Y564202D01*
X784439Y565716D01*
X781514Y566500D01*
D02*
G37*
G36*
X516316Y570000D02*
X513684D01*
X511140Y569319D01*
X508860Y568002D01*
X506998Y566140D01*
X505681Y563860D01*
X505000Y561316D01*
Y558684D01*
X505681Y556140D01*
X506998Y553860D01*
X508860Y551998D01*
X511140Y550681D01*
X513684Y550000D01*
X516316D01*
X518860Y550681D01*
X521140Y551998D01*
X523002Y553860D01*
X524319Y556140D01*
X525000Y558684D01*
Y561316D01*
X524319Y563860D01*
X523002Y566140D01*
X521140Y568002D01*
X518860Y569319D01*
X516316Y570000D01*
D02*
G37*
G36*
X137540Y558291D02*
Y546976D01*
X148855D01*
X148083Y549855D01*
X146235Y553057D01*
X143621Y555671D01*
X140419Y557519D01*
X137540Y558291D01*
D02*
G37*
G36*
X132460D02*
X129581Y557519D01*
X126379Y555671D01*
X123765Y553057D01*
X121917Y549855D01*
X121145Y546976D01*
X132460D01*
Y558291D01*
D02*
G37*
G36*
X637540Y538161D02*
Y532540D01*
X643161D01*
X642958Y533296D01*
X641834Y535244D01*
X640244Y536834D01*
X638296Y537958D01*
X637540Y538161D01*
D02*
G37*
G36*
X132460Y541896D02*
X121145D01*
X121917Y539017D01*
X123765Y535815D01*
X126379Y533201D01*
X129581Y531353D01*
X132460Y530581D01*
Y541896D01*
D02*
G37*
G36*
X786317Y525000D02*
X783683D01*
X781140Y524319D01*
X778860Y523002D01*
X776998Y521140D01*
X775682Y518860D01*
X775000Y516316D01*
Y513684D01*
X775682Y511140D01*
X776998Y508860D01*
X778860Y506998D01*
X781140Y505681D01*
X783683Y505000D01*
X786317D01*
X788860Y505681D01*
X791140Y506998D01*
X793002Y508860D01*
X794318Y511140D01*
X795000Y513684D01*
Y516316D01*
X794318Y518860D01*
X793002Y521140D01*
X791140Y523002D01*
X788860Y524319D01*
X786317Y525000D01*
D02*
G37*
G36*
X701317D02*
X698683D01*
X696140Y524319D01*
X693860Y523002D01*
X691998Y521140D01*
X690682Y518860D01*
X690000Y516316D01*
Y513684D01*
X690682Y511140D01*
X691998Y508860D01*
X693860Y506998D01*
X696140Y505681D01*
X698683Y505000D01*
X701317D01*
X703860Y505681D01*
X706140Y506998D01*
X708002Y508860D01*
X709318Y511140D01*
X710000Y513684D01*
Y516316D01*
X709318Y518860D01*
X708002Y521140D01*
X706140Y523002D01*
X703860Y524319D01*
X701317Y525000D01*
D02*
G37*
G36*
X896500Y530748D02*
X863500D01*
Y497748D01*
X896500D01*
Y530748D01*
D02*
G37*
G36*
X751317Y515000D02*
X748683D01*
X746140Y514319D01*
X743860Y513002D01*
X741998Y511140D01*
X740682Y508860D01*
X740000Y506316D01*
Y503684D01*
X740682Y501140D01*
X741998Y498860D01*
X743860Y496998D01*
X746140Y495681D01*
X748683Y495000D01*
X751317D01*
X753860Y495681D01*
X756140Y496998D01*
X758002Y498860D01*
X759318Y501140D01*
X760000Y503684D01*
Y506316D01*
X759318Y508860D01*
X758002Y511140D01*
X756140Y513002D01*
X753860Y514319D01*
X751317Y515000D01*
D02*
G37*
G36*
X136625Y521312D02*
X133375D01*
X130187Y520678D01*
X127184Y519434D01*
X124482Y517628D01*
X122184Y515330D01*
X120378Y512628D01*
X119134Y509625D01*
X118500Y506437D01*
Y503187D01*
X119134Y499999D01*
X120378Y496996D01*
X122184Y494294D01*
X124482Y491996D01*
X127184Y490190D01*
X130187Y488946D01*
X133375Y488312D01*
X136625D01*
X139813Y488946D01*
X142816Y490190D01*
X145518Y491996D01*
X147816Y494294D01*
X149622Y496996D01*
X150866Y499999D01*
X151500Y503187D01*
Y506437D01*
X150866Y509625D01*
X149622Y512628D01*
X147816Y515330D01*
X145518Y517628D01*
X142816Y519434D01*
X139813Y520678D01*
X136625Y521312D01*
D02*
G37*
G36*
X821317Y485000D02*
X818683D01*
X816140Y484319D01*
X813860Y483002D01*
X811998Y481140D01*
X810682Y478860D01*
X810000Y476316D01*
Y473684D01*
X810682Y471140D01*
X811998Y468860D01*
X813860Y466998D01*
X816140Y465681D01*
X818683Y465000D01*
X821317D01*
X823860Y465681D01*
X826140Y466998D01*
X828002Y468860D01*
X829318Y471140D01*
X830000Y473684D01*
Y476316D01*
X829318Y478860D01*
X828002Y481140D01*
X826140Y483002D01*
X823860Y484319D01*
X821317Y485000D01*
D02*
G37*
G36*
X381514Y501500D02*
X378486D01*
X375561Y500716D01*
X372939Y499202D01*
X370798Y497061D01*
X369284Y494439D01*
X368500Y491514D01*
Y488486D01*
X369284Y485561D01*
X370798Y482939D01*
X371063Y482673D01*
X370577Y481500D01*
X368500D01*
Y458500D01*
X391500D01*
Y481500D01*
X389423D01*
X388937Y482673D01*
X389202Y482939D01*
X390716Y485561D01*
X391500Y488486D01*
Y491514D01*
X390716Y494439D01*
X389202Y497061D01*
X387061Y499202D01*
X384439Y500716D01*
X381514Y501500D01*
D02*
G37*
G36*
X881625Y491124D02*
X878375D01*
X875187Y490490D01*
X872184Y489246D01*
X869482Y487440D01*
X867184Y485142D01*
X865378Y482440D01*
X864134Y479437D01*
X863500Y476249D01*
Y472999D01*
X864134Y469811D01*
X865378Y466808D01*
X867184Y464106D01*
X869482Y461808D01*
X872184Y460002D01*
X875187Y458758D01*
X878375Y458124D01*
X881625D01*
X884813Y458758D01*
X887816Y460002D01*
X890518Y461808D01*
X892816Y464106D01*
X894622Y466808D01*
X895866Y469811D01*
X896500Y472999D01*
Y476249D01*
X895866Y479437D01*
X894622Y482440D01*
X892816Y485142D01*
X890518Y487440D01*
X887816Y489246D01*
X884813Y490490D01*
X881625Y491124D01*
D02*
G37*
G36*
X519746Y503700D02*
X516454D01*
X513275Y502848D01*
X510425Y501203D01*
X508097Y498875D01*
X506452Y496025D01*
X505600Y492846D01*
Y489554D01*
X506452Y486375D01*
X508097Y483525D01*
X510425Y481198D01*
X513275Y479552D01*
X514747Y479157D01*
Y477843D01*
X513275Y477448D01*
X510425Y475802D01*
X508097Y473475D01*
X506452Y470625D01*
X505600Y467446D01*
Y464154D01*
X506452Y460975D01*
X508097Y458125D01*
X510425Y455798D01*
X513275Y454152D01*
X516454Y453300D01*
X519746D01*
X522925Y454152D01*
X525775Y455798D01*
X528102Y458125D01*
X529748Y460975D01*
X530600Y464154D01*
Y467446D01*
X529748Y470625D01*
X528102Y473475D01*
X525775Y475802D01*
X522925Y477448D01*
X521453Y477843D01*
Y479157D01*
X522925Y479552D01*
X525775Y481198D01*
X528102Y483525D01*
X529748Y486375D01*
X530600Y489554D01*
Y492846D01*
X529748Y496025D01*
X528102Y498875D01*
X525775Y501203D01*
X522925Y502848D01*
X519746Y503700D01*
D02*
G37*
G36*
X136625Y481688D02*
X133375D01*
X130187Y481054D01*
X127184Y479810D01*
X124482Y478004D01*
X122184Y475706D01*
X120378Y473004D01*
X119134Y470001D01*
X118500Y466813D01*
Y463563D01*
X119134Y460375D01*
X120378Y457372D01*
X122184Y454670D01*
X124482Y452372D01*
X127184Y450566D01*
X130187Y449322D01*
X133375Y448688D01*
X136625D01*
X139813Y449322D01*
X142816Y450566D01*
X145518Y452372D01*
X147816Y454670D01*
X149622Y457372D01*
X150866Y460375D01*
X151500Y463563D01*
Y466813D01*
X150866Y470001D01*
X149622Y473004D01*
X147816Y475706D01*
X145518Y478004D01*
X142816Y479810D01*
X139813Y481054D01*
X136625Y481688D01*
D02*
G37*
G36*
X786547Y471750D02*
X783453D01*
X780465Y470949D01*
X777785Y469402D01*
X775598Y467215D01*
X774051Y464535D01*
X773250Y461547D01*
Y458453D01*
X774051Y455465D01*
X775598Y452785D01*
X777785Y450598D01*
X780465Y449051D01*
X783453Y448250D01*
X786547D01*
X789535Y449051D01*
X792215Y450598D01*
X794402Y452785D01*
X795949Y455465D01*
X796750Y458453D01*
Y461547D01*
X795949Y464535D01*
X794402Y467215D01*
X792215Y469402D01*
X789535Y470949D01*
X786547Y471750D01*
D02*
G37*
G36*
X706750D02*
X683250D01*
Y448250D01*
X706750D01*
Y471750D01*
D02*
G37*
G36*
X632460Y538161D02*
X631704Y537958D01*
X629756Y536834D01*
X628166Y535244D01*
X627042Y533296D01*
X626528Y531377D01*
X542515Y447365D01*
X525334D01*
X524265Y448434D01*
X521975Y449756D01*
X520640Y450114D01*
Y440400D01*
Y430686D01*
X521975Y431044D01*
X524265Y432366D01*
X525334Y433435D01*
X545400D01*
X547203Y433673D01*
X548882Y434369D01*
X550325Y435475D01*
X636377Y521528D01*
X638296Y522042D01*
X640244Y523166D01*
X641834Y524756D01*
X642958Y526704D01*
X643161Y527460D01*
X635000D01*
Y530000D01*
X632460D01*
Y538161D01*
D02*
G37*
G36*
X293948Y446000D02*
X291052D01*
X288254Y445250D01*
X285746Y443802D01*
X283698Y441754D01*
X282250Y439246D01*
X281500Y436448D01*
Y433552D01*
X282250Y430754D01*
X283698Y428246D01*
X285746Y426198D01*
X288254Y424750D01*
X291052Y424000D01*
X293948D01*
X296746Y424750D01*
X299254Y426198D01*
X301302Y428246D01*
X302750Y430754D01*
X303500Y433552D01*
Y436448D01*
X302750Y439246D01*
X301302Y441754D01*
X299254Y443802D01*
X296746Y445250D01*
X293948Y446000D01*
D02*
G37*
G36*
X278500D02*
X256500D01*
Y424000D01*
X278500D01*
Y446000D01*
D02*
G37*
G36*
X881625Y451500D02*
X878375D01*
X875187Y450866D01*
X872184Y449622D01*
X869482Y447816D01*
X867184Y445518D01*
X865378Y442816D01*
X864134Y439813D01*
X863500Y436625D01*
Y433375D01*
X864134Y430187D01*
X865378Y427184D01*
X867184Y424482D01*
X869482Y422184D01*
X872184Y420378D01*
X875187Y419134D01*
X878375Y418500D01*
X881625D01*
X884813Y419134D01*
X887816Y420378D01*
X890518Y422184D01*
X892816Y424482D01*
X894622Y427184D01*
X895866Y430187D01*
X896500Y433375D01*
Y436625D01*
X895866Y439813D01*
X894622Y442816D01*
X892816Y445518D01*
X890518Y447816D01*
X887816Y449622D01*
X884813Y450866D01*
X881625Y451500D01*
D02*
G37*
G36*
X151500Y442064D02*
X118500D01*
Y409064D01*
X151500D01*
Y442064D01*
D02*
G37*
G36*
X519746Y427500D02*
X516454D01*
X513275Y426648D01*
X510425Y425003D01*
X508097Y422675D01*
X506452Y419825D01*
X505600Y416646D01*
Y413354D01*
X506452Y410175D01*
X508097Y407325D01*
X510425Y404997D01*
X513275Y403352D01*
X516454Y402500D01*
X519746D01*
X522925Y403352D01*
X525775Y404997D01*
X528102Y407325D01*
X529748Y410175D01*
X530600Y413354D01*
Y416646D01*
X529748Y419825D01*
X528102Y422675D01*
X525775Y425003D01*
X522925Y426648D01*
X519746Y427500D01*
D02*
G37*
G36*
X636750Y421750D02*
X613250D01*
Y398250D01*
X636750D01*
Y421750D01*
D02*
G37*
G36*
X881625Y411876D02*
X878375D01*
X875187Y411242D01*
X872184Y409998D01*
X869482Y408192D01*
X867184Y405894D01*
X865378Y403192D01*
X864134Y400189D01*
X863500Y397001D01*
Y393751D01*
X864134Y390563D01*
X865378Y387560D01*
X867184Y384858D01*
X869482Y382560D01*
X872184Y380754D01*
X875187Y379510D01*
X878375Y378876D01*
X881625D01*
X884813Y379510D01*
X887816Y380754D01*
X890518Y382560D01*
X892816Y384858D01*
X894622Y387560D01*
X895866Y390563D01*
X896500Y393751D01*
Y397001D01*
X895866Y400189D01*
X894622Y403192D01*
X892816Y405894D01*
X890518Y408192D01*
X887816Y409998D01*
X884813Y411242D01*
X881625Y411876D01*
D02*
G37*
G36*
X306900Y391500D02*
X283900D01*
Y368500D01*
X306900D01*
Y391500D01*
D02*
G37*
G36*
X271514D02*
X268486D01*
X265561Y390716D01*
X262939Y389202D01*
X260798Y387061D01*
X259284Y384439D01*
X258500Y381514D01*
Y378486D01*
X259284Y375561D01*
X260798Y372939D01*
X262939Y370798D01*
X265561Y369284D01*
X268486Y368500D01*
X271514D01*
X274439Y369284D01*
X277061Y370798D01*
X279202Y372939D01*
X280716Y375561D01*
X281500Y378486D01*
Y381514D01*
X280716Y384439D01*
X279202Y387061D01*
X277061Y389202D01*
X274439Y390716D01*
X271514Y391500D01*
D02*
G37*
G36*
X561316Y375000D02*
X558684D01*
X556140Y374319D01*
X553860Y373002D01*
X551998Y371140D01*
X550681Y368860D01*
X550000Y366316D01*
Y363684D01*
X550681Y361140D01*
X551998Y358860D01*
X553860Y356998D01*
X556140Y355681D01*
X558684Y355000D01*
X561316D01*
X563860Y355681D01*
X566140Y356998D01*
X568002Y358860D01*
X569319Y361140D01*
X570000Y363684D01*
Y366316D01*
X569319Y368860D01*
X568002Y371140D01*
X566140Y373002D01*
X563860Y374319D01*
X561316Y375000D01*
D02*
G37*
G36*
X519746Y376700D02*
X516454D01*
X513275Y375848D01*
X510425Y374202D01*
X508097Y371875D01*
X506452Y369025D01*
X505600Y365846D01*
Y362554D01*
X506452Y359375D01*
X508097Y356525D01*
X510425Y354198D01*
X513275Y352552D01*
X514747Y352157D01*
Y350843D01*
X513275Y350448D01*
X510425Y348802D01*
X508097Y346475D01*
X506452Y343625D01*
X505600Y340446D01*
Y337154D01*
X506452Y333975D01*
X508097Y331125D01*
X510425Y328797D01*
X513275Y327152D01*
X516454Y326300D01*
X519746D01*
X522925Y327152D01*
X525775Y328797D01*
X528102Y331125D01*
X529748Y333975D01*
X530600Y337154D01*
Y340446D01*
X529748Y343625D01*
X528102Y346475D01*
X525775Y348802D01*
X522925Y350448D01*
X521453Y350843D01*
Y352157D01*
X522925Y352552D01*
X525775Y354198D01*
X528102Y356525D01*
X529748Y359375D01*
X530600Y362554D01*
Y365846D01*
X529748Y369025D01*
X528102Y371875D01*
X525775Y374202D01*
X522925Y375848D01*
X519746Y376700D01*
D02*
G37*
G36*
X454400Y503700D02*
X429400D01*
Y478700D01*
X436840D01*
X437075Y477448D01*
X434225Y475802D01*
X431898Y473475D01*
X430252Y470625D01*
X429400Y467446D01*
Y464154D01*
X430252Y460975D01*
X431898Y458125D01*
X434225Y455798D01*
X437075Y454152D01*
X438547Y453757D01*
Y452443D01*
X437075Y452048D01*
X434225Y450402D01*
X431898Y448075D01*
X430252Y445225D01*
X429400Y442046D01*
Y438754D01*
X430252Y435575D01*
X431898Y432725D01*
X434225Y430397D01*
X437075Y428752D01*
X438547Y428357D01*
Y427043D01*
X437075Y426648D01*
X434225Y425003D01*
X431898Y422675D01*
X430252Y419825D01*
X429400Y416646D01*
Y413354D01*
X430252Y410175D01*
X431898Y407325D01*
X434225Y404997D01*
X437075Y403352D01*
X438547Y402957D01*
Y401643D01*
X437075Y401248D01*
X434225Y399603D01*
X431898Y397275D01*
X430252Y394425D01*
X429400Y391246D01*
Y387954D01*
X430252Y384775D01*
X431898Y381925D01*
X434225Y379598D01*
X437075Y377952D01*
X438547Y377557D01*
Y376243D01*
X437075Y375848D01*
X434225Y374202D01*
X431898Y371875D01*
X430252Y369025D01*
X429400Y365846D01*
Y362554D01*
X430252Y359375D01*
X431898Y356525D01*
X434225Y354198D01*
X437075Y352552D01*
X438547Y352157D01*
Y350843D01*
X437075Y350448D01*
X434225Y348802D01*
X431898Y346475D01*
X430252Y343625D01*
X429400Y340446D01*
Y337154D01*
X430252Y333975D01*
X431898Y331125D01*
X434225Y328797D01*
X437075Y327152D01*
X440254Y326300D01*
X443546D01*
X446725Y327152D01*
X449575Y328797D01*
X451903Y331125D01*
X453548Y333975D01*
X454400Y337154D01*
Y340446D01*
X453548Y343625D01*
X451903Y346475D01*
X449575Y348802D01*
X446725Y350448D01*
X445253Y350843D01*
Y352157D01*
X446725Y352552D01*
X449575Y354198D01*
X451903Y356525D01*
X453548Y359375D01*
X454400Y362554D01*
Y365846D01*
X453548Y369025D01*
X451903Y371875D01*
X449575Y374202D01*
X446725Y375848D01*
X445253Y376243D01*
Y377557D01*
X446725Y377952D01*
X449575Y379598D01*
X451903Y381925D01*
X453548Y384775D01*
X454400Y387954D01*
Y391246D01*
X453548Y394425D01*
X451903Y397275D01*
X449575Y399603D01*
X446725Y401248D01*
X445253Y401643D01*
Y402957D01*
X446725Y403352D01*
X449575Y404997D01*
X451903Y407325D01*
X453548Y410175D01*
X454400Y413354D01*
Y416646D01*
X453548Y419825D01*
X451903Y422675D01*
X449575Y425003D01*
X446725Y426648D01*
X445253Y427043D01*
Y428357D01*
X446725Y428752D01*
X449575Y430397D01*
X451903Y432725D01*
X453548Y435575D01*
X454400Y438754D01*
Y442046D01*
X453548Y445225D01*
X451903Y448075D01*
X449575Y450402D01*
X446725Y452048D01*
X445253Y452443D01*
Y453757D01*
X446725Y454152D01*
X449575Y455798D01*
X451903Y458125D01*
X453548Y460975D01*
X454400Y464154D01*
Y467446D01*
X453548Y470625D01*
X451903Y473475D01*
X449575Y475802D01*
X446725Y477448D01*
X446960Y478700D01*
X454400D01*
Y503700D01*
D02*
G37*
G36*
X306900Y336500D02*
X283900D01*
Y313500D01*
X306900D01*
Y336500D01*
D02*
G37*
G36*
X271514D02*
X268486D01*
X265561Y335716D01*
X262939Y334202D01*
X260798Y332061D01*
X259284Y329439D01*
X258500Y326514D01*
Y323486D01*
X259284Y320561D01*
X260798Y317939D01*
X262939Y315798D01*
X265561Y314284D01*
X268486Y313500D01*
X271514D01*
X274439Y314284D01*
X277061Y315798D01*
X279202Y317939D01*
X280716Y320561D01*
X281500Y323486D01*
Y326514D01*
X280716Y329439D01*
X279202Y332061D01*
X277061Y334202D01*
X274439Y335716D01*
X271514Y336500D01*
D02*
G37*
G36*
X711317Y330000D02*
X708683D01*
X706140Y329319D01*
X703860Y328002D01*
X701998Y326140D01*
X700682Y323860D01*
X700000Y321316D01*
Y318683D01*
X700682Y316140D01*
X701998Y313860D01*
X703860Y311998D01*
X706140Y310681D01*
X708683Y310000D01*
X711317D01*
X713860Y310681D01*
X716140Y311998D01*
X718002Y313860D01*
X719318Y316140D01*
X720000Y318683D01*
Y321316D01*
X719318Y323860D01*
X718002Y326140D01*
X716140Y328002D01*
X713860Y329319D01*
X711317Y330000D01*
D02*
G37*
G36*
X626547Y331750D02*
X623453D01*
X620465Y330949D01*
X617785Y329402D01*
X615598Y327215D01*
X614051Y324535D01*
X613250Y321547D01*
Y318453D01*
X614051Y315465D01*
X615598Y312785D01*
X617785Y310598D01*
X620465Y309051D01*
X623453Y308250D01*
X626547D01*
X629535Y309051D01*
X632215Y310598D01*
X634402Y312785D01*
X635949Y315465D01*
X636750Y318453D01*
Y321547D01*
X635949Y324535D01*
X634402Y327215D01*
X632215Y329402D01*
X629535Y330949D01*
X626547Y331750D01*
D02*
G37*
G36*
X596316Y325000D02*
X593684D01*
X591140Y324319D01*
X588860Y323002D01*
X586998Y321140D01*
X585681Y318860D01*
X585000Y316317D01*
Y313683D01*
X585681Y311140D01*
X586998Y308860D01*
X588860Y306998D01*
X591140Y305681D01*
X593684Y305000D01*
X596316D01*
X598860Y305681D01*
X601140Y306998D01*
X603002Y308860D01*
X604319Y311140D01*
X605000Y313683D01*
Y316317D01*
X604319Y318860D01*
X603002Y321140D01*
X601140Y323002D01*
X598860Y324319D01*
X596316Y325000D01*
D02*
G37*
G36*
X853750Y321750D02*
X830250D01*
Y298250D01*
X853750D01*
Y321750D01*
D02*
G37*
G36*
X779547D02*
X776453D01*
X773465Y320949D01*
X770785Y319402D01*
X768598Y317215D01*
X767051Y314535D01*
X766250Y311547D01*
Y308453D01*
X767051Y305465D01*
X768598Y302785D01*
X770785Y300598D01*
X773465Y299051D01*
X776453Y298250D01*
X779547D01*
X782535Y299051D01*
X785215Y300598D01*
X787402Y302785D01*
X788949Y305465D01*
X789750Y308453D01*
Y311547D01*
X788949Y314535D01*
X787402Y317215D01*
X785215Y319402D01*
X782535Y320949D01*
X779547Y321750D01*
D02*
G37*
G36*
X108250Y303650D02*
X81750D01*
Y298309D01*
X80523Y297980D01*
X80203Y298536D01*
X77736Y301003D01*
X74714Y302747D01*
X71344Y303650D01*
X67856D01*
X64486Y302747D01*
X61464Y301003D01*
X58997Y298536D01*
X57253Y295514D01*
X56350Y292144D01*
Y288656D01*
X57253Y285286D01*
X58997Y282264D01*
X61464Y279797D01*
X63827Y278433D01*
Y276967D01*
X61464Y275603D01*
X58997Y273136D01*
X57253Y270114D01*
X56350Y266744D01*
Y263256D01*
X57253Y259886D01*
X58997Y256864D01*
X61464Y254397D01*
X63827Y253033D01*
Y251567D01*
X61464Y250203D01*
X58997Y247736D01*
X57253Y244714D01*
X56350Y241344D01*
Y237856D01*
X57253Y234486D01*
X58997Y231464D01*
X61464Y228997D01*
X63827Y227633D01*
Y226167D01*
X61464Y224803D01*
X58997Y222336D01*
X57253Y219314D01*
X56350Y215944D01*
Y212456D01*
X57253Y209086D01*
X58997Y206064D01*
X61464Y203597D01*
X63827Y202233D01*
Y200767D01*
X61464Y199403D01*
X58997Y196936D01*
X57253Y193914D01*
X56350Y190544D01*
Y187056D01*
X57253Y183686D01*
X58997Y180664D01*
X61464Y178197D01*
X63827Y176833D01*
Y175367D01*
X61464Y174003D01*
X58997Y171536D01*
X57253Y168514D01*
X56350Y165144D01*
Y161656D01*
X57253Y158286D01*
X58997Y155264D01*
X61464Y152797D01*
X64486Y151053D01*
X67856Y150150D01*
X71344D01*
X74714Y151053D01*
X77736Y152797D01*
X80203Y155264D01*
X81567Y157627D01*
X83033D01*
X84397Y155264D01*
X86864Y152797D01*
X89886Y151053D01*
X93256Y150150D01*
X96744D01*
X100114Y151053D01*
X103136Y152797D01*
X105603Y155264D01*
X107347Y158286D01*
X108250Y161656D01*
Y165144D01*
X107347Y168514D01*
X105603Y171536D01*
X103136Y174003D01*
X100773Y175367D01*
Y176833D01*
X103136Y178197D01*
X105603Y180664D01*
X107347Y183686D01*
X108250Y187056D01*
Y190544D01*
X107347Y193914D01*
X105603Y196936D01*
X103136Y199403D01*
X100773Y200767D01*
Y202233D01*
X103136Y203597D01*
X105603Y206064D01*
X107347Y209086D01*
X108250Y212456D01*
Y215944D01*
X107347Y219314D01*
X105603Y222336D01*
X103136Y224803D01*
X100773Y226167D01*
Y227633D01*
X103136Y228997D01*
X105603Y231464D01*
X107347Y234486D01*
X108250Y237856D01*
Y241344D01*
X107347Y244714D01*
X105603Y247736D01*
X103136Y250203D01*
X100773Y251567D01*
Y253033D01*
X103136Y254397D01*
X105603Y256864D01*
X107347Y259886D01*
X108250Y263256D01*
Y266744D01*
X107347Y270114D01*
X105603Y273136D01*
X103136Y275603D01*
X102580Y275923D01*
X102909Y277150D01*
X108250D01*
Y303650D01*
D02*
G37*
G36*
X311500Y276500D02*
X288500D01*
Y253500D01*
X311500D01*
Y276500D01*
D02*
G37*
G36*
X276114D02*
X273086D01*
X270161Y275716D01*
X267539Y274202D01*
X265398Y272061D01*
X263884Y269439D01*
X263100Y266514D01*
Y263486D01*
X263884Y260561D01*
X265398Y257939D01*
X267539Y255798D01*
X270161Y254284D01*
X273086Y253500D01*
X276114D01*
X279039Y254284D01*
X281661Y255798D01*
X283802Y257939D01*
X285316Y260561D01*
X286100Y263486D01*
Y266514D01*
X285316Y269439D01*
X283802Y272061D01*
X281661Y274202D01*
X279039Y275716D01*
X276114Y276500D01*
D02*
G37*
G36*
X751317Y270000D02*
X748683D01*
X746140Y269319D01*
X743860Y268002D01*
X741998Y266140D01*
X740682Y263860D01*
X740000Y261317D01*
Y258683D01*
X740682Y256140D01*
X741998Y253860D01*
X743860Y251998D01*
X746140Y250681D01*
X748683Y250000D01*
X751317D01*
X753860Y250681D01*
X756140Y251998D01*
X758002Y253860D01*
X759318Y256140D01*
X760000Y258683D01*
Y261317D01*
X759318Y263860D01*
X758002Y266140D01*
X756140Y268002D01*
X753860Y269319D01*
X751317Y270000D01*
D02*
G37*
G36*
X626750Y236750D02*
X603250D01*
Y213250D01*
X626750D01*
Y236750D01*
D02*
G37*
G36*
X541547D02*
X538453D01*
X535465Y235949D01*
X532785Y234402D01*
X530598Y232215D01*
X529051Y229535D01*
X528250Y226547D01*
Y223453D01*
X529051Y220465D01*
X530598Y217785D01*
X532785Y215598D01*
X535465Y214051D01*
X538453Y213250D01*
X541547D01*
X544535Y214051D01*
X547215Y215598D01*
X549402Y217785D01*
X550949Y220465D01*
X551750Y223453D01*
Y226547D01*
X550949Y229535D01*
X549402Y232215D01*
X547215Y234402D01*
X544535Y235949D01*
X541547Y236750D01*
D02*
G37*
G36*
X761547Y231750D02*
X758453D01*
X755465Y230949D01*
X752785Y229402D01*
X750598Y227215D01*
X749051Y224535D01*
X748250Y221547D01*
Y218453D01*
X749051Y215465D01*
X750598Y212785D01*
X752785Y210598D01*
X755465Y209051D01*
X758453Y208250D01*
X761547D01*
X764535Y209051D01*
X767215Y210598D01*
X769402Y212785D01*
X770949Y215465D01*
X771750Y218453D01*
Y221547D01*
X770949Y224535D01*
X769402Y227215D01*
X767215Y229402D01*
X764535Y230949D01*
X761547Y231750D01*
D02*
G37*
G36*
X686547D02*
X683453D01*
X680465Y230949D01*
X677785Y229402D01*
X675598Y227215D01*
X674051Y224535D01*
X673250Y221547D01*
Y218453D01*
X674051Y215465D01*
X675598Y212785D01*
X677785Y210598D01*
X680465Y209051D01*
X683453Y208250D01*
X686547D01*
X689535Y209051D01*
X692215Y210598D01*
X694402Y212785D01*
X695949Y215465D01*
X696750Y218453D01*
Y221547D01*
X695949Y224535D01*
X694402Y227215D01*
X692215Y229402D01*
X689535Y230949D01*
X686547Y231750D01*
D02*
G37*
G36*
X466547D02*
X463453D01*
X460465Y230949D01*
X457785Y229402D01*
X455598Y227215D01*
X454051Y224535D01*
X453250Y221547D01*
Y218453D01*
X454051Y215465D01*
X455598Y212785D01*
X457785Y210598D01*
X460465Y209051D01*
X463453Y208250D01*
X466547D01*
X469535Y209051D01*
X472215Y210598D01*
X474402Y212785D01*
X475949Y215465D01*
X476750Y218453D01*
Y221547D01*
X475949Y224535D01*
X474402Y227215D01*
X472215Y229402D01*
X469535Y230949D01*
X466547Y231750D01*
D02*
G37*
G36*
X386547D02*
X383453D01*
X380465Y230949D01*
X377785Y229402D01*
X375598Y227215D01*
X374051Y224535D01*
X373250Y221547D01*
Y218453D01*
X374051Y215465D01*
X375598Y212785D01*
X377785Y210598D01*
X380465Y209051D01*
X383453Y208250D01*
X386547D01*
X389535Y209051D01*
X392215Y210598D01*
X394402Y212785D01*
X395949Y215465D01*
X396750Y218453D01*
Y221547D01*
X395949Y224535D01*
X394402Y227215D01*
X392215Y229402D01*
X389535Y230949D01*
X386547Y231750D01*
D02*
G37*
G36*
X841547Y223750D02*
X838453D01*
X835465Y222949D01*
X832785Y221402D01*
X830598Y219215D01*
X829051Y216535D01*
X828250Y213547D01*
Y210453D01*
X829051Y207465D01*
X830598Y204785D01*
X832785Y202598D01*
X835465Y201051D01*
X838453Y200250D01*
X841547D01*
X844535Y201051D01*
X847215Y202598D01*
X849402Y204785D01*
X850949Y207465D01*
X851750Y210453D01*
Y213547D01*
X850949Y216535D01*
X849402Y219215D01*
X847215Y221402D01*
X844535Y222949D01*
X841547Y223750D01*
D02*
G37*
G36*
X303948Y206000D02*
X301052D01*
X298254Y205250D01*
X295746Y203802D01*
X293698Y201754D01*
X292250Y199246D01*
X291500Y196448D01*
Y193552D01*
X292250Y190754D01*
X293698Y188246D01*
X295746Y186198D01*
X298254Y184750D01*
X301052Y184000D01*
X303948D01*
X306746Y184750D01*
X309254Y186198D01*
X311302Y188246D01*
X312750Y190754D01*
X313500Y193552D01*
Y196448D01*
X312750Y199246D01*
X311302Y201754D01*
X309254Y203802D01*
X306746Y205250D01*
X303948Y206000D01*
D02*
G37*
G36*
X288500D02*
X266500D01*
Y184000D01*
X288500D01*
Y206000D01*
D02*
G37*
G36*
X851750Y159750D02*
X828250D01*
Y136250D01*
X851750D01*
Y159750D01*
D02*
G37*
G36*
X316500Y131500D02*
X293500D01*
Y129423D01*
X292327Y128937D01*
X292061Y129202D01*
X289439Y130716D01*
X286514Y131500D01*
X283486D01*
X280561Y130716D01*
X277939Y129202D01*
X275798Y127061D01*
X274284Y124439D01*
X273500Y121514D01*
Y118486D01*
X274284Y115561D01*
X275798Y112939D01*
X277939Y110798D01*
X280561Y109284D01*
X283486Y108500D01*
X286514D01*
X289439Y109284D01*
X292061Y110798D01*
X292327Y111063D01*
X293500Y110577D01*
Y108500D01*
X316500D01*
Y131500D01*
D02*
G37*
G36*
X616547Y146750D02*
X613453D01*
X610465Y145949D01*
X607785Y144402D01*
X605598Y142215D01*
X604051Y139535D01*
X603250Y136547D01*
Y133453D01*
X604051Y130465D01*
X605598Y127785D01*
X607785Y125598D01*
X610465Y124051D01*
X613453Y123250D01*
X616547D01*
X619535Y124051D01*
X622215Y125598D01*
X624402Y127785D01*
X625949Y130465D01*
X626750Y133453D01*
Y136547D01*
X625949Y139535D01*
X624402Y142215D01*
X622215Y144402D01*
X619535Y145949D01*
X616547Y146750D01*
D02*
G37*
G36*
X551750D02*
X528250D01*
Y123250D01*
X551750D01*
Y146750D01*
D02*
G37*
G36*
X382460Y127460D02*
X375710D01*
Y120710D01*
X382460D01*
Y127460D01*
D02*
G37*
G36*
X771750Y141750D02*
X748250D01*
Y118250D01*
X771750D01*
Y141750D01*
D02*
G37*
G36*
X696750D02*
X673250D01*
Y118250D01*
X696750D01*
Y141750D01*
D02*
G37*
G36*
X476750D02*
X453250D01*
Y118250D01*
X476750D01*
Y141750D01*
D02*
G37*
G36*
X907460Y67460D02*
X901322D01*
X901576Y66511D01*
X902766Y64449D01*
X904449Y62766D01*
X906511Y61576D01*
X907460Y61322D01*
Y67460D01*
D02*
G37*
G36*
X516617Y77049D02*
X513984D01*
X511441Y76368D01*
X509160Y75051D01*
X507299Y73190D01*
X505982Y70909D01*
X505300Y68366D01*
Y65733D01*
X505982Y63190D01*
X507299Y60909D01*
X509160Y59047D01*
X511441Y57731D01*
X513984Y57049D01*
X516617D01*
X519160Y57731D01*
X521441Y59047D01*
X523302Y60909D01*
X524619Y63190D01*
X525300Y65733D01*
Y68366D01*
X524619Y70909D01*
X523302Y73190D01*
X521441Y75051D01*
X519160Y76368D01*
X516617Y77049D01*
D02*
G37*
%LPD*%
D18*
X910000Y70000D02*
D03*
X915000Y255000D02*
D03*
D24*
X635000Y530000D02*
D03*
X287500Y910000D02*
D03*
Y615000D02*
D03*
D39*
X287700Y850000D02*
D03*
Y780000D02*
D03*
Y695000D02*
D03*
X285000Y540000D02*
D03*
D42*
Y605322D02*
G03*
X285405Y609000I-16500J3678D01*
G01*
X517105Y439405D02*
X518100Y440400D01*
X507991Y439405D02*
X517105D01*
X493695Y425109D02*
X507991Y439405D01*
X493695Y404891D02*
Y425109D01*
Y404891D02*
X507991Y390595D01*
X517105D02*
X518100Y389600D01*
X507991Y390595D02*
X517105D01*
X482495Y466891D02*
Y712495D01*
X484600Y714600D01*
X482495Y466891D02*
X507991Y441395D01*
X287700Y695000D02*
X399063D01*
X418663Y714600D01*
X484600D01*
X506900D01*
X493695Y288695D02*
Y374309D01*
X441345Y236345D02*
X493695Y288695D01*
Y374309D02*
X507991Y388605D01*
X441345Y186345D02*
Y236345D01*
X507991Y388605D02*
X517105D01*
X518100Y389600D01*
X385000Y130000D02*
X441345Y186345D01*
X915000Y258405D02*
Y270000D01*
X930000D02*
X940000Y260000D01*
X915000Y270000D02*
Y347768D01*
X940000Y100000D02*
Y260000D01*
X915000Y270000D02*
X930000D01*
X910000Y70000D02*
X940000Y100000D01*
X912768Y350000D02*
X915000Y347768D01*
X647593Y350000D02*
X912768D01*
X607993Y389600D02*
X647593Y350000D01*
X518100Y389600D02*
X607993D01*
X518100Y440400D02*
X545400D01*
X635000Y530000D01*
X517105Y441395D02*
X518100Y440400D01*
X507991Y441395D02*
X517105D01*
X285405Y612905D02*
X287500Y615000D01*
X285000Y540000D02*
Y605322D01*
X285405Y609000D02*
Y612905D01*
X402768Y910000D02*
X405000Y912232D01*
X287500Y910000D02*
X402768D01*
X405000Y934600D02*
X405400Y935000D01*
X405000Y912232D02*
Y934600D01*
X287500Y850200D02*
Y910000D01*
Y850200D02*
X287700Y850000D01*
Y780000D02*
Y850000D01*
Y695000D02*
Y780000D01*
X287500Y694800D02*
X287700Y695000D01*
X287500Y615000D02*
Y694800D01*
X135000Y544436D02*
X135547D01*
X174983Y505000D01*
X285000Y507232D02*
Y540000D01*
X174983Y505000D02*
X282768D01*
X285000Y507232D01*
D45*
X405400Y935000D02*
D03*
D46*
X518100Y389600D02*
D03*
Y440400D02*
D03*
X506900Y714600D02*
D03*
D50*
X385000Y130000D02*
D03*
D53*
X135000Y544436D02*
D03*
M02*
