G04*
G04 #@! TF.GenerationSoftware,Altium Limited,Altium Designer,22.9.1 (49)*
G04*
G04 Layer_Color=65535*
%FSLAX44Y44*%
%MOMM*%
G71*
G04*
G04 #@! TF.SameCoordinates,DBEF2CFB-25A5-4AA8-B732-6DF96BC3893C*
G04*
G04*
G04 #@! TF.FilePolarity,Positive*
G04*
G01*
G75*
%ADD10C,0.2500*%
%ADD11C,0.6000*%
%ADD12C,0.2000*%
%ADD13C,0.5000*%
%ADD14C,0.2540*%
%ADD15C,0.1524*%
%ADD16C,0.1500*%
D10*
X911000Y125500D02*
G03*
X911000Y125500I-1250J0D01*
G01*
X443150Y504200D02*
G03*
X443150Y504200I-1250J0D01*
G01*
X803250Y935750D02*
G03*
X803250Y935750I-1250J0D01*
G01*
X808250Y824675D02*
G03*
X808250Y824675I-1250J0D01*
G01*
X916500Y199500D02*
G03*
X916500Y199500I-1250J0D01*
G01*
X846750Y45250D02*
G03*
X846750Y45250I-1250J0D01*
G01*
X716750D02*
G03*
X716750Y45250I-1250J0D01*
G01*
X586750D02*
G03*
X586750Y45250I-1250J0D01*
G01*
X508150Y829200D02*
G03*
X508150Y829200I-1250J0D01*
G01*
D11*
X466500Y503500D02*
G03*
X466500Y503500I-3000J0D01*
G01*
X531500Y828500D02*
G03*
X531500Y828500I-3000J0D01*
G01*
D12*
X473650Y513500D02*
G03*
X486350Y513500I6350J0D01*
G01*
X320000Y120000D02*
G03*
X320000Y120000I-25000J0D01*
G01*
X795000Y555000D02*
G03*
X795000Y555000I-25000J0D01*
G01*
X405000Y480000D02*
G03*
X405000Y480000I-25000J0D01*
G01*
X538650Y838500D02*
G03*
X551350Y838500I6350J0D01*
G01*
X390000Y635000D02*
G03*
X390000Y635000I-25000J0D01*
G01*
X300000Y540000D02*
G03*
X300000Y540000I-25000J0D01*
G01*
X899000Y121000D02*
X921000D01*
X899000Y59000D02*
Y121000D01*
Y59000D02*
X921000D01*
Y121000D01*
X928450Y878100D02*
Y931900D01*
X901550Y878100D02*
X928450D01*
X901550D02*
Y931900D01*
X928450D01*
X453500Y316500D02*
X506500D01*
X486350Y513500D02*
X506500D01*
X453500D02*
X473650D01*
X506500Y316500D02*
Y513500D01*
X453500Y316500D02*
Y513500D01*
X262000Y444750D02*
Y447500D01*
Y422500D02*
Y425250D01*
Y422500D02*
X298000D01*
Y444750D02*
Y447500D01*
Y422500D02*
Y425250D01*
X262000Y447500D02*
X298000D01*
X301750Y367300D02*
Y369500D01*
X263650Y367300D02*
Y369500D01*
Y390500D02*
Y392700D01*
X301750Y390500D02*
Y392700D01*
X263650Y367300D02*
X301750D01*
X263650Y392700D02*
X301750D01*
Y312300D02*
Y314500D01*
X263650Y312300D02*
Y314500D01*
Y335500D02*
Y337700D01*
X301750Y335500D02*
Y337700D01*
X263650Y312300D02*
X301750D01*
X263650Y337700D02*
X301750D01*
X135750Y185600D02*
X193000D01*
X135750Y192000D02*
X193000D01*
Y185600D02*
X195000Y187600D01*
X193000Y192000D02*
X195000Y190000D01*
Y187600D02*
Y190000D01*
X135750Y236400D02*
X193000D01*
X135750Y242800D02*
X193000D01*
Y236400D02*
X195000Y238400D01*
X193000Y242800D02*
X195000Y240800D01*
Y238400D02*
Y240800D01*
X108850Y149200D02*
Y304600D01*
X135750D01*
Y149200D02*
Y304600D01*
X108850Y149200D02*
X135750D01*
Y287200D02*
X193000D01*
X135750Y293600D02*
X193000D01*
Y287200D02*
X195000Y289200D01*
X193000Y293600D02*
X195000Y291600D01*
Y289200D02*
Y291600D01*
Y263800D02*
Y266200D01*
X193000Y268200D02*
X195000Y266200D01*
X193000Y261800D02*
X195000Y263800D01*
X135750Y268200D02*
X193000D01*
X135750Y261800D02*
X193000D01*
X195000Y213000D02*
Y215400D01*
X193000Y217400D02*
X195000Y215400D01*
X193000Y211000D02*
X195000Y213000D01*
X135750Y217400D02*
X193000D01*
X135750Y211000D02*
X193000D01*
X195000Y162200D02*
Y164600D01*
X193000Y166600D02*
X195000Y164600D01*
X193000Y160200D02*
X195000Y162200D01*
X135750Y166600D02*
X193000D01*
X135750Y160200D02*
X193000D01*
X261900Y249100D02*
Y280900D01*
X312700D01*
X261900Y249100D02*
X312700D01*
Y280900D01*
X265000Y179000D02*
Y211000D01*
Y179000D02*
X315000D01*
Y211000D01*
X265000D02*
X315000D01*
X928450Y755400D02*
Y809200D01*
X901550Y755400D02*
X928450D01*
X901550D02*
Y809200D01*
X928450D01*
X778000Y721500D02*
X802000D01*
Y658500D02*
Y721500D01*
X778000Y658500D02*
Y721500D01*
Y658500D02*
X802000D01*
X923450Y608100D02*
Y661900D01*
X896550Y608100D02*
X923450D01*
X896550D02*
Y661900D01*
X923450D01*
X849520Y534058D02*
X925720D01*
Y375566D02*
Y534058D01*
X849520Y375562D02*
X925720D01*
X849520D02*
Y534053D01*
X698000Y953000D02*
X792000D01*
X693000Y907000D02*
X698000Y953000D01*
X792000D02*
X797000Y907000D01*
X693000D02*
X797000D01*
X644750Y573000D02*
X647500D01*
X622500D02*
X625250D01*
X622500Y537000D02*
Y573000D01*
X644750Y537000D02*
X647500D01*
X622500D02*
X625250D01*
X647500D02*
Y573000D01*
X748000Y206500D02*
X772000D01*
Y143500D02*
Y206500D01*
X748000Y143500D02*
Y206500D01*
Y143500D02*
X772000D01*
X373000Y206500D02*
X397000D01*
Y143500D02*
Y206500D01*
X373000Y143500D02*
Y206500D01*
Y143500D02*
X397000D01*
X663000Y721500D02*
X687000D01*
Y658500D02*
Y721500D01*
X663000Y658500D02*
Y721500D01*
Y658500D02*
X687000D01*
X771500Y448000D02*
Y472000D01*
X708500Y448000D02*
X771500D01*
X708500Y472000D02*
X771500D01*
X708500Y448000D02*
Y472000D01*
X703000Y841925D02*
X797000D01*
X698000Y795925D02*
X703000Y841925D01*
X797000D02*
X802000Y795925D01*
X698000D02*
X802000D01*
X904000Y204000D02*
X926000D01*
Y266000D01*
X904000D02*
X926000D01*
X904000Y204000D02*
Y266000D01*
X841000Y34000D02*
Y56000D01*
X779000D02*
X841000D01*
X779000Y34000D02*
Y56000D01*
Y34000D02*
X841000D01*
X828875Y301175D02*
Y318825D01*
X791125Y301175D02*
X828875D01*
X791125D02*
Y318825D01*
X828875D01*
X797300Y301175D02*
Y318825D01*
X613000Y333500D02*
X637000D01*
X613000D02*
Y396500D01*
X637000Y333500D02*
Y396500D01*
X613000D02*
X637000D01*
X711000Y34000D02*
Y56000D01*
X649000D02*
X711000D01*
X649000Y34000D02*
Y56000D01*
Y34000D02*
X711000D01*
X581000D02*
Y56000D01*
X519000D02*
X581000D01*
X519000Y34000D02*
Y56000D01*
Y34000D02*
X581000D01*
X831175Y161125D02*
X848825D01*
X831175D02*
Y198875D01*
X848825D01*
Y161125D02*
Y198875D01*
X831175Y192700D02*
X848825D01*
X390800Y58450D02*
X444600D01*
Y31550D02*
Y58450D01*
X390800Y31550D02*
X444600D01*
X390800D02*
Y58450D01*
X257000Y919750D02*
Y922500D01*
Y897500D02*
Y900250D01*
Y897500D02*
X293000D01*
Y919750D02*
Y922500D01*
Y897500D02*
Y900250D01*
X257000Y922500D02*
X293000D01*
X603000Y148500D02*
X627000D01*
X603000D02*
Y211500D01*
X627000Y148500D02*
Y211500D01*
X603000D02*
X627000D01*
X255400Y31550D02*
X309200D01*
X255400D02*
Y58450D01*
X309200D01*
Y31550D02*
Y58450D01*
X528000Y211500D02*
X552000D01*
Y148500D02*
Y211500D01*
X528000Y148500D02*
Y211500D01*
Y148500D02*
X552000D01*
X294050Y837300D02*
Y839500D01*
X255950Y837300D02*
Y839500D01*
Y860500D02*
Y862700D01*
X294050Y860500D02*
Y862700D01*
X255950Y837300D02*
X294050D01*
X255950Y862700D02*
X294050D01*
X453000Y206500D02*
X477000D01*
Y143500D02*
Y206500D01*
X453000Y143500D02*
Y206500D01*
Y143500D02*
X477000D01*
X128450Y733700D02*
X185700D01*
X128450Y740100D02*
X185700D01*
Y733700D02*
X187700Y735700D01*
X185700Y740100D02*
X187700Y738100D01*
Y735700D02*
Y738100D01*
X128450Y784500D02*
X185700D01*
X128450Y790900D02*
X185700D01*
Y784500D02*
X187700Y786500D01*
X185700Y790900D02*
X187700Y788900D01*
Y786500D02*
Y788900D01*
X101550Y697300D02*
Y852700D01*
X128450D01*
Y697300D02*
Y852700D01*
X101550Y697300D02*
X128450D01*
Y835300D02*
X185700D01*
X128450Y841700D02*
X185700D01*
Y835300D02*
X187700Y837300D01*
X185700Y841700D02*
X187700Y839700D01*
Y837300D02*
Y839700D01*
Y811900D02*
Y814300D01*
X185700Y816300D02*
X187700Y814300D01*
X185700Y809900D02*
X187700Y811900D01*
X128450Y816300D02*
X185700D01*
X128450Y809900D02*
X185700D01*
X187700Y761100D02*
Y763500D01*
X185700Y765500D02*
X187700Y763500D01*
X185700Y759100D02*
X187700Y761100D01*
X128450Y765500D02*
X185700D01*
X128450Y759100D02*
X185700D01*
X187700Y710300D02*
Y712700D01*
X185700Y714700D02*
X187700Y712700D01*
X185700Y708300D02*
X187700Y710300D01*
X128450Y714700D02*
X185700D01*
X128450Y708300D02*
X185700D01*
X503100Y948450D02*
X556900D01*
Y921550D02*
Y948450D01*
X503100Y921550D02*
X556900D01*
X503100D02*
Y948450D01*
X518500Y641500D02*
X571500D01*
X551350Y838500D02*
X571500D01*
X518500D02*
X538650D01*
X571500Y641500D02*
Y838500D01*
X518500Y641500D02*
Y838500D01*
X294050Y767300D02*
Y769500D01*
X255950Y767300D02*
Y769500D01*
Y790500D02*
Y792700D01*
X294050Y790500D02*
Y792700D01*
X255950Y767300D02*
X294050D01*
X255950Y792700D02*
X294050D01*
X673000Y206500D02*
X697000D01*
Y143500D02*
Y206500D01*
X673000Y143500D02*
Y206500D01*
Y143500D02*
X697000D01*
X249600Y679100D02*
Y710900D01*
X300400D01*
X249600Y679100D02*
X300400D01*
Y710900D01*
X89280Y405754D02*
X165480D01*
X89280D02*
Y564245D01*
X89280Y564250D02*
X165480D01*
Y405759D02*
Y564250D01*
X368000Y743500D02*
X392000D01*
X368000D02*
Y806500D01*
X392000Y743500D02*
Y806500D01*
X368000D02*
X392000D01*
X250000Y599000D02*
Y631000D01*
Y599000D02*
X300000D01*
Y631000D01*
X250000D02*
X300000D01*
X365800Y921550D02*
X419600D01*
X365800D02*
Y948450D01*
X419600D01*
Y921550D02*
Y948450D01*
D13*
X882371Y543062D02*
G03*
X882371Y543062I-2500J0D01*
G01*
X137629Y396750D02*
G03*
X137629Y396750I-2500J0D01*
G01*
D14*
X909571Y150871D02*
X904492D01*
X907031D01*
Y138175D01*
X904492Y135636D01*
X901953D01*
X899414Y138175D01*
X914649Y150871D02*
X924806D01*
Y148332D01*
X914649Y138175D01*
Y135636D01*
X857461Y932617D02*
X852383D01*
X854922D01*
Y919922D01*
X852383Y917383D01*
X849843D01*
X847304Y919922D01*
X872696Y917383D02*
X862539D01*
X872696Y927539D01*
Y930078D01*
X870157Y932617D01*
X865078D01*
X862539Y930078D01*
X433832Y538983D02*
Y526287D01*
X436371Y523748D01*
X441450D01*
X443989Y526287D01*
Y538983D01*
X449067Y523748D02*
X454145D01*
X451606D01*
Y538983D01*
X449067Y536444D01*
X272285Y469896D02*
X269746Y472435D01*
X264667D01*
X262128Y469896D01*
Y459739D01*
X264667Y457200D01*
X269746D01*
X272285Y459739D01*
X277363Y457200D02*
X282441D01*
X279902D01*
Y472435D01*
X277363Y469896D01*
X274825Y414270D02*
X272285Y416809D01*
X267207D01*
X264668Y414270D01*
Y404113D01*
X267207Y401574D01*
X272285D01*
X274825Y404113D01*
X290060Y401574D02*
X279903D01*
X290060Y411731D01*
Y414270D01*
X287521Y416809D01*
X282442D01*
X279903Y414270D01*
X274825Y359152D02*
X272285Y361691D01*
X267207D01*
X264668Y359152D01*
Y348995D01*
X267207Y346456D01*
X272285D01*
X274825Y348995D01*
X279903Y359152D02*
X282442Y361691D01*
X287521D01*
X290060Y359152D01*
Y356613D01*
X287521Y354073D01*
X284981D01*
X287521D01*
X290060Y351534D01*
Y348995D01*
X287521Y346456D01*
X282442D01*
X279903Y348995D01*
X71879Y334767D02*
X66800D01*
X69339D01*
Y322071D01*
X66800Y319532D01*
X64261D01*
X61722Y322071D01*
X76957Y319532D02*
X82035D01*
X79496D01*
Y334767D01*
X76957Y332228D01*
X273301Y302510D02*
X270762Y305049D01*
X265683D01*
X263144Y302510D01*
Y292353D01*
X265683Y289814D01*
X270762D01*
X273301Y292353D01*
X285997Y289814D02*
Y305049D01*
X278379Y297432D01*
X288536D01*
X275587Y233422D02*
X273048Y235961D01*
X267969D01*
X265430Y233422D01*
Y223265D01*
X267969Y220726D01*
X273048D01*
X275587Y223265D01*
X290822Y235961D02*
X280665D01*
Y228344D01*
X285743Y230883D01*
X288283D01*
X290822Y228344D01*
Y223265D01*
X288283Y220726D01*
X283204D01*
X280665Y223265D01*
X281429Y166620D02*
X278890Y169159D01*
X273811D01*
X271272Y166620D01*
Y156463D01*
X273811Y153924D01*
X278890D01*
X281429Y156463D01*
X296664Y169159D02*
X291585Y166620D01*
X286507Y161542D01*
Y156463D01*
X289046Y153924D01*
X294125D01*
X296664Y156463D01*
Y159002D01*
X294125Y161542D01*
X286507D01*
X912111Y834385D02*
X907032D01*
X909572D01*
Y821689D01*
X907032Y819150D01*
X904493D01*
X901954Y821689D01*
X917189Y831846D02*
X919728Y834385D01*
X924807D01*
X927346Y831846D01*
Y829307D01*
X924807Y826768D01*
X922267D01*
X924807D01*
X927346Y824228D01*
Y821689D01*
X924807Y819150D01*
X919728D01*
X917189Y821689D01*
X779272Y750570D02*
Y765805D01*
X786889D01*
X789429Y763266D01*
Y758187D01*
X786889Y755648D01*
X779272D01*
X784350D02*
X789429Y750570D01*
X794507D02*
X799585D01*
X797046D01*
Y765805D01*
X794507Y763266D01*
X907031Y687065D02*
X901952D01*
X904492D01*
Y674369D01*
X901952Y671830D01*
X899413D01*
X896874Y674369D01*
X919727Y671830D02*
Y687065D01*
X912109Y679447D01*
X922266D01*
X861057Y570987D02*
X855978D01*
X858518D01*
Y558291D01*
X855978Y555752D01*
X853439D01*
X850900Y558291D01*
X876292Y570987D02*
X866135D01*
Y563369D01*
X871213Y565909D01*
X873753D01*
X876292Y563369D01*
Y558291D01*
X873753Y555752D01*
X868674D01*
X866135Y558291D01*
X742185Y601468D02*
X739645Y604007D01*
X734567D01*
X732028Y601468D01*
Y591311D01*
X734567Y588772D01*
X739645D01*
X742185Y591311D01*
X747263Y604007D02*
X757420D01*
Y601468D01*
X747263Y591311D01*
Y588772D01*
X703577Y965199D02*
Y975356D01*
X701038Y977895D01*
X695959D01*
X693420Y975356D01*
Y965199D01*
X695959Y962660D01*
X701038D01*
X698498Y967738D02*
X703577Y962660D01*
X701038D02*
X703577Y965199D01*
X708655Y962660D02*
X713733D01*
X711194D01*
Y977895D01*
X708655Y975356D01*
X633219Y608326D02*
X630680Y610865D01*
X625601D01*
X623062Y608326D01*
Y598169D01*
X625601Y595630D01*
X630680D01*
X633219Y598169D01*
X638297Y608326D02*
X640836Y610865D01*
X645915D01*
X648454Y608326D01*
Y605787D01*
X645915Y603247D01*
X648454Y600708D01*
Y598169D01*
X645915Y595630D01*
X640836D01*
X638297Y598169D01*
Y600708D01*
X640836Y603247D01*
X638297Y605787D01*
Y608326D01*
X640836Y603247D02*
X645915D01*
X749300Y235712D02*
Y250947D01*
X756917D01*
X759457Y248408D01*
Y243330D01*
X756917Y240790D01*
X749300D01*
X754378D02*
X759457Y235712D01*
X774692D02*
X764535D01*
X774692Y245869D01*
Y248408D01*
X772153Y250947D01*
X767074D01*
X764535Y248408D01*
X374396Y235712D02*
Y250947D01*
X382014D01*
X384553Y248408D01*
Y243330D01*
X382014Y240790D01*
X374396D01*
X379474D02*
X384553Y235712D01*
X397249D02*
Y250947D01*
X389631Y243330D01*
X399788D01*
X664210Y750570D02*
Y765805D01*
X671827D01*
X674367Y763266D01*
Y758187D01*
X671827Y755648D01*
X664210D01*
X669288D02*
X674367Y750570D01*
X679445Y763266D02*
X681984Y765805D01*
X687063D01*
X689602Y763266D01*
Y760727D01*
X687063Y758187D01*
X684523D01*
X687063D01*
X689602Y755648D01*
Y753109D01*
X687063Y750570D01*
X681984D01*
X679445Y753109D01*
X689610Y480822D02*
Y496057D01*
X697227D01*
X699767Y493518D01*
Y488439D01*
X697227Y485900D01*
X689610D01*
X694688D02*
X699767Y480822D01*
X715002Y496057D02*
X704845D01*
Y488439D01*
X709923Y490979D01*
X712463D01*
X715002Y488439D01*
Y483361D01*
X712463Y480822D01*
X707384D01*
X704845Y483361D01*
X708657Y854201D02*
Y864358D01*
X706117Y866897D01*
X701039D01*
X698500Y864358D01*
Y854201D01*
X701039Y851662D01*
X706117D01*
X703578Y856740D02*
X708657Y851662D01*
X706117D02*
X708657Y854201D01*
X723892Y851662D02*
X713735D01*
X723892Y861819D01*
Y864358D01*
X721353Y866897D01*
X716274D01*
X713735Y864358D01*
X366519Y526538D02*
X363979Y529077D01*
X358901D01*
X356362Y526538D01*
Y516381D01*
X358901Y513842D01*
X363979D01*
X366519Y516381D01*
X371597Y513842D02*
X376675D01*
X374136D01*
Y529077D01*
X371597Y526538D01*
X394450Y529077D02*
X384293D01*
Y521460D01*
X389371Y523999D01*
X391911D01*
X394450Y521460D01*
Y516381D01*
X391911Y513842D01*
X386832D01*
X384293Y516381D01*
X914651Y290825D02*
X909572D01*
X912112D01*
Y278129D01*
X909572Y275590D01*
X907033D01*
X904494Y278129D01*
X929886Y290825D02*
X924807Y288286D01*
X919729Y283207D01*
Y278129D01*
X922268Y275590D01*
X927347D01*
X929886Y278129D01*
Y280668D01*
X927347Y283207D01*
X919729D01*
X789683Y80767D02*
X784604D01*
X787143D01*
Y68071D01*
X784604Y65532D01*
X782065D01*
X779526Y68071D01*
X794761Y78228D02*
X797300Y80767D01*
X802379D01*
X804918Y78228D01*
Y75689D01*
X802379Y73149D01*
X804918Y70610D01*
Y68071D01*
X802379Y65532D01*
X797300D01*
X794761Y68071D01*
Y70610D01*
X797300Y73149D01*
X794761Y75689D01*
Y78228D01*
X797300Y73149D02*
X802379D01*
X772414Y342895D02*
Y327660D01*
X780032D01*
X782571Y330199D01*
Y340356D01*
X780032Y342895D01*
X772414D01*
X787649Y327660D02*
X792727D01*
X790188D01*
Y342895D01*
X787649Y340356D01*
X614172Y425704D02*
Y440939D01*
X621790D01*
X624329Y438400D01*
Y433321D01*
X621790Y430782D01*
X614172D01*
X619250D02*
X624329Y425704D01*
X639564Y440939D02*
X634485Y438400D01*
X629407Y433321D01*
Y428243D01*
X631946Y425704D01*
X637025D01*
X639564Y428243D01*
Y430782D01*
X637025Y433321D01*
X629407D01*
X659635Y80767D02*
X654556D01*
X657095D01*
Y68071D01*
X654556Y65532D01*
X652017D01*
X649478Y68071D01*
X664713D02*
X667252Y65532D01*
X672331D01*
X674870Y68071D01*
Y78228D01*
X672331Y80767D01*
X667252D01*
X664713Y78228D01*
Y75689D01*
X667252Y73149D01*
X674870D01*
X529587Y80767D02*
X524508D01*
X527048D01*
Y68071D01*
X524508Y65532D01*
X521969D01*
X519430Y68071D01*
X534665Y65532D02*
X539743D01*
X537204D01*
Y80767D01*
X534665Y78228D01*
X547361D02*
X549900Y80767D01*
X554978D01*
X557518Y78228D01*
Y68071D01*
X554978Y65532D01*
X549900D01*
X547361Y68071D01*
Y78228D01*
X832358Y242819D02*
Y227584D01*
X839976D01*
X842515Y230123D01*
Y240280D01*
X839976Y242819D01*
X832358D01*
X857750Y227584D02*
X847593D01*
X857750Y237741D01*
Y240280D01*
X855211Y242819D01*
X850132D01*
X847593Y240280D01*
X401317Y83561D02*
X396238D01*
X398778D01*
Y70865D01*
X396238Y68326D01*
X393699D01*
X391160Y70865D01*
X406395Y68326D02*
X411473D01*
X408934D01*
Y83561D01*
X406395Y81022D01*
X419091Y68326D02*
X424169D01*
X421630D01*
Y83561D01*
X419091Y81022D01*
X267205Y944876D02*
X264666Y947415D01*
X259587D01*
X257048Y944876D01*
Y934719D01*
X259587Y932180D01*
X264666D01*
X267205Y934719D01*
X272283D02*
X274822Y932180D01*
X279901D01*
X282440Y934719D01*
Y944876D01*
X279901Y947415D01*
X274822D01*
X272283Y944876D01*
Y942337D01*
X274822Y939798D01*
X282440D01*
X604266Y240538D02*
Y255773D01*
X611884D01*
X614423Y253234D01*
Y248155D01*
X611884Y245616D01*
X604266D01*
X609344D02*
X614423Y240538D01*
X619501Y255773D02*
X629658D01*
Y253234D01*
X619501Y243077D01*
Y240538D01*
X265935Y83561D02*
X260856D01*
X263396D01*
Y70865D01*
X260856Y68326D01*
X258317D01*
X255778Y70865D01*
X271013Y68326D02*
X276091D01*
X273552D01*
Y83561D01*
X271013Y81022D01*
X293866Y68326D02*
X283709D01*
X293866Y78483D01*
Y81022D01*
X291327Y83561D01*
X286248D01*
X283709Y81022D01*
X529336Y240538D02*
Y255773D01*
X536954D01*
X539493Y253234D01*
Y248155D01*
X536954Y245616D01*
X529336D01*
X534414D02*
X539493Y240538D01*
X544571Y253234D02*
X547110Y255773D01*
X552189D01*
X554728Y253234D01*
Y250695D01*
X552189Y248155D01*
X554728Y245616D01*
Y243077D01*
X552189Y240538D01*
X547110D01*
X544571Y243077D01*
Y245616D01*
X547110Y248155D01*
X544571Y250695D01*
Y253234D01*
X547110Y248155D02*
X552189D01*
X267205Y884170D02*
X264666Y886709D01*
X259587D01*
X257048Y884170D01*
Y874013D01*
X259587Y871474D01*
X264666D01*
X267205Y874013D01*
X272283Y871474D02*
X277361D01*
X274822D01*
Y886709D01*
X272283Y884170D01*
X284979D02*
X287518Y886709D01*
X292596D01*
X295136Y884170D01*
Y874013D01*
X292596Y871474D01*
X287518D01*
X284979Y874013D01*
Y884170D01*
X454406Y235712D02*
Y250947D01*
X462024D01*
X464563Y248408D01*
Y243330D01*
X462024Y240790D01*
X454406D01*
X459484D02*
X464563Y235712D01*
X469641Y238251D02*
X472180Y235712D01*
X477259D01*
X479798Y238251D01*
Y248408D01*
X477259Y250947D01*
X472180D01*
X469641Y248408D01*
Y245869D01*
X472180Y243330D01*
X479798D01*
X64513Y882899D02*
X59434D01*
X61974D01*
Y870203D01*
X59434Y867664D01*
X56895D01*
X54356Y870203D01*
X69591Y867664D02*
X74669D01*
X72130D01*
Y882899D01*
X69591Y880360D01*
X82287D02*
X84826Y882899D01*
X89904D01*
X92444Y880360D01*
Y877821D01*
X89904Y875282D01*
X87365D01*
X89904D01*
X92444Y872742D01*
Y870203D01*
X89904Y867664D01*
X84826D01*
X82287Y870203D01*
X503428Y978657D02*
Y963422D01*
Y968500D01*
X513585Y978657D01*
X505967Y971040D01*
X513585Y963422D01*
X526281D02*
X521202D01*
X518663Y965961D01*
Y971040D01*
X521202Y973579D01*
X526281D01*
X528820Y971040D01*
Y968500D01*
X518663D01*
X533898Y973579D02*
Y965961D01*
X536437Y963422D01*
X544055D01*
Y960883D01*
X541516Y958344D01*
X538977D01*
X544055Y963422D02*
Y973579D01*
X564368Y978657D02*
Y963422D01*
X569447Y968500D01*
X574525Y963422D01*
Y978657D01*
X579603Y963422D02*
X584682D01*
X582142D01*
Y978657D01*
X579603Y976118D01*
X498856Y864103D02*
Y851407D01*
X501395Y848868D01*
X506474D01*
X509013Y851407D01*
Y864103D01*
X524248Y848868D02*
X514091D01*
X524248Y859025D01*
Y861564D01*
X521709Y864103D01*
X516630D01*
X514091Y861564D01*
X267205Y814320D02*
X264666Y816859D01*
X259587D01*
X257048Y814320D01*
Y804163D01*
X259587Y801624D01*
X264666D01*
X267205Y804163D01*
X272283Y801624D02*
X277361D01*
X274822D01*
Y816859D01*
X272283Y814320D01*
X284979Y801624D02*
X290057D01*
X287518D01*
Y816859D01*
X284979Y814320D01*
X674370Y235712D02*
Y250947D01*
X681988D01*
X684527Y248408D01*
Y243330D01*
X681988Y240790D01*
X674370D01*
X679448D02*
X684527Y235712D01*
X689605D02*
X694683D01*
X692144D01*
Y250947D01*
X689605Y248408D01*
X702301D02*
X704840Y250947D01*
X709919D01*
X712458Y248408D01*
Y238251D01*
X709919Y235712D01*
X704840D01*
X702301Y238251D01*
Y248408D01*
X261109Y732532D02*
X258570Y735071D01*
X253491D01*
X250952Y732532D01*
Y722375D01*
X253491Y719836D01*
X258570D01*
X261109Y722375D01*
X266187Y719836D02*
X271265D01*
X268726D01*
Y735071D01*
X266187Y732532D01*
X289040Y719836D02*
X278883D01*
X289040Y729993D01*
Y732532D01*
X286500Y735071D01*
X281422D01*
X278883Y732532D01*
X100835Y588259D02*
X95756D01*
X98295D01*
Y575563D01*
X95756Y573024D01*
X93217D01*
X90678Y575563D01*
X105913Y573024D02*
X110991D01*
X108452D01*
Y588259D01*
X105913Y585720D01*
X126227Y573024D02*
Y588259D01*
X118609Y580642D01*
X128766D01*
X369316Y835660D02*
Y850895D01*
X376934D01*
X379473Y848356D01*
Y843278D01*
X376934Y840738D01*
X369316D01*
X374394D02*
X379473Y835660D01*
X384551D02*
X389629D01*
X387090D01*
Y850895D01*
X384551Y848356D01*
X397247Y835660D02*
X402325D01*
X399786D01*
Y850895D01*
X397247Y848356D01*
X351533Y695956D02*
X348993Y698495D01*
X343915D01*
X341376Y695956D01*
Y685799D01*
X343915Y683260D01*
X348993D01*
X351533Y685799D01*
X356611Y683260D02*
X361689D01*
X359150D01*
Y698495D01*
X356611Y695956D01*
X379464Y698495D02*
X374385Y695956D01*
X369307Y690878D01*
Y685799D01*
X371846Y683260D01*
X376925D01*
X379464Y685799D01*
Y688338D01*
X376925Y690878D01*
X369307D01*
X260601Y653284D02*
X258062Y655823D01*
X252983D01*
X250444Y653284D01*
Y643127D01*
X252983Y640588D01*
X258062D01*
X260601Y643127D01*
X265679Y640588D02*
X270757D01*
X268218D01*
Y655823D01*
X265679Y653284D01*
X278375D02*
X280914Y655823D01*
X285993D01*
X288532Y653284D01*
Y650745D01*
X285993Y648205D01*
X283453D01*
X285993D01*
X288532Y645666D01*
Y643127D01*
X285993Y640588D01*
X280914D01*
X278375Y643127D01*
X366014Y978657D02*
Y963422D01*
Y968500D01*
X376171Y978657D01*
X368553Y971040D01*
X376171Y963422D01*
X388867D02*
X383788D01*
X381249Y965961D01*
Y971040D01*
X383788Y973579D01*
X388867D01*
X391406Y971040D01*
Y968500D01*
X381249D01*
X396484Y973579D02*
Y965961D01*
X399023Y963422D01*
X406641D01*
Y960883D01*
X404102Y958344D01*
X401562D01*
X406641Y963422D02*
Y973579D01*
X437111Y965961D02*
Y976118D01*
X434572Y978657D01*
X429493D01*
X426954Y976118D01*
Y965961D01*
X429493Y963422D01*
X434572D01*
X432033Y968500D02*
X437111Y963422D01*
X434572D02*
X437111Y965961D01*
X442189Y963422D02*
X447268D01*
X444729D01*
Y978657D01*
X442189Y976118D01*
X261363Y586482D02*
X258824Y589021D01*
X253745D01*
X251206Y586482D01*
Y576325D01*
X253745Y573786D01*
X258824D01*
X261363Y576325D01*
X266441Y573786D02*
X271519D01*
X268980D01*
Y589021D01*
X266441Y586482D01*
X286754Y573786D02*
Y589021D01*
X279137Y581404D01*
X289294D01*
D15*
X100300Y134200D02*
Y137586D01*
Y135893D01*
X90143D01*
X91836Y134200D01*
X100300Y142664D02*
Y146049D01*
Y144357D01*
X90143D01*
X91836Y142664D01*
X74300Y134200D02*
Y137586D01*
Y135893D01*
X64143D01*
X65836Y134200D01*
X74300Y149435D02*
Y142664D01*
X67529Y149435D01*
X65836D01*
X64143Y147742D01*
Y144357D01*
X65836Y142664D01*
X74300Y310471D02*
Y303700D01*
X67529Y310471D01*
X65836D01*
X64143Y308778D01*
Y305393D01*
X65836Y303700D01*
X100300D02*
Y307086D01*
Y305393D01*
X90143D01*
X91836Y303700D01*
X93000Y682300D02*
Y685686D01*
Y683993D01*
X82843D01*
X84536Y682300D01*
X93000Y690764D02*
Y694149D01*
Y692457D01*
X82843D01*
X84536Y690764D01*
X67000Y682300D02*
Y685686D01*
Y683993D01*
X56843D01*
X58536Y682300D01*
X67000Y697535D02*
Y690764D01*
X60229Y697535D01*
X58536D01*
X56843Y695842D01*
Y692457D01*
X58536Y690764D01*
X67000Y858571D02*
Y851800D01*
X60229Y858571D01*
X58536D01*
X56843Y856878D01*
Y853493D01*
X58536Y851800D01*
X93000D02*
Y855186D01*
Y853493D01*
X82843D01*
X84536Y851800D01*
D16*
X334080Y119872D02*
X324083D01*
X329082Y114874D02*
Y124871D01*
X730920Y555128D02*
X740917D01*
X735918Y560126D02*
Y550129D01*
X379872Y440920D02*
Y450917D01*
X374874Y445918D02*
X384871D01*
X365128Y674080D02*
Y664083D01*
X370126Y669082D02*
X360129D01*
X314080Y539872D02*
X304083D01*
X309082Y534874D02*
Y544871D01*
M02*
