G04*
G04 #@! TF.GenerationSoftware,Altium Limited,Altium Designer,22.9.1 (49)*
G04*
G04 Layer_Color=2752767*
%FSLAX44Y44*%
%MOMM*%
G71*
G04*
G04 #@! TF.SameCoordinates,DBEF2CFB-25A5-4AA8-B732-6DF96BC3893C*
G04*
G04*
G04 #@! TF.FilePolarity,Positive*
G04*
G01*
G75*
%ADD59C,0.0677*%
%ADD60C,0.0339*%
%ADD61C,0.0508*%
D59*
X27032Y25000D02*
G03*
X27032Y25000I-2032J0D01*
G01*
X927032D02*
G03*
X927032Y25000I-2032J0D01*
G01*
Y975000D02*
G03*
X927032Y975000I-2032J0D01*
G01*
X27032D02*
G03*
X27032Y975000I-2032J0D01*
G01*
X912032Y70000D02*
G03*
X912032Y70000I-2032J0D01*
G01*
Y90000D02*
G03*
X912032Y90000I-2032J0D01*
G01*
Y110000D02*
G03*
X912032Y110000I-2032J0D01*
G01*
X297432Y380000D02*
G03*
X297432Y380000I-2032J0D01*
G01*
X272032D02*
G03*
X272032Y380000I-2032J0D01*
G01*
X297432Y325000D02*
G03*
X297432Y325000I-2032J0D01*
G01*
X272032D02*
G03*
X272032Y325000I-2032J0D01*
G01*
X302032Y265000D02*
G03*
X302032Y265000I-2032J0D01*
G01*
X276632D02*
G03*
X276632Y265000I-2032J0D01*
G01*
X287032Y120000D02*
G03*
X287032Y120000I-2032J0D01*
G01*
X307032D02*
G03*
X307032Y120000I-2032J0D01*
G01*
X782032Y555000D02*
G03*
X782032Y555000I-2032J0D01*
G01*
X762032D02*
G03*
X762032Y555000I-2032J0D01*
G01*
X382032Y490000D02*
G03*
X382032Y490000I-2032J0D01*
G01*
Y470000D02*
G03*
X382032Y470000I-2032J0D01*
G01*
X917032Y255000D02*
G03*
X917032Y255000I-2032J0D01*
G01*
Y235000D02*
G03*
X917032Y235000I-2032J0D01*
G01*
Y215000D02*
G03*
X917032Y215000I-2032J0D01*
G01*
X792032Y45000D02*
G03*
X792032Y45000I-2032J0D01*
G01*
X812032D02*
G03*
X812032Y45000I-2032J0D01*
G01*
X832032D02*
G03*
X832032Y45000I-2032J0D01*
G01*
X662032D02*
G03*
X662032Y45000I-2032J0D01*
G01*
X682032D02*
G03*
X682032Y45000I-2032J0D01*
G01*
X702032D02*
G03*
X702032Y45000I-2032J0D01*
G01*
X532032D02*
G03*
X532032Y45000I-2032J0D01*
G01*
X552032D02*
G03*
X552032Y45000I-2032J0D01*
G01*
X572032D02*
G03*
X572032Y45000I-2032J0D01*
G01*
X289732Y850000D02*
G03*
X289732Y850000I-2032J0D01*
G01*
X264332D02*
G03*
X264332Y850000I-2032J0D01*
G01*
X289732Y780000D02*
G03*
X289732Y780000I-2032J0D01*
G01*
X264332D02*
G03*
X264332Y780000I-2032J0D01*
G01*
X289732Y695000D02*
G03*
X289732Y695000I-2032J0D01*
G01*
X264332D02*
G03*
X264332Y695000I-2032J0D01*
G01*
X367032Y625000D02*
G03*
X367032Y625000I-2032J0D01*
G01*
Y645000D02*
G03*
X367032Y645000I-2032J0D01*
G01*
X267032Y540000D02*
G03*
X267032Y540000I-2032J0D01*
G01*
X287032D02*
G03*
X287032Y540000I-2032J0D01*
G01*
D60*
X26016Y25000D02*
G03*
X26016Y25000I-1016J0D01*
G01*
X926016D02*
G03*
X926016Y25000I-1016J0D01*
G01*
Y975000D02*
G03*
X926016Y975000I-1016J0D01*
G01*
X26016D02*
G03*
X26016Y975000I-1016J0D01*
G01*
D61*
X915000Y890268D02*
X912968Y894332D01*
X917032D01*
X915000Y890268D01*
Y915668D02*
X912968Y919732D01*
X917032D01*
X915000Y915668D01*
X516068Y336768D02*
X517084D01*
X518100Y337784D01*
X519116Y336768D01*
X520132D01*
Y337784D01*
X519116Y338800D01*
X520132Y339816D01*
Y340832D01*
X519116D01*
X518100Y339816D01*
X517084Y340832D01*
X516068D01*
Y339816D01*
X517084Y338800D01*
X516068Y337784D01*
Y336768D01*
Y362168D02*
X517084D01*
X518100Y363184D01*
X519116Y362168D01*
X520132D01*
Y363184D01*
X519116Y364200D01*
X520132Y365216D01*
Y366232D01*
X519116D01*
X518100Y365216D01*
X517084Y366232D01*
X516068D01*
Y365216D01*
X517084Y364200D01*
X516068Y363184D01*
Y362168D01*
Y387568D02*
X517084D01*
X518100Y388584D01*
X519116Y387568D01*
X520132D01*
Y388584D01*
X519116Y389600D01*
X520132Y390616D01*
Y391632D01*
X519116D01*
X518100Y390616D01*
X517084Y391632D01*
X516068D01*
Y390616D01*
X517084Y389600D01*
X516068Y388584D01*
Y387568D01*
Y412968D02*
X517084D01*
X518100Y413984D01*
X519116Y412968D01*
X520132D01*
Y413984D01*
X519116Y415000D01*
X520132Y416016D01*
Y417032D01*
X519116D01*
X518100Y416016D01*
X517084Y417032D01*
X516068D01*
Y416016D01*
X517084Y415000D01*
X516068Y413984D01*
Y412968D01*
Y438368D02*
X517084D01*
X518100Y439384D01*
X519116Y438368D01*
X520132D01*
Y439384D01*
X519116Y440400D01*
X520132Y441416D01*
Y442432D01*
X519116D01*
X518100Y441416D01*
X517084Y442432D01*
X516068D01*
Y441416D01*
X517084Y440400D01*
X516068Y439384D01*
Y438368D01*
Y463768D02*
X517084D01*
X518100Y464784D01*
X519116Y463768D01*
X520132D01*
Y464784D01*
X519116Y465800D01*
X520132Y466816D01*
Y467832D01*
X519116D01*
X518100Y466816D01*
X517084Y467832D01*
X516068D01*
Y466816D01*
X517084Y465800D01*
X516068Y464784D01*
Y463768D01*
Y489168D02*
X517084D01*
X518100Y490184D01*
X519116Y489168D01*
X520132D01*
Y490184D01*
X519116Y491200D01*
X520132Y492216D01*
Y493232D01*
X519116D01*
X518100Y492216D01*
X517084Y493232D01*
X516068D01*
Y492216D01*
X517084Y491200D01*
X516068Y490184D01*
Y489168D01*
X439868Y336768D02*
X440884D01*
X441900Y337784D01*
X442916Y336768D01*
X443932D01*
Y337784D01*
X442916Y338800D01*
X443932Y339816D01*
Y340832D01*
X442916D01*
X441900Y339816D01*
X440884Y340832D01*
X439868D01*
Y339816D01*
X440884Y338800D01*
X439868Y337784D01*
Y336768D01*
Y362168D02*
X440884D01*
X441900Y363184D01*
X442916Y362168D01*
X443932D01*
Y363184D01*
X442916Y364200D01*
X443932Y365216D01*
Y366232D01*
X442916D01*
X441900Y365216D01*
X440884Y366232D01*
X439868D01*
Y365216D01*
X440884Y364200D01*
X439868Y363184D01*
Y362168D01*
Y387568D02*
X440884D01*
X441900Y388584D01*
X442916Y387568D01*
X443932D01*
Y388584D01*
X442916Y389600D01*
X443932Y390616D01*
Y391632D01*
X442916D01*
X441900Y390616D01*
X440884Y391632D01*
X439868D01*
Y390616D01*
X440884Y389600D01*
X439868Y388584D01*
Y387568D01*
Y412968D02*
X440884D01*
X441900Y413984D01*
X442916Y412968D01*
X443932D01*
Y413984D01*
X442916Y415000D01*
X443932Y416016D01*
Y417032D01*
X442916D01*
X441900Y416016D01*
X440884Y417032D01*
X439868D01*
Y416016D01*
X440884Y415000D01*
X439868Y413984D01*
Y412968D01*
Y438368D02*
X440884D01*
X441900Y439384D01*
X442916Y438368D01*
X443932D01*
Y439384D01*
X442916Y440400D01*
X443932Y441416D01*
Y442432D01*
X442916D01*
X441900Y441416D01*
X440884Y442432D01*
X439868D01*
Y441416D01*
X440884Y440400D01*
X439868Y439384D01*
Y438368D01*
Y463768D02*
X440884D01*
X441900Y464784D01*
X442916Y463768D01*
X443932D01*
Y464784D01*
X442916Y465800D01*
X443932Y466816D01*
Y467832D01*
X442916D01*
X441900Y466816D01*
X440884Y467832D01*
X439868D01*
Y466816D01*
X440884Y465800D01*
X439868Y464784D01*
Y463768D01*
Y489168D02*
X440884D01*
X441900Y490184D01*
X442916Y489168D01*
X443932D01*
Y490184D01*
X442916Y491200D01*
X443932Y492216D01*
Y493232D01*
X442916D01*
X441900Y492216D01*
X440884Y493232D01*
X439868D01*
Y492216D01*
X440884Y491200D01*
X439868Y490184D01*
Y489168D01*
X290468Y432968D02*
Y437032D01*
X294532D01*
Y432968D01*
X290468D01*
X265468D02*
Y437032D01*
X269532D01*
Y432968D01*
X265468D01*
X69600Y212168D02*
X67568Y216232D01*
X71632D01*
X69600Y212168D01*
X95000D02*
X92968Y216232D01*
X97032D01*
X95000Y212168D01*
X69600Y262968D02*
X67568Y267032D01*
X71632D01*
X69600Y262968D01*
X95000D02*
X92968Y267032D01*
X97032D01*
X95000Y262968D01*
Y288368D02*
X92968Y292432D01*
X97032D01*
X95000Y288368D01*
X69600D02*
X67568Y292432D01*
X71632D01*
X69600Y288368D01*
X95000Y237568D02*
X92968Y241632D01*
X97032D01*
X95000Y237568D01*
X69600D02*
X67568Y241632D01*
X71632D01*
X69600Y237568D01*
X95000Y186768D02*
X92968Y190832D01*
X97032D01*
X95000Y186768D01*
Y161368D02*
X92968Y165432D01*
X97032D01*
X95000Y161368D01*
X69600Y186768D02*
X67568Y190832D01*
X71632D01*
X69600Y186768D01*
Y161368D02*
X67568Y165432D01*
X71632D01*
X69600Y161368D01*
X300468Y192968D02*
Y197032D01*
X304532D01*
Y192968D01*
X300468D01*
X275468D02*
Y197032D01*
X279532D01*
Y192968D01*
X275468D01*
X915000Y767568D02*
X912968Y771632D01*
X917032D01*
X915000Y767568D01*
Y792968D02*
X912968Y797032D01*
X917032D01*
X915000Y792968D01*
X790000Y642968D02*
X791016Y643984D01*
X792032D01*
X791016Y645000D01*
X792032Y646016D01*
X791016D01*
X790000Y647032D01*
X788984Y646016D01*
X787968D01*
X788984Y645000D01*
X787968Y643984D01*
X788984D01*
X790000Y642968D01*
Y732968D02*
X791016Y733984D01*
X792032D01*
X791016Y735000D01*
X792032Y736016D01*
X791016D01*
X790000Y737032D01*
X788984Y736016D01*
X787968D01*
X788984Y735000D01*
X787968Y733984D01*
X788984D01*
X790000Y732968D01*
X910000Y620268D02*
X907968Y624332D01*
X912032D01*
X910000Y620268D01*
Y645668D02*
X907968Y649732D01*
X912032D01*
X910000Y645668D01*
X877968Y512216D02*
X878984Y514248D01*
X877968Y516280D01*
X880000Y515264D01*
X882032Y516280D01*
X881016Y514248D01*
X882032Y512216D01*
X880000Y513232D01*
X877968Y512216D01*
Y472592D02*
X878984Y474624D01*
X877968Y476656D01*
X880000Y475640D01*
X882032Y476656D01*
X881016Y474624D01*
X882032Y472592D01*
X880000Y473608D01*
X877968Y472592D01*
Y432968D02*
X878984Y435000D01*
X877968Y437032D01*
X880000Y436016D01*
X882032Y437032D01*
X881016Y435000D01*
X882032Y432968D01*
X880000Y433984D01*
X877968Y432968D01*
Y393344D02*
X878984Y395376D01*
X877968Y397408D01*
X880000Y396392D01*
X882032Y397408D01*
X881016Y395376D01*
X882032Y393344D01*
X880000Y394360D01*
X877968Y393344D01*
X718484Y935059D02*
Y934043D01*
X720516D01*
Y935059D01*
X721532D01*
Y937091D01*
X720516D01*
Y938107D01*
X718484D01*
Y937091D01*
X717468D01*
Y935059D01*
X718484D01*
X743984D02*
Y934043D01*
X746016D01*
Y935059D01*
X747032D01*
Y937091D01*
X746016D01*
Y938107D01*
X743984D01*
Y937091D01*
X742968D01*
Y935059D01*
X743984D01*
X769484D02*
Y934043D01*
X771516D01*
Y935059D01*
X772532D01*
Y937091D01*
X771516D01*
Y938107D01*
X769484D01*
Y937091D01*
X768468D01*
Y935059D01*
X769484D01*
X632968Y527968D02*
Y532032D01*
X637032D01*
Y527968D01*
X632968D01*
Y577968D02*
Y582032D01*
X637032D01*
Y577968D01*
X632968D01*
X760000Y127968D02*
X761016Y128984D01*
X762032D01*
X761016Y130000D01*
X762032Y131016D01*
X761016D01*
X760000Y132032D01*
X758984Y131016D01*
X757968D01*
X758984Y130000D01*
X757968Y128984D01*
X758984D01*
X760000Y127968D01*
Y217968D02*
X761016Y218984D01*
X762032D01*
X761016Y220000D01*
X762032Y221016D01*
X761016D01*
X760000Y222032D01*
X758984Y221016D01*
X757968D01*
X758984Y220000D01*
X757968Y218984D01*
X758984D01*
X760000Y217968D01*
X385000Y127968D02*
X386016Y128984D01*
X387032D01*
X386016Y130000D01*
X387032Y131016D01*
X386016D01*
X385000Y132032D01*
X383984Y131016D01*
X382968D01*
X383984Y130000D01*
X382968Y128984D01*
X383984D01*
X385000Y127968D01*
Y217968D02*
X386016Y218984D01*
X387032D01*
X386016Y220000D01*
X387032Y221016D01*
X386016D01*
X385000Y222032D01*
X383984Y221016D01*
X382968D01*
X383984Y220000D01*
X382968Y218984D01*
X383984D01*
X385000Y217968D01*
X675000Y642968D02*
X676016Y643984D01*
X677032D01*
X676016Y645000D01*
X677032Y646016D01*
X676016D01*
X675000Y647032D01*
X673984Y646016D01*
X672968D01*
X673984Y645000D01*
X672968Y643984D01*
X673984D01*
X675000Y642968D01*
Y732968D02*
X676016Y733984D01*
X677032D01*
X676016Y735000D01*
X677032Y736016D01*
X676016D01*
X675000Y737032D01*
X673984Y736016D01*
X672968D01*
X673984Y735000D01*
X672968Y733984D01*
X673984D01*
X675000Y732968D01*
X695000Y457968D02*
X696016Y458984D01*
X697032D01*
X696016Y460000D01*
X697032Y461016D01*
X696016D01*
X695000Y462032D01*
X693984Y461016D01*
X692968D01*
X693984Y460000D01*
X692968Y458984D01*
X693984D01*
X695000Y457968D01*
X785000D02*
X786016Y458984D01*
X787032D01*
X786016Y460000D01*
X787032Y461016D01*
X786016D01*
X785000Y462032D01*
X783984Y461016D01*
X782968D01*
X783984Y460000D01*
X782968Y458984D01*
X783984D01*
X785000Y457968D01*
X723484Y823984D02*
Y822968D01*
X725516D01*
Y823984D01*
X726532D01*
Y826016D01*
X725516D01*
Y827032D01*
X723484D01*
Y826016D01*
X722468D01*
Y823984D01*
X723484D01*
X748984D02*
Y822968D01*
X751016D01*
Y823984D01*
X752032D01*
Y826016D01*
X751016D01*
Y827032D01*
X748984D01*
Y826016D01*
X747968D01*
Y823984D01*
X748984D01*
X774484D02*
Y822968D01*
X776516D01*
Y823984D01*
X777532D01*
Y826016D01*
X776516D01*
Y827032D01*
X774484D01*
Y826016D01*
X773468D01*
Y823984D01*
X774484D01*
X778000Y307968D02*
X779016Y308984D01*
X780032D01*
X779016Y310000D01*
X780032Y311016D01*
X779016D01*
X778000Y312032D01*
X776984Y311016D01*
X775968D01*
X776984Y310000D01*
X775968Y308984D01*
X776984D01*
X778000Y307968D01*
X842000D02*
X843016Y308984D01*
X844032D01*
X843016Y310000D01*
X844032Y311016D01*
X843016D01*
X842000Y312032D01*
X840984Y311016D01*
X839968D01*
X840984Y310000D01*
X839968Y308984D01*
X840984D01*
X842000Y307968D01*
X625000Y407968D02*
X626016Y408984D01*
X627032D01*
X626016Y410000D01*
X627032Y411016D01*
X626016D01*
X625000Y412032D01*
X623984Y411016D01*
X622968D01*
X623984Y410000D01*
X622968Y408984D01*
X623984D01*
X625000Y407968D01*
Y317968D02*
X626016Y318984D01*
X627032D01*
X626016Y320000D01*
X627032Y321016D01*
X626016D01*
X625000Y322032D01*
X623984Y321016D01*
X622968D01*
X623984Y320000D01*
X622968Y318984D01*
X623984D01*
X625000Y317968D01*
X840000Y209968D02*
X841016Y210984D01*
X842032D01*
X841016Y212000D01*
X842032Y213016D01*
X841016D01*
X840000Y214032D01*
X838984Y213016D01*
X837968D01*
X838984Y212000D01*
X837968Y210984D01*
X838984D01*
X840000Y209968D01*
Y145968D02*
X841016Y146984D01*
X842032D01*
X841016Y148000D01*
X842032Y149016D01*
X841016D01*
X840000Y150032D01*
X838984Y149016D01*
X837968D01*
X838984Y148000D01*
X837968Y146984D01*
X838984D01*
X840000Y145968D01*
X430400Y42968D02*
X428368Y47032D01*
X432432D01*
X430400Y42968D01*
X405000D02*
X402968Y47032D01*
X407032D01*
X405000Y42968D01*
X285468Y907968D02*
Y912032D01*
X289532D01*
Y907968D01*
X285468D01*
X260468D02*
Y912032D01*
X264532D01*
Y907968D01*
X260468D01*
X615000Y222968D02*
X616016Y223984D01*
X617032D01*
X616016Y225000D01*
X617032Y226016D01*
X616016D01*
X615000Y227032D01*
X613984Y226016D01*
X612968D01*
X613984Y225000D01*
X612968Y223984D01*
X613984D01*
X615000Y222968D01*
Y132968D02*
X616016Y133984D01*
X617032D01*
X616016Y135000D01*
X617032Y136016D01*
X616016D01*
X615000Y137032D01*
X613984Y136016D01*
X612968D01*
X613984Y135000D01*
X612968Y133984D01*
X613984D01*
X615000Y132968D01*
X269600Y42968D02*
X267568Y47032D01*
X271632D01*
X269600Y42968D01*
X295000D02*
X292968Y47032D01*
X297032D01*
X295000Y42968D01*
X540000Y132968D02*
X541016Y133984D01*
X542032D01*
X541016Y135000D01*
X542032Y136016D01*
X541016D01*
X540000Y137032D01*
X538984Y136016D01*
X537968D01*
X538984Y135000D01*
X537968Y133984D01*
X538984D01*
X540000Y132968D01*
Y222968D02*
X541016Y223984D01*
X542032D01*
X541016Y225000D01*
X542032Y226016D01*
X541016D01*
X540000Y227032D01*
X538984Y226016D01*
X537968D01*
X538984Y225000D01*
X537968Y223984D01*
X538984D01*
X540000Y222968D01*
X465000Y127968D02*
X466016Y128984D01*
X467032D01*
X466016Y130000D01*
X467032Y131016D01*
X466016D01*
X465000Y132032D01*
X463984Y131016D01*
X462968D01*
X463984Y130000D01*
X462968Y128984D01*
X463984D01*
X465000Y127968D01*
Y217968D02*
X466016Y218984D01*
X467032D01*
X466016Y220000D01*
X467032Y221016D01*
X466016D01*
X465000Y222032D01*
X463984Y221016D01*
X462968D01*
X463984Y220000D01*
X462968Y218984D01*
X463984D01*
X465000Y217968D01*
X62300Y760268D02*
X60268Y764332D01*
X64332D01*
X62300Y760268D01*
X87700D02*
X85668Y764332D01*
X89732D01*
X87700Y760268D01*
X62300Y811068D02*
X60268Y815132D01*
X64332D01*
X62300Y811068D01*
X87700D02*
X85668Y815132D01*
X89732D01*
X87700Y811068D01*
Y836468D02*
X85668Y840532D01*
X89732D01*
X87700Y836468D01*
X62300D02*
X60268Y840532D01*
X64332D01*
X62300Y836468D01*
X87700Y785668D02*
X85668Y789732D01*
X89732D01*
X87700Y785668D01*
X62300D02*
X60268Y789732D01*
X64332D01*
X62300Y785668D01*
X87700Y734868D02*
X85668Y738932D01*
X89732D01*
X87700Y734868D01*
Y709468D02*
X85668Y713532D01*
X89732D01*
X87700Y709468D01*
X62300Y734868D02*
X60268Y738932D01*
X64332D01*
X62300Y734868D01*
Y709468D02*
X60268Y713532D01*
X64332D01*
X62300Y709468D01*
X542700Y932968D02*
X540668Y937032D01*
X544732D01*
X542700Y932968D01*
X517300D02*
X515268Y937032D01*
X519332D01*
X517300Y932968D01*
X581068Y661768D02*
X582084D01*
X583100Y662784D01*
X584116Y661768D01*
X585132D01*
Y662784D01*
X584116Y663800D01*
X585132Y664816D01*
Y665832D01*
X584116D01*
X583100Y664816D01*
X582084Y665832D01*
X581068D01*
Y664816D01*
X582084Y663800D01*
X581068Y662784D01*
Y661768D01*
Y687168D02*
X582084D01*
X583100Y688184D01*
X584116Y687168D01*
X585132D01*
Y688184D01*
X584116Y689200D01*
X585132Y690216D01*
Y691232D01*
X584116D01*
X583100Y690216D01*
X582084Y691232D01*
X581068D01*
Y690216D01*
X582084Y689200D01*
X581068Y688184D01*
Y687168D01*
Y712568D02*
X582084D01*
X583100Y713584D01*
X584116Y712568D01*
X585132D01*
Y713584D01*
X584116Y714600D01*
X585132Y715616D01*
Y716632D01*
X584116D01*
X583100Y715616D01*
X582084Y716632D01*
X581068D01*
Y715616D01*
X582084Y714600D01*
X581068Y713584D01*
Y712568D01*
Y737968D02*
X582084D01*
X583100Y738984D01*
X584116Y737968D01*
X585132D01*
Y738984D01*
X584116Y740000D01*
X585132Y741016D01*
Y742032D01*
X584116D01*
X583100Y741016D01*
X582084Y742032D01*
X581068D01*
Y741016D01*
X582084Y740000D01*
X581068Y738984D01*
Y737968D01*
Y763368D02*
X582084D01*
X583100Y764384D01*
X584116Y763368D01*
X585132D01*
Y764384D01*
X584116Y765400D01*
X585132Y766416D01*
Y767432D01*
X584116D01*
X583100Y766416D01*
X582084Y767432D01*
X581068D01*
Y766416D01*
X582084Y765400D01*
X581068Y764384D01*
Y763368D01*
Y788768D02*
X582084D01*
X583100Y789784D01*
X584116Y788768D01*
X585132D01*
Y789784D01*
X584116Y790800D01*
X585132Y791816D01*
Y792832D01*
X584116D01*
X583100Y791816D01*
X582084Y792832D01*
X581068D01*
Y791816D01*
X582084Y790800D01*
X581068Y789784D01*
Y788768D01*
Y814168D02*
X582084D01*
X583100Y815184D01*
X584116Y814168D01*
X585132D01*
Y815184D01*
X584116Y816200D01*
X585132Y817216D01*
Y818232D01*
X584116D01*
X583100Y817216D01*
X582084Y818232D01*
X581068D01*
Y817216D01*
X582084Y816200D01*
X581068Y815184D01*
Y814168D01*
X504868Y661768D02*
X505884D01*
X506900Y662784D01*
X507916Y661768D01*
X508932D01*
Y662784D01*
X507916Y663800D01*
X508932Y664816D01*
Y665832D01*
X507916D01*
X506900Y664816D01*
X505884Y665832D01*
X504868D01*
Y664816D01*
X505884Y663800D01*
X504868Y662784D01*
Y661768D01*
Y687168D02*
X505884D01*
X506900Y688184D01*
X507916Y687168D01*
X508932D01*
Y688184D01*
X507916Y689200D01*
X508932Y690216D01*
Y691232D01*
X507916D01*
X506900Y690216D01*
X505884Y691232D01*
X504868D01*
Y690216D01*
X505884Y689200D01*
X504868Y688184D01*
Y687168D01*
Y712568D02*
X505884D01*
X506900Y713584D01*
X507916Y712568D01*
X508932D01*
Y713584D01*
X507916Y714600D01*
X508932Y715616D01*
Y716632D01*
X507916D01*
X506900Y715616D01*
X505884Y716632D01*
X504868D01*
Y715616D01*
X505884Y714600D01*
X504868Y713584D01*
Y712568D01*
Y737968D02*
X505884D01*
X506900Y738984D01*
X507916Y737968D01*
X508932D01*
Y738984D01*
X507916Y740000D01*
X508932Y741016D01*
Y742032D01*
X507916D01*
X506900Y741016D01*
X505884Y742032D01*
X504868D01*
Y741016D01*
X505884Y740000D01*
X504868Y738984D01*
Y737968D01*
Y763368D02*
X505884D01*
X506900Y764384D01*
X507916Y763368D01*
X508932D01*
Y764384D01*
X507916Y765400D01*
X508932Y766416D01*
Y767432D01*
X507916D01*
X506900Y766416D01*
X505884Y767432D01*
X504868D01*
Y766416D01*
X505884Y765400D01*
X504868Y764384D01*
Y763368D01*
Y788768D02*
X505884D01*
X506900Y789784D01*
X507916Y788768D01*
X508932D01*
Y789784D01*
X507916Y790800D01*
X508932Y791816D01*
Y792832D01*
X507916D01*
X506900Y791816D01*
X505884Y792832D01*
X504868D01*
Y791816D01*
X505884Y790800D01*
X504868Y789784D01*
Y788768D01*
Y814168D02*
X505884D01*
X506900Y815184D01*
X507916Y814168D01*
X508932D01*
Y815184D01*
X507916Y816200D01*
X508932Y817216D01*
Y818232D01*
X507916D01*
X506900Y817216D01*
X505884Y818232D01*
X504868D01*
Y817216D01*
X505884Y816200D01*
X504868Y815184D01*
Y814168D01*
X685000Y127968D02*
X686016Y128984D01*
X687032D01*
X686016Y130000D01*
X687032Y131016D01*
X686016D01*
X685000Y132032D01*
X683984Y131016D01*
X682968D01*
X683984Y130000D01*
X682968Y128984D01*
X683984D01*
X685000Y127968D01*
Y217968D02*
X686016Y218984D01*
X687032D01*
X686016Y220000D01*
X687032Y221016D01*
X686016D01*
X685000Y222032D01*
X683984Y221016D01*
X682968D01*
X683984Y220000D01*
X682968Y218984D01*
X683984D01*
X685000Y217968D01*
X132968Y423532D02*
X133984Y425564D01*
X132968Y427596D01*
X135000Y426580D01*
X137032Y427596D01*
X136016Y425564D01*
X137032Y423532D01*
X135000Y424548D01*
X132968Y423532D01*
Y463156D02*
X133984Y465188D01*
X132968Y467220D01*
X135000Y466204D01*
X137032Y467220D01*
X136016Y465188D01*
X137032Y463156D01*
X135000Y464172D01*
X132968Y463156D01*
Y502780D02*
X133984Y504812D01*
X132968Y506844D01*
X135000Y505828D01*
X137032Y506844D01*
X136016Y504812D01*
X137032Y502780D01*
X135000Y503796D01*
X132968Y502780D01*
Y542404D02*
X133984Y544436D01*
X132968Y546468D01*
X135000Y545452D01*
X137032Y546468D01*
X136016Y544436D01*
X137032Y542404D01*
X135000Y543420D01*
X132968Y542404D01*
X380000Y817968D02*
X381016Y818984D01*
X382032D01*
X381016Y820000D01*
X382032Y821016D01*
X381016D01*
X380000Y822032D01*
X378984Y821016D01*
X377968D01*
X378984Y820000D01*
X377968Y818984D01*
X378984D01*
X380000Y817968D01*
Y727968D02*
X381016Y728984D01*
X382032D01*
X381016Y730000D01*
X382032Y731016D01*
X381016D01*
X380000Y732032D01*
X378984Y731016D01*
X377968D01*
X378984Y730000D01*
X377968Y728984D01*
X378984D01*
X380000Y727968D01*
X285468Y612968D02*
Y617032D01*
X289532D01*
Y612968D01*
X285468D01*
X260468D02*
Y617032D01*
X264532D01*
Y612968D01*
X260468D01*
X380000Y932968D02*
X377968Y937032D01*
X382032D01*
X380000Y932968D01*
X405400D02*
X403368Y937032D01*
X407432D01*
X405400Y932968D01*
X556676Y778100D02*
X558708Y780132D01*
X560740Y778100D01*
X558708Y776068D01*
X556676Y778100D01*
X612968Y645000D02*
X615000Y647032D01*
X617032Y645000D01*
X615000Y642968D01*
X612968Y645000D01*
X557968Y610000D02*
X560000Y612032D01*
X562032Y610000D01*
X560000Y607968D01*
X557968Y610000D01*
Y365000D02*
X560000Y367032D01*
X562032Y365000D01*
X560000Y362968D01*
X557968Y365000D01*
X842968Y735000D02*
X845000Y737032D01*
X847032Y735000D01*
X845000Y732968D01*
X842968Y735000D01*
X822968Y580000D02*
X825000Y582032D01*
X827032Y580000D01*
X825000Y577968D01*
X822968Y580000D01*
X782968Y515000D02*
X785000Y517032D01*
X787032Y515000D01*
X785000Y512968D01*
X782968Y515000D01*
X592968Y315000D02*
X595000Y317032D01*
X597032Y315000D01*
X595000Y312968D01*
X592968Y315000D01*
X927968Y575000D02*
X930000Y577032D01*
X932032Y575000D01*
X930000Y572968D01*
X927968Y575000D01*
X687968Y870000D02*
X690000Y872032D01*
X692032Y870000D01*
X690000Y867968D01*
X687968Y870000D01*
X602968Y865000D02*
X605000Y867032D01*
X607032Y865000D01*
X605000Y862968D01*
X602968Y865000D01*
X742968Y735000D02*
X745000Y737032D01*
X747032Y735000D01*
X745000Y732968D01*
X742968Y735000D01*
X697968Y515000D02*
X700000Y517032D01*
X702032Y515000D01*
X700000Y512968D01*
X697968Y515000D01*
X747968Y260000D02*
X750000Y262032D01*
X752032Y260000D01*
X750000Y257968D01*
X747968Y260000D01*
X657968Y580000D02*
X660000Y582032D01*
X662032Y580000D01*
X660000Y577968D01*
X657968Y580000D01*
X512968Y560000D02*
X515000Y562032D01*
X517032Y560000D01*
X515000Y557968D01*
X512968Y560000D01*
X747968Y505000D02*
X750000Y507032D01*
X752032Y505000D01*
X750000Y502968D01*
X747968Y505000D01*
X817968Y475000D02*
X820000Y477032D01*
X822032Y475000D01*
X820000Y472968D01*
X817968Y475000D01*
X513268Y67049D02*
X515300Y69081D01*
X517332Y67049D01*
X515300Y65017D01*
X513268Y67049D01*
X672968Y775000D02*
X675000Y777032D01*
X677032Y775000D01*
X675000Y772968D01*
X672968Y775000D01*
X417968Y580000D02*
X420000Y582032D01*
X422032Y580000D01*
X420000Y577968D01*
X417968Y580000D01*
X932968Y445000D02*
X935000Y447032D01*
X937032Y445000D01*
X935000Y442968D01*
X932968Y445000D01*
X707968Y320000D02*
X710000Y322032D01*
X712032Y320000D01*
X710000Y317968D01*
X707968Y320000D01*
X732968Y625000D02*
X735000Y627032D01*
X737032Y625000D01*
X735000Y622968D01*
X732968Y625000D01*
X717968Y600000D02*
X720000Y602032D01*
X722032Y600000D01*
X720000Y597968D01*
X717968Y600000D01*
M02*
