M48
;Layer_Color=9474304
;FILE_FORMAT=4:4
METRIC,LZ
;TYPE=PLATED
T1F00S00C0.5000
T2F00S00C0.7000
T3F00S00C0.8000
T4F00S00C0.8500
T5F00S00C0.9000
T6F00S00C1.1000
T7F00S00C1.3000
T8F00S00C1.7780
;TYPE=NON_PLATED
T9F00S00C3.0000
%
T01
X005153Y00067049
X00595Y00315
X0056Y00365
X0071Y0032
X0075Y0026
Y00505
X00785Y00515
X0082Y00475
X00935Y00445
X007Y00515
X00515Y0056
X0042Y0058
X0056Y0061
X00615Y00645
X0066Y0058
X0072Y006
X00735Y00625
X00745Y00735
X00845
X00825Y0058
X0093Y00575
X00675Y00775
X0069Y0087
X00605Y00865
X00558708Y007781
T02
X00635Y0053
X002925Y00435
X002675
X002775Y00195
X003025
X002875Y00615
X002625
Y0091
X002875
X00635Y0058
T03
X00285Y0012
X00305
X0053Y00045
X0055
X0057
X0066
X0068
X007
X0079
X0081
X0083
X0091Y0007
Y0009
Y0011
X00915Y00215
Y00235
Y00255
X003Y00265
X002746
X0027Y00325
X002954
Y0038
X0027
X0038Y0047
Y0049
X00285Y0054
X00265
X002623Y00695
X002877
Y0078
X002623
Y0085
X002877
X00365Y00645
Y00625
X0076Y00555
X0078
T04
X00385Y0013
X00465
X0054Y00135
X00615
X00685Y0013
X0076
Y0022
X00685
X00615Y00225
X0054
X00625Y0032
Y0041
X00695Y0046
X00785
X00778Y0031
X00842
X0084Y00212
Y00148
X00465Y0022
X00385
X0038Y0073
Y0082
X00675Y00735
Y00645
X0079
Y00735
T05
X004419Y003388
Y003642
Y003896
Y00415
Y004404
Y004658
Y004912
X005181
Y004658
Y004404
Y00415
Y003896
Y003642
Y003388
X005069Y006638
Y006892
Y007146
Y0074
Y007654
Y007908
Y008162
X005831
Y007908
Y007654
Y0074
Y007146
Y006892
Y006638
T06
X002696Y00045
X00295
X00405
X004304
X00095Y001634
Y001888
Y002142
X000696
Y002396
Y00265
X00095
Y002904
X000696
X00095Y002396
X000696Y001888
Y001634
X000623Y007115
X000877
Y007369
Y007623
X000623
Y007877
Y008131
X000877
Y008385
X000623
X000877Y007877
X000623Y007369
X0038Y00935
X004054
X005173
X005427
X00915Y009177
Y008923
Y00795
Y007696
X0091Y006477
Y006223
T07
X007245Y00825
X0075
X007755
X007705Y00936075
X00745
X007195
T08
X0088Y00395376
Y00435
Y00474624
Y00514248
X00135Y00504812
Y00465188
Y00425564
Y00544436
T09
X00025Y00025
X00925
Y00975
X00025
M30
