G04*
G04 #@! TF.GenerationSoftware,Altium Limited,Altium Designer,22.9.1 (49)*
G04*
G04 Layer_Color=16711935*
%FSLAX44Y44*%
%MOMM*%
G71*
G04*
G04 #@! TF.SameCoordinates,DBEF2CFB-25A5-4AA8-B732-6DF96BC3893C*
G04*
G04*
G04 #@! TF.FilePolarity,Positive*
G04*
G01*
G75*
%ADD12C,0.2000*%
G36*
X910142Y89233D02*
X910133D01*
X910115D01*
X910078D01*
X910022Y89223D01*
X909967Y89214D01*
X909902D01*
X909745Y89186D01*
X909578Y89159D01*
X909412Y89103D01*
X909264Y89048D01*
X909199Y89011D01*
X909144Y88965D01*
X909135Y88955D01*
X909107Y88918D01*
X909061Y88863D01*
X909014Y88789D01*
X908959Y88687D01*
X908922Y88576D01*
X908885Y88438D01*
X908876Y88289D01*
Y88234D01*
X908885Y88179D01*
X908894Y88095D01*
X908913Y88012D01*
X908931Y87920D01*
X908968Y87827D01*
X909014Y87735D01*
X909024Y87726D01*
X909042Y87698D01*
X909079Y87661D01*
X909116Y87605D01*
X909181Y87559D01*
X909246Y87504D01*
X909320Y87457D01*
X909412Y87420D01*
X909421D01*
X909458Y87402D01*
X909523Y87393D01*
X909606Y87374D01*
X909717Y87356D01*
X909856Y87346D01*
X910022Y87328D01*
X910216D01*
X914626D01*
Y86477D01*
X910263D01*
X910253D01*
X910226D01*
X910189D01*
X910133D01*
X910059Y86487D01*
X909985D01*
X909809Y86505D01*
X909606Y86524D01*
X909393Y86561D01*
X909199Y86616D01*
X909014Y86681D01*
X909005D01*
X908996Y86690D01*
X908940Y86718D01*
X908866Y86764D01*
X908765Y86829D01*
X908663Y86921D01*
X908552Y87023D01*
X908441Y87152D01*
X908349Y87300D01*
X908339Y87319D01*
X908312Y87374D01*
X908275Y87457D01*
X908238Y87578D01*
X908192Y87726D01*
X908155Y87892D01*
X908127Y88077D01*
X908118Y88280D01*
Y88364D01*
X908127Y88419D01*
X908136Y88493D01*
X908145Y88567D01*
X908182Y88761D01*
X908238Y88965D01*
X908321Y89177D01*
X908376Y89288D01*
X908441Y89390D01*
X908515Y89482D01*
X908598Y89575D01*
X908608Y89584D01*
X908617Y89593D01*
X908654Y89612D01*
X908691Y89639D01*
X908737Y89676D01*
X908802Y89713D01*
X908876Y89750D01*
X908959Y89797D01*
X909051Y89834D01*
X909162Y89871D01*
X909273Y89908D01*
X909403Y89944D01*
X909541Y89963D01*
X909698Y89991D01*
X909856Y90000D01*
X910031D01*
X910142Y89233D01*
D02*
G37*
G36*
X914543Y81217D02*
X913924D01*
X913914Y81226D01*
X913896Y81244D01*
X913859Y81281D01*
X913804Y81318D01*
X913739Y81374D01*
X913665Y81448D01*
X913572Y81522D01*
X913462Y81605D01*
X913351Y81688D01*
X913221Y81790D01*
X913073Y81892D01*
X912925Y81993D01*
X912759Y82104D01*
X912583Y82215D01*
X912389Y82326D01*
X912195Y82437D01*
X912186Y82446D01*
X912149Y82465D01*
X912093Y82493D01*
X912010Y82539D01*
X911908Y82585D01*
X911797Y82640D01*
X911668Y82705D01*
X911520Y82770D01*
X911354Y82844D01*
X911187Y82927D01*
X911002Y83001D01*
X910808Y83075D01*
X910410Y83223D01*
X909985Y83362D01*
X909976D01*
X909948Y83371D01*
X909902Y83380D01*
X909846Y83399D01*
X909772Y83417D01*
X909680Y83436D01*
X909578Y83463D01*
X909467Y83482D01*
X909338Y83510D01*
X909199Y83537D01*
X908903Y83583D01*
X908580Y83630D01*
X908229Y83658D01*
Y84462D01*
X908238D01*
X908266D01*
X908303D01*
X908358Y84453D01*
X908432D01*
X908524Y84443D01*
X908626Y84434D01*
X908737Y84425D01*
X908866Y84406D01*
X908996Y84388D01*
X909153Y84360D01*
X909310Y84332D01*
X909477Y84305D01*
X909662Y84268D01*
X910041Y84175D01*
X910050D01*
X910087Y84166D01*
X910142Y84148D01*
X910226Y84120D01*
X910318Y84092D01*
X910429Y84055D01*
X910558Y84018D01*
X910697Y83963D01*
X910854Y83907D01*
X911011Y83852D01*
X911363Y83713D01*
X911733Y83546D01*
X912102Y83362D01*
X912112Y83352D01*
X912149Y83334D01*
X912195Y83306D01*
X912269Y83269D01*
X912352Y83223D01*
X912454Y83158D01*
X912565Y83094D01*
X912685Y83020D01*
X912953Y82844D01*
X913230Y82659D01*
X913517Y82446D01*
X913785Y82224D01*
Y85359D01*
X914543D01*
Y81217D01*
D02*
G37*
G36*
X283171Y441610D02*
X283254Y441601D01*
X283356Y441592D01*
X283458Y441583D01*
X283578Y441555D01*
X283828Y441499D01*
X284105Y441416D01*
X284244Y441361D01*
X284373Y441296D01*
X284503Y441213D01*
X284632Y441130D01*
X284641Y441120D01*
X284660Y441111D01*
X284697Y441083D01*
X284743Y441037D01*
X284789Y440991D01*
X284854Y440926D01*
X284918Y440852D01*
X284993Y440778D01*
X285067Y440686D01*
X285140Y440575D01*
X285224Y440464D01*
X285298Y440344D01*
X285362Y440205D01*
X285436Y440066D01*
X285492Y439919D01*
X285547Y439752D01*
X284715Y439558D01*
Y439567D01*
X284706Y439586D01*
X284687Y439623D01*
X284669Y439669D01*
X284650Y439724D01*
X284623Y439798D01*
X284549Y439946D01*
X284456Y440113D01*
X284345Y440279D01*
X284207Y440436D01*
X284059Y440575D01*
X284040Y440593D01*
X283985Y440630D01*
X283892Y440677D01*
X283772Y440741D01*
X283615Y440797D01*
X283439Y440852D01*
X283227Y440889D01*
X282995Y440899D01*
X282922D01*
X282875Y440889D01*
X282810D01*
X282737Y440880D01*
X282561Y440852D01*
X282367Y440815D01*
X282163Y440751D01*
X281951Y440658D01*
X281756Y440538D01*
X281747D01*
X281738Y440519D01*
X281673Y440473D01*
X281590Y440399D01*
X281488Y440288D01*
X281368Y440150D01*
X281257Y439992D01*
X281156Y439798D01*
X281063Y439586D01*
Y439576D01*
X281054Y439558D01*
X281045Y439530D01*
X281035Y439484D01*
X281017Y439428D01*
X280998Y439364D01*
X280971Y439207D01*
X280934Y439022D01*
X280897Y438818D01*
X280878Y438596D01*
X280869Y438356D01*
Y438347D01*
Y438319D01*
Y438273D01*
Y438217D01*
X280878Y438153D01*
Y438069D01*
X280887Y437977D01*
X280897Y437875D01*
X280924Y437653D01*
X280971Y437413D01*
X281026Y437173D01*
X281100Y436932D01*
Y436923D01*
X281109Y436904D01*
X281128Y436877D01*
X281146Y436830D01*
X281202Y436720D01*
X281285Y436590D01*
X281387Y436442D01*
X281516Y436285D01*
X281664Y436146D01*
X281840Y436017D01*
X281849D01*
X281868Y436008D01*
X281895Y435989D01*
X281932Y435971D01*
X281978Y435952D01*
X282034Y435924D01*
X282163Y435869D01*
X282330Y435813D01*
X282515Y435767D01*
X282718Y435730D01*
X282931Y435721D01*
X282995D01*
X283051Y435730D01*
X283116D01*
X283180Y435740D01*
X283347Y435776D01*
X283541Y435823D01*
X283735Y435897D01*
X283939Y435998D01*
X284040Y436054D01*
X284133Y436128D01*
X284142Y436137D01*
X284151Y436146D01*
X284179Y436174D01*
X284216Y436202D01*
X284253Y436248D01*
X284299Y436303D01*
X284354Y436359D01*
X284401Y436433D01*
X284456Y436516D01*
X284521Y436609D01*
X284576Y436701D01*
X284632Y436812D01*
X284678Y436932D01*
X284724Y437062D01*
X284771Y437200D01*
X284808Y437348D01*
X285658Y437136D01*
Y437126D01*
X285649Y437089D01*
X285630Y437034D01*
X285603Y436960D01*
X285575Y436877D01*
X285538Y436775D01*
X285492Y436664D01*
X285436Y436544D01*
X285307Y436285D01*
X285140Y436026D01*
X285039Y435897D01*
X284937Y435767D01*
X284826Y435656D01*
X284697Y435545D01*
X284687Y435536D01*
X284669Y435518D01*
X284623Y435499D01*
X284576Y435462D01*
X284503Y435416D01*
X284429Y435370D01*
X284327Y435323D01*
X284225Y435277D01*
X284105Y435222D01*
X283976Y435176D01*
X283837Y435129D01*
X283689Y435083D01*
X283532Y435046D01*
X283365Y435028D01*
X283190Y435009D01*
X283005Y435000D01*
X282903D01*
X282829Y435009D01*
X282746D01*
X282644Y435018D01*
X282533Y435037D01*
X282404Y435055D01*
X282136Y435102D01*
X281858Y435176D01*
X281581Y435277D01*
X281451Y435342D01*
X281322Y435416D01*
X281313Y435425D01*
X281294Y435434D01*
X281257Y435462D01*
X281220Y435499D01*
X281165Y435536D01*
X281100Y435592D01*
X281026Y435656D01*
X280952Y435730D01*
X280878Y435813D01*
X280795Y435897D01*
X280629Y436109D01*
X280471Y436359D01*
X280333Y436636D01*
Y436646D01*
X280314Y436673D01*
X280305Y436720D01*
X280277Y436775D01*
X280259Y436849D01*
X280231Y436941D01*
X280194Y437043D01*
X280166Y437154D01*
X280139Y437274D01*
X280102Y437413D01*
X280055Y437700D01*
X280018Y438023D01*
X280000Y438356D01*
Y438365D01*
Y438402D01*
Y438458D01*
X280009Y438522D01*
Y438615D01*
X280018Y438707D01*
X280028Y438828D01*
X280046Y438948D01*
X280092Y439216D01*
X280157Y439512D01*
X280250Y439808D01*
X280379Y440094D01*
X280388Y440103D01*
X280397Y440131D01*
X280416Y440168D01*
X280453Y440214D01*
X280490Y440279D01*
X280536Y440353D01*
X280656Y440519D01*
X280814Y440704D01*
X280998Y440889D01*
X281211Y441074D01*
X281461Y441231D01*
X281470Y441241D01*
X281498Y441250D01*
X281535Y441268D01*
X281581Y441296D01*
X281655Y441324D01*
X281729Y441352D01*
X281821Y441389D01*
X281923Y441426D01*
X282034Y441463D01*
X282154Y441499D01*
X282413Y441555D01*
X282709Y441601D01*
X283014Y441620D01*
X283106D01*
X283171Y441610D01*
D02*
G37*
G36*
X289338Y435111D02*
X288552D01*
Y440113D01*
X288543Y440103D01*
X288497Y440066D01*
X288441Y440011D01*
X288349Y439946D01*
X288247Y439863D01*
X288118Y439771D01*
X287970Y439669D01*
X287803Y439567D01*
X287794D01*
X287785Y439558D01*
X287729Y439521D01*
X287637Y439475D01*
X287526Y439419D01*
X287396Y439355D01*
X287258Y439290D01*
X287119Y439225D01*
X286980Y439170D01*
Y439928D01*
X286989D01*
X287008Y439946D01*
X287045Y439955D01*
X287091Y439983D01*
X287147Y440011D01*
X287211Y440048D01*
X287369Y440140D01*
X287554Y440242D01*
X287738Y440372D01*
X287933Y440519D01*
X288127Y440677D01*
X288136Y440686D01*
X288145Y440695D01*
X288173Y440723D01*
X288210Y440751D01*
X288293Y440843D01*
X288404Y440954D01*
X288515Y441083D01*
X288635Y441231D01*
X288737Y441379D01*
X288829Y441536D01*
X289338D01*
Y435111D01*
D02*
G37*
G36*
X293171Y199728D02*
X293255Y199719D01*
X293356Y199710D01*
X293458Y199700D01*
X293578Y199673D01*
X293828Y199617D01*
X294105Y199534D01*
X294244Y199478D01*
X294373Y199414D01*
X294503Y199331D01*
X294632Y199247D01*
X294641Y199238D01*
X294660Y199229D01*
X294697Y199201D01*
X294743Y199155D01*
X294789Y199109D01*
X294854Y199044D01*
X294919Y198970D01*
X294993Y198896D01*
X295067Y198804D01*
X295141Y198693D01*
X295224Y198582D01*
X295298Y198461D01*
X295362Y198323D01*
X295436Y198184D01*
X295492Y198036D01*
X295547Y197870D01*
X294715Y197676D01*
Y197685D01*
X294706Y197703D01*
X294688Y197740D01*
X294669Y197787D01*
X294650Y197842D01*
X294623Y197916D01*
X294549Y198064D01*
X294456Y198230D01*
X294345Y198397D01*
X294207Y198554D01*
X294059Y198693D01*
X294040Y198711D01*
X293985Y198748D01*
X293892Y198794D01*
X293772Y198859D01*
X293615Y198915D01*
X293439Y198970D01*
X293227Y199007D01*
X292996Y199016D01*
X292922D01*
X292875Y199007D01*
X292811D01*
X292737Y198998D01*
X292561Y198970D01*
X292367Y198933D01*
X292164Y198868D01*
X291951Y198776D01*
X291757Y198656D01*
X291747D01*
X291738Y198637D01*
X291674Y198591D01*
X291590Y198517D01*
X291488Y198406D01*
X291368Y198267D01*
X291257Y198110D01*
X291156Y197916D01*
X291063Y197703D01*
Y197694D01*
X291054Y197676D01*
X291045Y197648D01*
X291035Y197602D01*
X291017Y197546D01*
X290998Y197481D01*
X290971Y197324D01*
X290934Y197139D01*
X290897Y196936D01*
X290878Y196714D01*
X290869Y196474D01*
Y196465D01*
Y196437D01*
Y196390D01*
Y196335D01*
X290878Y196270D01*
Y196187D01*
X290888Y196095D01*
X290897Y195993D01*
X290925Y195771D01*
X290971Y195531D01*
X291026Y195290D01*
X291100Y195050D01*
Y195041D01*
X291110Y195022D01*
X291128Y194994D01*
X291147Y194948D01*
X291202Y194837D01*
X291285Y194708D01*
X291387Y194560D01*
X291516Y194403D01*
X291664Y194264D01*
X291840Y194135D01*
X291849D01*
X291868Y194125D01*
X291895Y194107D01*
X291932Y194088D01*
X291979Y194070D01*
X292034Y194042D01*
X292164Y193987D01*
X292330Y193931D01*
X292515Y193885D01*
X292718Y193848D01*
X292931Y193839D01*
X292996D01*
X293051Y193848D01*
X293116D01*
X293181Y193857D01*
X293347Y193894D01*
X293541Y193940D01*
X293735Y194014D01*
X293939Y194116D01*
X294040Y194172D01*
X294133Y194245D01*
X294142Y194255D01*
X294151Y194264D01*
X294179Y194292D01*
X294216Y194319D01*
X294253Y194366D01*
X294299Y194421D01*
X294355Y194477D01*
X294401Y194551D01*
X294456Y194634D01*
X294521Y194726D01*
X294577Y194819D01*
X294632Y194930D01*
X294678Y195050D01*
X294725Y195179D01*
X294771Y195318D01*
X294808Y195466D01*
X295658Y195253D01*
Y195244D01*
X295649Y195207D01*
X295631Y195152D01*
X295603Y195078D01*
X295575Y194994D01*
X295538Y194893D01*
X295492Y194782D01*
X295436Y194662D01*
X295307Y194403D01*
X295141Y194144D01*
X295039Y194014D01*
X294937Y193885D01*
X294826Y193774D01*
X294697Y193663D01*
X294688Y193654D01*
X294669Y193635D01*
X294623Y193617D01*
X294577Y193580D01*
X294503Y193534D01*
X294429Y193487D01*
X294327Y193441D01*
X294225Y193395D01*
X294105Y193339D01*
X293976Y193293D01*
X293837Y193247D01*
X293689Y193201D01*
X293532Y193164D01*
X293365Y193145D01*
X293190Y193127D01*
X293005Y193118D01*
X292903D01*
X292829Y193127D01*
X292746D01*
X292644Y193136D01*
X292533Y193155D01*
X292404Y193173D01*
X292136Y193219D01*
X291858Y193293D01*
X291581Y193395D01*
X291452Y193460D01*
X291322Y193534D01*
X291313Y193543D01*
X291294Y193552D01*
X291257Y193580D01*
X291220Y193617D01*
X291165Y193654D01*
X291100Y193709D01*
X291026Y193774D01*
X290952Y193848D01*
X290878Y193931D01*
X290795Y194014D01*
X290629Y194227D01*
X290471Y194477D01*
X290333Y194754D01*
Y194763D01*
X290314Y194791D01*
X290305Y194837D01*
X290277Y194893D01*
X290259Y194967D01*
X290231Y195059D01*
X290194Y195161D01*
X290166Y195272D01*
X290139Y195392D01*
X290102Y195531D01*
X290056Y195817D01*
X290019Y196141D01*
X290000Y196474D01*
Y196483D01*
Y196520D01*
Y196575D01*
X290009Y196640D01*
Y196733D01*
X290019Y196825D01*
X290028Y196945D01*
X290046Y197065D01*
X290093Y197334D01*
X290157Y197629D01*
X290250Y197925D01*
X290379Y198212D01*
X290388Y198221D01*
X290398Y198249D01*
X290416Y198286D01*
X290453Y198332D01*
X290490Y198397D01*
X290536Y198471D01*
X290656Y198637D01*
X290814Y198822D01*
X290998Y199007D01*
X291211Y199192D01*
X291461Y199349D01*
X291470Y199358D01*
X291498Y199368D01*
X291535Y199386D01*
X291581Y199414D01*
X291655Y199442D01*
X291729Y199469D01*
X291821Y199506D01*
X291923Y199543D01*
X292034Y199580D01*
X292154Y199617D01*
X292413Y199673D01*
X292709Y199719D01*
X293014Y199737D01*
X293106D01*
X293171Y199728D01*
D02*
G37*
G36*
X300318Y198794D02*
X297757D01*
X297415Y197065D01*
X297424Y197075D01*
X297443Y197084D01*
X297470Y197102D01*
X297517Y197130D01*
X297572Y197158D01*
X297637Y197195D01*
X297785Y197269D01*
X297970Y197343D01*
X298173Y197407D01*
X298395Y197454D01*
X298506Y197472D01*
X298709D01*
X298765Y197463D01*
X298839Y197454D01*
X298922Y197444D01*
X299014Y197426D01*
X299116Y197398D01*
X299338Y197334D01*
X299458Y197287D01*
X299578Y197223D01*
X299699Y197158D01*
X299819Y197084D01*
X299930Y196992D01*
X300041Y196890D01*
X300050Y196880D01*
X300068Y196862D01*
X300096Y196834D01*
X300133Y196788D01*
X300179Y196723D01*
X300226Y196659D01*
X300281Y196575D01*
X300337Y196483D01*
X300383Y196381D01*
X300438Y196270D01*
X300485Y196141D01*
X300531Y196011D01*
X300568Y195873D01*
X300595Y195716D01*
X300614Y195558D01*
X300623Y195392D01*
Y195383D01*
Y195355D01*
Y195309D01*
X300614Y195244D01*
X300605Y195170D01*
X300595Y195087D01*
X300577Y194985D01*
X300558Y194883D01*
X300503Y194643D01*
X300410Y194393D01*
X300355Y194264D01*
X300281Y194144D01*
X300207Y194014D01*
X300115Y193894D01*
X300105Y193885D01*
X300087Y193857D01*
X300050Y193820D01*
X300004Y193774D01*
X299939Y193718D01*
X299865Y193645D01*
X299773Y193580D01*
X299671Y193506D01*
X299560Y193432D01*
X299431Y193367D01*
X299292Y193302D01*
X299144Y193238D01*
X298987Y193192D01*
X298811Y193155D01*
X298626Y193127D01*
X298432Y193118D01*
X298349D01*
X298284Y193127D01*
X298210Y193136D01*
X298127Y193145D01*
X298025Y193155D01*
X297924Y193182D01*
X297692Y193238D01*
X297461Y193321D01*
X297341Y193376D01*
X297221Y193441D01*
X297110Y193515D01*
X296999Y193598D01*
X296990Y193608D01*
X296971Y193617D01*
X296953Y193654D01*
X296916Y193691D01*
X296870Y193737D01*
X296823Y193792D01*
X296768Y193866D01*
X296722Y193950D01*
X296666Y194033D01*
X296611Y194135D01*
X296509Y194356D01*
X296426Y194615D01*
X296398Y194754D01*
X296380Y194902D01*
X297202Y194967D01*
Y194957D01*
Y194939D01*
X297212Y194911D01*
X297221Y194865D01*
X297249Y194763D01*
X297285Y194625D01*
X297341Y194486D01*
X297415Y194329D01*
X297507Y194190D01*
X297618Y194061D01*
X297637Y194051D01*
X297674Y194014D01*
X297748Y193968D01*
X297850Y193913D01*
X297960Y193857D01*
X298099Y193811D01*
X298256Y193774D01*
X298432Y193765D01*
X298487D01*
X298524Y193774D01*
X298635Y193783D01*
X298765Y193820D01*
X298922Y193866D01*
X299079Y193940D01*
X299246Y194051D01*
X299320Y194116D01*
X299394Y194190D01*
X299403Y194199D01*
X299412Y194209D01*
X299431Y194236D01*
X299458Y194264D01*
X299523Y194366D01*
X299597Y194495D01*
X299662Y194652D01*
X299726Y194846D01*
X299773Y195078D01*
X299791Y195198D01*
Y195327D01*
Y195336D01*
Y195355D01*
Y195392D01*
X299782Y195438D01*
Y195494D01*
X299773Y195558D01*
X299745Y195706D01*
X299699Y195882D01*
X299634Y196058D01*
X299541Y196224D01*
X299412Y196381D01*
Y196390D01*
X299394Y196400D01*
X299347Y196446D01*
X299264Y196511D01*
X299153Y196585D01*
X299005Y196649D01*
X298839Y196714D01*
X298645Y196760D01*
X298534Y196779D01*
X298358D01*
X298284Y196770D01*
X298192Y196760D01*
X298081Y196733D01*
X297970Y196705D01*
X297850Y196659D01*
X297729Y196603D01*
X297720Y196594D01*
X297683Y196575D01*
X297628Y196529D01*
X297554Y196483D01*
X297480Y196418D01*
X297406Y196335D01*
X297323Y196252D01*
X297258Y196150D01*
X296518Y196252D01*
X297138Y199543D01*
X300318D01*
Y198794D01*
D02*
G37*
G36*
X746964Y929991D02*
X747047D01*
X747149Y929982D01*
X747260Y929972D01*
X747380Y929954D01*
X747648Y929908D01*
X747934Y929843D01*
X748240Y929750D01*
X748536Y929621D01*
X748545Y929612D01*
X748572Y929602D01*
X748609Y929584D01*
X748665Y929547D01*
X748730Y929510D01*
X748804Y929464D01*
X748979Y929334D01*
X749164Y929186D01*
X749358Y928992D01*
X749553Y928780D01*
X749719Y928530D01*
X749728Y928521D01*
X749737Y928493D01*
X749756Y928456D01*
X749784Y928400D01*
X749811Y928336D01*
X749848Y928262D01*
X749885Y928169D01*
X749922Y928068D01*
X749959Y927947D01*
X749996Y927827D01*
X750061Y927559D01*
X750107Y927263D01*
X750126Y927106D01*
Y926856D01*
X750117Y926792D01*
Y926709D01*
X750107Y926625D01*
X750089Y926514D01*
X750070Y926403D01*
X750024Y926163D01*
X749950Y925886D01*
X749839Y925618D01*
X749774Y925479D01*
X749700Y925340D01*
X749691Y925331D01*
X749682Y925312D01*
X749654Y925275D01*
X749626Y925220D01*
X749580Y925164D01*
X749525Y925090D01*
X749395Y924933D01*
X749229Y924767D01*
X749025Y924582D01*
X748785Y924406D01*
X748517Y924258D01*
X748508D01*
X748480Y924240D01*
X748443Y924221D01*
X748388Y924203D01*
X748314Y924166D01*
X748230Y924138D01*
X748129Y924101D01*
X748018Y924064D01*
X747897Y924036D01*
X747768Y923999D01*
X747629Y923963D01*
X747482Y923935D01*
X747158Y923898D01*
X746816Y923879D01*
X746807D01*
X746779D01*
X746742D01*
X746686D01*
X746612Y923889D01*
X746529D01*
X746437Y923898D01*
X746344Y923907D01*
X746122Y923935D01*
X745882Y923981D01*
X745632Y924036D01*
X745392Y924120D01*
X745383D01*
X745364Y924129D01*
X745327Y924147D01*
X745290Y924166D01*
X745235Y924194D01*
X745170Y924221D01*
X745022Y924295D01*
X744846Y924397D01*
X744662Y924527D01*
X744477Y924675D01*
X744292Y924841D01*
Y924832D01*
X744273Y924813D01*
X744255Y924785D01*
X744227Y924739D01*
X744190Y924693D01*
X744153Y924628D01*
X744070Y924490D01*
X743968Y924323D01*
X743867Y924138D01*
X743783Y923944D01*
X743700Y923759D01*
X743118Y924009D01*
Y924018D01*
X743127Y924036D01*
X743145Y924073D01*
X743164Y924129D01*
X743192Y924194D01*
X743229Y924268D01*
X743266Y924351D01*
X743312Y924443D01*
X743423Y924647D01*
X743552Y924878D01*
X743718Y925127D01*
X743903Y925386D01*
Y925396D01*
X743885Y925414D01*
X743867Y925460D01*
X743839Y925507D01*
X743811Y925581D01*
X743774Y925655D01*
X743746Y925747D01*
X743709Y925849D01*
X743672Y925960D01*
X743635Y926080D01*
X743571Y926348D01*
X743524Y926644D01*
X743515Y926801D01*
X743506Y926958D01*
Y927041D01*
X743515Y927106D01*
Y927180D01*
X743524Y927272D01*
X743543Y927374D01*
X743561Y927485D01*
X743608Y927726D01*
X743681Y927994D01*
X743783Y928271D01*
X743848Y928400D01*
X743922Y928539D01*
X743931Y928548D01*
X743940Y928567D01*
X743968Y928604D01*
X743996Y928650D01*
X744042Y928715D01*
X744098Y928780D01*
X744227Y928937D01*
X744393Y929112D01*
X744597Y929288D01*
X744828Y929464D01*
X745096Y929621D01*
X745105D01*
X745133Y929639D01*
X745170Y929658D01*
X745226Y929676D01*
X745300Y929704D01*
X745383Y929741D01*
X745484Y929778D01*
X745595Y929806D01*
X745716Y929843D01*
X745845Y929880D01*
X745984Y929908D01*
X746141Y929945D01*
X746464Y929982D01*
X746807Y930000D01*
X746816D01*
X746853D01*
X746899D01*
X746964Y929991D01*
D02*
G37*
G36*
X748434Y922456D02*
X748452Y922437D01*
X748462Y922400D01*
X748489Y922354D01*
X748517Y922298D01*
X748554Y922234D01*
X748646Y922076D01*
X748748Y921892D01*
X748878Y921707D01*
X749025Y921513D01*
X749183Y921318D01*
X749192Y921309D01*
X749201Y921300D01*
X749229Y921272D01*
X749257Y921235D01*
X749349Y921152D01*
X749460Y921041D01*
X749589Y920930D01*
X749737Y920810D01*
X749885Y920708D01*
X750042Y920616D01*
Y920107D01*
X743617D01*
Y920893D01*
X748619D01*
X748609Y920902D01*
X748572Y920948D01*
X748517Y921004D01*
X748452Y921096D01*
X748369Y921198D01*
X748277Y921328D01*
X748175Y921476D01*
X748073Y921642D01*
Y921651D01*
X748064Y921660D01*
X748027Y921716D01*
X747981Y921808D01*
X747925Y921919D01*
X747861Y922049D01*
X747796Y922187D01*
X747731Y922326D01*
X747676Y922465D01*
X748434D01*
Y922456D01*
D02*
G37*
G36*
X638522Y554991D02*
X638615D01*
X638707Y554982D01*
X638828Y554972D01*
X638948Y554954D01*
X639216Y554908D01*
X639512Y554843D01*
X639808Y554751D01*
X640094Y554621D01*
X640103Y554612D01*
X640131Y554603D01*
X640168Y554584D01*
X640214Y554547D01*
X640279Y554510D01*
X640353Y554464D01*
X640519Y554344D01*
X640704Y554187D01*
X640889Y554002D01*
X641074Y553789D01*
X641231Y553539D01*
X641241Y553530D01*
X641250Y553502D01*
X641268Y553465D01*
X641296Y553419D01*
X641324Y553345D01*
X641352Y553271D01*
X641389Y553179D01*
X641426Y553077D01*
X641462Y552966D01*
X641499Y552846D01*
X641555Y552587D01*
X641601Y552291D01*
X641620Y551986D01*
Y551894D01*
X641610Y551829D01*
X641601Y551746D01*
X641592Y551644D01*
X641583Y551542D01*
X641555Y551422D01*
X641499Y551172D01*
X641416Y550895D01*
X641361Y550756D01*
X641296Y550627D01*
X641213Y550498D01*
X641130Y550368D01*
X641121Y550359D01*
X641111Y550340D01*
X641084Y550303D01*
X641037Y550257D01*
X640991Y550211D01*
X640926Y550146D01*
X640852Y550081D01*
X640778Y550008D01*
X640686Y549934D01*
X640575Y549860D01*
X640464Y549776D01*
X640344Y549702D01*
X640205Y549638D01*
X640067Y549564D01*
X639919Y549508D01*
X639752Y549453D01*
X639558Y550285D01*
X639567D01*
X639586Y550294D01*
X639623Y550313D01*
X639669Y550331D01*
X639724Y550350D01*
X639798Y550377D01*
X639946Y550451D01*
X640113Y550544D01*
X640279Y550655D01*
X640436Y550793D01*
X640575Y550941D01*
X640593Y550960D01*
X640630Y551015D01*
X640677Y551108D01*
X640741Y551228D01*
X640797Y551385D01*
X640852Y551561D01*
X640889Y551773D01*
X640899Y552005D01*
Y552079D01*
X640889Y552125D01*
Y552189D01*
X640880Y552263D01*
X640852Y552439D01*
X640815Y552633D01*
X640751Y552837D01*
X640658Y553049D01*
X640538Y553243D01*
Y553253D01*
X640519Y553262D01*
X640473Y553327D01*
X640399Y553410D01*
X640288Y553512D01*
X640150Y553632D01*
X639992Y553743D01*
X639798Y553844D01*
X639586Y553937D01*
X639576D01*
X639558Y553946D01*
X639530Y553955D01*
X639484Y553965D01*
X639428Y553983D01*
X639364Y554002D01*
X639207Y554029D01*
X639022Y554066D01*
X638818Y554103D01*
X638596Y554122D01*
X638356Y554131D01*
X638347D01*
X638319D01*
X638273D01*
X638217D01*
X638153Y554122D01*
X638069D01*
X637977Y554113D01*
X637875Y554103D01*
X637653Y554076D01*
X637413Y554029D01*
X637173Y553974D01*
X636932Y553900D01*
X636923D01*
X636904Y553891D01*
X636877Y553872D01*
X636830Y553854D01*
X636720Y553798D01*
X636590Y553715D01*
X636442Y553613D01*
X636285Y553484D01*
X636146Y553336D01*
X636017Y553160D01*
Y553151D01*
X636008Y553133D01*
X635989Y553105D01*
X635971Y553068D01*
X635952Y553022D01*
X635924Y552966D01*
X635869Y552837D01*
X635813Y552670D01*
X635767Y552485D01*
X635730Y552282D01*
X635721Y552069D01*
Y552005D01*
X635730Y551949D01*
Y551884D01*
X635740Y551820D01*
X635776Y551653D01*
X635823Y551459D01*
X635897Y551265D01*
X635998Y551062D01*
X636054Y550960D01*
X636128Y550867D01*
X636137Y550858D01*
X636146Y550849D01*
X636174Y550821D01*
X636202Y550784D01*
X636248Y550747D01*
X636303Y550701D01*
X636359Y550645D01*
X636433Y550599D01*
X636516Y550544D01*
X636609Y550479D01*
X636701Y550424D01*
X636812Y550368D01*
X636932Y550322D01*
X637062Y550276D01*
X637200Y550229D01*
X637348Y550192D01*
X637136Y549342D01*
X637126D01*
X637089Y549351D01*
X637034Y549370D01*
X636960Y549397D01*
X636877Y549425D01*
X636775Y549462D01*
X636664Y549508D01*
X636544Y549564D01*
X636285Y549693D01*
X636026Y549860D01*
X635897Y549961D01*
X635767Y550063D01*
X635656Y550174D01*
X635545Y550303D01*
X635536Y550313D01*
X635518Y550331D01*
X635499Y550377D01*
X635462Y550424D01*
X635416Y550498D01*
X635370Y550571D01*
X635323Y550673D01*
X635277Y550775D01*
X635222Y550895D01*
X635176Y551025D01*
X635129Y551163D01*
X635083Y551311D01*
X635046Y551468D01*
X635028Y551635D01*
X635009Y551810D01*
X635000Y551995D01*
Y552097D01*
X635009Y552171D01*
Y552254D01*
X635018Y552356D01*
X635037Y552467D01*
X635055Y552596D01*
X635102Y552864D01*
X635176Y553142D01*
X635277Y553419D01*
X635342Y553549D01*
X635416Y553678D01*
X635425Y553687D01*
X635434Y553706D01*
X635462Y553743D01*
X635499Y553780D01*
X635536Y553835D01*
X635592Y553900D01*
X635656Y553974D01*
X635730Y554048D01*
X635813Y554122D01*
X635897Y554205D01*
X636109Y554371D01*
X636359Y554529D01*
X636636Y554667D01*
X636646D01*
X636673Y554686D01*
X636720Y554695D01*
X636775Y554723D01*
X636849Y554741D01*
X636941Y554769D01*
X637043Y554806D01*
X637154Y554834D01*
X637274Y554861D01*
X637413Y554898D01*
X637700Y554945D01*
X638023Y554982D01*
X638356Y555000D01*
X638365D01*
X638402D01*
X638458D01*
X638522Y554991D01*
D02*
G37*
G36*
X637052Y548621D02*
X637108D01*
X637173Y548611D01*
X637321Y548593D01*
X637487Y548556D01*
X637653Y548500D01*
X637829Y548417D01*
X637995Y548316D01*
X638005D01*
X638014Y548297D01*
X638060Y548260D01*
X638134Y548186D01*
X638227Y548084D01*
X638319Y547955D01*
X638421Y547798D01*
X638504Y547622D01*
X638569Y547409D01*
Y547419D01*
X638578Y547428D01*
X638587Y547456D01*
X638606Y547493D01*
X638643Y547576D01*
X638698Y547687D01*
X638772Y547807D01*
X638865Y547927D01*
X638966Y548038D01*
X639077Y548140D01*
X639096Y548149D01*
X639133Y548177D01*
X639207Y548214D01*
X639299Y548251D01*
X639419Y548297D01*
X639558Y548334D01*
X639715Y548362D01*
X639882Y548371D01*
X639891D01*
X639909D01*
X639946D01*
X640002Y548362D01*
X640057Y548353D01*
X640131Y548343D01*
X640288Y548306D01*
X640473Y548251D01*
X640667Y548158D01*
X640769Y548103D01*
X640871Y548038D01*
X640963Y547955D01*
X641056Y547872D01*
X641065Y547863D01*
X641074Y547844D01*
X641102Y547816D01*
X641130Y547779D01*
X641167Y547733D01*
X641204Y547668D01*
X641250Y547594D01*
X641296Y547520D01*
X641342Y547428D01*
X641389Y547326D01*
X641426Y547215D01*
X641462Y547095D01*
X641518Y546836D01*
X641527Y546688D01*
X641536Y546540D01*
Y546457D01*
X641527Y546402D01*
X641518Y546328D01*
X641509Y546245D01*
X641499Y546152D01*
X641472Y546060D01*
X641416Y545838D01*
X641333Y545616D01*
X641278Y545505D01*
X641213Y545394D01*
X641130Y545292D01*
X641047Y545191D01*
X641037Y545181D01*
X641028Y545172D01*
X641000Y545144D01*
X640963Y545107D01*
X640908Y545070D01*
X640852Y545024D01*
X640714Y544932D01*
X640538Y544839D01*
X640335Y544756D01*
X640103Y544691D01*
X639983Y544682D01*
X639854Y544673D01*
X639845D01*
X639835D01*
X639780D01*
X639697Y544682D01*
X639595Y544701D01*
X639465Y544728D01*
X639336Y544775D01*
X639207Y544830D01*
X639077Y544913D01*
X639059Y544922D01*
X639022Y544959D01*
X638966Y545015D01*
X638892Y545089D01*
X638809Y545191D01*
X638726Y545311D01*
X638643Y545449D01*
X638569Y545616D01*
Y545607D01*
X638559Y545588D01*
X638550Y545560D01*
X638532Y545523D01*
X638485Y545412D01*
X638421Y545283D01*
X638328Y545144D01*
X638227Y544996D01*
X638097Y544858D01*
X637949Y544728D01*
X637940D01*
X637931Y544719D01*
X637875Y544682D01*
X637783Y544627D01*
X637663Y544571D01*
X637515Y544516D01*
X637339Y544460D01*
X637145Y544423D01*
X636932Y544414D01*
X636923D01*
X636895D01*
X636849D01*
X636794Y544423D01*
X636729Y544432D01*
X636646Y544442D01*
X636553Y544460D01*
X636451Y544488D01*
X636239Y544553D01*
X636119Y544599D01*
X636008Y544664D01*
X635887Y544728D01*
X635776Y544802D01*
X635666Y544895D01*
X635555Y544996D01*
X635545Y545006D01*
X635527Y545024D01*
X635499Y545052D01*
X635471Y545098D01*
X635425Y545163D01*
X635379Y545228D01*
X635333Y545311D01*
X635277Y545403D01*
X635222Y545505D01*
X635176Y545625D01*
X635129Y545755D01*
X635083Y545884D01*
X635055Y546032D01*
X635028Y546189D01*
X635009Y546346D01*
X635000Y546522D01*
Y546614D01*
X635009Y546679D01*
X635018Y546762D01*
X635028Y546855D01*
X635046Y546956D01*
X635074Y547067D01*
X635139Y547317D01*
X635185Y547446D01*
X635231Y547567D01*
X635296Y547696D01*
X635370Y547826D01*
X635453Y547946D01*
X635555Y548057D01*
X635564Y548066D01*
X635582Y548084D01*
X635610Y548112D01*
X635656Y548149D01*
X635712Y548186D01*
X635776Y548242D01*
X635850Y548288D01*
X635943Y548343D01*
X636035Y548399D01*
X636146Y548445D01*
X636377Y548537D01*
X636516Y548574D01*
X636655Y548602D01*
X636803Y548621D01*
X636951Y548630D01*
X636960D01*
X636978D01*
X637015D01*
X637052Y548621D01*
D02*
G37*
G36*
X751964Y818916D02*
X752047D01*
X752149Y818906D01*
X752260Y818897D01*
X752380Y818879D01*
X752648Y818832D01*
X752934Y818768D01*
X753240Y818675D01*
X753536Y818546D01*
X753545Y818537D01*
X753572Y818527D01*
X753609Y818509D01*
X753665Y818472D01*
X753730Y818435D01*
X753804Y818389D01*
X753979Y818259D01*
X754164Y818111D01*
X754358Y817917D01*
X754553Y817705D01*
X754719Y817455D01*
X754728Y817446D01*
X754737Y817418D01*
X754756Y817381D01*
X754784Y817326D01*
X754811Y817261D01*
X754848Y817187D01*
X754885Y817094D01*
X754922Y816993D01*
X754959Y816872D01*
X754996Y816752D01*
X755061Y816484D01*
X755107Y816188D01*
X755126Y816031D01*
Y815781D01*
X755117Y815717D01*
Y815633D01*
X755107Y815550D01*
X755089Y815439D01*
X755070Y815328D01*
X755024Y815088D01*
X754950Y814811D01*
X754839Y814543D01*
X754774Y814404D01*
X754700Y814265D01*
X754691Y814256D01*
X754682Y814238D01*
X754654Y814201D01*
X754626Y814145D01*
X754580Y814090D01*
X754525Y814016D01*
X754395Y813858D01*
X754229Y813692D01*
X754025Y813507D01*
X753785Y813331D01*
X753517Y813184D01*
X753508D01*
X753480Y813165D01*
X753443Y813147D01*
X753388Y813128D01*
X753314Y813091D01*
X753230Y813063D01*
X753129Y813026D01*
X753018Y812989D01*
X752898Y812962D01*
X752768Y812925D01*
X752629Y812888D01*
X752482Y812860D01*
X752158Y812823D01*
X751816Y812804D01*
X751807D01*
X751779D01*
X751742D01*
X751686D01*
X751612Y812814D01*
X751529D01*
X751437Y812823D01*
X751344Y812832D01*
X751122Y812860D01*
X750882Y812906D01*
X750632Y812962D01*
X750392Y813045D01*
X750383D01*
X750364Y813054D01*
X750327Y813073D01*
X750290Y813091D01*
X750235Y813119D01*
X750170Y813147D01*
X750022Y813220D01*
X749846Y813322D01*
X749662Y813452D01*
X749477Y813599D01*
X749292Y813766D01*
Y813757D01*
X749273Y813738D01*
X749255Y813710D01*
X749227Y813664D01*
X749190Y813618D01*
X749153Y813553D01*
X749070Y813415D01*
X748968Y813248D01*
X748867Y813063D01*
X748783Y812869D01*
X748700Y812684D01*
X748118Y812934D01*
Y812943D01*
X748127Y812962D01*
X748145Y812999D01*
X748164Y813054D01*
X748192Y813119D01*
X748229Y813193D01*
X748266Y813276D01*
X748312Y813368D01*
X748423Y813572D01*
X748552Y813803D01*
X748718Y814053D01*
X748904Y814311D01*
Y814321D01*
X748885Y814339D01*
X748867Y814385D01*
X748839Y814432D01*
X748811Y814506D01*
X748774Y814579D01*
X748746Y814672D01*
X748709Y814774D01*
X748672Y814885D01*
X748635Y815005D01*
X748571Y815273D01*
X748524Y815569D01*
X748515Y815726D01*
X748506Y815883D01*
Y815966D01*
X748515Y816031D01*
Y816105D01*
X748524Y816198D01*
X748543Y816299D01*
X748561Y816410D01*
X748608Y816651D01*
X748682Y816919D01*
X748783Y817196D01*
X748848Y817326D01*
X748922Y817464D01*
X748931Y817473D01*
X748940Y817492D01*
X748968Y817529D01*
X748996Y817575D01*
X749042Y817640D01*
X749098Y817705D01*
X749227Y817862D01*
X749393Y818037D01*
X749597Y818213D01*
X749828Y818389D01*
X750096Y818546D01*
X750105D01*
X750133Y818564D01*
X750170Y818583D01*
X750226Y818601D01*
X750300Y818629D01*
X750383Y818666D01*
X750484Y818703D01*
X750595Y818731D01*
X750716Y818768D01*
X750845Y818805D01*
X750984Y818832D01*
X751141Y818869D01*
X751464Y818906D01*
X751807Y818925D01*
X751816D01*
X751853D01*
X751899D01*
X751964Y818916D01*
D02*
G37*
G36*
X748792Y812093D02*
X748876Y812083D01*
X748968Y812065D01*
X749061Y812046D01*
X749162Y812009D01*
X749172D01*
X749181Y812000D01*
X749236Y811982D01*
X749320Y811945D01*
X749430Y811889D01*
X749560Y811815D01*
X749708Y811723D01*
X749856Y811621D01*
X750013Y811491D01*
X750022D01*
X750031Y811473D01*
X750087Y811427D01*
X750170Y811344D01*
X750290Y811223D01*
X750429Y811085D01*
X750595Y810909D01*
X750780Y810696D01*
X750975Y810465D01*
X750984Y810456D01*
X751012Y810419D01*
X751058Y810364D01*
X751113Y810299D01*
X751187Y810216D01*
X751270Y810114D01*
X751363Y810012D01*
X751464Y809892D01*
X751686Y809661D01*
X751908Y809430D01*
X752019Y809319D01*
X752130Y809217D01*
X752232Y809125D01*
X752334Y809051D01*
X752343D01*
X752352Y809032D01*
X752380Y809014D01*
X752417Y808995D01*
X752518Y808931D01*
X752639Y808857D01*
X752787Y808792D01*
X752944Y808727D01*
X753119Y808690D01*
X753286Y808672D01*
X753295D01*
X753304D01*
X753360Y808681D01*
X753452Y808690D01*
X753554Y808718D01*
X753683Y808755D01*
X753813Y808820D01*
X753942Y808903D01*
X754072Y809014D01*
X754090Y809032D01*
X754127Y809078D01*
X754173Y809143D01*
X754238Y809245D01*
X754294Y809374D01*
X754349Y809522D01*
X754386Y809698D01*
X754395Y809892D01*
Y809948D01*
X754386Y809985D01*
X754377Y810095D01*
X754349Y810225D01*
X754312Y810364D01*
X754247Y810521D01*
X754164Y810669D01*
X754053Y810807D01*
X754035Y810826D01*
X753988Y810863D01*
X753915Y810918D01*
X753804Y810974D01*
X753674Y811039D01*
X753508Y811094D01*
X753323Y811131D01*
X753110Y811149D01*
X753193Y811954D01*
X753203D01*
X753230Y811945D01*
X753277D01*
X753341Y811935D01*
X753415Y811917D01*
X753499Y811898D01*
X753600Y811871D01*
X753702Y811843D01*
X753924Y811769D01*
X754146Y811658D01*
X754257Y811593D01*
X754368Y811510D01*
X754469Y811427D01*
X754562Y811334D01*
X754571Y811325D01*
X754580Y811307D01*
X754608Y811279D01*
X754636Y811233D01*
X754673Y811177D01*
X754710Y811112D01*
X754756Y811039D01*
X754802Y810946D01*
X754848Y810844D01*
X754895Y810733D01*
X754932Y810613D01*
X754969Y810484D01*
X754996Y810345D01*
X755024Y810197D01*
X755033Y810040D01*
X755042Y809874D01*
Y809781D01*
X755033Y809716D01*
X755024Y809642D01*
X755015Y809550D01*
X754996Y809448D01*
X754978Y809346D01*
X754913Y809106D01*
X754821Y808866D01*
X754765Y808746D01*
X754700Y808625D01*
X754617Y808514D01*
X754525Y808413D01*
X754516Y808403D01*
X754506Y808385D01*
X754469Y808366D01*
X754432Y808329D01*
X754386Y808283D01*
X754321Y808237D01*
X754257Y808191D01*
X754173Y808135D01*
X753998Y808043D01*
X753776Y807951D01*
X753665Y807914D01*
X753536Y807895D01*
X753406Y807877D01*
X753267Y807867D01*
X753249D01*
X753203D01*
X753129Y807877D01*
X753027Y807886D01*
X752916Y807904D01*
X752787Y807941D01*
X752648Y807978D01*
X752509Y808034D01*
X752491Y808043D01*
X752445Y808061D01*
X752371Y808098D01*
X752269Y808154D01*
X752158Y808228D01*
X752019Y808320D01*
X751880Y808431D01*
X751723Y808561D01*
X751705Y808579D01*
X751649Y808625D01*
X751603Y808672D01*
X751557Y808718D01*
X751501Y808773D01*
X751428Y808847D01*
X751354Y808921D01*
X751270Y809014D01*
X751178Y809106D01*
X751076Y809217D01*
X750975Y809337D01*
X750854Y809467D01*
X750734Y809615D01*
X750605Y809763D01*
X750595Y809772D01*
X750577Y809790D01*
X750549Y809827D01*
X750512Y809874D01*
X750457Y809929D01*
X750401Y809994D01*
X750281Y810142D01*
X750142Y810299D01*
X750004Y810447D01*
X749883Y810576D01*
X749837Y810632D01*
X749791Y810678D01*
X749782Y810687D01*
X749754Y810715D01*
X749717Y810752D01*
X749662Y810798D01*
X749597Y810844D01*
X749532Y810900D01*
X749375Y811011D01*
Y807858D01*
X748617D01*
Y812102D01*
X748626D01*
X748663D01*
X748718D01*
X748792Y812093D01*
D02*
G37*
G36*
X914858Y243774D02*
X914913D01*
X915061Y243746D01*
X915237Y243719D01*
X915422Y243672D01*
X915625Y243608D01*
X915819Y243515D01*
X915828D01*
X915838Y243506D01*
X915865Y243487D01*
X915902Y243469D01*
X915995Y243414D01*
X916115Y243330D01*
X916245Y243229D01*
X916374Y243108D01*
X916503Y242960D01*
X916614Y242803D01*
Y242794D01*
X916624Y242785D01*
X916642Y242757D01*
X916651Y242720D01*
X916697Y242628D01*
X916744Y242507D01*
X916799Y242350D01*
X916836Y242175D01*
X916873Y241980D01*
X916882Y241768D01*
Y241721D01*
X916873Y241675D01*
Y241601D01*
X916864Y241518D01*
X916845Y241426D01*
X916818Y241315D01*
X916790Y241204D01*
X916753Y241074D01*
X916707Y240945D01*
X916651Y240816D01*
X916577Y240677D01*
X916494Y240547D01*
X916402Y240418D01*
X916291Y240289D01*
X916161Y240168D01*
X916152Y240159D01*
X916124Y240140D01*
X916087Y240113D01*
X916023Y240076D01*
X915939Y240020D01*
X915847Y239974D01*
X915727Y239919D01*
X915597Y239863D01*
X915440Y239799D01*
X915265Y239743D01*
X915070Y239697D01*
X914858Y239650D01*
X914617Y239604D01*
X914358Y239577D01*
X914081Y239558D01*
X913785Y239549D01*
X913776D01*
X913767D01*
X913739D01*
X913702D01*
X913609Y239558D01*
X913480D01*
X913332Y239567D01*
X913157Y239586D01*
X912962Y239604D01*
X912750Y239632D01*
X912537Y239669D01*
X912306Y239715D01*
X912084Y239771D01*
X911862Y239835D01*
X911649Y239919D01*
X911446Y240011D01*
X911252Y240113D01*
X911086Y240233D01*
X911076Y240242D01*
X911058Y240261D01*
X911021Y240298D01*
X910965Y240344D01*
X910910Y240399D01*
X910854Y240473D01*
X910780Y240566D01*
X910716Y240658D01*
X910651Y240769D01*
X910577Y240889D01*
X910521Y241028D01*
X910457Y241167D01*
X910411Y241324D01*
X910374Y241490D01*
X910355Y241666D01*
X910346Y241851D01*
Y241925D01*
X910355Y241980D01*
Y242045D01*
X910364Y242119D01*
X910401Y242295D01*
X910447Y242489D01*
X910521Y242692D01*
X910632Y242896D01*
X910697Y242997D01*
X910771Y243090D01*
X910780Y243099D01*
X910790Y243108D01*
X910817Y243136D01*
X910845Y243164D01*
X910891Y243210D01*
X910947Y243247D01*
X911076Y243349D01*
X911243Y243451D01*
X911446Y243543D01*
X911677Y243626D01*
X911936Y243682D01*
X912001Y242896D01*
X911992D01*
X911982Y242887D01*
X911927Y242877D01*
X911844Y242850D01*
X911742Y242812D01*
X911631Y242775D01*
X911520Y242720D01*
X911418Y242655D01*
X911335Y242591D01*
X911317Y242572D01*
X911280Y242535D01*
X911224Y242470D01*
X911159Y242378D01*
X911104Y242258D01*
X911049Y242128D01*
X911012Y241971D01*
X910993Y241805D01*
Y241740D01*
X911002Y241666D01*
X911021Y241583D01*
X911049Y241472D01*
X911086Y241361D01*
X911132Y241250D01*
X911206Y241139D01*
X911215Y241121D01*
X911252Y241074D01*
X911317Y241010D01*
X911409Y240926D01*
X911520Y240834D01*
X911649Y240732D01*
X911816Y240640D01*
X912001Y240547D01*
X912010D01*
X912029Y240538D01*
X912056Y240529D01*
X912093Y240510D01*
X912149Y240501D01*
X912213Y240483D01*
X912287Y240464D01*
X912380Y240446D01*
X912482Y240418D01*
X912592Y240399D01*
X912713Y240381D01*
X912842Y240372D01*
X912990Y240353D01*
X913138Y240344D01*
X913304Y240335D01*
X913471D01*
X913462Y240344D01*
X913406Y240381D01*
X913332Y240446D01*
X913240Y240529D01*
X913129Y240621D01*
X913027Y240742D01*
X912925Y240871D01*
X912833Y241019D01*
Y241028D01*
X912824Y241037D01*
X912796Y241093D01*
X912768Y241176D01*
X912722Y241287D01*
X912685Y241416D01*
X912657Y241564D01*
X912629Y241721D01*
X912620Y241888D01*
Y241962D01*
X912629Y242017D01*
X912639Y242091D01*
X912648Y242165D01*
X912666Y242258D01*
X912694Y242350D01*
X912759Y242563D01*
X912805Y242674D01*
X912870Y242785D01*
X912935Y242896D01*
X913008Y243016D01*
X913101Y243127D01*
X913203Y243229D01*
X913212Y243238D01*
X913230Y243256D01*
X913258Y243284D01*
X913304Y243312D01*
X913369Y243358D01*
X913434Y243404D01*
X913517Y243451D01*
X913609Y243506D01*
X913711Y243561D01*
X913822Y243608D01*
X913952Y243654D01*
X914081Y243700D01*
X914220Y243728D01*
X914377Y243756D01*
X914534Y243774D01*
X914700Y243783D01*
X914710D01*
X914728D01*
X914756D01*
X914802D01*
X914858Y243774D01*
D02*
G37*
G36*
X914941Y238513D02*
X915015D01*
X915191Y238495D01*
X915394Y238476D01*
X915607Y238439D01*
X915801Y238384D01*
X915986Y238319D01*
X915995D01*
X916004Y238310D01*
X916060Y238282D01*
X916133Y238236D01*
X916235Y238171D01*
X916337Y238079D01*
X916448Y237977D01*
X916559Y237848D01*
X916651Y237700D01*
X916661Y237681D01*
X916688Y237626D01*
X916725Y237542D01*
X916762Y237422D01*
X916808Y237274D01*
X916845Y237108D01*
X916873Y236923D01*
X916882Y236720D01*
Y236637D01*
X916873Y236581D01*
X916864Y236507D01*
X916855Y236433D01*
X916818Y236239D01*
X916762Y236035D01*
X916679Y235823D01*
X916624Y235712D01*
X916559Y235610D01*
X916485Y235518D01*
X916402Y235425D01*
X916392Y235416D01*
X916383Y235407D01*
X916346Y235388D01*
X916309Y235361D01*
X916263Y235324D01*
X916198Y235287D01*
X916124Y235250D01*
X916041Y235203D01*
X915949Y235166D01*
X915838Y235129D01*
X915727Y235092D01*
X915597Y235056D01*
X915459Y235037D01*
X915301Y235009D01*
X915144Y235000D01*
X914969D01*
X914858Y235767D01*
X914867D01*
X914885D01*
X914922D01*
X914978Y235777D01*
X915033Y235786D01*
X915098D01*
X915255Y235814D01*
X915422Y235841D01*
X915588Y235897D01*
X915736Y235952D01*
X915801Y235989D01*
X915856Y236035D01*
X915865Y236045D01*
X915893Y236082D01*
X915939Y236137D01*
X915986Y236211D01*
X916041Y236313D01*
X916078Y236424D01*
X916115Y236562D01*
X916124Y236710D01*
Y236766D01*
X916115Y236821D01*
X916106Y236905D01*
X916087Y236988D01*
X916069Y237080D01*
X916032Y237173D01*
X915986Y237265D01*
X915976Y237274D01*
X915958Y237302D01*
X915921Y237339D01*
X915884Y237395D01*
X915819Y237441D01*
X915754Y237496D01*
X915680Y237542D01*
X915588Y237579D01*
X915579D01*
X915542Y237598D01*
X915477Y237607D01*
X915394Y237626D01*
X915283Y237644D01*
X915144Y237654D01*
X914978Y237672D01*
X914784D01*
X910374D01*
Y238523D01*
X914737D01*
X914747D01*
X914774D01*
X914811D01*
X914867D01*
X914941Y238513D01*
D02*
G37*
G36*
X808419Y46873D02*
X808493Y46864D01*
X808567Y46855D01*
X808761Y46818D01*
X808964Y46762D01*
X809177Y46679D01*
X809288Y46624D01*
X809390Y46559D01*
X809482Y46485D01*
X809575Y46402D01*
X809584Y46392D01*
X809593Y46383D01*
X809612Y46346D01*
X809639Y46309D01*
X809676Y46263D01*
X809713Y46198D01*
X809750Y46124D01*
X809797Y46041D01*
X809834Y45949D01*
X809871Y45838D01*
X809908Y45727D01*
X809945Y45597D01*
X809963Y45459D01*
X809991Y45301D01*
X810000Y45144D01*
Y44969D01*
X809233Y44858D01*
Y44867D01*
Y44885D01*
Y44922D01*
X809223Y44978D01*
X809214Y45033D01*
Y45098D01*
X809186Y45255D01*
X809159Y45422D01*
X809103Y45588D01*
X809048Y45736D01*
X809011Y45801D01*
X808964Y45856D01*
X808955Y45865D01*
X808918Y45893D01*
X808863Y45939D01*
X808789Y45986D01*
X808687Y46041D01*
X808576Y46078D01*
X808438Y46115D01*
X808290Y46124D01*
X808234D01*
X808179Y46115D01*
X808095Y46106D01*
X808012Y46087D01*
X807920Y46069D01*
X807827Y46032D01*
X807735Y45986D01*
X807726Y45976D01*
X807698Y45958D01*
X807661Y45921D01*
X807605Y45884D01*
X807559Y45819D01*
X807504Y45754D01*
X807458Y45680D01*
X807421Y45588D01*
Y45579D01*
X807402Y45542D01*
X807393Y45477D01*
X807374Y45394D01*
X807356Y45283D01*
X807346Y45144D01*
X807328Y44978D01*
Y44784D01*
Y40374D01*
X806477D01*
Y44738D01*
Y44747D01*
Y44774D01*
Y44811D01*
Y44867D01*
X806487Y44941D01*
Y45015D01*
X806505Y45191D01*
X806524Y45394D01*
X806561Y45607D01*
X806616Y45801D01*
X806681Y45986D01*
Y45995D01*
X806690Y46004D01*
X806718Y46060D01*
X806764Y46134D01*
X806829Y46235D01*
X806921Y46337D01*
X807023Y46448D01*
X807152Y46559D01*
X807300Y46651D01*
X807319Y46661D01*
X807374Y46688D01*
X807458Y46725D01*
X807578Y46762D01*
X807726Y46809D01*
X807892Y46845D01*
X808077Y46873D01*
X808280Y46883D01*
X808363D01*
X808419Y46873D01*
D02*
G37*
G36*
X803473D02*
X803556Y46864D01*
X803648Y46855D01*
X803750Y46836D01*
X803861Y46809D01*
X804111Y46744D01*
X804240Y46698D01*
X804360Y46651D01*
X804490Y46587D01*
X804619Y46513D01*
X804739Y46429D01*
X804850Y46328D01*
X804859Y46318D01*
X804878Y46300D01*
X804906Y46272D01*
X804943Y46226D01*
X804980Y46171D01*
X805035Y46106D01*
X805081Y46032D01*
X805137Y45939D01*
X805192Y45847D01*
X805238Y45736D01*
X805331Y45505D01*
X805368Y45366D01*
X805396Y45227D01*
X805414Y45080D01*
X805423Y44932D01*
Y44922D01*
Y44904D01*
Y44867D01*
X805414Y44830D01*
Y44774D01*
X805405Y44710D01*
X805387Y44562D01*
X805350Y44395D01*
X805294Y44229D01*
X805211Y44053D01*
X805109Y43887D01*
Y43878D01*
X805091Y43868D01*
X805054Y43822D01*
X804980Y43748D01*
X804878Y43656D01*
X804749Y43563D01*
X804591Y43462D01*
X804416Y43378D01*
X804203Y43314D01*
X804212D01*
X804221Y43304D01*
X804249Y43295D01*
X804286Y43277D01*
X804369Y43240D01*
X804480Y43184D01*
X804601Y43110D01*
X804721Y43018D01*
X804832Y42916D01*
X804933Y42805D01*
X804943Y42787D01*
X804970Y42750D01*
X805007Y42676D01*
X805044Y42583D01*
X805091Y42463D01*
X805128Y42324D01*
X805155Y42167D01*
X805165Y42001D01*
Y41992D01*
Y41973D01*
Y41936D01*
X805155Y41881D01*
X805146Y41825D01*
X805137Y41751D01*
X805100Y41594D01*
X805044Y41409D01*
X804952Y41215D01*
X804896Y41113D01*
X804832Y41012D01*
X804749Y40919D01*
X804665Y40827D01*
X804656Y40817D01*
X804638Y40808D01*
X804610Y40780D01*
X804573Y40753D01*
X804527Y40716D01*
X804462Y40679D01*
X804388Y40632D01*
X804314Y40586D01*
X804221Y40540D01*
X804120Y40494D01*
X804009Y40457D01*
X803889Y40420D01*
X803630Y40364D01*
X803482Y40355D01*
X803334Y40346D01*
X803251D01*
X803195Y40355D01*
X803121Y40364D01*
X803038Y40374D01*
X802946Y40383D01*
X802853Y40410D01*
X802631Y40466D01*
X802409Y40549D01*
X802298Y40605D01*
X802188Y40669D01*
X802086Y40753D01*
X801984Y40836D01*
X801975Y40845D01*
X801966Y40854D01*
X801938Y40882D01*
X801901Y40919D01*
X801864Y40974D01*
X801818Y41030D01*
X801725Y41169D01*
X801633Y41344D01*
X801550Y41548D01*
X801485Y41779D01*
X801476Y41899D01*
X801466Y42028D01*
Y42038D01*
Y42047D01*
Y42102D01*
X801476Y42186D01*
X801494Y42287D01*
X801522Y42417D01*
X801568Y42546D01*
X801624Y42676D01*
X801707Y42805D01*
X801716Y42824D01*
X801753Y42861D01*
X801808Y42916D01*
X801882Y42990D01*
X801984Y43073D01*
X802104Y43156D01*
X802243Y43240D01*
X802409Y43314D01*
X802400D01*
X802382Y43323D01*
X802354Y43332D01*
X802317Y43351D01*
X802206Y43397D01*
X802076Y43462D01*
X801938Y43554D01*
X801790Y43656D01*
X801651Y43785D01*
X801522Y43933D01*
Y43942D01*
X801513Y43952D01*
X801476Y44007D01*
X801420Y44099D01*
X801365Y44220D01*
X801309Y44368D01*
X801254Y44543D01*
X801217Y44738D01*
X801207Y44950D01*
Y44959D01*
Y44987D01*
Y45033D01*
X801217Y45089D01*
X801226Y45153D01*
X801235Y45237D01*
X801254Y45329D01*
X801281Y45431D01*
X801346Y45644D01*
X801392Y45764D01*
X801457Y45875D01*
X801522Y45995D01*
X801596Y46106D01*
X801688Y46217D01*
X801790Y46328D01*
X801799Y46337D01*
X801818Y46356D01*
X801845Y46383D01*
X801892Y46411D01*
X801956Y46457D01*
X802021Y46503D01*
X802104Y46550D01*
X802197Y46605D01*
X802298Y46661D01*
X802419Y46707D01*
X802548Y46753D01*
X802678Y46799D01*
X802825Y46827D01*
X802983Y46855D01*
X803140Y46873D01*
X803315Y46883D01*
X803408D01*
X803473Y46873D01*
D02*
G37*
G36*
X673621D02*
X673685D01*
X673759Y46864D01*
X673935Y46827D01*
X674129Y46781D01*
X674333Y46707D01*
X674536Y46605D01*
X674638Y46540D01*
X674730Y46466D01*
X674739Y46457D01*
X674749Y46448D01*
X674776Y46420D01*
X674804Y46392D01*
X674841Y46346D01*
X674887Y46291D01*
X674980Y46161D01*
X675072Y45995D01*
X675165Y45792D01*
X675238Y45560D01*
X675294Y45292D01*
X674536Y45227D01*
Y45237D01*
X674527Y45255D01*
Y45274D01*
X674517Y45311D01*
X674490Y45412D01*
X674453Y45523D01*
X674406Y45653D01*
X674342Y45782D01*
X674268Y45902D01*
X674175Y46004D01*
X674166Y46013D01*
X674129Y46041D01*
X674064Y46078D01*
X673990Y46115D01*
X673889Y46161D01*
X673768Y46198D01*
X673630Y46226D01*
X673482Y46235D01*
X673417D01*
X673352Y46226D01*
X673269Y46217D01*
X673167Y46198D01*
X673066Y46171D01*
X672955Y46134D01*
X672853Y46078D01*
X672844Y46069D01*
X672807Y46050D01*
X672751Y46013D01*
X672696Y45958D01*
X672622Y45893D01*
X672548Y45819D01*
X672474Y45736D01*
X672400Y45634D01*
X672391Y45625D01*
X672372Y45579D01*
X672335Y45514D01*
X672298Y45431D01*
X672252Y45320D01*
X672206Y45191D01*
X672160Y45043D01*
X672113Y44876D01*
Y44867D01*
X672104Y44858D01*
Y44830D01*
X672095Y44793D01*
X672076Y44700D01*
X672049Y44580D01*
X672030Y44432D01*
X672012Y44275D01*
X672003Y44099D01*
X671993Y43915D01*
Y43905D01*
Y43878D01*
Y43831D01*
Y43757D01*
X672003Y43776D01*
X672039Y43822D01*
X672095Y43887D01*
X672160Y43979D01*
X672252Y44072D01*
X672363Y44173D01*
X672493Y44275D01*
X672641Y44368D01*
X672659Y44377D01*
X672714Y44405D01*
X672798Y44442D01*
X672899Y44479D01*
X673038Y44525D01*
X673186Y44562D01*
X673352Y44590D01*
X673528Y44599D01*
X673602D01*
X673658Y44590D01*
X673732Y44580D01*
X673805Y44571D01*
X673898Y44553D01*
X673990Y44525D01*
X674203Y44460D01*
X674314Y44414D01*
X674425Y44358D01*
X674545Y44294D01*
X674656Y44211D01*
X674767Y44127D01*
X674869Y44026D01*
X674878Y44016D01*
X674896Y43998D01*
X674915Y43970D01*
X674952Y43924D01*
X674998Y43859D01*
X675044Y43794D01*
X675091Y43711D01*
X675137Y43619D01*
X675192Y43517D01*
X675238Y43406D01*
X675285Y43277D01*
X675331Y43147D01*
X675368Y42999D01*
X675387Y42842D01*
X675405Y42685D01*
X675414Y42509D01*
Y42500D01*
Y42463D01*
Y42417D01*
X675405Y42352D01*
X675396Y42269D01*
X675387Y42167D01*
X675368Y42066D01*
X675340Y41945D01*
X675275Y41705D01*
X675229Y41575D01*
X675174Y41437D01*
X675109Y41307D01*
X675026Y41187D01*
X674943Y41058D01*
X674841Y40947D01*
X674832Y40938D01*
X674813Y40919D01*
X674786Y40891D01*
X674739Y40854D01*
X674684Y40808D01*
X674610Y40753D01*
X674536Y40706D01*
X674443Y40642D01*
X674351Y40586D01*
X674240Y40540D01*
X673990Y40438D01*
X673861Y40401D01*
X673713Y40374D01*
X673565Y40355D01*
X673408Y40346D01*
X673343D01*
X673297Y40355D01*
X673251D01*
X673186Y40364D01*
X673029Y40392D01*
X672853Y40429D01*
X672659Y40494D01*
X672465Y40577D01*
X672271Y40688D01*
X672261D01*
X672252Y40706D01*
X672225Y40725D01*
X672188Y40753D01*
X672095Y40827D01*
X671975Y40928D01*
X671855Y41067D01*
X671716Y41233D01*
X671596Y41428D01*
X671485Y41649D01*
Y41659D01*
X671476Y41677D01*
X671457Y41714D01*
X671439Y41760D01*
X671420Y41825D01*
X671392Y41908D01*
X671374Y42001D01*
X671346Y42102D01*
X671318Y42223D01*
X671291Y42361D01*
X671272Y42509D01*
X671254Y42667D01*
X671235Y42842D01*
X671217Y43027D01*
X671207Y43230D01*
Y43443D01*
Y43452D01*
Y43499D01*
Y43563D01*
Y43646D01*
X671217Y43748D01*
Y43868D01*
X671226Y44007D01*
X671244Y44146D01*
X671272Y44460D01*
X671318Y44793D01*
X671383Y45107D01*
X671429Y45265D01*
X671476Y45403D01*
Y45412D01*
X671485Y45431D01*
X671503Y45468D01*
X671522Y45523D01*
X671550Y45579D01*
X671587Y45653D01*
X671679Y45810D01*
X671790Y45986D01*
X671919Y46171D01*
X672086Y46346D01*
X672271Y46503D01*
X672280D01*
X672298Y46522D01*
X672326Y46540D01*
X672363Y46559D01*
X672419Y46587D01*
X672474Y46624D01*
X672548Y46661D01*
X672622Y46688D01*
X672798Y46762D01*
X673010Y46827D01*
X673242Y46864D01*
X673500Y46883D01*
X673574D01*
X673621Y46873D01*
D02*
G37*
G36*
X678419D02*
X678493Y46864D01*
X678567Y46855D01*
X678761Y46818D01*
X678964Y46762D01*
X679177Y46679D01*
X679288Y46624D01*
X679390Y46559D01*
X679482Y46485D01*
X679575Y46402D01*
X679584Y46392D01*
X679593Y46383D01*
X679612Y46346D01*
X679639Y46309D01*
X679676Y46263D01*
X679713Y46198D01*
X679750Y46124D01*
X679797Y46041D01*
X679834Y45949D01*
X679871Y45838D01*
X679908Y45727D01*
X679945Y45597D01*
X679963Y45459D01*
X679991Y45301D01*
X680000Y45144D01*
Y44969D01*
X679233Y44858D01*
Y44867D01*
Y44885D01*
Y44922D01*
X679223Y44978D01*
X679214Y45033D01*
Y45098D01*
X679186Y45255D01*
X679159Y45422D01*
X679103Y45588D01*
X679048Y45736D01*
X679011Y45801D01*
X678964Y45856D01*
X678955Y45865D01*
X678918Y45893D01*
X678863Y45939D01*
X678789Y45986D01*
X678687Y46041D01*
X678576Y46078D01*
X678438Y46115D01*
X678290Y46124D01*
X678234D01*
X678179Y46115D01*
X678095Y46106D01*
X678012Y46087D01*
X677920Y46069D01*
X677827Y46032D01*
X677735Y45986D01*
X677726Y45976D01*
X677698Y45958D01*
X677661Y45921D01*
X677605Y45884D01*
X677559Y45819D01*
X677504Y45754D01*
X677458Y45680D01*
X677421Y45588D01*
Y45579D01*
X677402Y45542D01*
X677393Y45477D01*
X677374Y45394D01*
X677356Y45283D01*
X677346Y45144D01*
X677328Y44978D01*
Y44784D01*
Y40374D01*
X676477D01*
Y44738D01*
Y44747D01*
Y44774D01*
Y44811D01*
Y44867D01*
X676487Y44941D01*
Y45015D01*
X676505Y45191D01*
X676524Y45394D01*
X676561Y45607D01*
X676616Y45801D01*
X676681Y45986D01*
Y45995D01*
X676690Y46004D01*
X676718Y46060D01*
X676764Y46134D01*
X676829Y46235D01*
X676921Y46337D01*
X677023Y46448D01*
X677152Y46559D01*
X677300Y46651D01*
X677319Y46661D01*
X677374Y46688D01*
X677458Y46725D01*
X677578Y46762D01*
X677726Y46809D01*
X677892Y46845D01*
X678077Y46873D01*
X678280Y46883D01*
X678363D01*
X678419Y46873D01*
D02*
G37*
G36*
X548419D02*
X548493Y46864D01*
X548567Y46855D01*
X548761Y46818D01*
X548964Y46762D01*
X549177Y46679D01*
X549288Y46624D01*
X549390Y46559D01*
X549482Y46485D01*
X549575Y46402D01*
X549584Y46392D01*
X549593Y46383D01*
X549612Y46346D01*
X549639Y46309D01*
X549676Y46263D01*
X549713Y46198D01*
X549750Y46124D01*
X549796Y46041D01*
X549833Y45949D01*
X549870Y45838D01*
X549907Y45727D01*
X549944Y45597D01*
X549963Y45459D01*
X549991Y45301D01*
X550000Y45144D01*
Y44969D01*
X549233Y44858D01*
Y44867D01*
Y44885D01*
Y44922D01*
X549223Y44978D01*
X549214Y45033D01*
Y45098D01*
X549186Y45255D01*
X549159Y45422D01*
X549103Y45588D01*
X549048Y45736D01*
X549011Y45801D01*
X548964Y45856D01*
X548955Y45865D01*
X548918Y45893D01*
X548863Y45939D01*
X548789Y45986D01*
X548687Y46041D01*
X548576Y46078D01*
X548437Y46115D01*
X548289Y46124D01*
X548234D01*
X548179Y46115D01*
X548095Y46106D01*
X548012Y46087D01*
X547920Y46069D01*
X547827Y46032D01*
X547735Y45986D01*
X547725Y45976D01*
X547698Y45958D01*
X547661Y45921D01*
X547605Y45884D01*
X547559Y45819D01*
X547504Y45754D01*
X547457Y45680D01*
X547420Y45588D01*
Y45579D01*
X547402Y45542D01*
X547393Y45477D01*
X547374Y45394D01*
X547356Y45283D01*
X547346Y45144D01*
X547328Y44978D01*
Y44784D01*
Y40374D01*
X546477D01*
Y44738D01*
Y44747D01*
Y44774D01*
Y44811D01*
Y44867D01*
X546487Y44941D01*
Y45015D01*
X546505Y45191D01*
X546524Y45394D01*
X546561Y45607D01*
X546616Y45801D01*
X546681Y45986D01*
Y45995D01*
X546690Y46004D01*
X546718Y46060D01*
X546764Y46134D01*
X546829Y46235D01*
X546921Y46337D01*
X547023Y46448D01*
X547152Y46559D01*
X547300Y46651D01*
X547319Y46661D01*
X547374Y46688D01*
X547457Y46725D01*
X547578Y46762D01*
X547725Y46809D01*
X547892Y46845D01*
X548077Y46873D01*
X548280Y46883D01*
X548363D01*
X548419Y46873D01*
D02*
G37*
G36*
X543241Y41770D02*
X543251Y41779D01*
X543297Y41816D01*
X543352Y41871D01*
X543445Y41936D01*
X543546Y42019D01*
X543676Y42112D01*
X543824Y42213D01*
X543990Y42315D01*
X543999D01*
X544009Y42324D01*
X544064Y42361D01*
X544157Y42408D01*
X544268Y42463D01*
X544397Y42528D01*
X544536Y42593D01*
X544674Y42657D01*
X544813Y42713D01*
Y41955D01*
X544804D01*
X544785Y41936D01*
X544748Y41927D01*
X544702Y41899D01*
X544647Y41871D01*
X544582Y41834D01*
X544425Y41742D01*
X544240Y41640D01*
X544055Y41511D01*
X543861Y41363D01*
X543667Y41206D01*
X543657Y41196D01*
X543648Y41187D01*
X543620Y41159D01*
X543583Y41132D01*
X543500Y41039D01*
X543389Y40928D01*
X543278Y40799D01*
X543158Y40651D01*
X543056Y40503D01*
X542964Y40346D01*
X542455D01*
Y46771D01*
X543241D01*
Y41770D01*
D02*
G37*
G36*
X538508Y46873D02*
X538582Y46864D01*
X538674Y46845D01*
X538776Y46827D01*
X538887Y46799D01*
X538998Y46762D01*
X539118Y46725D01*
X539238Y46670D01*
X539358Y46605D01*
X539478Y46531D01*
X539599Y46439D01*
X539710Y46337D01*
X539811Y46226D01*
X539821Y46217D01*
X539839Y46189D01*
X539867Y46143D01*
X539913Y46069D01*
X539959Y45986D01*
X540005Y45875D01*
X540070Y45745D01*
X540126Y45597D01*
X540181Y45431D01*
X540237Y45237D01*
X540292Y45024D01*
X540338Y44784D01*
X540384Y44525D01*
X540412Y44247D01*
X540431Y43942D01*
X540440Y43619D01*
Y43609D01*
Y43573D01*
Y43508D01*
Y43434D01*
X540431Y43332D01*
Y43221D01*
X540421Y43101D01*
X540412Y42962D01*
X540384Y42676D01*
X540338Y42371D01*
X540283Y42066D01*
X540246Y41927D01*
X540209Y41788D01*
Y41779D01*
X540200Y41760D01*
X540181Y41723D01*
X540163Y41677D01*
X540144Y41613D01*
X540107Y41548D01*
X540033Y41391D01*
X539941Y41224D01*
X539821Y41048D01*
X539682Y40873D01*
X539515Y40725D01*
X539506D01*
X539497Y40706D01*
X539469Y40688D01*
X539432Y40669D01*
X539386Y40632D01*
X539330Y40605D01*
X539192Y40531D01*
X539025Y40466D01*
X538831Y40401D01*
X538600Y40364D01*
X538350Y40346D01*
X538267D01*
X538166Y40355D01*
X538045Y40374D01*
X537907Y40401D01*
X537759Y40438D01*
X537602Y40484D01*
X537454Y40559D01*
X537444D01*
X537435Y40568D01*
X537389Y40595D01*
X537315Y40642D01*
X537223Y40706D01*
X537121Y40799D01*
X537010Y40901D01*
X536908Y41021D01*
X536806Y41159D01*
X536797Y41178D01*
X536760Y41224D01*
X536723Y41307D01*
X536659Y41428D01*
X536603Y41566D01*
X536529Y41723D01*
X536464Y41908D01*
X536409Y42112D01*
Y42121D01*
X536400Y42140D01*
X536390Y42167D01*
X536381Y42213D01*
X536372Y42269D01*
X536363Y42334D01*
X536344Y42417D01*
X536335Y42509D01*
X536316Y42611D01*
X536307Y42722D01*
X536298Y42851D01*
X536279Y42981D01*
X536270Y43129D01*
Y43277D01*
X536261Y43443D01*
Y43619D01*
Y43628D01*
Y43665D01*
Y43730D01*
Y43804D01*
X536270Y43905D01*
Y44016D01*
X536279Y44137D01*
X536289Y44266D01*
X536316Y44562D01*
X536363Y44867D01*
X536418Y45163D01*
X536455Y45301D01*
X536501Y45440D01*
Y45449D01*
X536511Y45468D01*
X536529Y45505D01*
X536548Y45551D01*
X536566Y45616D01*
X536603Y45680D01*
X536677Y45838D01*
X536769Y46004D01*
X536890Y46189D01*
X537028Y46356D01*
X537195Y46513D01*
X537204D01*
X537213Y46531D01*
X537241Y46550D01*
X537278Y46568D01*
X537324Y46596D01*
X537370Y46633D01*
X537509Y46698D01*
X537676Y46762D01*
X537870Y46827D01*
X538101Y46864D01*
X538350Y46883D01*
X538443D01*
X538508Y46873D01*
D02*
G37*
G36*
X278171Y916610D02*
X278254Y916601D01*
X278356Y916592D01*
X278458Y916583D01*
X278578Y916555D01*
X278828Y916499D01*
X279105Y916416D01*
X279244Y916361D01*
X279373Y916296D01*
X279503Y916213D01*
X279632Y916130D01*
X279641Y916121D01*
X279660Y916111D01*
X279697Y916084D01*
X279743Y916037D01*
X279789Y915991D01*
X279854Y915926D01*
X279918Y915852D01*
X279993Y915778D01*
X280067Y915686D01*
X280140Y915575D01*
X280224Y915464D01*
X280298Y915344D01*
X280362Y915205D01*
X280436Y915067D01*
X280492Y914919D01*
X280547Y914752D01*
X279715Y914558D01*
Y914567D01*
X279706Y914586D01*
X279687Y914623D01*
X279669Y914669D01*
X279650Y914724D01*
X279623Y914798D01*
X279549Y914946D01*
X279456Y915113D01*
X279345Y915279D01*
X279207Y915436D01*
X279059Y915575D01*
X279040Y915593D01*
X278985Y915630D01*
X278892Y915677D01*
X278772Y915741D01*
X278615Y915797D01*
X278439Y915852D01*
X278227Y915889D01*
X277995Y915899D01*
X277922D01*
X277875Y915889D01*
X277810D01*
X277737Y915880D01*
X277561Y915852D01*
X277367Y915815D01*
X277163Y915751D01*
X276951Y915658D01*
X276756Y915538D01*
X276747D01*
X276738Y915519D01*
X276673Y915473D01*
X276590Y915399D01*
X276488Y915288D01*
X276368Y915150D01*
X276257Y914993D01*
X276156Y914798D01*
X276063Y914586D01*
Y914576D01*
X276054Y914558D01*
X276045Y914530D01*
X276035Y914484D01*
X276017Y914428D01*
X275998Y914364D01*
X275971Y914207D01*
X275934Y914022D01*
X275897Y913818D01*
X275878Y913596D01*
X275869Y913356D01*
Y913347D01*
Y913319D01*
Y913273D01*
Y913217D01*
X275878Y913153D01*
Y913069D01*
X275888Y912977D01*
X275897Y912875D01*
X275924Y912653D01*
X275971Y912413D01*
X276026Y912173D01*
X276100Y911932D01*
Y911923D01*
X276109Y911905D01*
X276128Y911877D01*
X276146Y911831D01*
X276202Y911720D01*
X276285Y911590D01*
X276387Y911442D01*
X276516Y911285D01*
X276664Y911146D01*
X276840Y911017D01*
X276849D01*
X276868Y911008D01*
X276895Y910989D01*
X276932Y910971D01*
X276978Y910952D01*
X277034Y910924D01*
X277163Y910869D01*
X277330Y910814D01*
X277515Y910767D01*
X277718Y910730D01*
X277931Y910721D01*
X277995D01*
X278051Y910730D01*
X278116D01*
X278180Y910740D01*
X278347Y910777D01*
X278541Y910823D01*
X278735Y910897D01*
X278939Y910998D01*
X279040Y911054D01*
X279133Y911128D01*
X279142Y911137D01*
X279151Y911146D01*
X279179Y911174D01*
X279216Y911202D01*
X279253Y911248D01*
X279299Y911303D01*
X279355Y911359D01*
X279401Y911433D01*
X279456Y911516D01*
X279521Y911609D01*
X279576Y911701D01*
X279632Y911812D01*
X279678Y911932D01*
X279724Y912062D01*
X279771Y912200D01*
X279808Y912348D01*
X280658Y912136D01*
Y912126D01*
X280649Y912089D01*
X280630Y912034D01*
X280603Y911960D01*
X280575Y911877D01*
X280538Y911775D01*
X280492Y911664D01*
X280436Y911544D01*
X280307Y911285D01*
X280140Y911026D01*
X280039Y910897D01*
X279937Y910767D01*
X279826Y910656D01*
X279697Y910545D01*
X279687Y910536D01*
X279669Y910518D01*
X279623Y910499D01*
X279576Y910462D01*
X279503Y910416D01*
X279429Y910370D01*
X279327Y910323D01*
X279225Y910277D01*
X279105Y910222D01*
X278976Y910175D01*
X278837Y910129D01*
X278689Y910083D01*
X278532Y910046D01*
X278365Y910028D01*
X278190Y910009D01*
X278005Y910000D01*
X277903D01*
X277829Y910009D01*
X277746D01*
X277644Y910018D01*
X277533Y910037D01*
X277404Y910055D01*
X277136Y910102D01*
X276858Y910175D01*
X276581Y910277D01*
X276451Y910342D01*
X276322Y910416D01*
X276313Y910425D01*
X276294Y910434D01*
X276257Y910462D01*
X276220Y910499D01*
X276165Y910536D01*
X276100Y910592D01*
X276026Y910656D01*
X275952Y910730D01*
X275878Y910814D01*
X275795Y910897D01*
X275629Y911109D01*
X275471Y911359D01*
X275333Y911636D01*
Y911646D01*
X275314Y911673D01*
X275305Y911720D01*
X275277Y911775D01*
X275259Y911849D01*
X275231Y911942D01*
X275194Y912043D01*
X275166Y912154D01*
X275139Y912274D01*
X275102Y912413D01*
X275055Y912700D01*
X275018Y913023D01*
X275000Y913356D01*
Y913365D01*
Y913402D01*
Y913458D01*
X275009Y913522D01*
Y913615D01*
X275018Y913707D01*
X275028Y913828D01*
X275046Y913948D01*
X275092Y914216D01*
X275157Y914512D01*
X275250Y914808D01*
X275379Y915094D01*
X275388Y915104D01*
X275397Y915131D01*
X275416Y915168D01*
X275453Y915214D01*
X275490Y915279D01*
X275536Y915353D01*
X275656Y915519D01*
X275814Y915704D01*
X275998Y915889D01*
X276211Y916074D01*
X276461Y916231D01*
X276470Y916241D01*
X276498Y916250D01*
X276535Y916268D01*
X276581Y916296D01*
X276655Y916324D01*
X276729Y916352D01*
X276821Y916389D01*
X276923Y916426D01*
X277034Y916463D01*
X277154Y916499D01*
X277413Y916555D01*
X277709Y916601D01*
X278014Y916620D01*
X278106D01*
X278171Y916610D01*
D02*
G37*
G36*
X283497Y916527D02*
X283543D01*
X283608Y916518D01*
X283765Y916490D01*
X283940Y916453D01*
X284135Y916389D01*
X284329Y916305D01*
X284523Y916194D01*
X284532D01*
X284541Y916176D01*
X284569Y916158D01*
X284606Y916130D01*
X284699Y916056D01*
X284819Y915954D01*
X284939Y915815D01*
X285078Y915649D01*
X285198Y915455D01*
X285309Y915233D01*
Y915224D01*
X285318Y915205D01*
X285336Y915168D01*
X285355Y915122D01*
X285373Y915057D01*
X285401Y914974D01*
X285420Y914882D01*
X285447Y914780D01*
X285475Y914660D01*
X285503Y914521D01*
X285521Y914373D01*
X285540Y914216D01*
X285558Y914040D01*
X285577Y913855D01*
X285586Y913652D01*
Y913439D01*
Y913430D01*
Y913384D01*
Y913319D01*
Y913236D01*
X285577Y913134D01*
Y913014D01*
X285568Y912875D01*
X285549Y912737D01*
X285521Y912422D01*
X285475Y912089D01*
X285410Y911775D01*
X285364Y911618D01*
X285318Y911479D01*
Y911470D01*
X285309Y911451D01*
X285290Y911414D01*
X285272Y911359D01*
X285244Y911303D01*
X285207Y911229D01*
X285115Y911072D01*
X285004Y910897D01*
X284874Y910712D01*
X284708Y910536D01*
X284523Y910379D01*
X284514D01*
X284495Y910360D01*
X284467Y910342D01*
X284430Y910323D01*
X284375Y910296D01*
X284319Y910259D01*
X284245Y910222D01*
X284172Y910194D01*
X283996Y910120D01*
X283783Y910055D01*
X283552Y910018D01*
X283293Y910000D01*
X283219D01*
X283173Y910009D01*
X283108D01*
X283034Y910018D01*
X282859Y910055D01*
X282665Y910102D01*
X282461Y910175D01*
X282258Y910277D01*
X282156Y910342D01*
X282064Y910416D01*
X282054Y910425D01*
X282045Y910434D01*
X282017Y910462D01*
X281990Y910490D01*
X281953Y910536D01*
X281906Y910592D01*
X281814Y910721D01*
X281721Y910888D01*
X281629Y911091D01*
X281555Y911322D01*
X281500Y911590D01*
X282258Y911655D01*
Y911646D01*
X282267Y911627D01*
Y911609D01*
X282276Y911572D01*
X282304Y911470D01*
X282341Y911359D01*
X282387Y911229D01*
X282452Y911100D01*
X282526Y910980D01*
X282618Y910878D01*
X282628Y910869D01*
X282665Y910841D01*
X282729Y910804D01*
X282803Y910767D01*
X282905Y910721D01*
X283025Y910684D01*
X283164Y910656D01*
X283312Y910647D01*
X283376D01*
X283441Y910656D01*
X283524Y910666D01*
X283626Y910684D01*
X283728Y910712D01*
X283839Y910749D01*
X283940Y910804D01*
X283950Y910814D01*
X283987Y910832D01*
X284042Y910869D01*
X284098Y910924D01*
X284172Y910989D01*
X284245Y911063D01*
X284319Y911146D01*
X284393Y911248D01*
X284403Y911257D01*
X284421Y911303D01*
X284458Y911368D01*
X284495Y911451D01*
X284541Y911562D01*
X284588Y911692D01*
X284634Y911840D01*
X284680Y912006D01*
Y912015D01*
X284689Y912025D01*
Y912052D01*
X284699Y912089D01*
X284717Y912182D01*
X284745Y912302D01*
X284763Y912450D01*
X284782Y912607D01*
X284791Y912783D01*
X284800Y912968D01*
Y912977D01*
Y913005D01*
Y913051D01*
Y913125D01*
X284791Y913106D01*
X284754Y913060D01*
X284699Y912996D01*
X284634Y912903D01*
X284541Y912811D01*
X284430Y912709D01*
X284301Y912607D01*
X284153Y912515D01*
X284135Y912505D01*
X284079Y912478D01*
X283996Y912441D01*
X283894Y912404D01*
X283755Y912357D01*
X283608Y912320D01*
X283441Y912293D01*
X283265Y912283D01*
X283192D01*
X283136Y912293D01*
X283062Y912302D01*
X282988Y912311D01*
X282896Y912330D01*
X282803Y912357D01*
X282591Y912422D01*
X282480Y912468D01*
X282369Y912524D01*
X282248Y912589D01*
X282138Y912672D01*
X282027Y912755D01*
X281925Y912857D01*
X281916Y912866D01*
X281897Y912885D01*
X281879Y912912D01*
X281842Y912959D01*
X281795Y913023D01*
X281749Y913088D01*
X281703Y913171D01*
X281657Y913264D01*
X281601Y913365D01*
X281555Y913476D01*
X281509Y913606D01*
X281463Y913735D01*
X281426Y913883D01*
X281407Y914040D01*
X281389Y914197D01*
X281379Y914373D01*
Y914382D01*
Y914419D01*
Y914465D01*
X281389Y914530D01*
X281398Y914613D01*
X281407Y914715D01*
X281426Y914817D01*
X281453Y914937D01*
X281518Y915177D01*
X281564Y915307D01*
X281620Y915445D01*
X281684Y915575D01*
X281768Y915695D01*
X281851Y915825D01*
X281953Y915936D01*
X281962Y915945D01*
X281980Y915963D01*
X282008Y915991D01*
X282054Y916028D01*
X282110Y916074D01*
X282184Y916130D01*
X282258Y916176D01*
X282350Y916241D01*
X282443Y916296D01*
X282554Y916342D01*
X282803Y916444D01*
X282933Y916481D01*
X283081Y916509D01*
X283228Y916527D01*
X283386Y916536D01*
X283450D01*
X283497Y916527D01*
D02*
G37*
G36*
X278171Y619728D02*
X278255Y619719D01*
X278356Y619710D01*
X278458Y619700D01*
X278578Y619673D01*
X278828Y619617D01*
X279105Y619534D01*
X279244Y619478D01*
X279373Y619414D01*
X279503Y619331D01*
X279632Y619247D01*
X279641Y619238D01*
X279660Y619229D01*
X279697Y619201D01*
X279743Y619155D01*
X279789Y619109D01*
X279854Y619044D01*
X279919Y618970D01*
X279993Y618896D01*
X280067Y618804D01*
X280141Y618693D01*
X280224Y618582D01*
X280298Y618461D01*
X280362Y618323D01*
X280436Y618184D01*
X280492Y618036D01*
X280547Y617870D01*
X279715Y617676D01*
Y617685D01*
X279706Y617703D01*
X279688Y617740D01*
X279669Y617787D01*
X279650Y617842D01*
X279623Y617916D01*
X279549Y618064D01*
X279456Y618230D01*
X279345Y618397D01*
X279207Y618554D01*
X279059Y618693D01*
X279040Y618711D01*
X278985Y618748D01*
X278892Y618794D01*
X278772Y618859D01*
X278615Y618914D01*
X278439Y618970D01*
X278227Y619007D01*
X277996Y619016D01*
X277922D01*
X277875Y619007D01*
X277811D01*
X277737Y618998D01*
X277561Y618970D01*
X277367Y618933D01*
X277164Y618868D01*
X276951Y618776D01*
X276757Y618656D01*
X276747D01*
X276738Y618637D01*
X276674Y618591D01*
X276590Y618517D01*
X276489Y618406D01*
X276368Y618267D01*
X276257Y618110D01*
X276156Y617916D01*
X276063Y617703D01*
Y617694D01*
X276054Y617676D01*
X276045Y617648D01*
X276035Y617602D01*
X276017Y617546D01*
X275998Y617481D01*
X275971Y617324D01*
X275934Y617139D01*
X275897Y616936D01*
X275878Y616714D01*
X275869Y616474D01*
Y616465D01*
Y616437D01*
Y616390D01*
Y616335D01*
X275878Y616270D01*
Y616187D01*
X275888Y616095D01*
X275897Y615993D01*
X275925Y615771D01*
X275971Y615531D01*
X276026Y615290D01*
X276100Y615050D01*
Y615041D01*
X276110Y615022D01*
X276128Y614994D01*
X276147Y614948D01*
X276202Y614837D01*
X276285Y614708D01*
X276387Y614560D01*
X276516Y614403D01*
X276664Y614264D01*
X276840Y614135D01*
X276849D01*
X276868Y614125D01*
X276895Y614107D01*
X276932Y614088D01*
X276979Y614070D01*
X277034Y614042D01*
X277164Y613987D01*
X277330Y613931D01*
X277515Y613885D01*
X277718Y613848D01*
X277931Y613839D01*
X277996D01*
X278051Y613848D01*
X278116D01*
X278181Y613857D01*
X278347Y613894D01*
X278541Y613940D01*
X278735Y614014D01*
X278939Y614116D01*
X279040Y614171D01*
X279133Y614245D01*
X279142Y614255D01*
X279151Y614264D01*
X279179Y614292D01*
X279216Y614319D01*
X279253Y614366D01*
X279299Y614421D01*
X279355Y614477D01*
X279401Y614551D01*
X279456Y614634D01*
X279521Y614726D01*
X279577Y614819D01*
X279632Y614930D01*
X279678Y615050D01*
X279725Y615179D01*
X279771Y615318D01*
X279808Y615466D01*
X280658Y615253D01*
Y615244D01*
X280649Y615207D01*
X280631Y615152D01*
X280603Y615078D01*
X280575Y614994D01*
X280538Y614893D01*
X280492Y614782D01*
X280436Y614662D01*
X280307Y614403D01*
X280141Y614144D01*
X280039Y614014D01*
X279937Y613885D01*
X279826Y613774D01*
X279697Y613663D01*
X279688Y613654D01*
X279669Y613635D01*
X279623Y613617D01*
X279577Y613580D01*
X279503Y613534D01*
X279429Y613487D01*
X279327Y613441D01*
X279225Y613395D01*
X279105Y613339D01*
X278976Y613293D01*
X278837Y613247D01*
X278689Y613201D01*
X278532Y613164D01*
X278365Y613145D01*
X278190Y613127D01*
X278005Y613117D01*
X277903D01*
X277829Y613127D01*
X277746D01*
X277644Y613136D01*
X277533Y613154D01*
X277404Y613173D01*
X277136Y613219D01*
X276858Y613293D01*
X276581Y613395D01*
X276452Y613460D01*
X276322Y613534D01*
X276313Y613543D01*
X276294Y613552D01*
X276257Y613580D01*
X276220Y613617D01*
X276165Y613654D01*
X276100Y613709D01*
X276026Y613774D01*
X275952Y613848D01*
X275878Y613931D01*
X275795Y614014D01*
X275629Y614227D01*
X275471Y614477D01*
X275333Y614754D01*
Y614763D01*
X275314Y614791D01*
X275305Y614837D01*
X275277Y614893D01*
X275259Y614967D01*
X275231Y615059D01*
X275194Y615161D01*
X275166Y615272D01*
X275139Y615392D01*
X275102Y615531D01*
X275056Y615817D01*
X275019Y616141D01*
X275000Y616474D01*
Y616483D01*
Y616520D01*
Y616575D01*
X275009Y616640D01*
Y616733D01*
X275019Y616825D01*
X275028Y616945D01*
X275046Y617065D01*
X275093Y617333D01*
X275157Y617629D01*
X275250Y617925D01*
X275379Y618212D01*
X275388Y618221D01*
X275398Y618249D01*
X275416Y618286D01*
X275453Y618332D01*
X275490Y618397D01*
X275536Y618471D01*
X275656Y618637D01*
X275814Y618822D01*
X275998Y619007D01*
X276211Y619192D01*
X276461Y619349D01*
X276470Y619358D01*
X276498Y619368D01*
X276535Y619386D01*
X276581Y619414D01*
X276655Y619441D01*
X276729Y619469D01*
X276821Y619506D01*
X276923Y619543D01*
X277034Y619580D01*
X277154Y619617D01*
X277413Y619673D01*
X277709Y619719D01*
X278014Y619737D01*
X278106D01*
X278171Y619728D01*
D02*
G37*
G36*
X288554Y619645D02*
X288674Y619626D01*
X288822Y619599D01*
X288989Y619552D01*
X289155Y619497D01*
X289321Y619423D01*
X289331D01*
X289340Y619414D01*
X289395Y619386D01*
X289479Y619331D01*
X289571Y619266D01*
X289682Y619173D01*
X289793Y619072D01*
X289904Y618951D01*
X289996Y618813D01*
X290006Y618794D01*
X290033Y618748D01*
X290070Y618665D01*
X290117Y618563D01*
X290163Y618443D01*
X290200Y618304D01*
X290228Y618147D01*
X290237Y617990D01*
Y617971D01*
Y617916D01*
X290228Y617842D01*
X290209Y617740D01*
X290181Y617620D01*
X290135Y617491D01*
X290080Y617361D01*
X290006Y617232D01*
X289996Y617213D01*
X289969Y617176D01*
X289913Y617112D01*
X289839Y617038D01*
X289747Y616954D01*
X289636Y616862D01*
X289506Y616779D01*
X289349Y616696D01*
X289358D01*
X289377Y616686D01*
X289405Y616677D01*
X289442Y616668D01*
X289543Y616631D01*
X289673Y616575D01*
X289821Y616501D01*
X289969Y616409D01*
X290107Y616289D01*
X290237Y616150D01*
X290246Y616132D01*
X290283Y616076D01*
X290338Y615984D01*
X290394Y615863D01*
X290449Y615716D01*
X290505Y615540D01*
X290542Y615336D01*
X290551Y615115D01*
Y615105D01*
Y615078D01*
Y615031D01*
X290542Y614976D01*
X290533Y614902D01*
X290514Y614819D01*
X290496Y614726D01*
X290477Y614625D01*
X290403Y614403D01*
X290348Y614282D01*
X290292Y614171D01*
X290218Y614051D01*
X290135Y613931D01*
X290043Y613811D01*
X289932Y613700D01*
X289922Y613691D01*
X289904Y613672D01*
X289867Y613644D01*
X289821Y613608D01*
X289765Y613561D01*
X289691Y613515D01*
X289608Y613460D01*
X289506Y613413D01*
X289405Y613358D01*
X289284Y613302D01*
X289164Y613256D01*
X289026Y613210D01*
X288878Y613173D01*
X288720Y613145D01*
X288563Y613127D01*
X288388Y613117D01*
X288304D01*
X288249Y613127D01*
X288175Y613136D01*
X288092Y613145D01*
X287999Y613164D01*
X287898Y613182D01*
X287676Y613238D01*
X287445Y613330D01*
X287324Y613386D01*
X287213Y613450D01*
X287103Y613534D01*
X286992Y613617D01*
X286982Y613626D01*
X286964Y613644D01*
X286936Y613672D01*
X286908Y613709D01*
X286862Y613755D01*
X286816Y613820D01*
X286760Y613885D01*
X286705Y613968D01*
X286649Y614061D01*
X286594Y614153D01*
X286492Y614375D01*
X286409Y614634D01*
X286381Y614772D01*
X286363Y614920D01*
X287149Y615022D01*
Y615013D01*
X287158Y614994D01*
X287167Y614957D01*
X287176Y614911D01*
X287186Y614856D01*
X287204Y614791D01*
X287250Y614652D01*
X287315Y614486D01*
X287398Y614329D01*
X287491Y614181D01*
X287602Y614051D01*
X287620Y614042D01*
X287657Y614005D01*
X287731Y613959D01*
X287824Y613913D01*
X287935Y613857D01*
X288073Y613811D01*
X288230Y613774D01*
X288397Y613765D01*
X288452D01*
X288489Y613774D01*
X288591Y613783D01*
X288720Y613811D01*
X288868Y613857D01*
X289026Y613922D01*
X289183Y614014D01*
X289331Y614144D01*
X289349Y614162D01*
X289395Y614218D01*
X289451Y614301D01*
X289525Y614412D01*
X289599Y614551D01*
X289654Y614708D01*
X289701Y614893D01*
X289719Y615096D01*
Y615105D01*
Y615124D01*
Y615152D01*
X289710Y615189D01*
X289701Y615290D01*
X289673Y615410D01*
X289636Y615558D01*
X289571Y615706D01*
X289479Y615854D01*
X289358Y615993D01*
X289340Y616011D01*
X289294Y616048D01*
X289220Y616104D01*
X289118Y616169D01*
X288989Y616233D01*
X288831Y616289D01*
X288656Y616326D01*
X288462Y616344D01*
X288378D01*
X288314Y616335D01*
X288230Y616326D01*
X288138Y616307D01*
X288027Y616289D01*
X287907Y616261D01*
X287999Y616954D01*
X288046D01*
X288083Y616945D01*
X288203D01*
X288304Y616964D01*
X288425Y616982D01*
X288563Y617010D01*
X288720Y617056D01*
X288868Y617121D01*
X289026Y617204D01*
X289035D01*
X289044Y617213D01*
X289090Y617250D01*
X289155Y617315D01*
X289229Y617398D01*
X289303Y617518D01*
X289368Y617657D01*
X289414Y617814D01*
X289432Y617907D01*
Y618008D01*
Y618018D01*
Y618027D01*
Y618082D01*
X289414Y618156D01*
X289395Y618258D01*
X289358Y618369D01*
X289312Y618489D01*
X289238Y618609D01*
X289137Y618720D01*
X289127Y618730D01*
X289081Y618767D01*
X289016Y618813D01*
X288933Y618868D01*
X288822Y618914D01*
X288693Y618961D01*
X288545Y618998D01*
X288378Y619007D01*
X288304D01*
X288221Y618988D01*
X288110Y618970D01*
X287990Y618933D01*
X287870Y618887D01*
X287740Y618813D01*
X287620Y618720D01*
X287611Y618711D01*
X287574Y618665D01*
X287519Y618600D01*
X287454Y618508D01*
X287389Y618387D01*
X287324Y618240D01*
X287269Y618064D01*
X287232Y617860D01*
X286446Y617999D01*
Y618008D01*
X286455Y618036D01*
X286465Y618073D01*
X286474Y618129D01*
X286492Y618193D01*
X286520Y618267D01*
X286576Y618443D01*
X286668Y618646D01*
X286779Y618850D01*
X286918Y619044D01*
X287093Y619220D01*
X287103Y619229D01*
X287121Y619238D01*
X287149Y619257D01*
X287186Y619284D01*
X287232Y619321D01*
X287297Y619358D01*
X287361Y619395D01*
X287445Y619441D01*
X287630Y619515D01*
X287842Y619590D01*
X288092Y619636D01*
X288221Y619654D01*
X288452D01*
X288554Y619645D01*
D02*
G37*
G36*
X284338Y613228D02*
X283552D01*
Y618230D01*
X283543Y618221D01*
X283497Y618184D01*
X283441Y618129D01*
X283349Y618064D01*
X283247Y617981D01*
X283118Y617888D01*
X282970Y617787D01*
X282803Y617685D01*
X282794D01*
X282785Y617676D01*
X282729Y617639D01*
X282637Y617592D01*
X282526Y617537D01*
X282397Y617472D01*
X282258Y617407D01*
X282119Y617343D01*
X281980Y617287D01*
Y618045D01*
X281990D01*
X282008Y618064D01*
X282045Y618073D01*
X282091Y618101D01*
X282147Y618129D01*
X282212Y618166D01*
X282369Y618258D01*
X282554Y618360D01*
X282739Y618489D01*
X282933Y618637D01*
X283127Y618794D01*
X283136Y618804D01*
X283145Y618813D01*
X283173Y618841D01*
X283210Y618868D01*
X283293Y618961D01*
X283404Y619072D01*
X283515Y619201D01*
X283635Y619349D01*
X283737Y619497D01*
X283830Y619654D01*
X284338D01*
Y613228D01*
D02*
G37*
%LPC*%
G36*
X746807Y929131D02*
X746788D01*
X746751D01*
X746686D01*
X746603Y929122D01*
X746501Y929112D01*
X746381Y929094D01*
X746243Y929075D01*
X746104Y929057D01*
X745789Y928983D01*
X745632Y928937D01*
X745475Y928872D01*
X745318Y928807D01*
X745170Y928724D01*
X745022Y928632D01*
X744893Y928521D01*
X744883Y928511D01*
X744865Y928493D01*
X744828Y928456D01*
X744791Y928410D01*
X744735Y928345D01*
X744680Y928271D01*
X744625Y928188D01*
X744560Y928086D01*
X744495Y927984D01*
X744440Y927864D01*
X744384Y927735D01*
X744329Y927596D01*
X744292Y927439D01*
X744255Y927282D01*
X744236Y927115D01*
X744227Y926940D01*
Y926856D01*
X744236Y926773D01*
X744246Y926662D01*
X744264Y926524D01*
X744301Y926385D01*
X744338Y926228D01*
X744393Y926080D01*
X744403Y926098D01*
X744440Y926144D01*
X744486Y926228D01*
X744541Y926329D01*
X744597Y926459D01*
X744662Y926598D01*
X744717Y926755D01*
X744763Y926921D01*
X745374Y926709D01*
Y926699D01*
X745364Y926672D01*
X745355Y926635D01*
X745337Y926588D01*
X745318Y926524D01*
X745290Y926450D01*
X745226Y926283D01*
X745133Y926089D01*
X745031Y925886D01*
X744911Y925692D01*
X744763Y925497D01*
X744772Y925488D01*
X744791Y925460D01*
X744837Y925423D01*
X744893Y925377D01*
X744967Y925322D01*
X745050Y925257D01*
X745152Y925192D01*
X745272Y925118D01*
X745411Y925053D01*
X745568Y924989D01*
X745734Y924924D01*
X745910Y924869D01*
X746113Y924813D01*
X746326Y924776D01*
X746557Y924758D01*
X746807Y924748D01*
X746816D01*
X746843D01*
X746880D01*
X746936D01*
X747010Y924758D01*
X747084D01*
X747176Y924767D01*
X747269Y924785D01*
X747482Y924813D01*
X747713Y924859D01*
X747944Y924924D01*
X748166Y925017D01*
X748175D01*
X748193Y925026D01*
X748221Y925044D01*
X748258Y925063D01*
X748369Y925127D01*
X748499Y925211D01*
X748646Y925322D01*
X748794Y925460D01*
X748942Y925618D01*
X749072Y925793D01*
Y925802D01*
X749090Y925812D01*
X749100Y925839D01*
X749127Y925886D01*
X749146Y925932D01*
X749173Y925987D01*
X749238Y926126D01*
X749294Y926292D01*
X749349Y926487D01*
X749386Y926709D01*
X749395Y926940D01*
Y927032D01*
X749386Y927097D01*
X749377Y927180D01*
X749358Y927272D01*
X749340Y927374D01*
X749312Y927485D01*
X749275Y927615D01*
X749238Y927735D01*
X749183Y927864D01*
X749118Y928003D01*
X749044Y928132D01*
X748951Y928262D01*
X748859Y928391D01*
X748739Y928511D01*
X748730Y928521D01*
X748711Y928539D01*
X748674Y928567D01*
X748619Y928604D01*
X748554Y928659D01*
X748471Y928706D01*
X748369Y928761D01*
X748258Y928817D01*
X748129Y928881D01*
X747981Y928937D01*
X747824Y928983D01*
X747648Y929029D01*
X747463Y929075D01*
X747260Y929103D01*
X747038Y929122D01*
X746807Y929131D01*
D02*
G37*
G36*
X639900Y547567D02*
X639891D01*
X639882D01*
X639826Y547557D01*
X639743Y547548D01*
X639641Y547530D01*
X639521Y547493D01*
X639401Y547446D01*
X639271Y547373D01*
X639160Y547280D01*
X639151Y547271D01*
X639114Y547225D01*
X639068Y547160D01*
X639022Y547077D01*
X638966Y546966D01*
X638920Y546836D01*
X638883Y546688D01*
X638874Y546522D01*
Y546503D01*
X638883Y546448D01*
X638892Y546365D01*
X638911Y546254D01*
X638948Y546134D01*
X638994Y546013D01*
X639068Y545884D01*
X639160Y545773D01*
X639170Y545764D01*
X639216Y545727D01*
X639271Y545681D01*
X639355Y545625D01*
X639456Y545570D01*
X639576Y545523D01*
X639715Y545486D01*
X639863Y545477D01*
X639872D01*
X639882D01*
X639937D01*
X640020Y545496D01*
X640122Y545514D01*
X640233Y545551D01*
X640353Y545607D01*
X640473Y545681D01*
X640593Y545782D01*
X640603Y545792D01*
X640640Y545838D01*
X640686Y545902D01*
X640741Y545986D01*
X640797Y546097D01*
X640843Y546217D01*
X640880Y546365D01*
X640889Y546522D01*
Y546596D01*
X640871Y546679D01*
X640852Y546790D01*
X640815Y546910D01*
X640769Y547040D01*
X640695Y547160D01*
X640593Y547280D01*
X640584Y547289D01*
X640547Y547326D01*
X640482Y547373D01*
X640399Y547419D01*
X640298Y547474D01*
X640177Y547520D01*
X640048Y547557D01*
X639900Y547567D01*
D02*
G37*
G36*
X636951Y547826D02*
X636932D01*
X636895D01*
X636830Y547816D01*
X636747Y547807D01*
X636646Y547789D01*
X636535Y547761D01*
X636424Y547724D01*
X636303Y547678D01*
X636294Y547668D01*
X636248Y547650D01*
X636193Y547613D01*
X636128Y547557D01*
X636045Y547493D01*
X635961Y547409D01*
X635887Y547317D01*
X635813Y547206D01*
X635804Y547188D01*
X635786Y547151D01*
X635758Y547086D01*
X635730Y547003D01*
X635703Y546901D01*
X635675Y546781D01*
X635656Y546651D01*
X635647Y546522D01*
Y546466D01*
X635656Y546429D01*
X635666Y546319D01*
X635693Y546189D01*
X635740Y546041D01*
X635795Y545884D01*
X635887Y545736D01*
X636008Y545588D01*
X636026Y545570D01*
X636072Y545533D01*
X636156Y545468D01*
X636257Y545403D01*
X636387Y545338D01*
X636544Y545274D01*
X636729Y545237D01*
X636923Y545218D01*
X636932D01*
X636951D01*
X636978D01*
X637015Y545228D01*
X637117Y545237D01*
X637256Y545265D01*
X637394Y545311D01*
X637552Y545375D01*
X637709Y545468D01*
X637857Y545597D01*
X637875Y545616D01*
X637912Y545662D01*
X637977Y545745D01*
X638051Y545856D01*
X638116Y545995D01*
X638180Y546161D01*
X638217Y546346D01*
X638236Y546550D01*
Y546605D01*
X638227Y546642D01*
X638217Y546744D01*
X638190Y546873D01*
X638143Y547021D01*
X638079Y547169D01*
X637986Y547326D01*
X637866Y547465D01*
X637848Y547483D01*
X637801Y547520D01*
X637718Y547576D01*
X637616Y547641D01*
X637478Y547715D01*
X637321Y547770D01*
X637145Y547807D01*
X636951Y547826D01*
D02*
G37*
G36*
X751807Y818056D02*
X751788D01*
X751751D01*
X751686D01*
X751603Y818047D01*
X751501Y818037D01*
X751381Y818019D01*
X751243Y818000D01*
X751104Y817982D01*
X750790Y817908D01*
X750632Y817862D01*
X750475Y817797D01*
X750318Y817732D01*
X750170Y817649D01*
X750022Y817557D01*
X749893Y817446D01*
X749883Y817436D01*
X749865Y817418D01*
X749828Y817381D01*
X749791Y817335D01*
X749736Y817270D01*
X749680Y817196D01*
X749625Y817113D01*
X749560Y817011D01*
X749495Y816909D01*
X749440Y816789D01*
X749384Y816660D01*
X749329Y816521D01*
X749292Y816364D01*
X749255Y816207D01*
X749236Y816040D01*
X749227Y815865D01*
Y815781D01*
X749236Y815698D01*
X749246Y815587D01*
X749264Y815449D01*
X749301Y815310D01*
X749338Y815153D01*
X749393Y815005D01*
X749403Y815023D01*
X749440Y815070D01*
X749486Y815153D01*
X749541Y815255D01*
X749597Y815384D01*
X749662Y815523D01*
X749717Y815680D01*
X749763Y815846D01*
X750374Y815633D01*
Y815624D01*
X750364Y815597D01*
X750355Y815560D01*
X750337Y815513D01*
X750318Y815449D01*
X750290Y815375D01*
X750226Y815208D01*
X750133Y815014D01*
X750031Y814811D01*
X749911Y814616D01*
X749763Y814422D01*
X749772Y814413D01*
X749791Y814385D01*
X749837Y814348D01*
X749893Y814302D01*
X749967Y814247D01*
X750050Y814182D01*
X750152Y814117D01*
X750272Y814043D01*
X750411Y813979D01*
X750568Y813914D01*
X750734Y813849D01*
X750910Y813794D01*
X751113Y813738D01*
X751326Y813701D01*
X751557Y813683D01*
X751807Y813673D01*
X751816D01*
X751844D01*
X751880D01*
X751936D01*
X752010Y813683D01*
X752084D01*
X752176Y813692D01*
X752269Y813710D01*
X752482Y813738D01*
X752713Y813784D01*
X752944Y813849D01*
X753166Y813942D01*
X753175D01*
X753193Y813951D01*
X753221Y813969D01*
X753258Y813988D01*
X753369Y814053D01*
X753499Y814136D01*
X753646Y814247D01*
X753794Y814385D01*
X753942Y814543D01*
X754072Y814718D01*
Y814727D01*
X754090Y814737D01*
X754100Y814764D01*
X754127Y814811D01*
X754146Y814857D01*
X754173Y814912D01*
X754238Y815051D01*
X754294Y815218D01*
X754349Y815412D01*
X754386Y815633D01*
X754395Y815865D01*
Y815957D01*
X754386Y816022D01*
X754377Y816105D01*
X754358Y816198D01*
X754340Y816299D01*
X754312Y816410D01*
X754275Y816540D01*
X754238Y816660D01*
X754183Y816789D01*
X754118Y816928D01*
X754044Y817057D01*
X753952Y817187D01*
X753859Y817316D01*
X753739Y817436D01*
X753730Y817446D01*
X753711Y817464D01*
X753674Y817492D01*
X753619Y817529D01*
X753554Y817584D01*
X753471Y817631D01*
X753369Y817686D01*
X753258Y817741D01*
X753129Y817806D01*
X752981Y817862D01*
X752824Y817908D01*
X752648Y817954D01*
X752463Y818000D01*
X752260Y818028D01*
X752038Y818047D01*
X751807Y818056D01*
D02*
G37*
G36*
X914747Y242979D02*
X914737D01*
X914719D01*
X914682D01*
X914636Y242970D01*
X914580D01*
X914516Y242960D01*
X914368Y242933D01*
X914201Y242896D01*
X914026Y242831D01*
X913859Y242739D01*
X913702Y242618D01*
X913683Y242600D01*
X913637Y242554D01*
X913582Y242480D01*
X913508Y242378D01*
X913434Y242248D01*
X913378Y242101D01*
X913332Y241925D01*
X913314Y241731D01*
Y241675D01*
X913323Y241638D01*
X913332Y241546D01*
X913360Y241416D01*
X913406Y241278D01*
X913480Y241121D01*
X913572Y240973D01*
X913702Y240825D01*
X913720Y240806D01*
X913767Y240769D01*
X913850Y240704D01*
X913970Y240640D01*
X914109Y240575D01*
X914284Y240510D01*
X914479Y240473D01*
X914700Y240455D01*
X914719D01*
X914765D01*
X914848Y240464D01*
X914950Y240473D01*
X915070Y240492D01*
X915200Y240529D01*
X915338Y240566D01*
X915477Y240621D01*
X915496Y240631D01*
X915542Y240658D01*
X915607Y240695D01*
X915690Y240751D01*
X915773Y240816D01*
X915875Y240899D01*
X915958Y240991D01*
X916041Y241102D01*
X916050Y241121D01*
X916069Y241158D01*
X916106Y241222D01*
X916133Y241306D01*
X916171Y241398D01*
X916208Y241509D01*
X916226Y241629D01*
X916235Y241758D01*
Y241805D01*
X916226Y241842D01*
X916217Y241934D01*
X916189Y242054D01*
X916133Y242184D01*
X916069Y242332D01*
X915967Y242480D01*
X915912Y242554D01*
X915838Y242618D01*
X915828D01*
X915819Y242637D01*
X915764Y242674D01*
X915671Y242729D01*
X915551Y242803D01*
X915394Y242868D01*
X915209Y242924D01*
X914996Y242960D01*
X914747Y242979D01*
D02*
G37*
G36*
X803315Y46235D02*
X803260D01*
X803223Y46226D01*
X803112Y46217D01*
X802983Y46189D01*
X802835Y46143D01*
X802678Y46087D01*
X802530Y45995D01*
X802382Y45875D01*
X802363Y45856D01*
X802326Y45810D01*
X802261Y45727D01*
X802197Y45625D01*
X802132Y45496D01*
X802067Y45338D01*
X802030Y45153D01*
X802012Y44959D01*
Y44950D01*
Y44932D01*
Y44904D01*
X802021Y44867D01*
X802030Y44765D01*
X802058Y44626D01*
X802104Y44488D01*
X802169Y44331D01*
X802261Y44173D01*
X802391Y44026D01*
X802409Y44007D01*
X802456Y43970D01*
X802539Y43905D01*
X802650Y43831D01*
X802788Y43767D01*
X802955Y43702D01*
X803140Y43665D01*
X803343Y43646D01*
X803399D01*
X803436Y43656D01*
X803537Y43665D01*
X803667Y43693D01*
X803815Y43739D01*
X803963Y43804D01*
X804120Y43896D01*
X804258Y44016D01*
X804277Y44035D01*
X804314Y44081D01*
X804369Y44164D01*
X804434Y44266D01*
X804508Y44405D01*
X804564Y44562D01*
X804601Y44738D01*
X804619Y44932D01*
Y44950D01*
Y44987D01*
X804610Y45052D01*
X804601Y45135D01*
X804582Y45237D01*
X804554Y45348D01*
X804517Y45459D01*
X804471Y45579D01*
X804462Y45588D01*
X804443Y45634D01*
X804406Y45690D01*
X804351Y45754D01*
X804286Y45838D01*
X804203Y45921D01*
X804111Y45995D01*
X804000Y46069D01*
X803981Y46078D01*
X803944Y46097D01*
X803879Y46124D01*
X803796Y46152D01*
X803695Y46180D01*
X803574Y46207D01*
X803445Y46226D01*
X803315Y46235D01*
D02*
G37*
G36*
Y43008D02*
X803297D01*
X803242Y42999D01*
X803158Y42990D01*
X803047Y42972D01*
X802927Y42935D01*
X802807Y42888D01*
X802678Y42814D01*
X802567Y42722D01*
X802557Y42713D01*
X802520Y42667D01*
X802474Y42611D01*
X802419Y42528D01*
X802363Y42426D01*
X802317Y42306D01*
X802280Y42167D01*
X802271Y42019D01*
Y42010D01*
Y42001D01*
Y41945D01*
X802289Y41862D01*
X802308Y41760D01*
X802345Y41649D01*
X802400Y41529D01*
X802474Y41409D01*
X802576Y41289D01*
X802585Y41280D01*
X802631Y41243D01*
X802696Y41196D01*
X802779Y41141D01*
X802890Y41086D01*
X803010Y41039D01*
X803158Y41002D01*
X803315Y40993D01*
X803389D01*
X803473Y41012D01*
X803584Y41030D01*
X803704Y41067D01*
X803833Y41113D01*
X803953Y41187D01*
X804074Y41289D01*
X804083Y41298D01*
X804120Y41335D01*
X804166Y41400D01*
X804212Y41483D01*
X804268Y41585D01*
X804314Y41705D01*
X804351Y41834D01*
X804360Y41982D01*
Y41992D01*
Y42001D01*
X804351Y42056D01*
X804342Y42140D01*
X804323Y42241D01*
X804286Y42361D01*
X804240Y42482D01*
X804166Y42611D01*
X804074Y42722D01*
X804064Y42731D01*
X804018Y42768D01*
X803953Y42814D01*
X803870Y42861D01*
X803759Y42916D01*
X803630Y42962D01*
X803482Y42999D01*
X803315Y43008D01*
D02*
G37*
G36*
X673334Y43905D02*
X673279D01*
X673242Y43896D01*
X673140Y43887D01*
X673020Y43859D01*
X672872Y43813D01*
X672724Y43748D01*
X672576Y43656D01*
X672437Y43526D01*
X672419Y43508D01*
X672382Y43452D01*
X672326Y43369D01*
X672252Y43249D01*
X672188Y43101D01*
X672132Y42925D01*
X672095Y42713D01*
X672076Y42472D01*
Y42463D01*
Y42445D01*
Y42408D01*
X672086Y42361D01*
Y42297D01*
X672095Y42232D01*
X672123Y42084D01*
X672160Y41908D01*
X672225Y41723D01*
X672317Y41548D01*
X672437Y41391D01*
Y41381D01*
X672456Y41372D01*
X672502Y41326D01*
X672576Y41261D01*
X672678Y41187D01*
X672807Y41122D01*
X672955Y41058D01*
X673121Y41012D01*
X673214Y40993D01*
X673362D01*
X673399Y41002D01*
X673500Y41012D01*
X673621Y41048D01*
X673768Y41095D01*
X673926Y41178D01*
X674083Y41280D01*
X674157Y41354D01*
X674231Y41428D01*
Y41437D01*
X674249Y41446D01*
X674268Y41474D01*
X674286Y41501D01*
X674351Y41594D01*
X674416Y41723D01*
X674490Y41881D01*
X674554Y42075D01*
X674591Y42297D01*
X674610Y42537D01*
Y42546D01*
Y42565D01*
Y42593D01*
X674601Y42639D01*
Y42694D01*
X674591Y42750D01*
X674564Y42888D01*
X674517Y43046D01*
X674462Y43212D01*
X674369Y43378D01*
X674249Y43526D01*
X674231Y43545D01*
X674184Y43582D01*
X674101Y43646D01*
X674000Y43711D01*
X673861Y43785D01*
X673704Y43850D01*
X673528Y43887D01*
X673334Y43905D01*
D02*
G37*
G36*
X538350Y46235D02*
X538295D01*
X538258Y46226D01*
X538166Y46207D01*
X538036Y46171D01*
X537897Y46106D01*
X537740Y46013D01*
X537666Y45958D01*
X537592Y45884D01*
X537518Y45810D01*
X537444Y45718D01*
Y45708D01*
X537426Y45690D01*
X537407Y45662D01*
X537389Y45616D01*
X537352Y45551D01*
X537324Y45468D01*
X537287Y45375D01*
X537250Y45265D01*
X537223Y45126D01*
X537186Y44978D01*
X537149Y44802D01*
X537121Y44617D01*
X537102Y44395D01*
X537084Y44164D01*
X537065Y43905D01*
Y43619D01*
Y43609D01*
Y43600D01*
Y43554D01*
Y43471D01*
X537075Y43360D01*
Y43240D01*
X537084Y43092D01*
X537093Y42935D01*
X537112Y42759D01*
X537158Y42408D01*
X537186Y42232D01*
X537223Y42066D01*
X537259Y41908D01*
X537315Y41760D01*
X537370Y41631D01*
X537435Y41520D01*
Y41511D01*
X537454Y41501D01*
X537472Y41474D01*
X537500Y41437D01*
X537583Y41354D01*
X537685Y41252D01*
X537823Y41159D01*
X537981Y41076D01*
X538064Y41039D01*
X538156Y41012D01*
X538258Y41002D01*
X538360Y40993D01*
X538415D01*
X538452Y41002D01*
X538554Y41021D01*
X538674Y41048D01*
X538813Y41104D01*
X538961Y41187D01*
X539035Y41243D01*
X539109Y41298D01*
X539173Y41372D01*
X539238Y41455D01*
Y41465D01*
X539257Y41483D01*
X539275Y41520D01*
X539303Y41566D01*
X539330Y41640D01*
X539367Y41723D01*
X539395Y41825D01*
X539432Y41945D01*
X539469Y42084D01*
X539506Y42241D01*
X539543Y42417D01*
X539571Y42611D01*
X539599Y42833D01*
X539617Y43073D01*
X539626Y43332D01*
X539636Y43619D01*
Y43637D01*
Y43684D01*
Y43767D01*
X539626Y43878D01*
Y43998D01*
X539617Y44146D01*
X539608Y44303D01*
X539589Y44469D01*
X539543Y44830D01*
X539515Y45006D01*
X539478Y45172D01*
X539441Y45329D01*
X539386Y45477D01*
X539330Y45607D01*
X539266Y45718D01*
Y45727D01*
X539247Y45736D01*
X539201Y45801D01*
X539118Y45884D01*
X539016Y45976D01*
X538877Y46069D01*
X538720Y46152D01*
X538545Y46217D01*
X538452Y46226D01*
X538350Y46235D01*
D02*
G37*
G36*
X283580Y915889D02*
X283432D01*
X283395Y915880D01*
X283293Y915871D01*
X283173Y915834D01*
X283025Y915788D01*
X282868Y915704D01*
X282711Y915603D01*
X282637Y915529D01*
X282563Y915455D01*
Y915445D01*
X282544Y915436D01*
X282526Y915409D01*
X282507Y915381D01*
X282443Y915288D01*
X282378Y915159D01*
X282304Y915002D01*
X282239Y914808D01*
X282202Y914586D01*
X282184Y914345D01*
Y914336D01*
Y914318D01*
Y914290D01*
X282193Y914244D01*
Y914188D01*
X282202Y914133D01*
X282230Y913994D01*
X282276Y913837D01*
X282332Y913670D01*
X282424Y913504D01*
X282544Y913356D01*
X282563Y913337D01*
X282609Y913301D01*
X282692Y913236D01*
X282794Y913171D01*
X282933Y913097D01*
X283090Y913032D01*
X283265Y912996D01*
X283460Y912977D01*
X283515D01*
X283552Y912986D01*
X283654Y912996D01*
X283774Y913023D01*
X283922Y913069D01*
X284070Y913134D01*
X284218Y913227D01*
X284356Y913356D01*
X284375Y913374D01*
X284412Y913430D01*
X284467Y913513D01*
X284541Y913633D01*
X284606Y913781D01*
X284662Y913957D01*
X284699Y914170D01*
X284717Y914410D01*
Y914419D01*
Y914438D01*
Y914475D01*
X284708Y914521D01*
Y914586D01*
X284699Y914650D01*
X284671Y914798D01*
X284634Y914974D01*
X284569Y915159D01*
X284477Y915335D01*
X284356Y915492D01*
Y915501D01*
X284338Y915510D01*
X284292Y915556D01*
X284218Y915621D01*
X284116Y915695D01*
X283987Y915760D01*
X283839Y915825D01*
X283672Y915871D01*
X283580Y915889D01*
D02*
G37*
%LPD*%
D12*
X898000Y122000D02*
X922000D01*
X898000Y58000D02*
Y122000D01*
Y58000D02*
X922000D01*
Y122000D01*
X260500Y421500D02*
Y448500D01*
Y421500D02*
X299500D01*
Y448500D01*
X260500D02*
X299500D01*
X264000Y178000D02*
Y212000D01*
Y178000D02*
X316000D01*
Y212000D01*
X264000D02*
X316000D01*
X692000Y954000D02*
X798000D01*
X692000Y906000D02*
Y954000D01*
Y906000D02*
X798000D01*
Y954000D01*
X621500Y587000D02*
X648500D01*
X621500Y523000D02*
Y587000D01*
Y523000D02*
X648500D01*
Y587000D01*
X697000Y842925D02*
X803000D01*
X697000Y794925D02*
Y842925D01*
Y794925D02*
X803000D01*
Y842925D01*
X903000Y203000D02*
X927000D01*
Y267000D01*
X903000D02*
X927000D01*
X903000Y203000D02*
Y267000D01*
X842000Y33000D02*
Y57000D01*
X778000D02*
X842000D01*
X778000Y33000D02*
Y57000D01*
Y33000D02*
X842000D01*
X712000D02*
Y57000D01*
X648000D02*
X712000D01*
X648000Y33000D02*
Y57000D01*
Y33000D02*
X712000D01*
X582000D02*
Y57000D01*
X518000D02*
X582000D01*
X518000Y33000D02*
Y57000D01*
Y33000D02*
X582000D01*
X255500Y896500D02*
Y923500D01*
Y896500D02*
X294500D01*
Y923500D01*
X255500D02*
X294500D01*
X249000Y598000D02*
Y632000D01*
Y598000D02*
X301000D01*
Y632000D01*
X249000D02*
X301000D01*
M02*
