G04*
G04 #@! TF.GenerationSoftware,Altium Limited,Altium Designer,22.9.1 (49)*
G04*
G04 Layer_Physical_Order=1*
G04 Layer_Color=255*
%FSLAX44Y44*%
%MOMM*%
G71*
G04*
G04 #@! TF.SameCoordinates,DBEF2CFB-25A5-4AA8-B732-6DF96BC3893C*
G04*
G04*
G04 #@! TF.FilePolarity,Positive*
G04*
G01*
G75*
%ADD18C,1.3000*%
%ADD19R,1.3000X1.3000*%
%ADD24C,1.2000*%
%ADD25R,1.2000X1.2000*%
%ADD34C,2.0000*%
%ADD35R,2.0000X2.0000*%
%ADD36R,1.2000X1.2000*%
%ADD39R,1.3000X1.3000*%
%ADD42C,0.3810*%
%ADD43C,1.5240*%
%ADD44R,1.6000X1.6000*%
%ADD45C,1.6000*%
%ADD46C,1.5000*%
%ADD47R,1.5000X1.5000*%
%ADD48C,1.6500*%
%ADD49R,1.6500X1.6500*%
%ADD50R,1.3500X1.3500*%
%ADD51C,1.3500*%
%ADD52R,2.3000X2.3000*%
%ADD53C,2.3000*%
%ADD54R,1.3500X1.3500*%
%ADD55R,1.6000X1.6000*%
%ADD56C,1.0000*%
G36*
X928827Y948827D02*
X925000Y945000D01*
Y922983D01*
X923730Y922643D01*
X923028Y923860D01*
X921160Y925728D01*
X918872Y927048D01*
X916321Y927732D01*
X913679D01*
X911128Y927048D01*
X908840Y925728D01*
X906972Y923860D01*
X905734Y921714D01*
X887700D01*
X886164Y921409D01*
X884862Y920538D01*
X882162Y917838D01*
X881291Y916536D01*
X880986Y915000D01*
Y796663D01*
X776475Y692151D01*
X775604Y690849D01*
X775299Y689313D01*
Y637174D01*
X774029Y636648D01*
X762838Y647838D01*
X761536Y648709D01*
X760000Y649014D01*
X683782D01*
Y653782D01*
X666218D01*
Y636218D01*
X683782D01*
Y640986D01*
X758337D01*
X818059Y581264D01*
X817968Y580926D01*
Y579074D01*
X818447Y577286D01*
X819373Y575682D01*
X819771Y575284D01*
X819245Y574014D01*
X775000D01*
X773464Y573709D01*
X772162Y572838D01*
X762855Y563532D01*
X751468D01*
Y552145D01*
X747162Y547838D01*
X746291Y546536D01*
X745986Y545000D01*
Y510802D01*
X745682Y510627D01*
X744373Y509318D01*
X743447Y507714D01*
X742968Y505926D01*
Y504074D01*
X743447Y502286D01*
X744373Y500682D01*
X745682Y499373D01*
X747286Y498447D01*
X749074Y497968D01*
X750926D01*
X752714Y498447D01*
X754318Y499373D01*
X754716Y499771D01*
X755986Y499245D01*
Y231350D01*
X754812Y230864D01*
X751598Y234079D01*
Y240753D01*
X752838Y241994D01*
X753709Y243296D01*
X754014Y244832D01*
Y260000D01*
X753709Y261536D01*
X752838Y262838D01*
X751536Y263709D01*
X750000Y264014D01*
X748464Y263709D01*
X747162Y262838D01*
X746291Y261536D01*
X745986Y260000D01*
Y246495D01*
X744745Y245255D01*
X743875Y243952D01*
X743570Y242416D01*
Y232416D01*
X743875Y230880D01*
X744745Y229578D01*
X751215Y223108D01*
X751063Y222540D01*
X760000D01*
X768937D01*
X768657Y223586D01*
X767434Y225704D01*
X765704Y227434D01*
X764014Y228410D01*
Y498337D01*
X775948Y510271D01*
X784285D01*
X785821Y510576D01*
X787123Y511447D01*
X787838Y512162D01*
X788709Y513464D01*
X789014Y515000D01*
X788709Y516536D01*
X787838Y517838D01*
X786536Y518709D01*
X785000Y519014D01*
X783464Y518709D01*
X782851Y518299D01*
X774285D01*
X772749Y517994D01*
X771447Y517123D01*
X758237Y503913D01*
X758228Y503915D01*
X757032Y504505D01*
Y505926D01*
X756553Y507714D01*
X755627Y509318D01*
X754318Y510627D01*
X754014Y510802D01*
Y543337D01*
X757145Y546468D01*
X768532D01*
Y557855D01*
X776663Y565986D01*
X840000D01*
X841536Y566291D01*
X842838Y567162D01*
X846260Y570583D01*
X847130Y571886D01*
X847436Y573422D01*
Y576578D01*
X847130Y578114D01*
X846260Y579417D01*
X810178Y615499D01*
X808876Y616369D01*
X807339Y616675D01*
X804934D01*
X787072Y634537D01*
X787460Y635472D01*
Y645000D01*
Y654290D01*
X783327D01*
Y687650D01*
X887838Y792162D01*
X888709Y793464D01*
X889014Y795000D01*
Y913337D01*
X889363Y913686D01*
X905734D01*
X906972Y911540D01*
X908840Y909672D01*
X911128Y908352D01*
X913679Y907668D01*
X916321D01*
X918872Y908352D01*
X921160Y909672D01*
X923028Y911540D01*
X923730Y912757D01*
X925000Y912417D01*
Y902332D01*
X904968D01*
Y882268D01*
X925000D01*
Y800284D01*
X923730Y799943D01*
X923028Y801160D01*
X921160Y803028D01*
X918872Y804348D01*
X916321Y805032D01*
X913679D01*
X911128Y804348D01*
X908840Y803028D01*
X906972Y801160D01*
X905652Y798872D01*
X904968Y796321D01*
Y793679D01*
X905652Y791128D01*
X906972Y788840D01*
X908840Y786972D01*
X911128Y785652D01*
X913679Y784968D01*
X916321D01*
X918872Y785652D01*
X921160Y786972D01*
X923028Y788840D01*
X923730Y790057D01*
X925000Y789716D01*
Y779632D01*
X904968D01*
Y759568D01*
X925000D01*
Y599014D01*
X925000Y599014D01*
X894014D01*
Y715000D01*
X893709Y716536D01*
X892838Y717838D01*
X872838Y737838D01*
X871536Y738709D01*
X870000Y739014D01*
X850802D01*
X850627Y739318D01*
X849318Y740627D01*
X847714Y741553D01*
X845926Y742032D01*
X844074D01*
X842286Y741553D01*
X840682Y740627D01*
X839373Y739318D01*
X838447Y737714D01*
X837968Y735926D01*
Y734074D01*
X838447Y732286D01*
X839373Y730682D01*
X840682Y729373D01*
X842286Y728447D01*
X844074Y727968D01*
X845926D01*
X847714Y728447D01*
X849318Y729373D01*
X850627Y730682D01*
X850802Y730986D01*
X868337D01*
X885986Y713337D01*
Y597232D01*
X886291Y595696D01*
X887162Y594393D01*
X889393Y592162D01*
X890696Y591291D01*
X892232Y590986D01*
X923337D01*
X925000Y589323D01*
Y579014D01*
X861663D01*
X799290Y641387D01*
Y642460D01*
X792540D01*
Y635710D01*
X793613D01*
X857162Y572162D01*
X858464Y571291D01*
X860000Y570986D01*
X925000D01*
Y462336D01*
X923827Y461850D01*
X908214Y477462D01*
X906912Y478333D01*
X905376Y478638D01*
X892934D01*
X892610Y479847D01*
X890828Y482933D01*
X888309Y485452D01*
X885223Y487234D01*
X881781Y488156D01*
X878219D01*
X874777Y487234D01*
X871691Y485452D01*
X869172Y482933D01*
X867390Y479847D01*
X867066Y478638D01*
X826642D01*
X826536Y478709D01*
X825906Y478834D01*
X825627Y479318D01*
X824318Y480627D01*
X822714Y481553D01*
X820926Y482032D01*
X819074D01*
X817286Y481553D01*
X815682Y480627D01*
X814373Y479318D01*
X813447Y477714D01*
X812968Y475926D01*
Y474074D01*
X813447Y472286D01*
X814373Y470682D01*
X815682Y469373D01*
X817286Y468447D01*
X819074Y467968D01*
X820926D01*
X822714Y468447D01*
X824318Y469373D01*
X825555Y470610D01*
X867066D01*
X867390Y469401D01*
X869172Y466315D01*
X871691Y463796D01*
X874777Y462014D01*
X878219Y461092D01*
X881781D01*
X885223Y462014D01*
X888309Y463796D01*
X890828Y466315D01*
X892610Y469401D01*
X892934Y470610D01*
X903713D01*
X925000Y449323D01*
Y340677D01*
X892162Y307838D01*
X891291Y306536D01*
X890986Y305000D01*
Y255000D01*
X891291Y253464D01*
X892162Y252162D01*
X906834Y237489D01*
X906468Y236123D01*
Y233877D01*
X907049Y231707D01*
X908173Y229761D01*
X909761Y228173D01*
X911707Y227049D01*
X913877Y226468D01*
X916123D01*
X918293Y227049D01*
X920239Y228173D01*
X921827Y229761D01*
X922951Y231707D01*
X923532Y233877D01*
Y236123D01*
X922951Y238293D01*
X921827Y240239D01*
X920239Y241827D01*
X918293Y242950D01*
X916123Y243532D01*
X913877D01*
X912511Y243166D01*
X899014Y256663D01*
Y303337D01*
X923827Y328150D01*
X925000Y327664D01*
Y45000D01*
X838532D01*
Y53532D01*
X821468D01*
Y45000D01*
X818532D01*
Y46123D01*
X817951Y48293D01*
X816827Y50239D01*
X815239Y51827D01*
X813293Y52951D01*
X811123Y53532D01*
X808877D01*
X806707Y52951D01*
X804761Y51827D01*
X803173Y50239D01*
X802049Y48293D01*
X801468Y46123D01*
Y45000D01*
X798532D01*
Y46123D01*
X797951Y48293D01*
X796827Y50239D01*
X795239Y51827D01*
X793293Y52951D01*
X791123Y53532D01*
X788877D01*
X786707Y52951D01*
X784761Y51827D01*
X783173Y50239D01*
X782049Y48293D01*
X781468Y46123D01*
Y45000D01*
X708532D01*
Y53532D01*
X691468D01*
Y45000D01*
X688532D01*
Y46123D01*
X687951Y48293D01*
X686827Y50239D01*
X685239Y51827D01*
X683293Y52951D01*
X681123Y53532D01*
X678877D01*
X676707Y52951D01*
X674761Y51827D01*
X673173Y50239D01*
X672049Y48293D01*
X671468Y46123D01*
Y45000D01*
X668532D01*
Y46123D01*
X667951Y48293D01*
X666827Y50239D01*
X665239Y51827D01*
X663293Y52951D01*
X661123Y53532D01*
X658877D01*
X656707Y52951D01*
X654761Y51827D01*
X653173Y50239D01*
X652049Y48293D01*
X651468Y46123D01*
Y45000D01*
X578532D01*
Y53532D01*
X565868D01*
X565382Y54705D01*
X606663Y95986D01*
X900000D01*
X901536Y96291D01*
X902838Y97162D01*
X907145Y101468D01*
X918532D01*
Y118532D01*
X901468D01*
Y107145D01*
X898337Y104014D01*
X605000D01*
X603464Y103709D01*
X602162Y102838D01*
X552489Y53166D01*
X551123Y53532D01*
X548877D01*
X546707Y52951D01*
X544761Y51827D01*
X543173Y50239D01*
X542049Y48293D01*
X541468Y46123D01*
Y45000D01*
X538532D01*
Y46123D01*
X538166Y47489D01*
X615984Y125308D01*
X616688Y126361D01*
X618390Y126817D01*
X620392Y127973D01*
X622027Y129608D01*
X623184Y131610D01*
X623782Y133844D01*
Y136156D01*
X623184Y138390D01*
X622027Y140392D01*
X620392Y142027D01*
X618390Y143183D01*
X616156Y143782D01*
X613844D01*
X611610Y143183D01*
X609608Y142027D01*
X607973Y140392D01*
X606816Y138390D01*
X606218Y136156D01*
Y133844D01*
X606816Y131610D01*
X607973Y129608D01*
X608452Y129129D01*
X532489Y53166D01*
X531123Y53532D01*
X528877D01*
X526707Y52951D01*
X524761Y51827D01*
X523173Y50239D01*
X522049Y48293D01*
X521468Y46123D01*
Y45000D01*
X500592D01*
Y89915D01*
X536895Y126218D01*
X548782D01*
Y143782D01*
X531218D01*
Y131895D01*
X493740Y94417D01*
X492870Y93114D01*
X492564Y91578D01*
Y45000D01*
X440432D01*
Y55032D01*
X420368D01*
Y45000D01*
X415032D01*
Y46321D01*
X414348Y48872D01*
X413028Y51160D01*
X411160Y53028D01*
X408872Y54348D01*
X406321Y55032D01*
X403679D01*
X401128Y54348D01*
X398840Y53028D01*
X396972Y51160D01*
X395652Y48872D01*
X394968Y46321D01*
Y45000D01*
X305032D01*
Y46321D01*
X304348Y48872D01*
X303028Y51160D01*
X301160Y53028D01*
X298872Y54348D01*
X296321Y55032D01*
X293679D01*
X291128Y54348D01*
X288840Y53028D01*
X286972Y51160D01*
X285652Y48872D01*
X284968Y46321D01*
Y45000D01*
X279632D01*
Y55032D01*
X259568D01*
Y45000D01*
X25000D01*
Y950000D01*
X928341D01*
X928827Y948827D01*
D02*
G37*
%LPC*%
G36*
X552732Y945032D02*
X532668D01*
Y924968D01*
X552732D01*
Y945032D01*
D02*
G37*
G36*
X518621D02*
X515979D01*
X513428Y944348D01*
X511140Y943028D01*
X509272Y941160D01*
X507952Y938872D01*
X507268Y936321D01*
Y933679D01*
X507952Y931128D01*
X509272Y928840D01*
X511140Y926972D01*
X513428Y925652D01*
X515979Y924968D01*
X518621D01*
X521172Y925652D01*
X523460Y926972D01*
X525328Y928840D01*
X526648Y931128D01*
X527332Y933679D01*
Y936321D01*
X526648Y938872D01*
X525328Y941160D01*
X523460Y943028D01*
X521172Y944348D01*
X518621Y945032D01*
D02*
G37*
G36*
X406721D02*
X404079D01*
X401528Y944348D01*
X399240Y943028D01*
X397372Y941160D01*
X396052Y938872D01*
X395368Y936321D01*
Y933679D01*
X396052Y931128D01*
X397372Y928840D01*
X399240Y926972D01*
X401528Y925652D01*
X404079Y924968D01*
X406721D01*
X409272Y925652D01*
X411560Y926972D01*
X413428Y928840D01*
X414748Y931128D01*
X415432Y933679D01*
Y936321D01*
X414748Y938872D01*
X413428Y941160D01*
X411560Y943028D01*
X409272Y944348D01*
X406721Y945032D01*
D02*
G37*
G36*
X390032D02*
X369968D01*
Y924968D01*
X390032D01*
Y945032D01*
D02*
G37*
G36*
X746584Y948107D02*
X743416D01*
X740356Y947287D01*
X737612Y945703D01*
X735372Y943463D01*
X733788Y940719D01*
X732968Y937659D01*
Y934491D01*
X733788Y931431D01*
X735372Y928687D01*
X737612Y926447D01*
X740356Y924863D01*
X743416Y924043D01*
X746584D01*
X749644Y924863D01*
X752388Y926447D01*
X754628Y928687D01*
X756212Y931431D01*
X757032Y934491D01*
Y937659D01*
X756212Y940719D01*
X754628Y943463D01*
X752388Y945703D01*
X749644Y947287D01*
X746584Y948107D01*
D02*
G37*
G36*
X288557Y918032D02*
X286443D01*
X284400Y917485D01*
X282568Y916427D01*
X281073Y914932D01*
X280015Y913100D01*
X279468Y911057D01*
Y908943D01*
X280015Y906900D01*
X281073Y905068D01*
X282568Y903573D01*
X284400Y902515D01*
X286443Y901968D01*
X288557D01*
X290600Y902515D01*
X292432Y903573D01*
X293927Y905068D01*
X294985Y906900D01*
X295532Y908943D01*
Y911057D01*
X294985Y913100D01*
X293927Y914932D01*
X292432Y916427D01*
X290600Y917485D01*
X288557Y918032D01*
D02*
G37*
G36*
X690926Y877032D02*
X689074D01*
X687286Y876553D01*
X685682Y875627D01*
X684373Y874318D01*
X683447Y872714D01*
X682968Y870926D01*
Y869074D01*
X682922Y869014D01*
X610802D01*
X610627Y869318D01*
X609318Y870627D01*
X607714Y871553D01*
X605926Y872032D01*
X604074D01*
X602286Y871553D01*
X600682Y870627D01*
X599373Y869318D01*
X598447Y867714D01*
X597968Y865926D01*
Y864074D01*
X598447Y862286D01*
X599373Y860682D01*
X600682Y859373D01*
X602286Y858447D01*
X604074Y857968D01*
X605926D01*
X607714Y858447D01*
X609318Y859373D01*
X610627Y860682D01*
X610802Y860986D01*
X685000D01*
X686536Y861291D01*
X687838Y862162D01*
X688736Y863059D01*
X689074Y862968D01*
X690926D01*
X692714Y863447D01*
X694318Y864373D01*
X695627Y865682D01*
X696553Y867286D01*
X697032Y869074D01*
Y870926D01*
X696553Y872714D01*
X695627Y874318D01*
X694318Y875627D01*
X692714Y876553D01*
X690926Y877032D01*
D02*
G37*
G36*
X270532Y918032D02*
X254468D01*
Y907645D01*
X189337Y842514D01*
X97982D01*
Y848782D01*
X77418D01*
Y828218D01*
X97982D01*
Y834486D01*
X191000D01*
X192536Y834791D01*
X193838Y835662D01*
X260145Y901968D01*
X270532D01*
Y918032D01*
D02*
G37*
G36*
X296232Y858532D02*
X279168D01*
Y841468D01*
X296232D01*
Y858532D01*
D02*
G37*
G36*
X263423D02*
X261177D01*
X259007Y857951D01*
X257061Y856827D01*
X255473Y855239D01*
X254349Y853293D01*
X253768Y851123D01*
Y848877D01*
X254134Y847511D01*
X223737Y817114D01*
X97255D01*
X95928Y819413D01*
X94013Y821328D01*
X91669Y822681D01*
X89054Y823382D01*
X86346D01*
X83731Y822681D01*
X81387Y821328D01*
X79472Y819413D01*
X78119Y817069D01*
X77418Y814454D01*
Y811746D01*
X78119Y809131D01*
X79472Y806787D01*
X81387Y804872D01*
X83731Y803519D01*
X86346Y802818D01*
X89054D01*
X91669Y803519D01*
X94013Y804872D01*
X95928Y806787D01*
X97255Y809086D01*
X225400D01*
X226936Y809391D01*
X228238Y810262D01*
X259811Y841834D01*
X261177Y841468D01*
X263423D01*
X265593Y842049D01*
X267539Y843173D01*
X269127Y844761D01*
X270251Y846707D01*
X270832Y848877D01*
Y851123D01*
X270251Y853293D01*
X269127Y855239D01*
X267539Y856827D01*
X265593Y857951D01*
X263423Y858532D01*
D02*
G37*
G36*
X751584Y837032D02*
X748416D01*
X745356Y836212D01*
X742612Y834628D01*
X740372Y832388D01*
X738788Y829644D01*
X737968Y826584D01*
Y823416D01*
X738788Y820356D01*
X740372Y817612D01*
X742612Y815372D01*
X745356Y813788D01*
X748416Y812968D01*
X751584D01*
X754644Y813788D01*
X757388Y815372D01*
X759628Y817612D01*
X761212Y820356D01*
X762032Y823416D01*
Y826584D01*
X761212Y829644D01*
X759628Y832388D01*
X757388Y834628D01*
X754644Y836212D01*
X751584Y837032D01*
D02*
G37*
G36*
X721084Y948107D02*
X717916D01*
X714856Y947287D01*
X712112Y945703D01*
X709872Y943463D01*
X708288Y940719D01*
X707468Y937659D01*
Y934491D01*
X708288Y931431D01*
X709872Y928687D01*
X712112Y926447D01*
X714856Y924863D01*
X717916Y924043D01*
X717986D01*
Y835132D01*
X717112Y834628D01*
X714872Y832388D01*
X713288Y829644D01*
X712468Y826584D01*
Y823416D01*
X713288Y820356D01*
X713614Y819791D01*
X698315Y804492D01*
X697445Y803189D01*
X697139Y801653D01*
Y794466D01*
X691181Y788508D01*
X684494D01*
X682958Y788203D01*
X681656Y787333D01*
X676264Y781941D01*
X675926Y782032D01*
X674074D01*
X672286Y781553D01*
X670682Y780627D01*
X669373Y779318D01*
X668447Y777714D01*
X667968Y775926D01*
Y774074D01*
X668447Y772286D01*
X669373Y770682D01*
X670682Y769373D01*
X672286Y768447D01*
X674074Y767968D01*
X675926D01*
X677714Y768447D01*
X679318Y769373D01*
X680627Y770682D01*
X681553Y772286D01*
X682032Y774074D01*
Y775926D01*
X681941Y776264D01*
X686157Y780480D01*
X692844D01*
X694380Y780786D01*
X695682Y781656D01*
X703992Y789965D01*
X704862Y791267D01*
X705167Y792804D01*
Y799990D01*
X719291Y814114D01*
X719856Y813788D01*
X722916Y812968D01*
X726084D01*
X729144Y813788D01*
X731888Y815372D01*
X734128Y817612D01*
X735712Y820356D01*
X736532Y823416D01*
Y826584D01*
X735712Y829644D01*
X734128Y832388D01*
X731888Y834628D01*
X729144Y836212D01*
X726084Y837032D01*
X726014D01*
Y925943D01*
X726888Y926447D01*
X729128Y928687D01*
X730712Y931431D01*
X731532Y934491D01*
Y937659D01*
X730712Y940719D01*
X729128Y943463D01*
X726888Y945703D01*
X724144Y947287D01*
X721084Y948107D01*
D02*
G37*
G36*
X388782Y828782D02*
X371218D01*
Y811218D01*
X388782D01*
Y828782D01*
D02*
G37*
G36*
X584355Y825732D02*
X581845D01*
X579421Y825082D01*
X577247Y823828D01*
X575472Y822053D01*
X574218Y819879D01*
X573568Y817455D01*
Y814945D01*
X574218Y812521D01*
X575472Y810347D01*
X577247Y808572D01*
X579421Y807318D01*
X581845Y806668D01*
X584355D01*
X586779Y807318D01*
X588953Y808572D01*
X590728Y810347D01*
X591982Y812521D01*
X592632Y814945D01*
Y817455D01*
X591982Y819879D01*
X590728Y822053D01*
X588953Y823828D01*
X586779Y825082D01*
X584355Y825732D01*
D02*
G37*
G36*
X516432D02*
X497368D01*
Y806668D01*
X516432D01*
Y825732D01*
D02*
G37*
G36*
X584355Y800332D02*
X581845D01*
X579421Y799682D01*
X577247Y798428D01*
X575472Y796653D01*
X574218Y794479D01*
X573568Y792055D01*
Y789545D01*
X574218Y787121D01*
X575472Y784947D01*
X577247Y783173D01*
X579421Y781918D01*
X581845Y781268D01*
X584355D01*
X586779Y781918D01*
X588953Y783173D01*
X590728Y784947D01*
X591982Y787121D01*
X592632Y789545D01*
Y792055D01*
X591982Y794479D01*
X590728Y796653D01*
X588953Y798428D01*
X586779Y799682D01*
X584355Y800332D01*
D02*
G37*
G36*
X296232Y788532D02*
X279168D01*
Y771468D01*
X296232D01*
Y788532D01*
D02*
G37*
G36*
X89054Y797982D02*
X86346D01*
X83731Y797281D01*
X81387Y795928D01*
X79472Y794013D01*
X78119Y791669D01*
X77418Y789054D01*
Y786346D01*
X78119Y783731D01*
X79472Y781387D01*
X81387Y779472D01*
X83731Y778119D01*
X86346Y777418D01*
X89054D01*
X91669Y778119D01*
X94013Y779472D01*
X95928Y781387D01*
X97255Y783686D01*
X251063D01*
X253768Y780981D01*
Y778877D01*
X254349Y776707D01*
X255473Y774761D01*
X257061Y773173D01*
X259007Y772049D01*
X261177Y771468D01*
X263423D01*
X265593Y772049D01*
X267539Y773173D01*
X269127Y774761D01*
X270251Y776707D01*
X270832Y778877D01*
Y781123D01*
X270251Y783293D01*
X269127Y785239D01*
X267539Y786827D01*
X265593Y787951D01*
X263423Y788532D01*
X261177D01*
X259007Y787951D01*
X258465Y787638D01*
X255564Y790538D01*
X254261Y791409D01*
X252725Y791714D01*
X97255D01*
X95928Y794013D01*
X94013Y795928D01*
X91669Y797281D01*
X89054Y797982D01*
D02*
G37*
G36*
X320000Y944014D02*
X47232D01*
X45696Y943709D01*
X44393Y942838D01*
X42162Y940607D01*
X41291Y939304D01*
X40986Y937768D01*
Y805000D01*
X41291Y803464D01*
X42162Y802162D01*
X52705Y791618D01*
X52018Y789054D01*
Y786346D01*
X52719Y783731D01*
X54072Y781387D01*
X55987Y779472D01*
X58286Y778145D01*
Y771855D01*
X55987Y770528D01*
X54072Y768613D01*
X52719Y766269D01*
X52018Y763654D01*
Y760946D01*
X52719Y758331D01*
X54072Y755987D01*
X55987Y754072D01*
X58286Y752745D01*
Y746455D01*
X55987Y745128D01*
X54072Y743213D01*
X52719Y740869D01*
X52018Y738254D01*
Y735546D01*
X52719Y732931D01*
X54072Y730587D01*
X55987Y728672D01*
X58286Y727345D01*
Y721055D01*
X55987Y719728D01*
X54072Y717813D01*
X52719Y715469D01*
X52018Y712854D01*
Y710146D01*
X52719Y707531D01*
X54072Y705187D01*
X55987Y703272D01*
X58331Y701919D01*
X60946Y701218D01*
X63654D01*
X66269Y701919D01*
X68613Y703272D01*
X70528Y705187D01*
X71881Y707531D01*
X72582Y710146D01*
Y712854D01*
X71881Y715469D01*
X70528Y717813D01*
X68613Y719728D01*
X66314Y721055D01*
Y727345D01*
X68613Y728672D01*
X70528Y730587D01*
X71881Y732931D01*
X72582Y735546D01*
Y738254D01*
X71881Y740869D01*
X70528Y743213D01*
X68613Y745128D01*
X66314Y746455D01*
Y752745D01*
X68613Y754072D01*
X70528Y755987D01*
X71881Y758331D01*
X72582Y760946D01*
Y763654D01*
X71881Y766269D01*
X70528Y768613D01*
X68613Y770528D01*
X66314Y771855D01*
Y778145D01*
X68613Y779472D01*
X70528Y781387D01*
X71881Y783731D01*
X72582Y786346D01*
Y789054D01*
X71881Y791669D01*
X70528Y794013D01*
X68613Y795928D01*
X66314Y797255D01*
Y803545D01*
X68613Y804872D01*
X70528Y806787D01*
X71881Y809131D01*
X72582Y811746D01*
Y814454D01*
X71881Y817069D01*
X70528Y819413D01*
X68613Y821328D01*
X66314Y822655D01*
Y828945D01*
X68613Y830272D01*
X70528Y832187D01*
X71881Y834531D01*
X72582Y837146D01*
Y839854D01*
X71881Y842469D01*
X70528Y844813D01*
X68613Y846728D01*
X66269Y848081D01*
X63654Y848782D01*
X60946D01*
X58331Y848081D01*
X55987Y846728D01*
X54072Y844813D01*
X52719Y842469D01*
X52018Y839854D01*
Y837146D01*
X52719Y834531D01*
X54072Y832187D01*
X55987Y830272D01*
X58286Y828945D01*
Y822655D01*
X55987Y821328D01*
X54072Y819413D01*
X52719Y817069D01*
X52018Y814454D01*
Y811746D01*
X52719Y809131D01*
X54072Y806787D01*
X55987Y804872D01*
X58286Y803545D01*
Y799050D01*
X57112Y798564D01*
X49014Y806663D01*
Y935986D01*
X318337D01*
X466362Y787962D01*
X467664Y787091D01*
X469200Y786786D01*
X498211D01*
X499272Y784947D01*
X501047Y783173D01*
X503221Y781918D01*
X505645Y781268D01*
X508155D01*
X510206Y781817D01*
X516762Y775262D01*
X518064Y774391D01*
X519600Y774086D01*
X552906D01*
X553081Y773782D01*
X554390Y772473D01*
X555994Y771547D01*
X557782Y771068D01*
X559634D01*
X561422Y771547D01*
X563026Y772473D01*
X564335Y773782D01*
X565261Y775386D01*
X565740Y777174D01*
Y779026D01*
X565261Y780814D01*
X564335Y782418D01*
X563026Y783727D01*
X561422Y784653D01*
X559634Y785132D01*
X557782D01*
X555994Y784653D01*
X554390Y783727D01*
X553081Y782418D01*
X552906Y782114D01*
X521263D01*
X515882Y787494D01*
X516432Y789545D01*
Y792055D01*
X515782Y794479D01*
X514528Y796653D01*
X512753Y798428D01*
X510579Y799682D01*
X508155Y800332D01*
X505645D01*
X503221Y799682D01*
X501047Y798428D01*
X499272Y796653D01*
X498211Y794814D01*
X470863D01*
X322838Y942838D01*
X321536Y943709D01*
X320000Y944014D01*
D02*
G37*
G36*
X584355Y774932D02*
X581845D01*
X579421Y774282D01*
X577247Y773027D01*
X575472Y771253D01*
X574218Y769079D01*
X573568Y766655D01*
Y764145D01*
X574218Y761721D01*
X575472Y759547D01*
X577247Y757773D01*
X579421Y756518D01*
X581845Y755868D01*
X584355D01*
X586779Y756518D01*
X588953Y757773D01*
X590728Y759547D01*
X591982Y761721D01*
X592632Y764145D01*
Y766655D01*
X591982Y769079D01*
X590728Y771253D01*
X588953Y773027D01*
X586779Y774282D01*
X584355Y774932D01*
D02*
G37*
G36*
X508155D02*
X505645D01*
X503221Y774282D01*
X501047Y773027D01*
X499272Y771253D01*
X498018Y769079D01*
X497368Y766655D01*
Y764145D01*
X498018Y761721D01*
X499272Y759547D01*
X501047Y757773D01*
X503221Y756518D01*
X505645Y755868D01*
X508155D01*
X510579Y756518D01*
X512753Y757773D01*
X514528Y759547D01*
X515782Y761721D01*
X516432Y764145D01*
Y766655D01*
X515782Y769079D01*
X514528Y771253D01*
X512753Y773027D01*
X510579Y774282D01*
X508155Y774932D01*
D02*
G37*
G36*
Y749532D02*
X505645D01*
X503221Y748882D01*
X501047Y747627D01*
X499272Y745853D01*
X498211Y744014D01*
X460000D01*
X458464Y743709D01*
X457162Y742838D01*
X367855Y653532D01*
X356468D01*
Y636468D01*
X373532D01*
Y647855D01*
X461663Y735986D01*
X498211D01*
X499272Y734147D01*
X501047Y732373D01*
X503221Y731118D01*
X505645Y730468D01*
X508155D01*
X510579Y731118D01*
X512753Y732373D01*
X514528Y734147D01*
X515782Y736321D01*
X516432Y738745D01*
Y741255D01*
X515782Y743679D01*
X514528Y745853D01*
X512753Y747627D01*
X510579Y748882D01*
X508155Y749532D01*
D02*
G37*
G36*
X735000Y749014D02*
X620000D01*
X618464Y748709D01*
X617162Y747838D01*
X612162Y742838D01*
X611291Y741536D01*
X610986Y740000D01*
Y650802D01*
X610682Y650627D01*
X609373Y649318D01*
X608447Y647714D01*
X607968Y645926D01*
Y644074D01*
X608447Y642286D01*
X609373Y640682D01*
X610682Y639373D01*
X612286Y638447D01*
X614074Y637968D01*
X615926D01*
X617714Y638447D01*
X619318Y639373D01*
X620627Y640682D01*
X621553Y642286D01*
X622032Y644074D01*
Y645926D01*
X621553Y647714D01*
X620627Y649318D01*
X619318Y650627D01*
X619014Y650802D01*
Y738337D01*
X621663Y740986D01*
X666849D01*
X667582Y739716D01*
X666816Y738390D01*
X666218Y736156D01*
Y733844D01*
X666816Y731610D01*
X667973Y729608D01*
X669608Y727973D01*
X671610Y726816D01*
X673844Y726218D01*
X676156D01*
X678390Y726816D01*
X680392Y727973D01*
X682027Y729608D01*
X682823Y730986D01*
X739198D01*
X739373Y730682D01*
X740682Y729373D01*
X742286Y728447D01*
X744074Y727968D01*
X745926D01*
X747714Y728447D01*
X749318Y729373D01*
X750627Y730682D01*
X751553Y732286D01*
X752032Y734074D01*
Y735926D01*
X751553Y737714D01*
X750627Y739318D01*
X749318Y740627D01*
X747714Y741553D01*
X745926Y742032D01*
X744074D01*
X743736Y741941D01*
X737838Y747838D01*
X736536Y748709D01*
X735000Y749014D01*
D02*
G37*
G36*
X791156Y743782D02*
X788844D01*
X786610Y743184D01*
X784608Y742027D01*
X782973Y740392D01*
X781816Y738390D01*
X781218Y736156D01*
Y733844D01*
X781816Y731610D01*
X782973Y729608D01*
X784608Y727973D01*
X786610Y726816D01*
X788844Y726218D01*
X791156D01*
X793390Y726816D01*
X795392Y727973D01*
X797027Y729608D01*
X798184Y731610D01*
X798782Y733844D01*
Y736156D01*
X798184Y738390D01*
X797027Y740392D01*
X795392Y742027D01*
X793390Y743184D01*
X791156Y743782D01*
D02*
G37*
G36*
X381156Y738782D02*
X378844D01*
X376610Y738184D01*
X374608Y737027D01*
X372973Y735392D01*
X371816Y733390D01*
X371218Y731156D01*
Y728844D01*
X371816Y726610D01*
X372973Y724608D01*
X374608Y722973D01*
X376610Y721816D01*
X378844Y721218D01*
X381156D01*
X383390Y721816D01*
X385392Y722973D01*
X387027Y724608D01*
X388184Y726610D01*
X388782Y728844D01*
Y731156D01*
X388184Y733390D01*
X387027Y735392D01*
X385392Y737027D01*
X383390Y738184D01*
X381156Y738782D01*
D02*
G37*
G36*
X296232Y703532D02*
X279168D01*
Y686468D01*
X296232D01*
Y703532D01*
D02*
G37*
G36*
X89054Y772582D02*
X86346D01*
X83731Y771881D01*
X81387Y770528D01*
X79472Y768613D01*
X78119Y766269D01*
X77418Y763654D01*
Y760946D01*
X78119Y758331D01*
X79472Y755987D01*
X81387Y754072D01*
X83731Y752719D01*
X86346Y752018D01*
X89054D01*
X91669Y752719D01*
X94013Y754072D01*
X95928Y755987D01*
X97255Y758286D01*
X193337D01*
X254134Y697489D01*
X253768Y696123D01*
Y693877D01*
X254349Y691707D01*
X255473Y689761D01*
X257061Y688173D01*
X259007Y687049D01*
X261177Y686468D01*
X263423D01*
X265593Y687049D01*
X267539Y688173D01*
X269127Y689761D01*
X270251Y691707D01*
X270832Y693877D01*
Y696123D01*
X270251Y698293D01*
X269127Y700239D01*
X267539Y701827D01*
X265593Y702951D01*
X263423Y703532D01*
X261177D01*
X259811Y703166D01*
X197838Y765138D01*
X196536Y766009D01*
X195000Y766314D01*
X97255D01*
X95928Y768613D01*
X94013Y770528D01*
X91669Y771881D01*
X89054Y772582D01*
D02*
G37*
G36*
X782532Y948107D02*
X758468D01*
Y924043D01*
X766486D01*
Y837032D01*
X763468D01*
Y818645D01*
X757162Y812338D01*
X756291Y811036D01*
X755986Y809500D01*
Y723895D01*
X736105Y704014D01*
X647169D01*
X645633Y703709D01*
X644330Y702838D01*
X642099Y700607D01*
X641228Y699304D01*
X640923Y697768D01*
Y588032D01*
X626968D01*
Y584014D01*
X624948D01*
X575677Y633285D01*
Y656083D01*
X576851Y656569D01*
X577247Y656172D01*
X579421Y654918D01*
X581845Y654268D01*
X584355D01*
X586779Y654918D01*
X588953Y656172D01*
X590728Y657947D01*
X591982Y660121D01*
X592632Y662545D01*
Y665055D01*
X591982Y667479D01*
X590728Y669653D01*
X588953Y671428D01*
X586779Y672682D01*
X584355Y673332D01*
X581845D01*
X579421Y672682D01*
X577247Y671428D01*
X576851Y671031D01*
X575677Y671517D01*
Y681483D01*
X576851Y681969D01*
X577247Y681572D01*
X579421Y680318D01*
X581845Y679668D01*
X584355D01*
X586779Y680318D01*
X588953Y681572D01*
X590728Y683347D01*
X591982Y685521D01*
X592632Y687945D01*
Y690455D01*
X591982Y692879D01*
X590728Y695053D01*
X588953Y696827D01*
X588521Y697077D01*
X588583Y698507D01*
X589413Y699062D01*
X597375Y707024D01*
X598246Y708326D01*
X598551Y709863D01*
Y719337D01*
X598246Y720873D01*
X597375Y722176D01*
X590676Y728875D01*
X589374Y729746D01*
X587837Y730051D01*
X587472D01*
X587132Y731321D01*
X588953Y732373D01*
X590728Y734147D01*
X591982Y736321D01*
X592632Y738745D01*
Y741255D01*
X591982Y743679D01*
X590728Y745853D01*
X588953Y747627D01*
X586779Y748882D01*
X584355Y749532D01*
X581845D01*
X579421Y748882D01*
X577247Y747627D01*
X575472Y745853D01*
X574218Y743679D01*
X573568Y741255D01*
Y738745D01*
X574218Y736321D01*
X575472Y734147D01*
X577247Y732373D01*
X579068Y731321D01*
X578728Y730051D01*
X577775D01*
X576239Y729746D01*
X574937Y728875D01*
X531320Y685258D01*
X530449Y683956D01*
X530144Y682420D01*
Y483521D01*
X521406Y474782D01*
X519355Y475332D01*
X516845D01*
X514421Y474682D01*
X512247Y473428D01*
X510472Y471653D01*
X509218Y469479D01*
X508568Y467055D01*
Y464545D01*
X509218Y462121D01*
X510472Y459947D01*
X512247Y458172D01*
X514421Y456918D01*
X516845Y456268D01*
X519355D01*
X521779Y456918D01*
X523953Y458172D01*
X525728Y459947D01*
X526982Y462121D01*
X527632Y464545D01*
Y467055D01*
X527082Y469106D01*
X534813Y476836D01*
X535986Y476350D01*
Y232823D01*
X534608Y232027D01*
X532973Y230392D01*
X531816Y228390D01*
X531218Y226156D01*
Y223844D01*
X531816Y221610D01*
X532973Y219608D01*
X534608Y217973D01*
X536610Y216817D01*
X538844Y216218D01*
X541156D01*
X543390Y216817D01*
X545392Y217973D01*
X547027Y219608D01*
X548184Y221610D01*
X548782Y223844D01*
Y226156D01*
X548184Y228390D01*
X547027Y230392D01*
X545392Y232027D01*
X544014Y232823D01*
Y678337D01*
X574546Y708869D01*
X575472Y708747D01*
X577247Y706973D01*
X577679Y706723D01*
X577617Y705293D01*
X576787Y704738D01*
X568825Y696776D01*
X567954Y695473D01*
X567649Y693937D01*
Y631622D01*
X567954Y630086D01*
X568825Y628784D01*
X620447Y577162D01*
X621749Y576291D01*
X623285Y575986D01*
X626968D01*
Y571968D01*
X637200D01*
X637686Y570795D01*
X592162Y525271D01*
X591291Y523968D01*
X590986Y522432D01*
Y320802D01*
X590682Y320627D01*
X589373Y319318D01*
X588447Y317714D01*
X587968Y315926D01*
Y314074D01*
X588447Y312286D01*
X589373Y310682D01*
X590682Y309373D01*
X592286Y308447D01*
X594074Y307968D01*
X595926D01*
X597714Y308447D01*
X599318Y309373D01*
X600627Y310682D01*
X601553Y312286D01*
X602032Y314074D01*
Y315926D01*
X601553Y317714D01*
X600627Y319318D01*
X599318Y320627D01*
X599014Y320802D01*
Y520770D01*
X647775Y569531D01*
X648646Y570833D01*
X648951Y572369D01*
Y695986D01*
X737768D01*
X739304Y696291D01*
X740607Y697162D01*
X762838Y719393D01*
X763709Y720696D01*
X764014Y722232D01*
Y807837D01*
X769145Y812968D01*
X787532D01*
Y837032D01*
X774514D01*
Y924043D01*
X782532D01*
Y948107D01*
D02*
G37*
G36*
X799290Y654290D02*
X792540D01*
Y647540D01*
X799290D01*
Y654290D01*
D02*
G37*
G36*
X911321Y657732D02*
X908679D01*
X906128Y657048D01*
X903840Y655728D01*
X901972Y653860D01*
X900652Y651572D01*
X899968Y649021D01*
Y646379D01*
X900652Y643828D01*
X901972Y641540D01*
X903840Y639672D01*
X906128Y638352D01*
X908679Y637668D01*
X911321D01*
X913872Y638352D01*
X916160Y639672D01*
X918028Y641540D01*
X919348Y643828D01*
X920032Y646379D01*
Y649021D01*
X919348Y651572D01*
X918028Y653860D01*
X916160Y655728D01*
X913872Y657048D01*
X911321Y657732D01*
D02*
G37*
G36*
X366123Y633532D02*
X363877D01*
X361707Y632951D01*
X359761Y631827D01*
X358173Y630239D01*
X357049Y628293D01*
X356468Y626123D01*
Y623877D01*
X357049Y621707D01*
X358173Y619761D01*
X359761Y618173D01*
X361707Y617049D01*
X363877Y616468D01*
X366123D01*
X368293Y617049D01*
X370239Y618173D01*
X371827Y619761D01*
X372951Y621707D01*
X373532Y623877D01*
Y626123D01*
X372951Y628293D01*
X371827Y630239D01*
X370239Y631827D01*
X368293Y632951D01*
X366123Y633532D01*
D02*
G37*
G36*
X920032Y632332D02*
X899968D01*
Y612268D01*
X920032D01*
Y632332D01*
D02*
G37*
G36*
X288557Y623032D02*
X286443D01*
X284400Y622485D01*
X282568Y621427D01*
X281073Y619932D01*
X280015Y618100D01*
X279468Y616057D01*
Y613943D01*
X280015Y611900D01*
X281073Y610068D01*
X282568Y608573D01*
X284400Y607515D01*
X286443Y606968D01*
X288557D01*
X290600Y607515D01*
X292432Y608573D01*
X293927Y610068D01*
X294985Y611900D01*
X295532Y613943D01*
Y616057D01*
X294985Y618100D01*
X293927Y619932D01*
X292432Y621427D01*
X290600Y622485D01*
X288557Y623032D01*
D02*
G37*
G36*
X89054Y747182D02*
X86346D01*
X83731Y746481D01*
X81387Y745128D01*
X79472Y743213D01*
X78119Y740869D01*
X77418Y738254D01*
Y735546D01*
X78119Y732931D01*
X79472Y730587D01*
X81387Y728672D01*
X83731Y727319D01*
X86346Y726618D01*
X89054D01*
X91669Y727319D01*
X94013Y728672D01*
X95928Y730587D01*
X97255Y732886D01*
X138937D01*
X254468Y617355D01*
Y606968D01*
X270532D01*
Y623032D01*
X260145D01*
X143438Y739738D01*
X142136Y740609D01*
X140600Y740914D01*
X97255D01*
X95928Y743213D01*
X94013Y745128D01*
X91669Y746481D01*
X89054Y747182D01*
D02*
G37*
G36*
X508155Y724132D02*
X505645D01*
X503221Y723482D01*
X501047Y722227D01*
X499272Y720453D01*
X498018Y718279D01*
X497368Y715855D01*
Y713345D01*
X498018Y710921D01*
X499272Y708747D01*
X501047Y706973D01*
X502868Y705921D01*
X502528Y704651D01*
X502163D01*
X500626Y704346D01*
X499324Y703475D01*
X457162Y661313D01*
X456291Y660011D01*
X455986Y658474D01*
Y227077D01*
X456291Y225541D01*
X457162Y224238D01*
X457253Y224147D01*
X456816Y223390D01*
X456218Y221156D01*
Y218844D01*
X456816Y216610D01*
X457973Y214608D01*
X459608Y212973D01*
X461610Y211817D01*
X463844Y211218D01*
X466156D01*
X468390Y211817D01*
X470392Y212973D01*
X472027Y214608D01*
X473184Y216610D01*
X473782Y218844D01*
Y221156D01*
X473184Y223390D01*
X472027Y225392D01*
X470392Y227027D01*
X468390Y228183D01*
X466156Y228782D01*
X464014D01*
Y656812D01*
X496195Y688992D01*
X497368Y688506D01*
Y687945D01*
X497918Y685894D01*
X492625Y680601D01*
X491754Y679299D01*
X491449Y677763D01*
Y405752D01*
X491754Y404216D01*
X492625Y402914D01*
X495986Y399552D01*
Y134014D01*
X473782D01*
Y138782D01*
X456218D01*
Y121218D01*
X473782D01*
Y125986D01*
X497768D01*
X499304Y126291D01*
X500607Y127162D01*
X502838Y129393D01*
X503709Y130696D01*
X504014Y132232D01*
Y401215D01*
X503709Y402751D01*
X502838Y404053D01*
X499477Y407415D01*
Y656083D01*
X500650Y656569D01*
X501047Y656172D01*
X502886Y655111D01*
Y568100D01*
X503191Y566564D01*
X504062Y565262D01*
X508059Y561264D01*
X507968Y560926D01*
Y559074D01*
X508447Y557286D01*
X509373Y555682D01*
X510682Y554373D01*
X512286Y553447D01*
X514074Y552968D01*
X515926D01*
X517714Y553447D01*
X519318Y554373D01*
X520627Y555682D01*
X521553Y557286D01*
X522032Y559074D01*
Y560926D01*
X521553Y562714D01*
X520627Y564318D01*
X519318Y565627D01*
X517714Y566553D01*
X515926Y567032D01*
X514074D01*
X513736Y566941D01*
X510914Y569763D01*
Y655111D01*
X512753Y656172D01*
X514528Y657947D01*
X515782Y660121D01*
X516432Y662545D01*
Y665055D01*
X515882Y667106D01*
X521175Y672399D01*
X522046Y673701D01*
X522351Y675237D01*
Y693937D01*
X522046Y695473D01*
X521175Y696776D01*
X514476Y703475D01*
X513173Y704346D01*
X511637Y704651D01*
X511272D01*
X510932Y705921D01*
X512753Y706973D01*
X514528Y708747D01*
X515782Y710921D01*
X516432Y713345D01*
Y715855D01*
X515782Y718279D01*
X514528Y720453D01*
X512753Y722227D01*
X510579Y723482D01*
X508155Y724132D01*
D02*
G37*
G36*
X293532Y548532D02*
X276468D01*
Y531468D01*
X293532D01*
Y548532D01*
D02*
G37*
G36*
X89054Y721782D02*
X86346D01*
X83731Y721081D01*
X81387Y719728D01*
X79472Y717813D01*
X78119Y715469D01*
X77418Y712854D01*
Y710146D01*
X78119Y707531D01*
X79472Y705187D01*
X81387Y703272D01*
X83731Y701919D01*
X86346Y701218D01*
X89054D01*
X91669Y701919D01*
X94013Y703272D01*
X95032Y704291D01*
X256834Y542489D01*
X256468Y541123D01*
Y538877D01*
X257050Y536707D01*
X258173Y534761D01*
X259761Y533173D01*
X261707Y532049D01*
X263877Y531468D01*
X266123D01*
X268293Y532049D01*
X270239Y533173D01*
X271827Y534761D01*
X272951Y536707D01*
X273532Y538877D01*
Y541123D01*
X272951Y543293D01*
X271827Y545239D01*
X270239Y546827D01*
X268293Y547951D01*
X266123Y548532D01*
X263877D01*
X262511Y548166D01*
X98767Y711910D01*
X97982Y712434D01*
Y712854D01*
X97281Y715469D01*
X95928Y717813D01*
X94013Y719728D01*
X91669Y721081D01*
X89054Y721782D01*
D02*
G37*
G36*
X136782Y557968D02*
X133218D01*
X129777Y557046D01*
X126691Y555264D01*
X124172Y552745D01*
X122390Y549659D01*
X121468Y546217D01*
Y542654D01*
X122390Y539213D01*
X124172Y536127D01*
X126691Y533608D01*
X129777Y531826D01*
X133218Y530904D01*
X136782D01*
X140223Y531826D01*
X143309Y533608D01*
X145828Y536127D01*
X147610Y539213D01*
X148532Y542654D01*
Y546217D01*
X147610Y549659D01*
X145828Y552745D01*
X143309Y555264D01*
X140223Y557046D01*
X136782Y557968D01*
D02*
G37*
G36*
X636057Y538032D02*
X633943D01*
X631900Y537485D01*
X630068Y536427D01*
X628573Y534932D01*
X627515Y533100D01*
X626968Y531057D01*
Y528943D01*
X627515Y526900D01*
X628573Y525068D01*
X630068Y523573D01*
X631900Y522515D01*
X633943Y521968D01*
X636057D01*
X638100Y522515D01*
X639932Y523573D01*
X641427Y525068D01*
X642485Y526900D01*
X643032Y528943D01*
Y531057D01*
X642485Y533100D01*
X641427Y534932D01*
X639932Y536427D01*
X638100Y537485D01*
X636057Y538032D01*
D02*
G37*
G36*
X735926Y632032D02*
X734074D01*
X732286Y631553D01*
X730682Y630627D01*
X729373Y629318D01*
X728447Y627714D01*
X727968Y625926D01*
Y624074D01*
X728447Y622286D01*
X729373Y620682D01*
X730682Y619373D01*
X730986Y619198D01*
Y276663D01*
X717162Y262838D01*
X716291Y261536D01*
X715986Y260000D01*
Y136663D01*
X713337Y134014D01*
X693782D01*
Y138782D01*
X676218D01*
Y127050D01*
X675045Y126564D01*
X658172Y143437D01*
Y459492D01*
X659345Y459978D01*
X705986Y413337D01*
Y325802D01*
X705682Y325627D01*
X704373Y324318D01*
X703447Y322714D01*
X702968Y320926D01*
Y319074D01*
X703447Y317286D01*
X704373Y315682D01*
X705682Y314373D01*
X707286Y313447D01*
X709074Y312968D01*
X710926D01*
X712714Y313447D01*
X714318Y314373D01*
X715627Y315682D01*
X716553Y317286D01*
X717032Y319074D01*
Y320926D01*
X716553Y322714D01*
X715627Y324318D01*
X714318Y325627D01*
X714014Y325802D01*
Y415000D01*
X713709Y416536D01*
X712838Y417838D01*
X664014Y466663D01*
Y473337D01*
X698736Y508059D01*
X699074Y507968D01*
X700926D01*
X702714Y508447D01*
X704318Y509373D01*
X705627Y510682D01*
X706553Y512286D01*
X707032Y514074D01*
Y515926D01*
X706553Y517714D01*
X705627Y519318D01*
X704318Y520627D01*
X702714Y521553D01*
X700926Y522032D01*
X699074D01*
X697286Y521553D01*
X695682Y520627D01*
X694373Y519318D01*
X693447Y517714D01*
X692968Y515926D01*
Y514074D01*
X693059Y513736D01*
X665188Y485864D01*
X664014Y486350D01*
Y574198D01*
X664318Y574373D01*
X665627Y575682D01*
X666553Y577286D01*
X667032Y579074D01*
Y580926D01*
X666553Y582714D01*
X665627Y584318D01*
X664318Y585627D01*
X662714Y586553D01*
X660926Y587032D01*
X659074D01*
X657286Y586553D01*
X655682Y585627D01*
X654373Y584318D01*
X653447Y582714D01*
X652968Y580926D01*
Y579074D01*
X653447Y577286D01*
X654373Y575682D01*
X655682Y574373D01*
X655986Y574198D01*
Y484925D01*
X651320Y480258D01*
X650449Y478956D01*
X650144Y477420D01*
Y141774D01*
X650449Y140238D01*
X651320Y138936D01*
X673781Y116475D01*
X675083Y115604D01*
X676619Y115299D01*
X749313D01*
X750849Y115604D01*
X752151Y116475D01*
X756895Y121218D01*
X768782D01*
Y138782D01*
X751218D01*
Y126895D01*
X747650Y123327D01*
X693782D01*
Y125986D01*
X715000D01*
X716536Y126291D01*
X717838Y127162D01*
X722838Y132162D01*
X723709Y133464D01*
X724014Y135000D01*
Y258337D01*
X737838Y272162D01*
X738709Y273464D01*
X739014Y275000D01*
Y619198D01*
X739318Y619373D01*
X740627Y620682D01*
X741553Y622286D01*
X742032Y624074D01*
Y625926D01*
X741553Y627714D01*
X740627Y629318D01*
X739318Y630627D01*
X737714Y631553D01*
X735926Y632032D01*
D02*
G37*
G36*
X781123Y563532D02*
X778877D01*
X776707Y562951D01*
X774761Y561827D01*
X773173Y560239D01*
X772049Y558293D01*
X771468Y556123D01*
Y553877D01*
X772049Y551707D01*
X773173Y549761D01*
X774761Y548173D01*
X776707Y547049D01*
X778877Y546468D01*
X781123D01*
X782489Y546834D01*
X817914Y511410D01*
X819216Y510539D01*
X820752Y510234D01*
X866468D01*
Y500716D01*
X893532D01*
Y527780D01*
X866468D01*
Y518262D01*
X822415D01*
X788166Y552511D01*
X788532Y553877D01*
Y556123D01*
X787951Y558293D01*
X786827Y560239D01*
X785239Y561827D01*
X783293Y562951D01*
X781123Y563532D01*
D02*
G37*
G36*
X519355Y500732D02*
X516845D01*
X514421Y500082D01*
X512247Y498828D01*
X510472Y497053D01*
X509218Y494879D01*
X508568Y492455D01*
Y489945D01*
X509218Y487521D01*
X510472Y485347D01*
X512247Y483573D01*
X514421Y482318D01*
X516845Y481668D01*
X519355D01*
X521779Y482318D01*
X523953Y483573D01*
X525728Y485347D01*
X526982Y487521D01*
X527632Y489945D01*
Y492455D01*
X526982Y494879D01*
X525728Y497053D01*
X523953Y498828D01*
X521779Y500082D01*
X519355Y500732D01*
D02*
G37*
G36*
X381123Y498532D02*
X378877D01*
X376707Y497951D01*
X374761Y496827D01*
X373173Y495239D01*
X372049Y493293D01*
X371468Y491123D01*
Y488877D01*
X372049Y486707D01*
X373173Y484761D01*
X374761Y483173D01*
X376707Y482049D01*
X378877Y481468D01*
X381123D01*
X383293Y482049D01*
X385239Y483173D01*
X386827Y484761D01*
X387951Y486707D01*
X388532Y488877D01*
Y491123D01*
X387951Y493293D01*
X386827Y495239D01*
X385239Y496827D01*
X383293Y497951D01*
X381123Y498532D01*
D02*
G37*
G36*
X388532Y478532D02*
X371468D01*
Y461468D01*
X388532D01*
Y478532D01*
D02*
G37*
G36*
X451432Y500732D02*
X432368D01*
Y487345D01*
X427625Y482601D01*
X426754Y481299D01*
X426449Y479763D01*
Y396769D01*
X426754Y395233D01*
X427625Y393930D01*
X429393Y392162D01*
X430696Y391291D01*
X431704Y391091D01*
X432368Y390427D01*
Y388345D01*
X433018Y385921D01*
X434272Y383747D01*
X436047Y381973D01*
X438221Y380718D01*
X440645Y380068D01*
X443155D01*
X445579Y380718D01*
X447753Y381973D01*
X449528Y383747D01*
X450782Y385921D01*
X451432Y388345D01*
Y390855D01*
X450782Y393279D01*
X449528Y395453D01*
X447753Y397228D01*
X445579Y398482D01*
X443155Y399132D01*
X440645D01*
X438221Y398482D01*
X436601Y397547D01*
X436310Y397838D01*
X435008Y398709D01*
X434477Y398814D01*
Y407283D01*
X435650Y407769D01*
X436047Y407373D01*
X438221Y406118D01*
X440645Y405468D01*
X443155D01*
X445579Y406118D01*
X447753Y407373D01*
X449528Y409147D01*
X450782Y411321D01*
X451432Y413745D01*
Y416255D01*
X450782Y418679D01*
X449528Y420853D01*
X447753Y422627D01*
X445579Y423882D01*
X443155Y424532D01*
X440645D01*
X438221Y423882D01*
X436047Y422627D01*
X435650Y422231D01*
X434477Y422717D01*
Y432683D01*
X435650Y433169D01*
X436047Y432772D01*
X438221Y431518D01*
X440645Y430868D01*
X443155D01*
X445579Y431518D01*
X447753Y432772D01*
X449528Y434547D01*
X450782Y436721D01*
X451432Y439145D01*
Y441655D01*
X450782Y444079D01*
X449528Y446253D01*
X447753Y448027D01*
X445579Y449282D01*
X443155Y449932D01*
X440645D01*
X438221Y449282D01*
X436047Y448027D01*
X435650Y447631D01*
X434477Y448117D01*
Y458083D01*
X435650Y458569D01*
X436047Y458172D01*
X438221Y456918D01*
X440645Y456268D01*
X443155D01*
X445579Y456918D01*
X447753Y458172D01*
X449528Y459947D01*
X450782Y462121D01*
X451432Y464545D01*
Y467055D01*
X450782Y469479D01*
X449528Y471653D01*
X447753Y473428D01*
X445579Y474682D01*
X443155Y475332D01*
X440645D01*
X438221Y474682D01*
X436047Y473428D01*
X435650Y473031D01*
X434477Y473517D01*
Y478100D01*
X438045Y481668D01*
X451432D01*
Y500732D01*
D02*
G37*
G36*
X136782Y478720D02*
X133218D01*
X129777Y477798D01*
X126691Y476016D01*
X124172Y473497D01*
X122390Y470411D01*
X121468Y466969D01*
Y463406D01*
X122390Y459965D01*
X124172Y456879D01*
X126691Y454360D01*
X129777Y452578D01*
X133218Y451656D01*
X136782D01*
X140223Y452578D01*
X143309Y454360D01*
X145828Y456879D01*
X147610Y459965D01*
X148532Y463406D01*
Y466969D01*
X147610Y470411D01*
X145828Y473497D01*
X143309Y476016D01*
X140223Y477798D01*
X136782Y478720D01*
D02*
G37*
G36*
X720926Y607032D02*
X719074D01*
X717286Y606553D01*
X715682Y605627D01*
X714373Y604318D01*
X713447Y602714D01*
X712968Y600926D01*
Y599074D01*
X713447Y597286D01*
X714373Y595682D01*
X715682Y594373D01*
X715986Y594198D01*
Y486663D01*
X698105Y468782D01*
X686218D01*
Y451218D01*
X703782D01*
Y463105D01*
X722838Y482162D01*
X723709Y483464D01*
X724014Y485000D01*
Y594198D01*
X724318Y594373D01*
X725627Y595682D01*
X726553Y597286D01*
X727032Y599074D01*
Y600926D01*
X726553Y602714D01*
X725627Y604318D01*
X724318Y605627D01*
X722714Y606553D01*
X720926Y607032D01*
D02*
G37*
G36*
X519355Y449932D02*
X516845D01*
X514421Y449282D01*
X512247Y448027D01*
X510472Y446253D01*
X509218Y444079D01*
X508568Y441655D01*
Y439145D01*
X509218Y436721D01*
X510472Y434547D01*
X512247Y432772D01*
X514421Y431518D01*
X516845Y430868D01*
X519355D01*
X521779Y431518D01*
X523953Y432772D01*
X525728Y434547D01*
X526982Y436721D01*
X527632Y439145D01*
Y441655D01*
X526982Y444079D01*
X525728Y446253D01*
X523953Y448027D01*
X521779Y449282D01*
X519355Y449932D01*
D02*
G37*
G36*
X881781Y448532D02*
X878219D01*
X874777Y447610D01*
X871691Y445828D01*
X869172Y443309D01*
X867390Y440223D01*
X866468Y436782D01*
Y433218D01*
X867390Y429777D01*
X869172Y426691D01*
X871691Y424172D01*
X874777Y422390D01*
X878219Y421468D01*
X881781D01*
X885223Y422390D01*
X888309Y424172D01*
X890828Y426691D01*
X892610Y429777D01*
X893532Y433218D01*
Y436782D01*
X892610Y440223D01*
X890828Y443309D01*
X888309Y445828D01*
X885223Y447610D01*
X881781Y448532D01*
D02*
G37*
G36*
X148532Y439096D02*
X121468D01*
Y412032D01*
X148532D01*
Y439096D01*
D02*
G37*
G36*
X519355Y424532D02*
X516845D01*
X514421Y423882D01*
X512247Y422627D01*
X510472Y420853D01*
X509218Y418679D01*
X508568Y416255D01*
Y413745D01*
X509218Y411321D01*
X510472Y409147D01*
X512247Y407373D01*
X514421Y406118D01*
X516845Y405468D01*
X519355D01*
X521779Y406118D01*
X523953Y407373D01*
X525728Y409147D01*
X526982Y411321D01*
X527632Y413745D01*
Y416255D01*
X526982Y418679D01*
X525728Y420853D01*
X523953Y422627D01*
X521779Y423882D01*
X519355Y424532D01*
D02*
G37*
G36*
X633782Y418782D02*
X616218D01*
Y401218D01*
X633782D01*
Y418782D01*
D02*
G37*
G36*
X786156Y468782D02*
X783844D01*
X781610Y468184D01*
X779608Y467027D01*
X777973Y465392D01*
X776816Y463390D01*
X776218Y461156D01*
Y458844D01*
X776816Y456610D01*
X777973Y454608D01*
X779608Y452973D01*
X781610Y451816D01*
X783844Y451218D01*
X786156D01*
X787693Y451630D01*
X846786Y392538D01*
X848088Y391667D01*
X849624Y391362D01*
X867066D01*
X867390Y390153D01*
X869172Y387067D01*
X871691Y384548D01*
X874777Y382766D01*
X878219Y381844D01*
X881781D01*
X885223Y382766D01*
X888309Y384548D01*
X890828Y387067D01*
X892610Y390153D01*
X893532Y393595D01*
Y397158D01*
X892610Y400599D01*
X890828Y403685D01*
X888309Y406204D01*
X885223Y407986D01*
X881781Y408908D01*
X878219D01*
X874777Y407986D01*
X871691Y406204D01*
X869172Y403685D01*
X867390Y400599D01*
X867066Y399390D01*
X851287D01*
X793370Y457307D01*
X793782Y458844D01*
Y461156D01*
X793184Y463390D01*
X792027Y465392D01*
X790392Y467027D01*
X788390Y468184D01*
X786156Y468782D01*
D02*
G37*
G36*
X519355Y399132D02*
X516845D01*
X514421Y398482D01*
X512247Y397228D01*
X510472Y395453D01*
X509218Y393279D01*
X508568Y390855D01*
Y388345D01*
X509218Y385921D01*
X510472Y383747D01*
X512247Y381973D01*
X514421Y380718D01*
X516845Y380068D01*
X519355D01*
X521779Y380718D01*
X523953Y381973D01*
X525728Y383747D01*
X526982Y385921D01*
X527632Y388345D01*
Y390855D01*
X526982Y393279D01*
X525728Y395453D01*
X523953Y397228D01*
X521779Y398482D01*
X519355Y399132D01*
D02*
G37*
G36*
X275532Y443032D02*
X259468D01*
Y432645D01*
X220837Y394014D01*
X125000D01*
X123464Y393709D01*
X122162Y392838D01*
X92162Y362838D01*
X91291Y361536D01*
X90986Y360000D01*
Y300682D01*
X84718D01*
Y280118D01*
X102782D01*
X103268Y278945D01*
X98918Y274595D01*
X96354Y275282D01*
X93646D01*
X91031Y274581D01*
X88687Y273228D01*
X86772Y271313D01*
X85419Y268969D01*
X84718Y266354D01*
Y263646D01*
X85419Y261031D01*
X86772Y258687D01*
X88687Y256772D01*
X91031Y255419D01*
X93646Y254718D01*
X96354D01*
X98969Y255419D01*
X101313Y256772D01*
X103228Y258687D01*
X104581Y261031D01*
X105282Y263646D01*
Y266354D01*
X104595Y268918D01*
X211663Y375986D01*
X262466D01*
X263173Y374761D01*
X264761Y373173D01*
X266707Y372049D01*
X268877Y371468D01*
X271123D01*
X273293Y372049D01*
X275239Y373173D01*
X276827Y374761D01*
X277950Y376707D01*
X278532Y378877D01*
Y381123D01*
X277950Y383293D01*
X276827Y385239D01*
X275239Y386827D01*
X273293Y387951D01*
X271123Y388532D01*
X268877D01*
X266707Y387951D01*
X264761Y386827D01*
X263173Y385239D01*
X262466Y384014D01*
X210000D01*
X208464Y383709D01*
X207162Y382838D01*
X106455Y282132D01*
X105282Y282618D01*
Y300682D01*
X99014D01*
Y358337D01*
X126663Y385986D01*
X222500D01*
X224036Y386291D01*
X225338Y387162D01*
X265145Y426968D01*
X275532D01*
Y443032D01*
D02*
G37*
G36*
X420926Y587032D02*
X419074D01*
X417286Y586553D01*
X415682Y585627D01*
X414373Y584318D01*
X413447Y582714D01*
X412968Y580926D01*
Y579074D01*
X413447Y577286D01*
X414373Y575682D01*
X415682Y574373D01*
X415986Y574198D01*
Y386100D01*
X416291Y384564D01*
X417162Y383262D01*
X431036Y369388D01*
X430550Y368214D01*
X364695D01*
X364014Y368895D01*
Y440000D01*
X363709Y441536D01*
X362838Y442838D01*
X327838Y477838D01*
X326536Y478709D01*
X325000Y479014D01*
X166475D01*
X146984Y498505D01*
X147610Y499589D01*
X148532Y503031D01*
Y506594D01*
X147610Y510035D01*
X145828Y513121D01*
X143309Y515640D01*
X140223Y517422D01*
X136782Y518344D01*
X133218D01*
X129777Y517422D01*
X126691Y515640D01*
X124172Y513121D01*
X122390Y510035D01*
X121468Y506594D01*
Y503031D01*
X122390Y499589D01*
X124172Y496503D01*
X126691Y493984D01*
X129777Y492202D01*
X133218Y491280D01*
X136782D01*
X140223Y492202D01*
X141307Y492828D01*
X161974Y472162D01*
X163276Y471291D01*
X164812Y470986D01*
X323337D01*
X355986Y438337D01*
Y367232D01*
X356291Y365696D01*
X357162Y364393D01*
X360193Y361362D01*
X361496Y360491D01*
X363032Y360186D01*
X433211D01*
X434272Y358347D01*
X436047Y356572D01*
X438221Y355318D01*
X440645Y354668D01*
X443155D01*
X445579Y355318D01*
X447753Y356572D01*
X449528Y358347D01*
X450782Y360521D01*
X451432Y362945D01*
Y365455D01*
X450782Y367879D01*
X449528Y370053D01*
X447753Y371828D01*
X445579Y373082D01*
X443155Y373732D01*
X440645D01*
X438594Y373182D01*
X424014Y387763D01*
Y574198D01*
X424318Y574373D01*
X425627Y575682D01*
X426553Y577286D01*
X427032Y579074D01*
Y580926D01*
X426553Y582714D01*
X425627Y584318D01*
X424318Y585627D01*
X422714Y586553D01*
X420926Y587032D01*
D02*
G37*
G36*
X560926Y617032D02*
X559074D01*
X557286Y616553D01*
X555682Y615627D01*
X554373Y614318D01*
X553447Y612714D01*
X552968Y610926D01*
Y609074D01*
X553447Y607286D01*
X554373Y605682D01*
X555682Y604373D01*
X555986Y604198D01*
Y370802D01*
X555682Y370627D01*
X554373Y369318D01*
X553447Y367714D01*
X552968Y365926D01*
Y364074D01*
X553447Y362286D01*
X554373Y360682D01*
X555682Y359373D01*
X557286Y358447D01*
X559074Y357968D01*
X560926D01*
X562714Y358447D01*
X564318Y359373D01*
X565627Y360682D01*
X566553Y362286D01*
X567032Y364074D01*
Y365926D01*
X566553Y367714D01*
X565627Y369318D01*
X564318Y370627D01*
X564014Y370802D01*
Y604198D01*
X564318Y604373D01*
X565627Y605682D01*
X566553Y607286D01*
X567032Y609074D01*
Y610926D01*
X566553Y612714D01*
X565627Y614318D01*
X564318Y615627D01*
X562714Y616553D01*
X560926Y617032D01*
D02*
G37*
G36*
X519355Y373732D02*
X516845D01*
X514421Y373082D01*
X512247Y371828D01*
X510472Y370053D01*
X509218Y367879D01*
X508568Y365455D01*
Y362945D01*
X509218Y360521D01*
X510472Y358347D01*
X512247Y356572D01*
X514421Y355318D01*
X516845Y354668D01*
X519355D01*
X521779Y355318D01*
X523953Y356572D01*
X525728Y358347D01*
X526982Y360521D01*
X527632Y362945D01*
Y365455D01*
X526982Y367879D01*
X525728Y370053D01*
X523953Y371828D01*
X521779Y373082D01*
X519355Y373732D01*
D02*
G37*
G36*
X520640Y348514D02*
Y341340D01*
X527814D01*
X527456Y342675D01*
X526134Y344965D01*
X524265Y346834D01*
X521975Y348156D01*
X520640Y348514D01*
D02*
G37*
G36*
X515560D02*
X514225Y348156D01*
X511935Y346834D01*
X510066Y344965D01*
X508744Y342675D01*
X508386Y341340D01*
X515560D01*
Y348514D01*
D02*
G37*
G36*
X443155Y348332D02*
X440645D01*
X438221Y347682D01*
X436047Y346427D01*
X434272Y344653D01*
X433018Y342479D01*
X432368Y340055D01*
Y337545D01*
X433018Y335121D01*
X434272Y332947D01*
X436047Y331172D01*
X438221Y329918D01*
X440645Y329268D01*
X443155D01*
X445579Y329918D01*
X447753Y331172D01*
X449528Y332947D01*
X450782Y335121D01*
X451432Y337545D01*
Y340055D01*
X450782Y342479D01*
X449528Y344653D01*
X447753Y346427D01*
X445579Y347682D01*
X443155Y348332D01*
D02*
G37*
G36*
X527814Y336260D02*
X520640D01*
Y329086D01*
X521975Y329444D01*
X524265Y330766D01*
X526134Y332635D01*
X527456Y334925D01*
X527814Y336260D01*
D02*
G37*
G36*
X515560D02*
X508386D01*
X508744Y334925D01*
X510066Y332635D01*
X511935Y330766D01*
X514225Y329444D01*
X515560Y329086D01*
Y336260D01*
D02*
G37*
G36*
X271123Y333532D02*
X268877D01*
X266707Y332951D01*
X264761Y331827D01*
X263173Y330239D01*
X262466Y329014D01*
X180000D01*
X178464Y328709D01*
X177162Y327838D01*
X162162Y312838D01*
X161356Y311633D01*
X98918Y249195D01*
X96354Y249882D01*
X93646D01*
X91031Y249181D01*
X88687Y247828D01*
X86772Y245913D01*
X85419Y243569D01*
X84718Y240954D01*
Y238246D01*
X85419Y235631D01*
X86772Y233287D01*
X88687Y231372D01*
X91031Y230019D01*
X93646Y229318D01*
X96354D01*
X98969Y230019D01*
X101313Y231372D01*
X103228Y233287D01*
X104581Y235631D01*
X105282Y238246D01*
Y240954D01*
X104595Y243518D01*
X167838Y306762D01*
X168644Y307967D01*
X181663Y320986D01*
X262466D01*
X263173Y319761D01*
X264761Y318173D01*
X266707Y317050D01*
X268877Y316468D01*
X271123D01*
X273293Y317050D01*
X275239Y318173D01*
X276827Y319761D01*
X277950Y321707D01*
X278532Y323877D01*
Y326123D01*
X277950Y328293D01*
X276827Y330239D01*
X275239Y331827D01*
X273293Y332951D01*
X271123Y333532D01*
D02*
G37*
G36*
X779156Y318782D02*
X776844D01*
X774610Y318183D01*
X772608Y317027D01*
X770973Y315392D01*
X769817Y313390D01*
X769218Y311156D01*
Y308844D01*
X769817Y306610D01*
X770973Y304608D01*
X772608Y302973D01*
X774610Y301817D01*
X776844Y301218D01*
X779156D01*
X781390Y301817D01*
X783392Y302973D01*
X785027Y304608D01*
X786183Y306610D01*
X786782Y308844D01*
Y311156D01*
X786183Y313390D01*
X785027Y315392D01*
X783392Y317027D01*
X781390Y318183D01*
X779156Y318782D01*
D02*
G37*
G36*
X72140Y300890D02*
Y292940D01*
X80090D01*
X79655Y294565D01*
X78234Y297025D01*
X76225Y299034D01*
X73765Y300455D01*
X72140Y300890D01*
D02*
G37*
G36*
X67060Y300890D02*
X65435Y300455D01*
X62975Y299034D01*
X60966Y297025D01*
X59545Y294565D01*
X59110Y292940D01*
X67060D01*
Y300890D01*
D02*
G37*
G36*
X80090Y287860D02*
X69600D01*
X59110D01*
X59545Y286235D01*
X60966Y283775D01*
X62975Y281766D01*
X65435Y280345D01*
X65586Y280305D01*
Y275095D01*
X65435Y275055D01*
X62975Y273634D01*
X60966Y271625D01*
X59545Y269165D01*
X59110Y267540D01*
X69600D01*
X80090D01*
X79655Y269165D01*
X78234Y271625D01*
X76225Y273634D01*
X73765Y275055D01*
X73614Y275095D01*
Y280305D01*
X73765Y280345D01*
X76225Y281766D01*
X78234Y283775D01*
X79655Y286235D01*
X80090Y287860D01*
D02*
G37*
G36*
X275723Y273532D02*
X273477D01*
X271307Y272951D01*
X269361Y271827D01*
X267773Y270239D01*
X267066Y269014D01*
X145000D01*
X143464Y268709D01*
X142162Y267838D01*
X137162Y262838D01*
X136291Y261536D01*
X136200Y261077D01*
X98918Y223795D01*
X96354Y224482D01*
X93646D01*
X91031Y223781D01*
X88687Y222428D01*
X86772Y220513D01*
X85419Y218169D01*
X84718Y215554D01*
Y212846D01*
X85419Y210231D01*
X86772Y207887D01*
X88687Y205972D01*
X91031Y204619D01*
X93646Y203918D01*
X96354D01*
X98969Y204619D01*
X101313Y205972D01*
X103228Y207887D01*
X104581Y210231D01*
X105282Y212846D01*
Y215554D01*
X104595Y218118D01*
X142838Y256362D01*
X143709Y257664D01*
X143800Y258123D01*
X146663Y260986D01*
X267066D01*
X267773Y259761D01*
X269361Y258173D01*
X271307Y257049D01*
X273477Y256468D01*
X275723D01*
X277893Y257049D01*
X279839Y258173D01*
X281427Y259761D01*
X282551Y261707D01*
X283132Y263877D01*
Y266123D01*
X282551Y268293D01*
X281427Y270239D01*
X279839Y271827D01*
X277893Y272951D01*
X275723Y273532D01*
D02*
G37*
G36*
X916123Y263532D02*
X913877D01*
X911707Y262951D01*
X909761Y261827D01*
X908173Y260239D01*
X907049Y258293D01*
X906468Y256123D01*
Y253877D01*
X907049Y251707D01*
X908173Y249761D01*
X909761Y248173D01*
X911707Y247049D01*
X913877Y246468D01*
X916123D01*
X918293Y247049D01*
X920239Y248173D01*
X921827Y249761D01*
X922951Y251707D01*
X923532Y253877D01*
Y256123D01*
X922951Y258293D01*
X921827Y260239D01*
X920239Y261827D01*
X918293Y262951D01*
X916123Y263532D01*
D02*
G37*
G36*
X80090Y262460D02*
X69600D01*
X59110D01*
X59545Y260835D01*
X60966Y258375D01*
X62975Y256366D01*
X65435Y254945D01*
X65586Y254905D01*
Y249695D01*
X65435Y249655D01*
X62975Y248234D01*
X60966Y246225D01*
X59545Y243765D01*
X59110Y242140D01*
X69600D01*
X80090D01*
X79655Y243765D01*
X78234Y246225D01*
X76225Y248234D01*
X73765Y249655D01*
X73614Y249695D01*
Y254905D01*
X73765Y254945D01*
X76225Y256366D01*
X78234Y258375D01*
X79655Y260835D01*
X80090Y262460D01*
D02*
G37*
G36*
Y237060D02*
X69600D01*
X59110D01*
X59545Y235435D01*
X60966Y232975D01*
X62975Y230966D01*
X65435Y229545D01*
X65586Y229505D01*
Y224295D01*
X65435Y224255D01*
X62975Y222834D01*
X60966Y220825D01*
X59545Y218365D01*
X59110Y216740D01*
X69600D01*
X80090D01*
X79655Y218365D01*
X78234Y220825D01*
X76225Y222834D01*
X73765Y224255D01*
X73614Y224295D01*
Y229505D01*
X73765Y229545D01*
X76225Y230966D01*
X78234Y232975D01*
X79655Y235435D01*
X80090Y237060D01*
D02*
G37*
G36*
X623782Y233782D02*
X606218D01*
Y216218D01*
X623782D01*
Y233782D01*
D02*
G37*
G36*
X686156Y228782D02*
X683844D01*
X681610Y228183D01*
X679608Y227027D01*
X677973Y225392D01*
X676816Y223390D01*
X676218Y221156D01*
Y218844D01*
X676816Y216610D01*
X677973Y214608D01*
X679608Y212973D01*
X681610Y211817D01*
X683844Y211218D01*
X686156D01*
X688390Y211817D01*
X690392Y212973D01*
X692027Y214608D01*
X693184Y216610D01*
X693782Y218844D01*
Y221156D01*
X693184Y223390D01*
X692027Y225392D01*
X690392Y227027D01*
X688390Y228183D01*
X686156Y228782D01*
D02*
G37*
G36*
X386156D02*
X383844D01*
X381610Y228183D01*
X379608Y227027D01*
X377973Y225392D01*
X376816Y223390D01*
X376218Y221156D01*
Y218844D01*
X376816Y216610D01*
X377973Y214608D01*
X379608Y212973D01*
X381610Y211817D01*
X383844Y211218D01*
X386156D01*
X388390Y211817D01*
X390392Y212973D01*
X392027Y214608D01*
X393184Y216610D01*
X393782Y218844D01*
Y221156D01*
X393184Y223390D01*
X392027Y225392D01*
X390392Y227027D01*
X388390Y228183D01*
X386156Y228782D01*
D02*
G37*
G36*
X768937Y217460D02*
X762540D01*
Y211063D01*
X763586Y211343D01*
X765704Y212566D01*
X767434Y214296D01*
X768657Y216414D01*
X768937Y217460D01*
D02*
G37*
G36*
X757460D02*
X751063D01*
X751343Y216414D01*
X752566Y214296D01*
X754296Y212566D01*
X756414Y211343D01*
X757460Y211063D01*
Y217460D01*
D02*
G37*
G36*
X923532Y223532D02*
X906468D01*
Y206468D01*
X923532D01*
Y223532D01*
D02*
G37*
G36*
X850782Y318782D02*
X833218D01*
Y301218D01*
X835986D01*
Y219823D01*
X834608Y219027D01*
X832973Y217392D01*
X831816Y215390D01*
X831218Y213156D01*
Y210844D01*
X831816Y208610D01*
X832973Y206608D01*
X834608Y204973D01*
X836610Y203817D01*
X838844Y203218D01*
X841156D01*
X843390Y203817D01*
X845392Y204973D01*
X847027Y206608D01*
X848184Y208610D01*
X848782Y210844D01*
Y213156D01*
X848184Y215390D01*
X847027Y217392D01*
X845392Y219027D01*
X844014Y219823D01*
Y301218D01*
X850782D01*
Y318782D01*
D02*
G37*
G36*
X285532Y203032D02*
X269468D01*
Y192814D01*
X104555D01*
X103228Y195113D01*
X101313Y197028D01*
X98969Y198381D01*
X96354Y199082D01*
X93646D01*
X91031Y198381D01*
X88687Y197028D01*
X86772Y195113D01*
X85419Y192769D01*
X84718Y190154D01*
Y187446D01*
X85419Y184831D01*
X86772Y182487D01*
X88687Y180572D01*
X91031Y179219D01*
X93646Y178518D01*
X96354D01*
X98969Y179219D01*
X101313Y180572D01*
X103228Y182487D01*
X104555Y184786D01*
X271300D01*
X272836Y185091D01*
X274138Y185962D01*
X275145Y186968D01*
X285532D01*
Y203032D01*
D02*
G37*
G36*
X80090Y211660D02*
X69600D01*
X59110D01*
X59545Y210035D01*
X60966Y207575D01*
X62975Y205566D01*
X65435Y204145D01*
X65586Y204105D01*
Y198895D01*
X65435Y198855D01*
X62975Y197434D01*
X60966Y195425D01*
X59545Y192965D01*
X59110Y191340D01*
X69600D01*
X80090D01*
X79655Y192965D01*
X78234Y195425D01*
X76225Y197434D01*
X73765Y198855D01*
X73614Y198895D01*
Y204105D01*
X73765Y204145D01*
X76225Y205566D01*
X78234Y207575D01*
X79655Y210035D01*
X80090Y211660D01*
D02*
G37*
G36*
Y186260D02*
X69600D01*
X59110D01*
X59545Y184635D01*
X60966Y182175D01*
X62975Y180166D01*
X65435Y178745D01*
X65586Y178705D01*
Y173495D01*
X65435Y173455D01*
X62975Y172034D01*
X60966Y170025D01*
X59545Y167565D01*
X59110Y165940D01*
X69600D01*
X80090D01*
X79655Y167565D01*
X78234Y170025D01*
X76225Y172034D01*
X73765Y173455D01*
X73614Y173495D01*
Y178705D01*
X73765Y178745D01*
X76225Y180166D01*
X78234Y182175D01*
X79655Y184635D01*
X80090Y186260D01*
D02*
G37*
G36*
Y160860D02*
X72140D01*
Y152910D01*
X73765Y153345D01*
X76225Y154766D01*
X78234Y156775D01*
X79655Y159235D01*
X80090Y160860D01*
D02*
G37*
G36*
X67060D02*
X59110D01*
X59545Y159235D01*
X60966Y156775D01*
X62975Y154766D01*
X65435Y153345D01*
X67060Y152910D01*
Y160860D01*
D02*
G37*
G36*
X848782Y156782D02*
X831218D01*
Y139218D01*
X848782D01*
Y156782D01*
D02*
G37*
G36*
X393782Y138782D02*
X376218D01*
Y121218D01*
X393782D01*
Y138782D01*
D02*
G37*
G36*
X293557Y443032D02*
X291443D01*
X289400Y442485D01*
X287568Y441427D01*
X286073Y439932D01*
X285015Y438100D01*
X284468Y436057D01*
Y433943D01*
X285015Y431900D01*
X286073Y430068D01*
X287568Y428573D01*
X288486Y428043D01*
Y388532D01*
X286868D01*
Y371468D01*
X291386D01*
Y333532D01*
X286868D01*
Y316468D01*
X291386D01*
Y294600D01*
X291691Y293064D01*
X292562Y291762D01*
X295986Y288337D01*
Y273532D01*
X291468D01*
Y256468D01*
X298486D01*
Y201957D01*
X297568Y201427D01*
X296073Y199932D01*
X295015Y198100D01*
X294468Y196057D01*
Y193943D01*
X295015Y191900D01*
X296073Y190068D01*
X297568Y188573D01*
X298486Y188043D01*
Y167500D01*
X298791Y165964D01*
X299662Y164662D01*
X300986Y163337D01*
Y128532D01*
X296468D01*
Y111468D01*
X313532D01*
Y128532D01*
X309014D01*
Y165000D01*
X308709Y166536D01*
X307838Y167838D01*
X306514Y169163D01*
Y188043D01*
X307432Y188573D01*
X308927Y190068D01*
X309985Y191900D01*
X310532Y193943D01*
Y196057D01*
X309985Y198100D01*
X308927Y199932D01*
X307432Y201427D01*
X306514Y201957D01*
Y256468D01*
X308532D01*
Y273532D01*
X304014D01*
Y290000D01*
X303709Y291536D01*
X302838Y292838D01*
X299414Y296263D01*
Y316468D01*
X303932D01*
Y333532D01*
X299414D01*
Y371468D01*
X303932D01*
Y388532D01*
X296514D01*
Y428043D01*
X297432Y428573D01*
X298927Y430068D01*
X299985Y431900D01*
X300532Y433943D01*
Y436057D01*
X299985Y438100D01*
X298927Y439932D01*
X297432Y441427D01*
X295600Y442485D01*
X293557Y443032D01*
D02*
G37*
G36*
X96354Y173682D02*
X93646D01*
X91031Y172981D01*
X88687Y171628D01*
X86772Y169713D01*
X85419Y167369D01*
X84718Y164754D01*
Y162046D01*
X85419Y159431D01*
X86772Y157087D01*
X88687Y155172D01*
X91031Y153819D01*
X93646Y153118D01*
X96354D01*
X98969Y153819D01*
X101313Y155172D01*
X103228Y157087D01*
X104555Y159386D01*
X239937D01*
X276834Y122489D01*
X276468Y121123D01*
Y118877D01*
X277050Y116707D01*
X278173Y114761D01*
X279761Y113173D01*
X281707Y112049D01*
X283877Y111468D01*
X286123D01*
X288293Y112049D01*
X290239Y113173D01*
X291827Y114761D01*
X292951Y116707D01*
X293532Y118877D01*
Y121123D01*
X292951Y123293D01*
X291827Y125239D01*
X290239Y126827D01*
X288293Y127950D01*
X286123Y128532D01*
X283877D01*
X282511Y128166D01*
X244438Y166238D01*
X243136Y167109D01*
X241600Y167414D01*
X104555D01*
X103228Y169713D01*
X101313Y171628D01*
X98969Y172981D01*
X96354Y173682D01*
D02*
G37*
G36*
X911123Y98532D02*
X908877D01*
X906707Y97951D01*
X904761Y96827D01*
X903173Y95239D01*
X902049Y93293D01*
X901468Y91123D01*
Y88877D01*
X902049Y86707D01*
X903173Y84761D01*
X904761Y83173D01*
X906707Y82049D01*
X908877Y81468D01*
X911123D01*
X913293Y82049D01*
X915239Y83173D01*
X916827Y84761D01*
X917951Y86707D01*
X918532Y88877D01*
Y91123D01*
X917951Y93293D01*
X916827Y95239D01*
X915239Y96827D01*
X913293Y97951D01*
X911123Y98532D01*
D02*
G37*
G36*
X626156Y328782D02*
X623844D01*
X621610Y328184D01*
X619608Y327027D01*
X617973Y325392D01*
X616816Y323390D01*
X616218Y321156D01*
Y318844D01*
X616816Y316610D01*
X617973Y314608D01*
X619608Y312973D01*
X620986Y312177D01*
Y306663D01*
X582162Y267838D01*
X581291Y266536D01*
X580986Y265000D01*
Y138412D01*
X516565Y73991D01*
X516226Y74081D01*
X514375D01*
X512586Y73602D01*
X510983Y72676D01*
X509674Y71367D01*
X508748Y69764D01*
X508269Y67975D01*
Y66124D01*
X508748Y64335D01*
X509674Y62732D01*
X510983Y61422D01*
X512586Y60497D01*
X514375Y60017D01*
X516226D01*
X518015Y60497D01*
X519618Y61422D01*
X520927Y62732D01*
X521853Y64335D01*
X522332Y66124D01*
Y67975D01*
X522242Y68314D01*
X587838Y133911D01*
X588709Y135213D01*
X589014Y136749D01*
Y263337D01*
X627838Y302162D01*
X628709Y303464D01*
X629014Y305000D01*
Y312177D01*
X630392Y312973D01*
X632027Y314608D01*
X633184Y316610D01*
X633782Y318844D01*
Y321156D01*
X633184Y323390D01*
X632027Y325392D01*
X630392Y327027D01*
X628390Y328184D01*
X626156Y328782D01*
D02*
G37*
G36*
X911123Y78532D02*
X908877D01*
X906707Y77951D01*
X904761Y76827D01*
X903173Y75239D01*
X902049Y73293D01*
X901468Y71123D01*
Y68877D01*
X902049Y66707D01*
X903173Y64761D01*
X904761Y63173D01*
X906707Y62049D01*
X908877Y61468D01*
X911123D01*
X913293Y62049D01*
X915239Y63173D01*
X916827Y64761D01*
X917951Y66707D01*
X918532Y68877D01*
Y71123D01*
X917951Y73293D01*
X916827Y75239D01*
X915239Y76827D01*
X913293Y77951D01*
X911123Y78532D01*
D02*
G37*
%LPD*%
D18*
X910000Y70000D02*
D03*
Y90000D02*
D03*
X270000Y380000D02*
D03*
Y325000D02*
D03*
X274600Y265000D02*
D03*
X285000Y120000D02*
D03*
X780000Y555000D02*
D03*
X380000Y490000D02*
D03*
X915000Y255000D02*
D03*
Y235000D02*
D03*
X790000Y45000D02*
D03*
X810000D02*
D03*
X660000D02*
D03*
X680000D02*
D03*
X530000D02*
D03*
X550000D02*
D03*
X262300Y850000D02*
D03*
Y780000D02*
D03*
Y695000D02*
D03*
X365000Y625000D02*
D03*
X265000Y540000D02*
D03*
D19*
X910000Y110000D02*
D03*
X380000Y470000D02*
D03*
X915000Y215000D02*
D03*
X365000Y645000D02*
D03*
D24*
X292500Y435000D02*
D03*
X302500Y195000D02*
D03*
X635000Y530000D02*
D03*
X287500Y910000D02*
D03*
Y615000D02*
D03*
D25*
X267500Y435000D02*
D03*
X277500Y195000D02*
D03*
X262500Y910000D02*
D03*
Y615000D02*
D03*
D34*
X719500Y936075D02*
D03*
X745000D02*
D03*
X724500Y825000D02*
D03*
X750000D02*
D03*
D35*
X770500Y936075D02*
D03*
X775500Y825000D02*
D03*
D36*
X635000Y580000D02*
D03*
D39*
X295400Y380000D02*
D03*
Y325000D02*
D03*
X300000Y265000D02*
D03*
X305000Y120000D02*
D03*
X760000Y555000D02*
D03*
X830000Y45000D02*
D03*
X700000D02*
D03*
X570000D02*
D03*
X287700Y850000D02*
D03*
Y780000D02*
D03*
Y695000D02*
D03*
X285000Y540000D02*
D03*
D42*
X519600Y778100D02*
X558708D01*
X506900Y790800D02*
X519600Y778100D01*
X430463Y479763D02*
X441900Y491200D01*
X432232Y395000D02*
X433472D01*
X430463Y396769D02*
Y479763D01*
Y396769D02*
X432232Y395000D01*
X438872Y389600D02*
X441900D01*
X433472Y395000D02*
X438872Y389600D01*
X460000Y658474D02*
X502163Y700637D01*
X460000Y227077D02*
Y658474D01*
Y227077D02*
X465000Y222077D01*
Y220000D02*
Y222077D01*
X620000Y745000D02*
X735000D01*
X745000Y735000D01*
X615000Y645000D02*
Y740000D01*
X620000Y745000D01*
X644937Y572369D02*
Y697768D01*
X647169Y700000D02*
X737768D01*
X644937Y697768D02*
X647169Y700000D01*
X560000Y365000D02*
Y610000D01*
X870000Y735000D02*
X890000Y715000D01*
X845000Y735000D02*
X870000D01*
X885000Y795000D02*
Y915000D01*
X779313Y636619D02*
Y689313D01*
X885000Y795000D01*
X760000Y555000D02*
X775000Y570000D01*
X840000D02*
X843422Y573422D01*
X775000Y570000D02*
X840000D01*
X750000Y545000D02*
X760000Y555000D01*
Y645000D02*
X825000Y580000D01*
X803272Y612660D02*
X807339D01*
X843422Y576578D01*
Y573422D02*
Y576578D01*
X779313Y636619D02*
X803272Y612660D01*
X784285Y514285D02*
X785000Y515000D01*
X774285Y514285D02*
X784285D01*
X760000Y500000D02*
X774285Y514285D01*
X515300Y67049D02*
X585000Y136749D01*
Y265000D01*
X625000Y305000D01*
Y320000D01*
X595000Y315000D02*
Y522432D01*
X644937Y572369D01*
X654158Y141774D02*
Y477420D01*
Y141774D02*
X676619Y119313D01*
X540000Y680000D02*
X575000Y715000D01*
X582700D01*
X583100Y714600D01*
X540000Y225000D02*
Y680000D01*
X518100Y465800D02*
X534158Y481858D01*
Y682420D01*
X895000Y255000D02*
Y305000D01*
Y255000D02*
X915000Y235000D01*
X895000Y305000D02*
X945000Y355000D01*
Y575000D01*
X925000Y595000D02*
X945000Y575000D01*
X890000Y597232D02*
Y715000D01*
Y597232D02*
X892232Y595000D01*
X925000D01*
X790000Y645000D02*
X860000Y575000D01*
X930000D01*
X605000Y865000D02*
X685000D01*
X690000Y870000D01*
X675000Y735000D02*
X745000D01*
X660000Y475000D02*
X700000Y515000D01*
Y515000D01*
X747584Y242416D02*
X750000Y244832D01*
Y260000D01*
X747584Y232416D02*
Y242416D01*
X660000Y483262D02*
Y580000D01*
X654158Y477420D02*
X660000Y483262D01*
X676619Y119313D02*
X749313D01*
X760000Y130000D01*
X660000Y465000D02*
Y475000D01*
Y465000D02*
X710000Y415000D01*
X695000Y460000D02*
X720000Y485000D01*
Y600000D01*
X605000Y100000D02*
X900000D01*
X550000Y45000D02*
X605000Y100000D01*
X900000D02*
X910000Y110000D01*
X613146Y128146D02*
Y133146D01*
X530000Y45000D02*
X613146Y128146D01*
Y133146D02*
X615000Y135000D01*
X500000Y132232D02*
Y401215D01*
X495463Y405752D02*
X500000Y401215D01*
X495463Y677763D02*
X506900Y689200D01*
X495463Y405752D02*
Y677763D01*
X497768Y130000D02*
X500000Y132232D01*
X465000Y130000D02*
X497768D01*
X571663Y631622D02*
Y693937D01*
Y631622D02*
X623285Y580000D01*
X534158Y682420D02*
X577775Y726037D01*
X506900Y568100D02*
Y663800D01*
Y568100D02*
X515000Y560000D01*
X623285Y580000D02*
X635000D01*
X571663Y693937D02*
X579626Y701900D01*
X750000Y505000D02*
Y545000D01*
X579626Y701900D02*
X586574D01*
X594537Y709863D01*
Y719337D01*
X587837Y726037D02*
X594537Y719337D01*
X577775Y726037D02*
X587837D01*
X887700Y917700D02*
X915000D01*
X885000Y915000D02*
X887700Y917700D01*
X820000Y475000D02*
X825000D01*
X825376Y474624D02*
X880000D01*
X825000Y475000D02*
X825376Y474624D01*
X675000Y775000D02*
X684494Y784494D01*
X692844D02*
X701153Y792804D01*
X684494Y784494D02*
X692844D01*
X701153Y792804D02*
Y801653D01*
X724500Y825000D01*
X420000Y386100D02*
Y580000D01*
Y386100D02*
X441900Y364200D01*
X785000Y460000D02*
X849624Y395376D01*
X880000D01*
X320000Y940000D02*
X469200Y790800D01*
X506900D01*
X47232Y940000D02*
X320000D01*
X747584Y232416D02*
X760000Y220000D01*
X905376Y474624D02*
X935000Y445000D01*
X880000Y474624D02*
X905376D01*
X760000Y722232D02*
Y809500D01*
X775500Y825000D01*
X737768Y700000D02*
X760000Y722232D01*
X710000Y320000D02*
Y415000D01*
X760000Y220000D02*
Y500000D01*
X840000Y308000D02*
X842000Y310000D01*
X840000Y212000D02*
Y308000D01*
X722000Y827500D02*
Y933575D01*
Y827500D02*
X724500Y825000D01*
X719500Y936075D02*
X722000Y933575D01*
X770500Y830000D02*
X775500Y825000D01*
X770500Y830000D02*
Y936075D01*
X325000Y475000D02*
X360000Y440000D01*
Y367232D02*
Y440000D01*
Y367232D02*
X363032Y364200D01*
X441900D01*
X685000Y130000D02*
X715000D01*
X720000Y135000D02*
Y260000D01*
X715000Y130000D02*
X720000Y135000D01*
Y260000D02*
X735000Y275000D01*
Y625000D01*
X164812Y475000D02*
X325000D01*
X135000Y504812D02*
X164812Y475000D01*
X45000Y805000D02*
Y937768D01*
X47232Y940000D01*
X45000Y805000D02*
X62300Y787700D01*
X305000Y120000D02*
Y165000D01*
X302500Y167500D02*
X305000Y165000D01*
X302500Y167500D02*
Y195000D01*
Y262500D01*
X300000Y265000D02*
X302500Y262500D01*
X300000Y265000D02*
Y290000D01*
X295400Y294600D02*
Y325000D01*
Y294600D02*
X300000Y290000D01*
X295400Y325000D02*
Y380000D01*
X292500Y382900D02*
X295400Y380000D01*
X292500Y382900D02*
Y435000D01*
X675000Y645000D02*
X760000D01*
X675000Y645000D02*
X675000Y645000D01*
X820752Y514248D02*
X880000D01*
X780000Y555000D02*
X820752Y514248D01*
X502163Y700637D02*
X511637D01*
X460000Y740000D02*
X506900D01*
X365000Y645000D02*
X460000Y740000D01*
X511637Y700637D02*
X518337Y693937D01*
Y675237D02*
Y693937D01*
X506900Y663800D02*
X518337Y675237D01*
X496578Y18422D02*
X500000Y15000D01*
X496578Y91578D02*
X540000Y135000D01*
X496578Y18422D02*
Y91578D01*
X677768Y15000D02*
X680000Y17232D01*
Y45000D01*
X500000Y15000D02*
X677768D01*
X87700Y711500D02*
X90128Y709072D01*
X95928D02*
X265000Y540000D01*
X90128Y709072D02*
X95928D01*
X87700Y736900D02*
X140600D01*
X262500Y615000D01*
X87700Y762300D02*
X195000D01*
X262300Y695000D01*
X252725Y787700D02*
X260425Y780000D01*
X87700Y787700D02*
X252725D01*
X260425Y780000D02*
X262300D01*
X87700Y813100D02*
X225400D01*
X262300Y850000D01*
X87700Y838500D02*
X191000D01*
X262500Y910000D01*
X62300Y813100D02*
Y838500D01*
Y787700D02*
Y813100D01*
Y762300D02*
Y787700D01*
Y736900D02*
Y762300D01*
Y711500D02*
Y736900D01*
X69600Y265000D02*
Y290400D01*
Y163400D02*
Y188800D01*
Y214200D01*
Y239600D01*
Y265000D01*
X210000Y380000D02*
X270000D01*
X95000Y265000D02*
X210000Y380000D01*
X95000Y239600D02*
X165000Y309600D01*
X180000Y325000D02*
X270000D01*
X165000Y309600D02*
Y310000D01*
X180000Y325000D01*
X95000Y163400D02*
X241600D01*
X285000Y120000D01*
X271300Y188800D02*
X277500Y195000D01*
X95000Y188800D02*
X271300D01*
X140000Y260000D02*
X145000Y265000D01*
X274600D01*
X140000Y259200D02*
Y260000D01*
X95000Y214200D02*
X140000Y259200D01*
X222500Y390000D02*
X267500Y435000D01*
X125000Y390000D02*
X222500D01*
X95000Y360000D02*
X125000Y390000D01*
X95000Y290400D02*
Y360000D01*
D43*
X25000Y25000D02*
D03*
X925000D02*
D03*
Y975000D02*
D03*
X25000D02*
D03*
D44*
X915000Y892300D02*
D03*
Y769600D02*
D03*
X910000Y622300D02*
D03*
D45*
X915000Y917700D02*
D03*
Y795000D02*
D03*
X910000Y647700D02*
D03*
X405000Y45000D02*
D03*
X295000D02*
D03*
X517300Y935000D02*
D03*
X405400D02*
D03*
D46*
X518100Y338800D02*
D03*
Y364200D02*
D03*
Y389600D02*
D03*
Y415000D02*
D03*
Y440400D02*
D03*
Y465800D02*
D03*
Y491200D02*
D03*
X441900Y338800D02*
D03*
Y364200D02*
D03*
Y389600D02*
D03*
Y415000D02*
D03*
Y440400D02*
D03*
Y465800D02*
D03*
X583100Y663800D02*
D03*
Y689200D02*
D03*
Y714600D02*
D03*
Y740000D02*
D03*
Y765400D02*
D03*
Y790800D02*
D03*
Y816200D02*
D03*
X506900Y663800D02*
D03*
Y689200D02*
D03*
Y714600D02*
D03*
Y740000D02*
D03*
Y765400D02*
D03*
Y790800D02*
D03*
D47*
X441900Y491200D02*
D03*
X506900Y816200D02*
D03*
D48*
X69600Y214200D02*
D03*
X95000D02*
D03*
X69600Y265000D02*
D03*
X95000D02*
D03*
X69600Y290400D02*
D03*
X95000Y239600D02*
D03*
X69600D02*
D03*
X95000Y188800D02*
D03*
Y163400D02*
D03*
X69600Y188800D02*
D03*
Y163400D02*
D03*
X62300Y762300D02*
D03*
X87700D02*
D03*
X62300Y813100D02*
D03*
X87700D02*
D03*
X62300Y838500D02*
D03*
X87700Y787700D02*
D03*
X62300D02*
D03*
X87700Y736900D02*
D03*
Y711500D02*
D03*
X62300Y736900D02*
D03*
Y711500D02*
D03*
D49*
X95000Y290400D02*
D03*
X87700Y838500D02*
D03*
D50*
X790000Y645000D02*
D03*
X760000Y130000D02*
D03*
X385000D02*
D03*
X675000Y645000D02*
D03*
X625000Y410000D02*
D03*
X840000Y148000D02*
D03*
X615000Y225000D02*
D03*
X540000Y135000D02*
D03*
X465000Y130000D02*
D03*
X685000D02*
D03*
X380000Y820000D02*
D03*
D51*
X790000Y735000D02*
D03*
X760000Y220000D02*
D03*
X385000D02*
D03*
X675000Y735000D02*
D03*
X785000Y460000D02*
D03*
X778000Y310000D02*
D03*
X625000Y320000D02*
D03*
X840000Y212000D02*
D03*
X615000Y135000D02*
D03*
X540000Y225000D02*
D03*
X465000Y220000D02*
D03*
X685000D02*
D03*
X380000Y730000D02*
D03*
D52*
X880000Y514248D02*
D03*
X135000Y425564D02*
D03*
D53*
X880000Y474624D02*
D03*
Y435000D02*
D03*
Y395376D02*
D03*
X135000Y465188D02*
D03*
Y504812D02*
D03*
Y544436D02*
D03*
D54*
X695000Y460000D02*
D03*
X842000Y310000D02*
D03*
D55*
X430400Y45000D02*
D03*
X269600D02*
D03*
X542700Y935000D02*
D03*
X380000D02*
D03*
D56*
X558708Y778100D02*
D03*
X615000Y645000D02*
D03*
X560000Y610000D02*
D03*
Y365000D02*
D03*
X845000Y735000D02*
D03*
X825000Y580000D02*
D03*
X785000Y515000D02*
D03*
X595000Y315000D02*
D03*
X930000Y575000D02*
D03*
X690000Y870000D02*
D03*
X605000Y865000D02*
D03*
X745000Y735000D02*
D03*
X700000Y515000D02*
D03*
X750000Y260000D02*
D03*
X660000Y580000D02*
D03*
X515000Y560000D02*
D03*
X750000Y505000D02*
D03*
X820000Y475000D02*
D03*
X515300Y67049D02*
D03*
X675000Y775000D02*
D03*
X420000Y580000D02*
D03*
X935000Y445000D02*
D03*
X710000Y320000D02*
D03*
X735000Y625000D02*
D03*
X720000Y600000D02*
D03*
M02*
