G04*
G04 #@! TF.GenerationSoftware,Altium Limited,Altium Designer,22.9.1 (49)*
G04*
G04 Layer_Color=16711935*
%FSLAX44Y44*%
%MOMM*%
G71*
G04*
G04 #@! TF.SameCoordinates,DBEF2CFB-25A5-4AA8-B732-6DF96BC3893C*
G04*
G04*
G04 #@! TF.FilePolarity,Negative*
G04*
G01*
G75*
%ADD17C,1.7272*%
%ADD18C,1.3000*%
%ADD19R,1.3000X1.3000*%
%ADD20R,1.8032X1.8032*%
%ADD21C,1.8032*%
%ADD22C,1.7032*%
%ADD23R,1.7032X1.7032*%
%ADD24C,1.2000*%
%ADD25R,1.2000X1.2000*%
%ADD26R,1.5032X1.5032*%
%ADD27C,1.5032*%
%ADD28C,1.8532*%
%ADD29R,1.8532X1.8532*%
%ADD30R,1.5532X1.5532*%
%ADD31C,1.5532*%
%ADD32R,2.5032X2.5032*%
%ADD33C,2.5032*%
%ADD34C,2.0000*%
%ADD35R,2.0000X2.0000*%
%ADD36R,1.2000X1.2000*%
%ADD37R,1.5532X1.5532*%
%ADD38R,1.5032X1.5032*%
%ADD39R,1.3000X1.3000*%
%ADD40R,1.8032X1.8032*%
%ADD41C,1.2032*%
D17*
X25000Y25000D02*
D03*
X925000D02*
D03*
Y975000D02*
D03*
X25000D02*
D03*
D18*
X910000Y70000D02*
D03*
Y90000D02*
D03*
X915000Y255000D02*
D03*
Y235000D02*
D03*
X790000Y45000D02*
D03*
X810000D02*
D03*
X660000D02*
D03*
X680000D02*
D03*
X530000D02*
D03*
X550000D02*
D03*
D19*
X910000Y110000D02*
D03*
X915000Y215000D02*
D03*
D20*
Y892300D02*
D03*
Y769600D02*
D03*
X910000Y622300D02*
D03*
D21*
X915000Y917700D02*
D03*
Y795000D02*
D03*
X910000Y647700D02*
D03*
X405000Y45000D02*
D03*
X295000D02*
D03*
X517300Y935000D02*
D03*
X405400D02*
D03*
D22*
X518100Y338800D02*
D03*
Y364200D02*
D03*
Y389600D02*
D03*
Y415000D02*
D03*
Y440400D02*
D03*
Y465800D02*
D03*
Y491200D02*
D03*
X441900Y338800D02*
D03*
Y364200D02*
D03*
Y389600D02*
D03*
Y415000D02*
D03*
Y440400D02*
D03*
Y465800D02*
D03*
X583100Y663800D02*
D03*
Y689200D02*
D03*
Y714600D02*
D03*
Y740000D02*
D03*
Y765400D02*
D03*
Y790800D02*
D03*
Y816200D02*
D03*
X506900Y663800D02*
D03*
Y689200D02*
D03*
Y714600D02*
D03*
Y740000D02*
D03*
Y765400D02*
D03*
Y790800D02*
D03*
D23*
X441900Y491200D02*
D03*
X506900Y816200D02*
D03*
D24*
X292500Y435000D02*
D03*
X302500Y195000D02*
D03*
X635000Y530000D02*
D03*
X287500Y910000D02*
D03*
Y615000D02*
D03*
D25*
X267500Y435000D02*
D03*
X277500Y195000D02*
D03*
X262500Y910000D02*
D03*
Y615000D02*
D03*
D26*
X295400Y380000D02*
D03*
Y325000D02*
D03*
X300000Y265000D02*
D03*
X305000Y120000D02*
D03*
X760000Y555000D02*
D03*
X287700Y850000D02*
D03*
Y780000D02*
D03*
Y695000D02*
D03*
X285000Y540000D02*
D03*
D27*
X270000Y380000D02*
D03*
Y325000D02*
D03*
X274600Y265000D02*
D03*
X285000Y120000D02*
D03*
X780000Y555000D02*
D03*
X380000Y490000D02*
D03*
X262300Y850000D02*
D03*
Y780000D02*
D03*
Y695000D02*
D03*
X365000Y625000D02*
D03*
X265000Y540000D02*
D03*
D28*
X69600Y214200D02*
D03*
X95000D02*
D03*
X69600Y265000D02*
D03*
X95000D02*
D03*
X69600Y290400D02*
D03*
X95000Y239600D02*
D03*
X69600D02*
D03*
X95000Y188800D02*
D03*
Y163400D02*
D03*
X69600Y188800D02*
D03*
Y163400D02*
D03*
X62300Y762300D02*
D03*
X87700D02*
D03*
X62300Y813100D02*
D03*
X87700D02*
D03*
X62300Y838500D02*
D03*
X87700Y787700D02*
D03*
X62300D02*
D03*
X87700Y736900D02*
D03*
Y711500D02*
D03*
X62300Y736900D02*
D03*
Y711500D02*
D03*
D29*
X95000Y290400D02*
D03*
X87700Y838500D02*
D03*
D30*
X790000Y645000D02*
D03*
X760000Y130000D02*
D03*
X385000D02*
D03*
X675000Y645000D02*
D03*
X625000Y410000D02*
D03*
X840000Y148000D02*
D03*
X615000Y225000D02*
D03*
X540000Y135000D02*
D03*
X465000Y130000D02*
D03*
X685000D02*
D03*
X380000Y820000D02*
D03*
D31*
X790000Y735000D02*
D03*
X760000Y220000D02*
D03*
X385000D02*
D03*
X675000Y735000D02*
D03*
X785000Y460000D02*
D03*
X778000Y310000D02*
D03*
X625000Y320000D02*
D03*
X840000Y212000D02*
D03*
X615000Y135000D02*
D03*
X540000Y225000D02*
D03*
X465000Y220000D02*
D03*
X685000D02*
D03*
X380000Y730000D02*
D03*
D32*
X880000Y514248D02*
D03*
X135000Y425564D02*
D03*
D33*
X880000Y474624D02*
D03*
Y435000D02*
D03*
Y395376D02*
D03*
X135000Y465188D02*
D03*
Y504812D02*
D03*
Y544436D02*
D03*
D34*
X719500Y936075D02*
D03*
X745000D02*
D03*
X724500Y825000D02*
D03*
X750000D02*
D03*
D35*
X770500Y936075D02*
D03*
X775500Y825000D02*
D03*
D36*
X635000Y580000D02*
D03*
D37*
X695000Y460000D02*
D03*
X842000Y310000D02*
D03*
D38*
X380000Y470000D02*
D03*
X365000Y645000D02*
D03*
D39*
X830000Y45000D02*
D03*
X700000D02*
D03*
X570000D02*
D03*
D40*
X430400D02*
D03*
X269600D02*
D03*
X542700Y935000D02*
D03*
X380000D02*
D03*
D41*
X558708Y778100D02*
D03*
X615000Y645000D02*
D03*
X560000Y610000D02*
D03*
Y365000D02*
D03*
X845000Y735000D02*
D03*
X825000Y580000D02*
D03*
X785000Y515000D02*
D03*
X595000Y315000D02*
D03*
X930000Y575000D02*
D03*
X690000Y870000D02*
D03*
X605000Y865000D02*
D03*
X745000Y735000D02*
D03*
X700000Y515000D02*
D03*
X750000Y260000D02*
D03*
X660000Y580000D02*
D03*
X515000Y560000D02*
D03*
X750000Y505000D02*
D03*
X820000Y475000D02*
D03*
X515300Y67049D02*
D03*
X675000Y775000D02*
D03*
X420000Y580000D02*
D03*
X935000Y445000D02*
D03*
X710000Y320000D02*
D03*
X735000Y625000D02*
D03*
X720000Y600000D02*
D03*
M02*
