G04*
G04 #@! TF.GenerationSoftware,Altium Limited,Altium Designer,22.9.1 (49)*
G04*
G04 Layer_Color=32768*
%FSLAX44Y44*%
%MOMM*%
G71*
G04*
G04 #@! TF.SameCoordinates,DBEF2CFB-25A5-4AA8-B732-6DF96BC3893C*
G04*
G04*
G04 #@! TF.FilePolarity,Positive*
G04*
G01*
G75*
%ADD12C,0.2000*%
%ADD57C,0.1000*%
%ADD58C,0.0500*%
D12*
X898000Y122000D02*
X922000D01*
X898000Y58000D02*
Y122000D01*
Y58000D02*
X922000D01*
Y122000D01*
X260500Y421500D02*
Y448500D01*
Y421500D02*
X299500D01*
Y448500D01*
X260500D02*
X299500D01*
X264000Y178000D02*
Y212000D01*
Y178000D02*
X316000D01*
Y212000D01*
X264000D02*
X316000D01*
X692000Y954000D02*
X798000D01*
X692000Y906000D02*
Y954000D01*
Y906000D02*
X798000D01*
Y954000D01*
X621500Y587000D02*
X648500D01*
X621500Y523000D02*
Y587000D01*
Y523000D02*
X648500D01*
Y587000D01*
X697000Y842925D02*
X803000D01*
X697000Y794925D02*
Y842925D01*
Y794925D02*
X803000D01*
Y842925D01*
X903000Y203000D02*
X927000D01*
Y267000D01*
X903000D02*
X927000D01*
X903000Y203000D02*
Y267000D01*
X842000Y33000D02*
Y57000D01*
X778000D02*
X842000D01*
X778000Y33000D02*
Y57000D01*
Y33000D02*
X842000D01*
X712000D02*
Y57000D01*
X648000D02*
X712000D01*
X648000Y33000D02*
Y57000D01*
Y33000D02*
X712000D01*
X582000D02*
Y57000D01*
X518000D02*
X582000D01*
X518000Y33000D02*
Y57000D01*
Y33000D02*
X582000D01*
X255500Y896500D02*
Y923500D01*
Y896500D02*
X294500D01*
Y923500D01*
X255500D02*
X294500D01*
X249000Y598000D02*
Y632000D01*
Y598000D02*
X301000D01*
Y632000D01*
X249000D02*
X301000D01*
D57*
X480000Y410000D02*
Y420000D01*
X475000Y415000D02*
X485000D01*
X277700Y380000D02*
X287700D01*
X282700Y375000D02*
Y385000D01*
X277700Y325000D02*
X287700D01*
X282700Y320000D02*
Y330000D01*
X282300Y265000D02*
X292300D01*
X287300Y260000D02*
Y270000D01*
X290000Y120000D02*
X300000D01*
X295000Y115000D02*
Y125000D01*
X785000Y690000D02*
X795000D01*
X790000Y685000D02*
Y695000D01*
X874871Y454812D02*
X884871D01*
X879871Y449812D02*
Y459812D01*
X765000Y555000D02*
X775000D01*
X770000Y550000D02*
Y560000D01*
X755000Y175000D02*
X765000D01*
X760000Y170000D02*
Y180000D01*
X380000Y175000D02*
X390000D01*
X385000Y170000D02*
Y180000D01*
X670000Y690000D02*
X680000D01*
X675000Y685000D02*
Y695000D01*
X740000Y455000D02*
Y465000D01*
X735000Y460000D02*
X745000D01*
X380000Y475000D02*
Y485000D01*
X375000Y480000D02*
X385000D01*
X810000Y305000D02*
Y315000D01*
X805000Y310000D02*
X815000D01*
X620000Y365000D02*
X630000D01*
X625000Y360000D02*
Y370000D01*
X835000Y180000D02*
X845000D01*
X840000Y175000D02*
Y185000D01*
X610000Y180000D02*
X620000D01*
X615000Y175000D02*
Y185000D01*
X535000Y180000D02*
X545000D01*
X540000Y175000D02*
Y185000D01*
X270000Y850000D02*
X280000D01*
X275000Y845000D02*
Y855000D01*
X460000Y175000D02*
X470000D01*
X465000Y170000D02*
Y180000D01*
X545000Y735000D02*
Y745000D01*
X540000Y740000D02*
X550000D01*
X270000Y780000D02*
X280000D01*
X275000Y775000D02*
Y785000D01*
X680000Y175000D02*
X690000D01*
X685000Y170000D02*
Y180000D01*
X270000Y695000D02*
X280000D01*
X275000Y690000D02*
Y700000D01*
X130129Y485000D02*
X140129D01*
X135129Y480000D02*
Y490000D01*
X375000Y775000D02*
X385000D01*
X380000Y770000D02*
Y780000D01*
X365000Y630000D02*
Y640000D01*
X360000Y635000D02*
X370000D01*
X270000Y540000D02*
X280000D01*
X275000Y535000D02*
Y545000D01*
D58*
X321000Y120000D02*
G03*
X321000Y120000I-26000J0D01*
G01*
X796000Y555000D02*
G03*
X796000Y555000I-26000J0D01*
G01*
X406000Y480000D02*
G03*
X406000Y480000I-26000J0D01*
G01*
X391000Y635000D02*
G03*
X391000Y635000I-26000J0D01*
G01*
X301000Y540000D02*
G03*
X301000Y540000I-26000J0D01*
G01*
X915000Y900000D02*
Y910000D01*
X910000Y905000D02*
X920000D01*
X899550Y876100D02*
X930450D01*
Y933900D01*
X899550D02*
X930450D01*
X899550Y876100D02*
Y933900D01*
X431500Y314000D02*
X528500D01*
X431500Y516000D02*
X528500D01*
Y314000D02*
Y516000D01*
X431500Y314000D02*
Y516000D01*
X262500Y366300D02*
X302900D01*
Y393700D01*
X262500D02*
X302900D01*
X262500Y366300D02*
Y393700D01*
Y311300D02*
X302900D01*
Y338700D01*
X262500D02*
X302900D01*
X262500Y311300D02*
Y338700D01*
X59350Y147200D02*
Y306600D01*
X197000D01*
Y147200D02*
Y306600D01*
X59350Y147200D02*
X197000D01*
X117300Y226900D02*
X127300D01*
X122300Y221900D02*
Y231900D01*
X260900Y281900D02*
X313700D01*
X260900Y248100D02*
Y281900D01*
X313700Y248100D02*
Y281900D01*
X260900Y248100D02*
X313700D01*
X915000Y777300D02*
Y787300D01*
X910000Y782300D02*
X920000D01*
X899550Y753400D02*
X930450D01*
Y811200D01*
X899550D02*
X930450D01*
X899550Y753400D02*
Y811200D01*
X777000Y742750D02*
X803000D01*
X777000Y637250D02*
Y742750D01*
X803000Y637250D02*
Y742750D01*
X777000Y637250D02*
X803000D01*
X910000Y630000D02*
Y640000D01*
X905000Y635000D02*
X915000D01*
X894550Y606100D02*
X925450D01*
Y663900D01*
X894550D02*
X925450D01*
X894550Y606100D02*
Y663900D01*
X926720Y374562D02*
Y535058D01*
X848520Y374562D02*
X926720D01*
X848520Y535058D02*
X926720D01*
X848520Y374562D02*
Y535058D01*
X747000Y227750D02*
X773000D01*
X747000Y122250D02*
Y227750D01*
X773000Y122250D02*
Y227750D01*
X747000Y122250D02*
X773000D01*
X372000Y227750D02*
X398000D01*
X372000Y122250D02*
Y227750D01*
X398000Y122250D02*
Y227750D01*
X372000Y122250D02*
X398000D01*
X662000Y742750D02*
X688000D01*
X662000Y637250D02*
Y742750D01*
X688000Y637250D02*
Y742750D01*
X662000Y637250D02*
X688000D01*
X792750Y447000D02*
Y473000D01*
X687250D02*
X792750D01*
X687250Y447000D02*
X792750D01*
X687250D02*
Y473000D01*
X770250Y300175D02*
X849750D01*
X770250Y319825D02*
X849750D01*
X770250Y300175D02*
Y319825D01*
X849750Y300175D02*
Y319825D01*
X612000Y312250D02*
X638000D01*
Y417750D01*
X612000Y312250D02*
Y417750D01*
X638000D01*
X830175Y140250D02*
Y219750D01*
X849825Y140250D02*
Y219750D01*
X830175D02*
X849825D01*
X830175Y140250D02*
X849825D01*
X412700Y45000D02*
X422700D01*
X417700Y40000D02*
Y50000D01*
X446600Y29550D02*
Y60450D01*
X388800D02*
X446600D01*
X388800Y29550D02*
Y60450D01*
Y29550D02*
X446600D01*
X602000Y127250D02*
X628000D01*
Y232750D01*
X602000Y127250D02*
Y232750D01*
X628000D01*
X277300Y45000D02*
X287300D01*
X282300Y40000D02*
Y50000D01*
X253400Y29550D02*
Y60450D01*
Y29550D02*
X311200D01*
Y60450D01*
X253400D02*
X311200D01*
X527000Y232750D02*
X553000D01*
X527000Y127250D02*
Y232750D01*
X553000Y127250D02*
Y232750D01*
X527000Y127250D02*
X553000D01*
X254800Y836300D02*
X295200D01*
Y863700D01*
X254800D02*
X295200D01*
X254800Y836300D02*
Y863700D01*
X452000Y227750D02*
X478000D01*
X452000Y122250D02*
Y227750D01*
X478000Y122250D02*
Y227750D01*
X452000Y122250D02*
X478000D01*
X52050Y695300D02*
Y854700D01*
X189700D01*
Y695300D02*
Y854700D01*
X52050Y695300D02*
X189700D01*
X110000Y775000D02*
X120000D01*
X115000Y770000D02*
Y780000D01*
X525000Y935000D02*
X535000D01*
X530000Y930000D02*
Y940000D01*
X558900Y919550D02*
Y950450D01*
X501100D02*
X558900D01*
X501100Y919550D02*
Y950450D01*
Y919550D02*
X558900D01*
X496500Y639000D02*
X593500D01*
X496500Y841000D02*
X593500D01*
Y639000D02*
Y841000D01*
X496500Y639000D02*
Y841000D01*
X254800Y766300D02*
X295200D01*
Y793700D01*
X254800D02*
X295200D01*
X254800Y766300D02*
Y793700D01*
X672000Y227750D02*
X698000D01*
X672000Y122250D02*
Y227750D01*
X698000Y122250D02*
Y227750D01*
X672000Y122250D02*
X698000D01*
X248600Y711900D02*
X301400D01*
X248600Y678100D02*
Y711900D01*
X301400Y678100D02*
Y711900D01*
X248600Y678100D02*
X301400D01*
X88280Y404754D02*
Y565250D01*
X166480D01*
X88280Y404754D02*
X166480D01*
Y565250D01*
X367000Y722250D02*
X393000D01*
Y827750D01*
X367000Y722250D02*
Y827750D01*
X393000D01*
X387700Y935000D02*
X397700D01*
X392700Y930000D02*
Y940000D01*
X363800Y919550D02*
Y950450D01*
Y919550D02*
X421600D01*
Y950450D01*
X363800D02*
X421600D01*
M02*
