G04*
G04 #@! TF.GenerationSoftware,Altium Limited,Altium Designer,22.9.1 (49)*
G04*
G04 Layer_Color=0*
%FSLAX44Y44*%
%MOMM*%
G71*
G04*
G04 #@! TF.SameCoordinates,DBEF2CFB-25A5-4AA8-B732-6DF96BC3893C*
G04*
G04*
G04 #@! TF.FilePolarity,Positive*
G04*
G01*
G75*
%ADD57C,0.1000*%
D57*
X905000Y90000D02*
X915000D01*
X910000Y85000D02*
Y95000D01*
X280000Y430000D02*
Y440000D01*
X275000Y435000D02*
X285000D01*
X290000Y190000D02*
Y200000D01*
X285000Y195000D02*
X295000D01*
X740000Y930000D02*
X750000D01*
X745000Y925000D02*
Y935000D01*
X630000Y555000D02*
X640000D01*
X635000Y550000D02*
Y560000D01*
X745000Y818925D02*
X755000D01*
X750000Y813925D02*
Y823925D01*
X910000Y235000D02*
X920000D01*
X915000Y230000D02*
Y240000D01*
X810000Y40000D02*
Y50000D01*
X805000Y45000D02*
X815000D01*
X680000Y40000D02*
Y50000D01*
X675000Y45000D02*
X685000D01*
X550000Y40000D02*
Y50000D01*
X545000Y45000D02*
X555000D01*
X275000Y905000D02*
Y915000D01*
X270000Y910000D02*
X280000D01*
X275000Y610000D02*
Y620000D01*
X270000Y615000D02*
X280000D01*
M02*
