G04*
G04 #@! TF.GenerationSoftware,Altium Limited,Altium Designer,22.9.1 (49)*
G04*
G04 Layer_Physical_Order=4*
G04 Layer_Color=16711680*
%FSLAX44Y44*%
%MOMM*%
G71*
G04*
G04 #@! TF.SameCoordinates,DBEF2CFB-25A5-4AA8-B732-6DF96BC3893C*
G04*
G04*
G04 #@! TF.FilePolarity,Positive*
G04*
G01*
G75*
%ADD18C,1.3000*%
%ADD19R,1.3000X1.3000*%
%ADD24C,1.2000*%
%ADD25R,1.2000X1.2000*%
%ADD34C,2.0000*%
%ADD35R,2.0000X2.0000*%
%ADD36R,1.2000X1.2000*%
%ADD39R,1.3000X1.3000*%
%ADD42C,0.3810*%
%ADD43C,1.5240*%
%ADD44R,1.6000X1.6000*%
%ADD45C,1.6000*%
%ADD46C,1.5000*%
%ADD47R,1.5000X1.5000*%
%ADD48C,1.6500*%
%ADD49R,1.6500X1.6500*%
%ADD50R,1.3500X1.3500*%
%ADD51C,1.3500*%
%ADD52R,2.3000X2.3000*%
%ADD53C,2.3000*%
%ADD54R,1.3500X1.3500*%
%ADD55R,1.6000X1.6000*%
%ADD56C,1.0000*%
G36*
X890000Y810677D02*
X887162Y807838D01*
X886291Y806536D01*
X885986Y805000D01*
Y761663D01*
X817162Y692838D01*
X816291Y691536D01*
X815986Y690000D01*
Y689014D01*
X752232D01*
X750696Y688709D01*
X749393Y687838D01*
X747162Y685607D01*
X746291Y684304D01*
X745986Y682768D01*
Y613895D01*
X745042Y612951D01*
X663937D01*
X662401Y612646D01*
X661099Y611775D01*
X637355Y588032D01*
X626968D01*
Y571968D01*
X643032D01*
Y575986D01*
X654198D01*
X654373Y575682D01*
X655682Y574373D01*
X657286Y573447D01*
X659074Y572968D01*
X660926D01*
X662714Y573447D01*
X664318Y574373D01*
X665627Y575682D01*
X666553Y577286D01*
X667032Y579074D01*
Y580926D01*
X666553Y582714D01*
X665627Y584318D01*
X664318Y585627D01*
X662714Y586553D01*
X660926Y587032D01*
X659074D01*
X657286Y586553D01*
X655682Y585627D01*
X654373Y584318D01*
X654198Y584014D01*
X646350D01*
X645864Y585187D01*
X665600Y604923D01*
X713256D01*
X713989Y603653D01*
X713447Y602714D01*
X712968Y600926D01*
Y599074D01*
X713447Y597286D01*
X714373Y595682D01*
X715682Y594373D01*
X717286Y593447D01*
X719074Y592968D01*
X720926D01*
X722714Y593447D01*
X724318Y594373D01*
X725627Y595682D01*
X725802Y595986D01*
X760979D01*
X761465Y594813D01*
X746509Y579856D01*
X683481D01*
X681945Y579551D01*
X680642Y578680D01*
X665976Y564014D01*
X520802D01*
X520627Y564318D01*
X519318Y565627D01*
X517714Y566553D01*
X515926Y567032D01*
X514074D01*
X512286Y566553D01*
X510682Y565627D01*
X509373Y564318D01*
X508447Y562714D01*
X507968Y560926D01*
Y559074D01*
X508447Y557286D01*
X509373Y555682D01*
X510682Y554373D01*
X512286Y553447D01*
X514074Y552968D01*
X515926D01*
X517714Y553447D01*
X519318Y554373D01*
X520627Y555682D01*
X520802Y555986D01*
X667639D01*
X669175Y556291D01*
X670477Y557162D01*
X685144Y571828D01*
X724492D01*
X724978Y570654D01*
X668337Y514014D01*
X518148D01*
X516611Y513709D01*
X515309Y512838D01*
X497685Y495214D01*
X451432D01*
Y500732D01*
X432368D01*
Y481668D01*
X451432D01*
Y487186D01*
X499347D01*
X500884Y487491D01*
X502186Y488362D01*
X507610Y493785D01*
X508748Y493128D01*
X508568Y492455D01*
Y489945D01*
X509218Y487521D01*
X510472Y485347D01*
X512247Y483573D01*
X514421Y482318D01*
X516845Y481668D01*
X519355D01*
X521779Y482318D01*
X523953Y483573D01*
X525728Y485347D01*
X526789Y487186D01*
X736200D01*
X737736Y487491D01*
X739038Y488362D01*
X748736Y498059D01*
X749074Y497968D01*
X750926D01*
X752714Y498447D01*
X754318Y499373D01*
X755627Y500682D01*
X756553Y502286D01*
X757032Y504074D01*
Y505926D01*
X756553Y507714D01*
X755627Y509318D01*
X754318Y510627D01*
X752714Y511553D01*
X750926Y512032D01*
X749074D01*
X747286Y511553D01*
X745682Y510627D01*
X744373Y509318D01*
X743447Y507714D01*
X742968Y505926D01*
Y504074D01*
X743059Y503736D01*
X734537Y495214D01*
X526789D01*
X525728Y497053D01*
X523953Y498828D01*
X521779Y500082D01*
X519355Y500732D01*
X516845D01*
X516172Y500552D01*
X515515Y501690D01*
X519810Y505986D01*
X670000D01*
X671536Y506291D01*
X672838Y507162D01*
X731663Y565986D01*
X779501D01*
X781037Y566291D01*
X782339Y567162D01*
X806656Y591478D01*
X807642Y590668D01*
X807354Y590238D01*
X807049Y588702D01*
Y572966D01*
X789705Y555622D01*
X789101Y555872D01*
X788506Y556219D01*
X787951Y558293D01*
X786827Y560239D01*
X785239Y561827D01*
X783293Y562951D01*
X781123Y563532D01*
X778877D01*
X776707Y562951D01*
X774761Y561827D01*
X773173Y560239D01*
X772049Y558293D01*
X771468Y556123D01*
Y553877D01*
X771834Y552511D01*
X769705Y550382D01*
X768532Y550868D01*
Y563532D01*
X751468D01*
Y546468D01*
X764132D01*
X764618Y545295D01*
X738337Y519014D01*
X705802D01*
X705627Y519318D01*
X704318Y520627D01*
X702714Y521553D01*
X700926Y522032D01*
X699074D01*
X697286Y521553D01*
X695682Y520627D01*
X694373Y519318D01*
X693447Y517714D01*
X692968Y515926D01*
Y514074D01*
X693447Y512286D01*
X694373Y510682D01*
X695682Y509373D01*
X697286Y508447D01*
X699074Y507968D01*
X700926D01*
X702714Y508447D01*
X704318Y509373D01*
X705627Y510682D01*
X705802Y510986D01*
X740000D01*
X741536Y511291D01*
X742838Y512162D01*
X777511Y546834D01*
X778781Y546494D01*
X779128Y545898D01*
X779378Y545295D01*
X763225Y529141D01*
X762354Y527839D01*
X762049Y526303D01*
Y500675D01*
X762354Y499139D01*
X763225Y497837D01*
X814742Y446320D01*
X816044Y445449D01*
X817580Y445144D01*
X864179D01*
X868016Y441307D01*
X867390Y440223D01*
X866468Y436782D01*
Y433218D01*
X867390Y429777D01*
X869172Y426691D01*
X871691Y424172D01*
X874777Y422390D01*
X878219Y421468D01*
X881781D01*
X885223Y422390D01*
X888309Y424172D01*
X888827Y424689D01*
X890000Y424203D01*
Y406172D01*
X888827Y405686D01*
X888309Y406204D01*
X885223Y407986D01*
X881781Y408908D01*
X878219D01*
X874777Y407986D01*
X871691Y406204D01*
X869172Y403685D01*
X867390Y400599D01*
X866468Y397158D01*
Y393595D01*
X867390Y390153D01*
X869172Y387067D01*
X871691Y384548D01*
X874777Y382766D01*
X878219Y381844D01*
X881781D01*
X885223Y382766D01*
X888309Y384548D01*
X888827Y385065D01*
X890000Y384580D01*
Y341554D01*
X888730Y341428D01*
X888709Y341536D01*
X887838Y342838D01*
X867838Y362838D01*
X866536Y363709D01*
X865000Y364014D01*
X657595D01*
X621564Y400045D01*
X622050Y401218D01*
X633782D01*
Y418782D01*
X616218D01*
Y405789D01*
X615236Y404983D01*
X614895Y405051D01*
X522472D01*
X522132Y406321D01*
X523953Y407373D01*
X525728Y409147D01*
X526982Y411321D01*
X527632Y413745D01*
Y416255D01*
X526982Y418679D01*
X525728Y420853D01*
X523953Y422627D01*
X521779Y423882D01*
X519355Y424532D01*
X516845D01*
X514421Y423882D01*
X512247Y422627D01*
X510472Y420853D01*
X509218Y418679D01*
X508568Y416255D01*
Y413745D01*
X509218Y411321D01*
X510472Y409147D01*
X512247Y407373D01*
X514068Y406321D01*
X513728Y405051D01*
X482926D01*
X450882Y437094D01*
X451432Y439145D01*
Y441655D01*
X450782Y444079D01*
X449528Y446253D01*
X447753Y448027D01*
X445579Y449282D01*
X443155Y449932D01*
X440645D01*
X438221Y449282D01*
X436047Y448027D01*
X434272Y446253D01*
X433018Y444079D01*
X432368Y441655D01*
Y439145D01*
X433018Y436721D01*
X434272Y434547D01*
X436047Y432772D01*
X438221Y431518D01*
X440645Y430868D01*
X443155D01*
X445206Y431418D01*
X478425Y398199D01*
X479727Y397328D01*
X481263Y397023D01*
X510383D01*
X510869Y395850D01*
X510472Y395453D01*
X509218Y393279D01*
X508568Y390855D01*
Y388345D01*
X509218Y385921D01*
X510472Y383747D01*
X512247Y381973D01*
X514421Y380718D01*
X516845Y380068D01*
X519355D01*
X521779Y380718D01*
X523953Y381973D01*
X525728Y383747D01*
X526982Y385921D01*
X527632Y388345D01*
Y390855D01*
X526982Y393279D01*
X525728Y395453D01*
X525331Y395850D01*
X525817Y397023D01*
X613232D01*
X653094Y357162D01*
X654396Y356291D01*
X655932Y355986D01*
X863337D01*
X880986Y338337D01*
Y195000D01*
X881291Y193464D01*
X882162Y192162D01*
X890000Y184323D01*
Y15000D01*
X55900D01*
X55005Y15900D01*
X55448Y100986D01*
X190000D01*
X191536Y101291D01*
X192838Y102162D01*
X261663Y170986D01*
X555000D01*
X556536Y171291D01*
X557838Y172162D01*
X581663Y195986D01*
X665000D01*
X666536Y196291D01*
X667838Y197162D01*
X679812Y209136D01*
X680986Y208650D01*
Y184014D01*
X575000D01*
X573464Y183709D01*
X572162Y182838D01*
X567162Y177838D01*
X566291Y176536D01*
X565986Y175000D01*
Y104014D01*
X365000D01*
X363464Y103709D01*
X362162Y102838D01*
X308337Y49014D01*
X304266D01*
X303028Y51160D01*
X301160Y53028D01*
X298872Y54348D01*
X296321Y55032D01*
X293679D01*
X291128Y54348D01*
X288840Y53028D01*
X286972Y51160D01*
X285652Y48872D01*
X284968Y46321D01*
Y43679D01*
X285652Y41128D01*
X286972Y38840D01*
X288840Y36972D01*
X291128Y35652D01*
X293679Y34968D01*
X296321D01*
X298872Y35652D01*
X301160Y36972D01*
X303028Y38840D01*
X304266Y40986D01*
X310000D01*
X311536Y41291D01*
X312838Y42162D01*
X366663Y95986D01*
X567768D01*
X569304Y96291D01*
X570607Y97162D01*
X572838Y99393D01*
X573709Y100696D01*
X574014Y102232D01*
Y173337D01*
X576663Y175986D01*
X682768D01*
X684304Y176291D01*
X685607Y177162D01*
X687838Y179393D01*
X688709Y180696D01*
X689014Y182232D01*
Y212177D01*
X690392Y212973D01*
X692027Y214608D01*
X693184Y216610D01*
X693782Y218844D01*
Y221156D01*
X693184Y223390D01*
X692027Y225392D01*
X690392Y227027D01*
X688390Y228183D01*
X686156Y228782D01*
X683844D01*
X681610Y228183D01*
X679608Y227027D01*
X677973Y225392D01*
X676816Y223390D01*
X676218Y221156D01*
Y218844D01*
X676630Y217307D01*
X663337Y204014D01*
X580000D01*
X578464Y203709D01*
X577162Y202838D01*
X553337Y179014D01*
X260000D01*
X258464Y178709D01*
X257162Y177838D01*
X188337Y109014D01*
X56390D01*
X55494Y109915D01*
X58572Y700813D01*
X59581Y701584D01*
X60946Y701218D01*
X63654D01*
X66269Y701919D01*
X68613Y703272D01*
X70528Y705187D01*
X71881Y707531D01*
X72582Y710146D01*
Y712854D01*
X71881Y715469D01*
X70528Y717813D01*
X68613Y719728D01*
X66269Y721081D01*
X63654Y721782D01*
X60946D01*
X59812Y721478D01*
X58685Y722491D01*
X58703Y725904D01*
X59854Y726911D01*
X60946Y726618D01*
X63654D01*
X66269Y727319D01*
X68613Y728672D01*
X70528Y730587D01*
X71881Y732931D01*
X72582Y735546D01*
Y738254D01*
X71881Y740869D01*
X70528Y743213D01*
X68613Y745128D01*
X66269Y746481D01*
X63654Y747182D01*
X60946D01*
X59822Y746881D01*
X58816Y747656D01*
X58836Y751542D01*
X59846Y752313D01*
X60946Y752018D01*
X63654D01*
X66269Y752719D01*
X68613Y754072D01*
X70528Y755987D01*
X71881Y758331D01*
X72582Y760946D01*
Y763654D01*
X71881Y766269D01*
X70528Y768613D01*
X68613Y770528D01*
X66269Y771881D01*
X63654Y772582D01*
X60946D01*
X60116Y772359D01*
X58950Y773362D01*
X58968Y776907D01*
X59978Y777678D01*
X60946Y777418D01*
X63654D01*
X66269Y778119D01*
X68613Y779472D01*
X70528Y781387D01*
X71881Y783731D01*
X72582Y786346D01*
Y789054D01*
X71881Y791669D01*
X70528Y794013D01*
X68613Y795928D01*
X66269Y797281D01*
X63654Y797982D01*
X60946D01*
X60086Y797752D01*
X59081Y798527D01*
X59100Y802272D01*
X60110Y803042D01*
X60946Y802818D01*
X63654D01*
X66269Y803519D01*
X68613Y804872D01*
X70528Y806787D01*
X71881Y809131D01*
X72582Y811746D01*
Y814454D01*
X71881Y817069D01*
X70528Y819413D01*
X68613Y821328D01*
X66269Y822681D01*
X63654Y823382D01*
X60946D01*
X60219Y823187D01*
X59213Y823963D01*
X59233Y827636D01*
X60242Y828407D01*
X60946Y828218D01*
X63654D01*
X66269Y828919D01*
X68613Y830272D01*
X70528Y832187D01*
X71881Y834531D01*
X72582Y837146D01*
Y839854D01*
X71881Y842469D01*
X70528Y844813D01*
X68613Y846728D01*
X66269Y848081D01*
X63654Y848782D01*
X60946D01*
X60573Y848682D01*
X59347Y849668D01*
X59623Y902515D01*
X59667Y910986D01*
X75000D01*
X76536Y911291D01*
X77838Y912162D01*
X126663Y960986D01*
X435986D01*
Y883100D01*
X436291Y881564D01*
X437162Y880262D01*
X497139Y820284D01*
X496815Y819014D01*
X486663D01*
X482838Y822838D01*
X481536Y823709D01*
X480000Y824014D01*
X388782D01*
Y828782D01*
X371218D01*
Y811218D01*
X388782D01*
Y815986D01*
X478337D01*
X482162Y812162D01*
X483464Y811291D01*
X485000Y810986D01*
X497368D01*
Y806668D01*
X516432D01*
Y825732D01*
X503045D01*
X444014Y884763D01*
Y962768D01*
X443709Y964304D01*
X442838Y965607D01*
X440607Y967838D01*
X439304Y968709D01*
X437768Y969014D01*
X125000D01*
X123464Y968709D01*
X122162Y967838D01*
X73337Y919014D01*
X60609D01*
X59713Y919914D01*
X60000Y975000D01*
X890000D01*
Y810677D01*
D02*
G37*
G36*
Y737264D02*
Y663651D01*
X835055D01*
X834569Y664825D01*
X839325Y669580D01*
X840195Y670882D01*
X840500Y672419D01*
Y689424D01*
X888827Y737750D01*
X890000Y737264D01*
D02*
G37*
G36*
Y752664D02*
Y750277D01*
X833648Y693925D01*
X832778Y692623D01*
X832472Y691086D01*
Y674081D01*
X799955Y641564D01*
X798782Y642050D01*
Y653782D01*
X781218D01*
Y636218D01*
X792950D01*
X793436Y635045D01*
X762405Y604014D01*
X749045D01*
X748312Y605191D01*
X748325Y605284D01*
X749544Y606099D01*
X752838Y609393D01*
X753709Y610696D01*
X754014Y612232D01*
Y680986D01*
X817768D01*
X819304Y681291D01*
X820607Y682162D01*
X822838Y684393D01*
X823709Y685696D01*
X824014Y687232D01*
Y688337D01*
X888827Y753150D01*
X890000Y752664D01*
D02*
G37*
G36*
Y638251D02*
X856598D01*
X855062Y637946D01*
X854632Y637658D01*
X853822Y638644D01*
X858863Y643686D01*
X890000D01*
Y638251D01*
D02*
G37*
G36*
Y651714D02*
X857201D01*
X855665Y651409D01*
X854362Y650538D01*
X777838Y574014D01*
X753680D01*
X753194Y575187D01*
X833629Y655623D01*
X890000D01*
Y651714D01*
D02*
G37*
G36*
Y527780D02*
X866468D01*
Y500716D01*
X890000D01*
Y485420D01*
X888827Y484935D01*
X888309Y485452D01*
X885223Y487234D01*
X881781Y488156D01*
X878219D01*
X874777Y487234D01*
X871691Y485452D01*
X869172Y482933D01*
X867390Y479847D01*
X866468Y476405D01*
Y472842D01*
X867390Y469401D01*
X869172Y466315D01*
X871691Y463796D01*
X874777Y462014D01*
X878219Y461092D01*
X881781D01*
X885223Y462014D01*
X888309Y463796D01*
X888827Y464314D01*
X890000Y463828D01*
Y459014D01*
X821663D01*
X802106Y478571D01*
Y501908D01*
X801801Y503444D01*
X800931Y504746D01*
X791941Y513736D01*
X792032Y514074D01*
Y515926D01*
X791553Y517714D01*
X790627Y519318D01*
X789318Y520627D01*
X787714Y521553D01*
X785926Y522032D01*
X784074D01*
X782286Y521553D01*
X780682Y520627D01*
X779373Y519318D01*
X778447Y517714D01*
X777968Y515926D01*
Y514074D01*
X778447Y512286D01*
X779373Y510682D01*
X780682Y509373D01*
X782286Y508447D01*
X784074Y507968D01*
X785926D01*
X786264Y508059D01*
X794078Y500245D01*
Y479996D01*
X792905Y479510D01*
X770077Y502338D01*
Y524640D01*
X813901Y568465D01*
X814716Y569683D01*
X814809Y569696D01*
X815986Y568963D01*
Y480802D01*
X815682Y480627D01*
X814373Y479318D01*
X813447Y477714D01*
X812968Y475926D01*
Y474074D01*
X813447Y472286D01*
X814373Y470682D01*
X815682Y469373D01*
X817286Y468447D01*
X819074Y467968D01*
X820926D01*
X822714Y468447D01*
X824318Y469373D01*
X825627Y470682D01*
X826553Y472286D01*
X827032Y474074D01*
Y475926D01*
X826553Y477714D01*
X825627Y479318D01*
X824318Y480627D01*
X824014Y480802D01*
Y571662D01*
X825320Y572968D01*
X825926D01*
X827714Y573447D01*
X829318Y574373D01*
X830627Y575682D01*
X831553Y577286D01*
X832032Y579074D01*
Y580926D01*
X831553Y582714D01*
X830627Y584318D01*
X829318Y585627D01*
X827714Y586553D01*
X825926Y587032D01*
X824074D01*
X822286Y586553D01*
X820682Y585627D01*
X819373Y584318D01*
X818447Y582714D01*
X817968Y580926D01*
Y579074D01*
X818413Y577415D01*
X817162Y576163D01*
X816347Y574944D01*
X816254Y574932D01*
X815077Y575665D01*
Y587039D01*
X858261Y630223D01*
X890000D01*
Y527780D01*
D02*
G37*
%LPC*%
G36*
X406721Y945032D02*
X404079D01*
X401528Y944348D01*
X399240Y943028D01*
X397372Y941160D01*
X396052Y938872D01*
X395368Y936321D01*
Y933679D01*
X396052Y931128D01*
X397372Y928840D01*
X399240Y926972D01*
X401528Y925652D01*
X404079Y924968D01*
X406721D01*
X409272Y925652D01*
X411560Y926972D01*
X413428Y928840D01*
X414748Y931128D01*
X415432Y933679D01*
Y936321D01*
X414748Y938872D01*
X413428Y941160D01*
X411560Y943028D01*
X409272Y944348D01*
X406721Y945032D01*
D02*
G37*
G36*
X782532Y948107D02*
X758468D01*
Y924043D01*
X782532D01*
Y948107D01*
D02*
G37*
G36*
X746584D02*
X743416D01*
X740356Y947287D01*
X737612Y945703D01*
X735372Y943463D01*
X733788Y940719D01*
X732968Y937659D01*
Y934491D01*
X733788Y931431D01*
X735372Y928687D01*
X737612Y926447D01*
X740356Y924863D01*
X743416Y924043D01*
X746584D01*
X749644Y924863D01*
X752388Y926447D01*
X754628Y928687D01*
X756212Y931431D01*
X757032Y934491D01*
Y937659D01*
X756212Y940719D01*
X754628Y943463D01*
X752388Y945703D01*
X749644Y947287D01*
X746584Y948107D01*
D02*
G37*
G36*
X721084D02*
X717916D01*
X714856Y947287D01*
X712112Y945703D01*
X709872Y943463D01*
X708288Y940719D01*
X707468Y937659D01*
Y934491D01*
X708288Y931431D01*
X709872Y928687D01*
X712112Y926447D01*
X714856Y924863D01*
X717916Y924043D01*
X721084D01*
X724144Y924863D01*
X726888Y926447D01*
X729128Y928687D01*
X730712Y931431D01*
X731532Y934491D01*
Y937659D01*
X730712Y940719D01*
X729128Y943463D01*
X726888Y945703D01*
X724144Y947287D01*
X721084Y948107D01*
D02*
G37*
G36*
X288557Y918032D02*
X286443D01*
X284400Y917485D01*
X282568Y916427D01*
X281073Y914932D01*
X280015Y913100D01*
X279468Y911057D01*
Y908943D01*
X280015Y906900D01*
X281073Y905068D01*
X282568Y903573D01*
X284400Y902515D01*
X286443Y901968D01*
X288557D01*
X290600Y902515D01*
X292432Y903573D01*
X293927Y905068D01*
X294985Y906900D01*
X295532Y908943D01*
Y911057D01*
X294985Y913100D01*
X293927Y914932D01*
X292432Y916427D01*
X290600Y917485D01*
X288557Y918032D01*
D02*
G37*
G36*
X270532D02*
X254468D01*
Y901968D01*
X270532D01*
Y918032D01*
D02*
G37*
G36*
X296232Y858532D02*
X279168D01*
Y841468D01*
X296232D01*
Y858532D01*
D02*
G37*
G36*
X263423D02*
X261177D01*
X259007Y857951D01*
X257061Y856827D01*
X255473Y855239D01*
X254349Y853293D01*
X253768Y851123D01*
Y848877D01*
X254349Y846707D01*
X255473Y844761D01*
X257061Y843173D01*
X259007Y842049D01*
X261177Y841468D01*
X263423D01*
X265593Y842049D01*
X267539Y843173D01*
X269127Y844761D01*
X270251Y846707D01*
X270832Y848877D01*
Y851123D01*
X270251Y853293D01*
X269127Y855239D01*
X267539Y856827D01*
X265593Y857951D01*
X263423Y858532D01*
D02*
G37*
G36*
X97982Y848782D02*
X77418D01*
Y828218D01*
X97982D01*
Y848782D01*
D02*
G37*
G36*
X751584Y837032D02*
X748416D01*
X745356Y836212D01*
X742612Y834628D01*
X740372Y832388D01*
X738788Y829644D01*
X737968Y826584D01*
Y823416D01*
X738788Y820356D01*
X740372Y817612D01*
X742612Y815372D01*
X745356Y813788D01*
X748416Y812968D01*
X751584D01*
X754644Y813788D01*
X757388Y815372D01*
X759628Y817612D01*
X761212Y820356D01*
X762032Y823416D01*
Y826584D01*
X761212Y829644D01*
X759628Y832388D01*
X757388Y834628D01*
X754644Y836212D01*
X751584Y837032D01*
D02*
G37*
G36*
X726084D02*
X722916D01*
X719856Y836212D01*
X717112Y834628D01*
X714872Y832388D01*
X713288Y829644D01*
X712468Y826584D01*
Y823416D01*
X713288Y820356D01*
X714872Y817612D01*
X717112Y815372D01*
X719856Y813788D01*
X722916Y812968D01*
X726084D01*
X729144Y813788D01*
X731888Y815372D01*
X734128Y817612D01*
X735712Y820356D01*
X736532Y823416D01*
Y826584D01*
X735712Y829644D01*
X734128Y832388D01*
X731888Y834628D01*
X729144Y836212D01*
X726084Y837032D01*
D02*
G37*
G36*
X584355Y825732D02*
X581845D01*
X579421Y825082D01*
X577247Y823828D01*
X575472Y822053D01*
X574218Y819879D01*
X573568Y817455D01*
Y814945D01*
X574218Y812521D01*
X575472Y810347D01*
X577247Y808572D01*
X579421Y807318D01*
X581845Y806668D01*
X584355D01*
X586779Y807318D01*
X588953Y808572D01*
X590728Y810347D01*
X591982Y812521D01*
X592632Y814945D01*
Y817455D01*
X591982Y819879D01*
X590728Y822053D01*
X588953Y823828D01*
X586779Y825082D01*
X584355Y825732D01*
D02*
G37*
G36*
X89054Y823382D02*
X86346D01*
X83731Y822681D01*
X81387Y821328D01*
X79472Y819413D01*
X78119Y817069D01*
X77418Y814454D01*
Y811746D01*
X78119Y809131D01*
X79472Y806787D01*
X81387Y804872D01*
X83731Y803519D01*
X86346Y802818D01*
X89054D01*
X91669Y803519D01*
X94013Y804872D01*
X95928Y806787D01*
X97281Y809131D01*
X97982Y811746D01*
Y814454D01*
X97281Y817069D01*
X95928Y819413D01*
X94013Y821328D01*
X91669Y822681D01*
X89054Y823382D01*
D02*
G37*
G36*
X508155Y800332D02*
X505645D01*
X503221Y799682D01*
X501047Y798428D01*
X499272Y796653D01*
X498018Y794479D01*
X497368Y792055D01*
Y789545D01*
X498018Y787121D01*
X499272Y784947D01*
X501047Y783173D01*
X503221Y781918D01*
X505645Y781268D01*
X508155D01*
X510579Y781918D01*
X512753Y783173D01*
X514528Y784947D01*
X515782Y787121D01*
X516432Y789545D01*
Y792055D01*
X515782Y794479D01*
X514528Y796653D01*
X512753Y798428D01*
X510579Y799682D01*
X508155Y800332D01*
D02*
G37*
G36*
X584355D02*
X581845D01*
X579421Y799682D01*
X577247Y798428D01*
X575472Y796653D01*
X574218Y794479D01*
X573568Y792055D01*
Y789545D01*
X574218Y787121D01*
X575472Y784947D01*
X577247Y783173D01*
X579068Y782121D01*
X578728Y780851D01*
X565240D01*
X564335Y782418D01*
X563026Y783727D01*
X561422Y784653D01*
X559634Y785132D01*
X557782D01*
X555994Y784653D01*
X554390Y783727D01*
X553081Y782418D01*
X552155Y780814D01*
X551676Y779026D01*
Y777174D01*
X552155Y775386D01*
X553081Y773782D01*
X554390Y772473D01*
X555994Y771547D01*
X557782Y771068D01*
X559634D01*
X561422Y771547D01*
X563026Y772473D01*
X563420Y772868D01*
X563645Y772823D01*
X575383D01*
X575869Y771649D01*
X575472Y771253D01*
X574218Y769079D01*
X573568Y766655D01*
Y764145D01*
X574218Y761721D01*
X575472Y759547D01*
X577247Y757773D01*
X579421Y756518D01*
X581845Y755868D01*
X584355D01*
X586779Y756518D01*
X588953Y757773D01*
X589716Y758536D01*
X590986Y758009D01*
Y747391D01*
X589716Y746864D01*
X588953Y747627D01*
X586779Y748882D01*
X584355Y749532D01*
X581845D01*
X579421Y748882D01*
X577247Y747627D01*
X575472Y745853D01*
X574218Y743679D01*
X573568Y741255D01*
Y738745D01*
X574118Y736694D01*
X551525Y714102D01*
X550655Y712800D01*
X550349Y711264D01*
Y653258D01*
X526105Y629014D01*
X372534D01*
X371827Y630239D01*
X370239Y631827D01*
X368293Y632951D01*
X366123Y633532D01*
X363877D01*
X361707Y632951D01*
X359761Y631827D01*
X358173Y630239D01*
X357049Y628293D01*
X356468Y626123D01*
Y623877D01*
X357049Y621707D01*
X358173Y619761D01*
X359761Y618173D01*
X361707Y617049D01*
X363877Y616468D01*
X366123D01*
X368293Y617049D01*
X370239Y618173D01*
X371827Y619761D01*
X372534Y620986D01*
X527768D01*
X529304Y621291D01*
X530607Y622162D01*
X557202Y648757D01*
X558072Y650059D01*
X558378Y651595D01*
Y709601D01*
X579794Y731018D01*
X581845Y730468D01*
X584355D01*
X586779Y731118D01*
X588953Y732373D01*
X589716Y733136D01*
X590986Y732609D01*
Y728163D01*
X586406Y723583D01*
X584355Y724132D01*
X581845D01*
X579421Y723482D01*
X577247Y722227D01*
X575472Y720453D01*
X574218Y718279D01*
X573568Y715855D01*
Y713345D01*
X574218Y710921D01*
X575472Y708747D01*
X577247Y706973D01*
X579421Y705718D01*
X581845Y705068D01*
X584355D01*
X586779Y705718D01*
X588953Y706973D01*
X590728Y708747D01*
X591982Y710921D01*
X592632Y713345D01*
Y715855D01*
X592082Y717906D01*
X597838Y723662D01*
X598709Y724964D01*
X599014Y726500D01*
Y772768D01*
X598709Y774304D01*
X597838Y775607D01*
X593770Y779675D01*
X592467Y780546D01*
X590931Y780851D01*
X587472D01*
X587132Y782121D01*
X588953Y783173D01*
X590728Y784947D01*
X591982Y787121D01*
X592632Y789545D01*
Y792055D01*
X591982Y794479D01*
X590728Y796653D01*
X588953Y798428D01*
X586779Y799682D01*
X584355Y800332D01*
D02*
G37*
G36*
X89054Y797982D02*
X86346D01*
X83731Y797281D01*
X81387Y795928D01*
X79472Y794013D01*
X78119Y791669D01*
X77418Y789054D01*
Y786346D01*
X78119Y783731D01*
X79472Y781387D01*
X81387Y779472D01*
X83731Y778119D01*
X86346Y777418D01*
X89054D01*
X91669Y778119D01*
X94013Y779472D01*
X95928Y781387D01*
X97281Y783731D01*
X97982Y786346D01*
Y789054D01*
X97281Y791669D01*
X95928Y794013D01*
X94013Y795928D01*
X91669Y797281D01*
X89054Y797982D01*
D02*
G37*
G36*
X296232Y788532D02*
X279168D01*
Y771468D01*
X296232D01*
Y788532D01*
D02*
G37*
G36*
X263423D02*
X261177D01*
X259007Y787951D01*
X257061Y786827D01*
X255473Y785239D01*
X254349Y783293D01*
X253768Y781123D01*
Y778877D01*
X254349Y776707D01*
X255473Y774761D01*
X257061Y773173D01*
X259007Y772049D01*
X261177Y771468D01*
X263423D01*
X265593Y772049D01*
X267539Y773173D01*
X269127Y774761D01*
X270251Y776707D01*
X270832Y778877D01*
Y781123D01*
X270251Y783293D01*
X269127Y785239D01*
X267539Y786827D01*
X265593Y787951D01*
X263423Y788532D01*
D02*
G37*
G36*
X390032Y945032D02*
X369968D01*
Y924968D01*
X375986D01*
Y891663D01*
X332162Y847838D01*
X331291Y846536D01*
X330986Y845000D01*
Y760000D01*
X331291Y758464D01*
X332162Y757162D01*
X362162Y727162D01*
X363464Y726291D01*
X365000Y725986D01*
X372177D01*
X372973Y724608D01*
X374608Y722973D01*
X376610Y721816D01*
X378844Y721218D01*
X381156D01*
X383390Y721816D01*
X385392Y722973D01*
X387027Y724608D01*
X387823Y725986D01*
X405000D01*
X406536Y726291D01*
X407838Y727162D01*
X442063Y761386D01*
X498211D01*
X499272Y759547D01*
X501047Y757773D01*
X503221Y756518D01*
X505645Y755868D01*
X508155D01*
X510579Y756518D01*
X512753Y757773D01*
X514528Y759547D01*
X515782Y761721D01*
X516432Y764145D01*
Y766655D01*
X515782Y769079D01*
X514528Y771253D01*
X512753Y773027D01*
X510579Y774282D01*
X508155Y774932D01*
X505645D01*
X503221Y774282D01*
X501047Y773027D01*
X499272Y771253D01*
X498211Y769414D01*
X440400D01*
X438864Y769109D01*
X437562Y768238D01*
X403337Y734014D01*
X387823D01*
X387027Y735392D01*
X385392Y737027D01*
X383390Y738184D01*
X381156Y738782D01*
X378844D01*
X376610Y738184D01*
X374608Y737027D01*
X372973Y735392D01*
X372177Y734014D01*
X366663D01*
X339014Y761663D01*
Y843337D01*
X382838Y887162D01*
X383709Y888464D01*
X384014Y890000D01*
Y924968D01*
X390032D01*
Y945032D01*
D02*
G37*
G36*
X89054Y772582D02*
X86346D01*
X83731Y771881D01*
X81387Y770528D01*
X79472Y768613D01*
X78119Y766269D01*
X77418Y763654D01*
Y760946D01*
X78119Y758331D01*
X79472Y755987D01*
X81387Y754072D01*
X83731Y752719D01*
X86346Y752018D01*
X89054D01*
X91669Y752719D01*
X94013Y754072D01*
X95928Y755987D01*
X97281Y758331D01*
X97982Y760946D01*
Y763654D01*
X97281Y766269D01*
X95928Y768613D01*
X94013Y770528D01*
X91669Y771881D01*
X89054Y772582D01*
D02*
G37*
G36*
X690926Y877032D02*
X689074D01*
X687286Y876553D01*
X685682Y875627D01*
X684373Y874318D01*
X683447Y872714D01*
X682968Y870926D01*
Y869074D01*
X683447Y867286D01*
X684373Y865682D01*
X685682Y864373D01*
X687286Y863447D01*
X689074Y862968D01*
X690926D01*
X692714Y863447D01*
X694318Y864373D01*
X695627Y865682D01*
X695802Y865986D01*
X754405D01*
X782186Y838205D01*
X781700Y837032D01*
X763468D01*
Y812968D01*
X787532D01*
Y831200D01*
X788705Y831686D01*
X850986Y769405D01*
Y746663D01*
X846264Y741941D01*
X845926Y742032D01*
X844074D01*
X842286Y741553D01*
X840682Y740627D01*
X839373Y739318D01*
X838447Y737714D01*
X837968Y735926D01*
Y734074D01*
X838447Y732286D01*
X839373Y730682D01*
X840682Y729373D01*
X842286Y728447D01*
X844074Y727968D01*
X845926D01*
X847714Y728447D01*
X849318Y729373D01*
X850627Y730682D01*
X851553Y732286D01*
X852032Y734074D01*
Y735926D01*
X851941Y736264D01*
X857838Y742162D01*
X858709Y743464D01*
X859014Y745000D01*
Y771068D01*
X858709Y772604D01*
X857838Y773906D01*
X758906Y872838D01*
X757604Y873709D01*
X756068Y874014D01*
X695802D01*
X695627Y874318D01*
X694318Y875627D01*
X692714Y876553D01*
X690926Y877032D01*
D02*
G37*
G36*
X508155Y749532D02*
X505645D01*
X503221Y748882D01*
X501047Y747627D01*
X499272Y745853D01*
X498018Y743679D01*
X497368Y741255D01*
Y738745D01*
X498018Y736321D01*
X499272Y734147D01*
X501047Y732373D01*
X503221Y731118D01*
X505645Y730468D01*
X508155D01*
X510579Y731118D01*
X512753Y732373D01*
X514528Y734147D01*
X515782Y736321D01*
X516432Y738745D01*
Y741255D01*
X515782Y743679D01*
X514528Y745853D01*
X512753Y747627D01*
X510579Y748882D01*
X508155Y749532D01*
D02*
G37*
G36*
X89054Y747182D02*
X86346D01*
X83731Y746481D01*
X81387Y745128D01*
X79472Y743213D01*
X78119Y740869D01*
X77418Y738254D01*
Y735546D01*
X78119Y732931D01*
X79472Y730587D01*
X81387Y728672D01*
X83731Y727319D01*
X86346Y726618D01*
X89054D01*
X91669Y727319D01*
X94013Y728672D01*
X95928Y730587D01*
X97281Y732931D01*
X97982Y735546D01*
Y738254D01*
X97281Y740869D01*
X95928Y743213D01*
X94013Y745128D01*
X91669Y746481D01*
X89054Y747182D01*
D02*
G37*
G36*
X552732Y945032D02*
X532668D01*
Y924968D01*
X538686D01*
Y902300D01*
X538991Y900764D01*
X539862Y899462D01*
X547162Y892162D01*
X548464Y891291D01*
X550000Y890986D01*
X593337D01*
X730986Y753337D01*
Y630802D01*
X730682Y630627D01*
X729373Y629318D01*
X728447Y627714D01*
X727968Y625926D01*
Y624074D01*
X728447Y622286D01*
X729373Y620682D01*
X730682Y619373D01*
X732286Y618447D01*
X734074Y617968D01*
X735926D01*
X737714Y618447D01*
X739318Y619373D01*
X740627Y620682D01*
X741553Y622286D01*
X742032Y624074D01*
Y625926D01*
X741553Y627714D01*
X740627Y629318D01*
X739318Y630627D01*
X739014Y630802D01*
Y729245D01*
X740284Y729771D01*
X740682Y729373D01*
X742286Y728447D01*
X744074Y727968D01*
X745926D01*
X747714Y728447D01*
X749318Y729373D01*
X750627Y730682D01*
X750802Y730986D01*
X782177D01*
X782973Y729608D01*
X784608Y727973D01*
X786610Y726816D01*
X788844Y726218D01*
X791156D01*
X793390Y726816D01*
X795392Y727973D01*
X797027Y729608D01*
X798184Y731610D01*
X798782Y733844D01*
Y736156D01*
X798184Y738390D01*
X797027Y740392D01*
X795392Y742027D01*
X793390Y743184D01*
X791156Y743782D01*
X788844D01*
X786610Y743184D01*
X784608Y742027D01*
X782973Y740392D01*
X782177Y739014D01*
X750802D01*
X750627Y739318D01*
X749318Y740627D01*
X747714Y741553D01*
X745926Y742032D01*
X744074D01*
X742286Y741553D01*
X740682Y740627D01*
X740284Y740229D01*
X739014Y740755D01*
Y755000D01*
X738709Y756536D01*
X737838Y757838D01*
X597839Y897838D01*
X596536Y898709D01*
X595000Y899014D01*
X551663D01*
X546714Y903963D01*
Y924968D01*
X552732D01*
Y945032D01*
D02*
G37*
G36*
X676156Y743782D02*
X673844D01*
X671610Y743184D01*
X669608Y742027D01*
X667973Y740392D01*
X666816Y738390D01*
X666218Y736156D01*
Y733844D01*
X666816Y731610D01*
X667973Y729608D01*
X669608Y727973D01*
X671610Y726816D01*
X673844Y726218D01*
X676156D01*
X678390Y726816D01*
X680392Y727973D01*
X682027Y729608D01*
X683184Y731610D01*
X683782Y733844D01*
Y736156D01*
X683184Y738390D01*
X682027Y740392D01*
X680392Y742027D01*
X678390Y743184D01*
X676156Y743782D01*
D02*
G37*
G36*
X508155Y724132D02*
X505645D01*
X503221Y723482D01*
X501047Y722227D01*
X499272Y720453D01*
X498018Y718279D01*
X497368Y715855D01*
Y713345D01*
X498018Y710921D01*
X499272Y708747D01*
X501047Y706973D01*
X503221Y705718D01*
X505645Y705068D01*
X508155D01*
X510579Y705718D01*
X512753Y706973D01*
X514528Y708747D01*
X515782Y710921D01*
X516432Y713345D01*
Y715855D01*
X515782Y718279D01*
X514528Y720453D01*
X512753Y722227D01*
X510579Y723482D01*
X508155Y724132D01*
D02*
G37*
G36*
X89054Y721782D02*
X86346D01*
X83731Y721081D01*
X81387Y719728D01*
X79472Y717813D01*
X78119Y715469D01*
X77418Y712854D01*
Y710146D01*
X78119Y707531D01*
X79472Y705187D01*
X81387Y703272D01*
X83731Y701919D01*
X86346Y701218D01*
X89054D01*
X91669Y701919D01*
X94013Y703272D01*
X95928Y705187D01*
X97281Y707531D01*
X97982Y710146D01*
Y712854D01*
X97281Y715469D01*
X95928Y717813D01*
X94013Y719728D01*
X91669Y721081D01*
X89054Y721782D01*
D02*
G37*
G36*
X605926Y872032D02*
X604074D01*
X602286Y871553D01*
X600682Y870627D01*
X599373Y869318D01*
X598447Y867714D01*
X597968Y865926D01*
Y864074D01*
X598447Y862286D01*
X599373Y860682D01*
X600682Y859373D01*
X600986Y859198D01*
Y712763D01*
X586406Y698183D01*
X584355Y698732D01*
X581845D01*
X579421Y698082D01*
X577247Y696827D01*
X575472Y695053D01*
X574218Y692879D01*
X573568Y690455D01*
Y687945D01*
X574218Y685521D01*
X575472Y683347D01*
X577247Y681572D01*
X579421Y680318D01*
X581845Y679668D01*
X584355D01*
X586779Y680318D01*
X588953Y681572D01*
X590728Y683347D01*
X591982Y685521D01*
X592632Y687945D01*
Y690455D01*
X592082Y692506D01*
X607838Y708262D01*
X608709Y709564D01*
X609014Y711100D01*
Y859198D01*
X609318Y859373D01*
X610627Y860682D01*
X611553Y862286D01*
X612032Y864074D01*
Y865926D01*
X611553Y867714D01*
X610627Y869318D01*
X609318Y870627D01*
X607714Y871553D01*
X605926Y872032D01*
D02*
G37*
G36*
X518621Y945032D02*
X515979D01*
X513428Y944348D01*
X511140Y943028D01*
X509272Y941160D01*
X507952Y938872D01*
X507268Y936321D01*
Y933679D01*
X507952Y931128D01*
X509272Y928840D01*
X511140Y926972D01*
X513286Y925734D01*
Y907700D01*
X513591Y906164D01*
X514462Y904862D01*
X535986Y883337D01*
Y693895D01*
X535305Y693214D01*
X515589D01*
X514528Y695053D01*
X512753Y696827D01*
X510579Y698082D01*
X508155Y698732D01*
X505645D01*
X503221Y698082D01*
X501047Y696827D01*
X499272Y695053D01*
X498018Y692879D01*
X497368Y690455D01*
Y687945D01*
X498018Y685521D01*
X499272Y683347D01*
X501047Y681572D01*
X503221Y680318D01*
X505645Y679668D01*
X508155D01*
X510579Y680318D01*
X512753Y681572D01*
X514528Y683347D01*
X515589Y685186D01*
X536968D01*
X538504Y685491D01*
X539807Y686362D01*
X542838Y689393D01*
X543709Y690696D01*
X544014Y692232D01*
Y885000D01*
X543709Y886536D01*
X542838Y887838D01*
X521314Y909363D01*
Y925734D01*
X523460Y926972D01*
X525328Y928840D01*
X526648Y931128D01*
X527332Y933679D01*
Y936321D01*
X526648Y938872D01*
X525328Y941160D01*
X523460Y943028D01*
X521172Y944348D01*
X518621Y945032D01*
D02*
G37*
G36*
X296232Y703532D02*
X279168D01*
Y686468D01*
X296232D01*
Y703532D01*
D02*
G37*
G36*
X263423D02*
X261177D01*
X259007Y702951D01*
X257061Y701827D01*
X255473Y700239D01*
X254349Y698293D01*
X253768Y696123D01*
Y693877D01*
X254349Y691707D01*
X255473Y689761D01*
X257061Y688173D01*
X259007Y687049D01*
X261177Y686468D01*
X263423D01*
X265593Y687049D01*
X267539Y688173D01*
X269127Y689761D01*
X270251Y691707D01*
X270832Y693877D01*
Y696123D01*
X270251Y698293D01*
X269127Y700239D01*
X267539Y701827D01*
X265593Y702951D01*
X263423Y703532D01*
D02*
G37*
G36*
X508155Y673332D02*
X505645D01*
X503221Y672682D01*
X501047Y671428D01*
X499272Y669653D01*
X498018Y667479D01*
X497368Y665055D01*
Y662545D01*
X498018Y660121D01*
X499272Y657947D01*
X501047Y656172D01*
X503221Y654918D01*
X505645Y654268D01*
X508155D01*
X510579Y654918D01*
X512753Y656172D01*
X514528Y657947D01*
X515782Y660121D01*
X516432Y662545D01*
Y665055D01*
X515782Y667479D01*
X514528Y669653D01*
X512753Y671428D01*
X510579Y672682D01*
X508155Y673332D01*
D02*
G37*
G36*
X615926Y652032D02*
X614074D01*
X612286Y651553D01*
X610682Y650627D01*
X609373Y649318D01*
X609198Y649014D01*
X595000D01*
X593464Y648709D01*
X592162Y647838D01*
X561264Y616941D01*
X560926Y617032D01*
X559074D01*
X557286Y616553D01*
X555682Y615627D01*
X554373Y614318D01*
X553447Y612714D01*
X552968Y610926D01*
Y609074D01*
X553447Y607286D01*
X554373Y605682D01*
X555682Y604373D01*
X557286Y603447D01*
X559074Y602968D01*
X560926D01*
X562714Y603447D01*
X564318Y604373D01*
X565627Y605682D01*
X566553Y607286D01*
X567032Y609074D01*
Y610926D01*
X566941Y611264D01*
X596663Y640986D01*
X609198D01*
X609373Y640682D01*
X610682Y639373D01*
X612286Y638447D01*
X614074Y637968D01*
X615926D01*
X617714Y638447D01*
X619318Y639373D01*
X620627Y640682D01*
X621553Y642286D01*
X622032Y644074D01*
Y645926D01*
X621553Y647714D01*
X620627Y649318D01*
X619318Y650627D01*
X617714Y651553D01*
X615926Y652032D01*
D02*
G37*
G36*
X373532Y653532D02*
X356468D01*
Y636468D01*
X373532D01*
Y653532D01*
D02*
G37*
G36*
X584355Y673332D02*
X581845D01*
X579421Y672682D01*
X577247Y671428D01*
X575472Y669653D01*
X574218Y667479D01*
X573568Y665055D01*
Y662545D01*
X574218Y660121D01*
X575472Y657947D01*
X577247Y656172D01*
X579421Y654918D01*
X581845Y654268D01*
X584355D01*
X586779Y654918D01*
X588953Y656172D01*
X590728Y657947D01*
X591789Y659786D01*
X654537D01*
X666218Y648105D01*
Y636218D01*
X683782D01*
Y653782D01*
X671895D01*
X659038Y666638D01*
X657736Y667509D01*
X656200Y667814D01*
X591789D01*
X590728Y669653D01*
X588953Y671428D01*
X586779Y672682D01*
X584355Y673332D01*
D02*
G37*
G36*
X288557Y623032D02*
X286443D01*
X284400Y622485D01*
X282568Y621427D01*
X281073Y619932D01*
X280015Y618100D01*
X279468Y616057D01*
Y613943D01*
X280015Y611900D01*
X281073Y610068D01*
X282568Y608573D01*
X284400Y607515D01*
X286443Y606968D01*
X288557D01*
X290600Y607515D01*
X292432Y608573D01*
X293927Y610068D01*
X294985Y611900D01*
X295532Y613943D01*
Y616057D01*
X294985Y618100D01*
X293927Y619932D01*
X292432Y621427D01*
X290600Y622485D01*
X288557Y623032D01*
D02*
G37*
G36*
X270532D02*
X254468D01*
Y606968D01*
X270532D01*
Y623032D01*
D02*
G37*
G36*
X675926Y782032D02*
X674074D01*
X672286Y781553D01*
X670682Y780627D01*
X669373Y779318D01*
X668447Y777714D01*
X667968Y775926D01*
Y774074D01*
X668447Y772286D01*
X669373Y770682D01*
X670682Y769373D01*
X672286Y768447D01*
X674074Y767968D01*
X675926D01*
X677714Y768447D01*
X679318Y769373D01*
X680216Y770271D01*
X684052D01*
X710986Y743337D01*
Y624014D01*
X588338D01*
X586801Y623709D01*
X585499Y622838D01*
X546675Y584014D01*
X425802D01*
X425627Y584318D01*
X424318Y585627D01*
X422714Y586553D01*
X420926Y587032D01*
X419074D01*
X417286Y586553D01*
X415682Y585627D01*
X414373Y584318D01*
X413447Y582714D01*
X412968Y580926D01*
Y579074D01*
X413447Y577286D01*
X414373Y575682D01*
X415682Y574373D01*
X417286Y573447D01*
X419074Y572968D01*
X420926D01*
X422714Y573447D01*
X424318Y574373D01*
X425627Y575682D01*
X425802Y575986D01*
X548338D01*
X549874Y576291D01*
X551176Y577162D01*
X590000Y615986D01*
X712768D01*
X714304Y616291D01*
X715607Y617162D01*
X717838Y619393D01*
X718709Y620696D01*
X719014Y622232D01*
Y745000D01*
X718709Y746536D01*
X717838Y747838D01*
X688553Y777123D01*
X687251Y777994D01*
X685715Y778299D01*
X681215D01*
X680627Y779318D01*
X679318Y780627D01*
X677714Y781553D01*
X675926Y782032D01*
D02*
G37*
G36*
X293532Y548532D02*
X276468D01*
Y531468D01*
X293532D01*
Y548532D01*
D02*
G37*
G36*
X266123D02*
X263877D01*
X261707Y547951D01*
X259761Y546827D01*
X258173Y545239D01*
X257050Y543293D01*
X256468Y541123D01*
Y538877D01*
X257050Y536707D01*
X258173Y534761D01*
X259761Y533173D01*
X261707Y532049D01*
X263877Y531468D01*
X266123D01*
X268293Y532049D01*
X270239Y533173D01*
X271827Y534761D01*
X272951Y536707D01*
X273532Y538877D01*
Y541123D01*
X272951Y543293D01*
X271827Y545239D01*
X270239Y546827D01*
X268293Y547951D01*
X266123Y548532D01*
D02*
G37*
G36*
X136782Y557968D02*
X133218D01*
X129777Y557046D01*
X126691Y555264D01*
X124172Y552745D01*
X122390Y549659D01*
X121468Y546217D01*
Y542654D01*
X122390Y539213D01*
X124172Y536127D01*
X126691Y533608D01*
X129777Y531826D01*
X133218Y530904D01*
X136782D01*
X140223Y531826D01*
X143309Y533608D01*
X145828Y536127D01*
X147610Y539213D01*
X148532Y542654D01*
Y546217D01*
X147610Y549659D01*
X145828Y552745D01*
X143309Y555264D01*
X140223Y557046D01*
X136782Y557968D01*
D02*
G37*
G36*
X636057Y538032D02*
X633943D01*
X631900Y537485D01*
X630068Y536427D01*
X628573Y534932D01*
X627515Y533100D01*
X626968Y531057D01*
Y528943D01*
X627515Y526900D01*
X628573Y525068D01*
X630068Y523573D01*
X631900Y522515D01*
X633943Y521968D01*
X636057D01*
X638100Y522515D01*
X639932Y523573D01*
X641427Y525068D01*
X642485Y526900D01*
X643032Y528943D01*
Y531057D01*
X642485Y533100D01*
X641427Y534932D01*
X639932Y536427D01*
X638100Y537485D01*
X636057Y538032D01*
D02*
G37*
G36*
X136782Y518344D02*
X133218D01*
X129777Y517422D01*
X126691Y515640D01*
X124172Y513121D01*
X122390Y510035D01*
X121468Y506594D01*
Y503031D01*
X122390Y499589D01*
X124172Y496503D01*
X126691Y493984D01*
X129777Y492202D01*
X133218Y491280D01*
X136782D01*
X140223Y492202D01*
X143309Y493984D01*
X145828Y496503D01*
X147610Y499589D01*
X148532Y503031D01*
Y506594D01*
X147610Y510035D01*
X145828Y513121D01*
X143309Y515640D01*
X140223Y517422D01*
X136782Y518344D01*
D02*
G37*
G36*
X381123Y498532D02*
X378877D01*
X376707Y497951D01*
X374761Y496827D01*
X373173Y495239D01*
X372049Y493293D01*
X371468Y491123D01*
Y488877D01*
X372049Y486707D01*
X373173Y484761D01*
X374761Y483173D01*
X376707Y482049D01*
X378877Y481468D01*
X381123D01*
X383293Y482049D01*
X385239Y483173D01*
X386827Y484761D01*
X387951Y486707D01*
X388532Y488877D01*
Y491123D01*
X387951Y493293D01*
X386827Y495239D01*
X385239Y496827D01*
X383293Y497951D01*
X381123Y498532D01*
D02*
G37*
G36*
X388532Y478532D02*
X371468D01*
Y461468D01*
X388532D01*
Y478532D01*
D02*
G37*
G36*
X519355Y475332D02*
X516845D01*
X514421Y474682D01*
X512247Y473428D01*
X510472Y471653D01*
X509218Y469479D01*
X508568Y467055D01*
Y464545D01*
X509218Y462121D01*
X510472Y459947D01*
X510869Y459551D01*
X510383Y458377D01*
X491264D01*
X481003Y468638D01*
X479700Y469509D01*
X478164Y469814D01*
X450589D01*
X449528Y471653D01*
X447753Y473428D01*
X445579Y474682D01*
X443155Y475332D01*
X440645D01*
X438221Y474682D01*
X436047Y473428D01*
X434272Y471653D01*
X433018Y469479D01*
X432368Y467055D01*
Y464545D01*
X433018Y462121D01*
X434272Y459947D01*
X436047Y458172D01*
X438221Y456918D01*
X440645Y456268D01*
X443155D01*
X445579Y456918D01*
X447753Y458172D01*
X449528Y459947D01*
X450589Y461786D01*
X476502D01*
X486763Y451525D01*
X488065Y450654D01*
X489601Y450349D01*
X513728D01*
X514068Y449079D01*
X512247Y448027D01*
X510472Y446253D01*
X509218Y444079D01*
X508568Y441655D01*
Y439145D01*
X509218Y436721D01*
X510472Y434547D01*
X512247Y432772D01*
X514421Y431518D01*
X516845Y430868D01*
X519355D01*
X521779Y431518D01*
X523953Y432772D01*
X525728Y434547D01*
X526982Y436721D01*
X527632Y439145D01*
Y441655D01*
X526982Y444079D01*
X525728Y446253D01*
X523953Y448027D01*
X522132Y449079D01*
X522472Y450349D01*
X587060D01*
X588596Y450654D01*
X589898Y451525D01*
X594359Y455986D01*
X686218D01*
Y451218D01*
X703782D01*
Y468782D01*
X686218D01*
Y464014D01*
X592697D01*
X591161Y463709D01*
X589858Y462838D01*
X585397Y458377D01*
X525817D01*
X525331Y459551D01*
X525728Y459947D01*
X526982Y462121D01*
X527632Y464545D01*
Y467055D01*
X526982Y469479D01*
X525728Y471653D01*
X523953Y473428D01*
X521779Y474682D01*
X519355Y475332D01*
D02*
G37*
G36*
X136782Y478720D02*
X133218D01*
X129777Y477798D01*
X126691Y476016D01*
X124172Y473497D01*
X122390Y470411D01*
X121468Y466969D01*
Y463406D01*
X122390Y459965D01*
X124172Y456879D01*
X126691Y454360D01*
X129777Y452578D01*
X133218Y451656D01*
X136782D01*
X140223Y452578D01*
X143309Y454360D01*
X145828Y456879D01*
X147610Y459965D01*
X148532Y463406D01*
Y466969D01*
X147610Y470411D01*
X145828Y473497D01*
X143309Y476016D01*
X140223Y477798D01*
X136782Y478720D01*
D02*
G37*
G36*
X786156Y468782D02*
X783844D01*
X781610Y468184D01*
X779608Y467027D01*
X777973Y465392D01*
X776816Y463390D01*
X776218Y461156D01*
Y458844D01*
X776816Y456610D01*
X777973Y454608D01*
X779608Y452973D01*
X781610Y451816D01*
X783844Y451218D01*
X786156D01*
X788390Y451816D01*
X790392Y452973D01*
X792027Y454608D01*
X793184Y456610D01*
X793782Y458844D01*
Y461156D01*
X793184Y463390D01*
X792027Y465392D01*
X790392Y467027D01*
X788390Y468184D01*
X786156Y468782D01*
D02*
G37*
G36*
X293557Y443032D02*
X291443D01*
X289400Y442485D01*
X287568Y441427D01*
X286073Y439932D01*
X285015Y438100D01*
X284468Y436057D01*
Y433943D01*
X285015Y431900D01*
X286073Y430068D01*
X287568Y428573D01*
X289400Y427515D01*
X291443Y426968D01*
X293557D01*
X295600Y427515D01*
X297432Y428573D01*
X298927Y430068D01*
X299985Y431900D01*
X300532Y433943D01*
Y436057D01*
X299985Y438100D01*
X298927Y439932D01*
X297432Y441427D01*
X295600Y442485D01*
X293557Y443032D01*
D02*
G37*
G36*
X275532D02*
X259468D01*
Y426968D01*
X275532D01*
Y443032D01*
D02*
G37*
G36*
X148532Y439096D02*
X121468D01*
Y412032D01*
X148532D01*
Y439096D01*
D02*
G37*
G36*
X443155Y424532D02*
X440645D01*
X438221Y423882D01*
X436047Y422627D01*
X434272Y420853D01*
X433018Y418679D01*
X432368Y416255D01*
Y413745D01*
X433018Y411321D01*
X434272Y409147D01*
X436047Y407373D01*
X438221Y406118D01*
X440645Y405468D01*
X443155D01*
X445579Y406118D01*
X447753Y407373D01*
X449528Y409147D01*
X450782Y411321D01*
X451432Y413745D01*
Y416255D01*
X450782Y418679D01*
X449528Y420853D01*
X447753Y422627D01*
X445579Y423882D01*
X443155Y424532D01*
D02*
G37*
G36*
Y399132D02*
X440645D01*
X438221Y398482D01*
X436047Y397228D01*
X434272Y395453D01*
X433018Y393279D01*
X432368Y390855D01*
Y388345D01*
X433018Y385921D01*
X433483Y385114D01*
X432848Y384014D01*
X303932D01*
Y388532D01*
X286868D01*
Y371468D01*
X303932D01*
Y375986D01*
X433663D01*
X436242Y373407D01*
X436081Y371847D01*
X436047Y371828D01*
X434272Y370053D01*
X433018Y367879D01*
X432368Y365455D01*
Y362945D01*
X433018Y360521D01*
X434272Y358347D01*
X436047Y356572D01*
X437868Y355521D01*
X437528Y354251D01*
X77469D01*
X75933Y353946D01*
X74630Y353075D01*
X67162Y345607D01*
X66291Y344304D01*
X65986Y342768D01*
Y300076D01*
X65631Y299981D01*
X63287Y298628D01*
X61372Y296713D01*
X60019Y294369D01*
X59318Y291754D01*
Y289046D01*
X60019Y286431D01*
X61372Y284087D01*
X63287Y282172D01*
X65631Y280819D01*
X68246Y280118D01*
X70954D01*
X73569Y280819D01*
X75913Y282172D01*
X77828Y284087D01*
X79181Y286431D01*
X79882Y289046D01*
Y291754D01*
X79181Y294369D01*
X77828Y296713D01*
X75913Y298628D01*
X74014Y299724D01*
Y341105D01*
X79132Y346223D01*
X434183D01*
X434669Y345050D01*
X434272Y344653D01*
X433018Y342479D01*
X432368Y340055D01*
Y337545D01*
X433018Y335121D01*
X434272Y332947D01*
X436047Y331172D01*
X438221Y329918D01*
X440645Y329268D01*
X443155D01*
X445206Y329818D01*
X462862Y312162D01*
X464164Y311291D01*
X465700Y310986D01*
X589198D01*
X589373Y310682D01*
X590682Y309373D01*
X592286Y308447D01*
X594074Y307968D01*
X595926D01*
X597714Y308447D01*
X599318Y309373D01*
X600627Y310682D01*
X601553Y312286D01*
X602032Y314074D01*
Y315926D01*
X601553Y317714D01*
X600627Y319318D01*
X599318Y320627D01*
X597714Y321553D01*
X595926Y322032D01*
X594074D01*
X592286Y321553D01*
X590682Y320627D01*
X589373Y319318D01*
X589198Y319014D01*
X467363D01*
X450882Y335494D01*
X451432Y337545D01*
Y340055D01*
X450782Y342479D01*
X449528Y344653D01*
X449131Y345050D01*
X449617Y346223D01*
X505000D01*
X509118Y342106D01*
X508568Y340055D01*
Y337545D01*
X509218Y335121D01*
X510472Y332947D01*
X512247Y331172D01*
X514421Y329918D01*
X516845Y329268D01*
X519355D01*
X521779Y329918D01*
X523953Y331172D01*
X525728Y332947D01*
X526789Y334786D01*
X603800D01*
X605336Y335091D01*
X606638Y335962D01*
X606663Y335986D01*
X708337D01*
X725986Y318337D01*
Y262847D01*
X726291Y261311D01*
X727162Y260009D01*
X729856Y257315D01*
X731158Y256445D01*
X731215Y256434D01*
X734541Y253107D01*
X735844Y252236D01*
X737380Y251931D01*
X744270D01*
X745806Y252236D01*
X747109Y253107D01*
X747415Y253413D01*
X749074Y252968D01*
X750926D01*
X752714Y253447D01*
X754318Y254373D01*
X755627Y255682D01*
X756553Y257286D01*
X757032Y259074D01*
Y260926D01*
X756553Y262714D01*
X755627Y264318D01*
X754318Y265627D01*
X752714Y266553D01*
X750926Y267032D01*
X749074D01*
X747286Y266553D01*
X745682Y265627D01*
X744373Y264318D01*
X743447Y262714D01*
X742968Y260926D01*
Y260320D01*
X742607Y259959D01*
X739043D01*
X736010Y262992D01*
X734708Y263862D01*
X734651Y263873D01*
X734014Y264510D01*
Y320000D01*
X733709Y321536D01*
X732838Y322838D01*
X712838Y342838D01*
X711536Y343709D01*
X710000Y344014D01*
X605000D01*
X603464Y343709D01*
X602162Y342838D01*
X602137Y342814D01*
X526789D01*
X525728Y344653D01*
X523953Y346427D01*
X521779Y347682D01*
X519355Y348332D01*
X516845D01*
X514794Y347783D01*
X509501Y353075D01*
X508199Y353946D01*
X506663Y354251D01*
X446272D01*
X445932Y355521D01*
X447753Y356572D01*
X449528Y358347D01*
X450782Y360521D01*
X451432Y362945D01*
Y365455D01*
X450782Y367879D01*
X449528Y370053D01*
X449131Y370450D01*
X449617Y371623D01*
X505000D01*
X509118Y367506D01*
X508568Y365455D01*
Y362945D01*
X509218Y360521D01*
X510472Y358347D01*
X512247Y356572D01*
X514421Y355318D01*
X516845Y354668D01*
X519355D01*
X521779Y355318D01*
X523953Y356572D01*
X525728Y358347D01*
X526789Y360186D01*
X554869D01*
X555682Y359373D01*
X557286Y358447D01*
X559074Y357968D01*
X560926D01*
X562714Y358447D01*
X564318Y359373D01*
X565627Y360682D01*
X566553Y362286D01*
X567032Y364074D01*
Y365926D01*
X566553Y367714D01*
X565627Y369318D01*
X564318Y370627D01*
X562714Y371553D01*
X560926Y372032D01*
X559074D01*
X557286Y371553D01*
X555682Y370627D01*
X554373Y369318D01*
X553736Y368214D01*
X526789D01*
X525728Y370053D01*
X523953Y371828D01*
X521779Y373082D01*
X519355Y373732D01*
X516845D01*
X514794Y373182D01*
X509501Y378475D01*
X508199Y379346D01*
X506663Y379651D01*
X446272D01*
X445932Y380921D01*
X447753Y381973D01*
X449528Y383747D01*
X450782Y385921D01*
X451432Y388345D01*
Y390855D01*
X450782Y393279D01*
X449528Y395453D01*
X447753Y397228D01*
X445579Y398482D01*
X443155Y399132D01*
D02*
G37*
G36*
X271123Y388532D02*
X268877D01*
X266707Y387951D01*
X264761Y386827D01*
X263173Y385239D01*
X262049Y383293D01*
X261468Y381123D01*
Y378877D01*
X262049Y376707D01*
X263173Y374761D01*
X264761Y373173D01*
X266707Y372049D01*
X268877Y371468D01*
X271123D01*
X273293Y372049D01*
X275239Y373173D01*
X276827Y374761D01*
X277950Y376707D01*
X278532Y378877D01*
Y381123D01*
X277950Y383293D01*
X276827Y385239D01*
X275239Y386827D01*
X273293Y387951D01*
X271123Y388532D01*
D02*
G37*
G36*
X303932Y333532D02*
X286868D01*
Y316468D01*
X303932D01*
Y333532D01*
D02*
G37*
G36*
X271123D02*
X268877D01*
X266707Y332951D01*
X264761Y331827D01*
X263173Y330239D01*
X262049Y328293D01*
X261468Y326123D01*
Y323877D01*
X262049Y321707D01*
X263173Y319761D01*
X264761Y318173D01*
X266707Y317050D01*
X268877Y316468D01*
X271123D01*
X273293Y317050D01*
X275239Y318173D01*
X276827Y319761D01*
X277950Y321707D01*
X278532Y323877D01*
Y326123D01*
X277950Y328293D01*
X276827Y330239D01*
X275239Y331827D01*
X273293Y332951D01*
X271123Y333532D01*
D02*
G37*
G36*
X710926Y327032D02*
X709074D01*
X707286Y326553D01*
X705682Y325627D01*
X704373Y324318D01*
X703447Y322714D01*
X702968Y320926D01*
Y319074D01*
X703059Y318736D01*
X658337Y274014D01*
X435000D01*
X433464Y273709D01*
X432161Y272838D01*
X387693Y228370D01*
X386156Y228782D01*
X383844D01*
X381610Y228183D01*
X379608Y227027D01*
X377973Y225392D01*
X376816Y223390D01*
X376218Y221156D01*
Y218844D01*
X376816Y216610D01*
X377973Y214608D01*
X379608Y212973D01*
X381610Y211817D01*
X383844Y211218D01*
X386156D01*
X388390Y211817D01*
X390392Y212973D01*
X392027Y214608D01*
X393184Y216610D01*
X393782Y218844D01*
Y221156D01*
X393370Y222693D01*
X436663Y265986D01*
X660000D01*
X661536Y266291D01*
X662838Y267162D01*
X708736Y313059D01*
X709074Y312968D01*
X710926D01*
X712714Y313447D01*
X714318Y314373D01*
X715627Y315682D01*
X716553Y317286D01*
X717032Y319074D01*
Y320926D01*
X716553Y322714D01*
X715627Y324318D01*
X714318Y325627D01*
X712714Y326553D01*
X710926Y327032D01*
D02*
G37*
G36*
X626156Y328782D02*
X623844D01*
X621610Y328184D01*
X619608Y327027D01*
X617973Y325392D01*
X616816Y323390D01*
X616218Y321156D01*
Y318844D01*
X616816Y316610D01*
X617973Y314608D01*
X619608Y312973D01*
X621610Y311817D01*
X623844Y311218D01*
X626156D01*
X628390Y311817D01*
X630392Y312973D01*
X632027Y314608D01*
X633184Y316610D01*
X633782Y318844D01*
Y321156D01*
X633184Y323390D01*
X632027Y325392D01*
X630392Y327027D01*
X628390Y328184D01*
X626156Y328782D01*
D02*
G37*
G36*
X850782Y318782D02*
X833218D01*
Y301218D01*
X850782D01*
Y318782D01*
D02*
G37*
G36*
X105282Y300682D02*
X84718D01*
Y280118D01*
X105282D01*
Y300682D01*
D02*
G37*
G36*
X308532Y273532D02*
X291468D01*
Y256468D01*
X308532D01*
Y273532D01*
D02*
G37*
G36*
X275723D02*
X273477D01*
X271307Y272951D01*
X269361Y271827D01*
X267773Y270239D01*
X266649Y268293D01*
X266068Y266123D01*
Y263877D01*
X266649Y261707D01*
X267773Y259761D01*
X269361Y258173D01*
X271307Y257049D01*
X273477Y256468D01*
X275723D01*
X277893Y257049D01*
X279839Y258173D01*
X281427Y259761D01*
X282551Y261707D01*
X283132Y263877D01*
Y266123D01*
X282551Y268293D01*
X281427Y270239D01*
X279839Y271827D01*
X277893Y272951D01*
X275723Y273532D01*
D02*
G37*
G36*
X96354Y275282D02*
X93646D01*
X91031Y274581D01*
X88687Y273228D01*
X86772Y271313D01*
X85419Y268969D01*
X84718Y266354D01*
Y263646D01*
X85419Y261031D01*
X86772Y258687D01*
X88687Y256772D01*
X91031Y255419D01*
X93646Y254718D01*
X96354D01*
X98969Y255419D01*
X101313Y256772D01*
X103228Y258687D01*
X104581Y261031D01*
X105282Y263646D01*
Y266354D01*
X104581Y268969D01*
X103228Y271313D01*
X101313Y273228D01*
X98969Y274581D01*
X96354Y275282D01*
D02*
G37*
G36*
X70954D02*
X68246D01*
X65631Y274581D01*
X63287Y273228D01*
X61372Y271313D01*
X60019Y268969D01*
X59318Y266354D01*
Y263646D01*
X60019Y261031D01*
X61372Y258687D01*
X63287Y256772D01*
X65631Y255419D01*
X68246Y254718D01*
X70954D01*
X73569Y255419D01*
X75913Y256772D01*
X77828Y258687D01*
X79181Y261031D01*
X79882Y263646D01*
Y266354D01*
X79181Y268969D01*
X77828Y271313D01*
X75913Y273228D01*
X73569Y274581D01*
X70954Y275282D01*
D02*
G37*
G36*
X96354Y249882D02*
X93646D01*
X91031Y249181D01*
X88687Y247828D01*
X86772Y245913D01*
X85419Y243569D01*
X84718Y240954D01*
Y238246D01*
X85419Y235631D01*
X86772Y233287D01*
X88687Y231372D01*
X91031Y230019D01*
X93646Y229318D01*
X96354D01*
X98969Y230019D01*
X101313Y231372D01*
X103228Y233287D01*
X104581Y235631D01*
X105282Y238246D01*
Y240954D01*
X104581Y243569D01*
X103228Y245913D01*
X101313Y247828D01*
X98969Y249181D01*
X96354Y249882D01*
D02*
G37*
G36*
X70954D02*
X68246D01*
X65631Y249181D01*
X63287Y247828D01*
X61372Y245913D01*
X60019Y243569D01*
X59318Y240954D01*
Y238246D01*
X60019Y235631D01*
X61372Y233287D01*
X63287Y231372D01*
X65631Y230019D01*
X68246Y229318D01*
X70954D01*
X73569Y230019D01*
X75913Y231372D01*
X77828Y233287D01*
X79181Y235631D01*
X79882Y238246D01*
Y240954D01*
X79181Y243569D01*
X77828Y245913D01*
X75913Y247828D01*
X73569Y249181D01*
X70954Y249882D01*
D02*
G37*
G36*
X623782Y233782D02*
X606218D01*
Y216218D01*
X623782D01*
Y233782D01*
D02*
G37*
G36*
X541156D02*
X538844D01*
X536610Y233183D01*
X534608Y232027D01*
X532973Y230392D01*
X531816Y228390D01*
X531218Y226156D01*
Y223844D01*
X531816Y221610D01*
X532973Y219608D01*
X534608Y217973D01*
X536610Y216817D01*
X538844Y216218D01*
X541156D01*
X543390Y216817D01*
X545392Y217973D01*
X547027Y219608D01*
X548184Y221610D01*
X548782Y223844D01*
Y226156D01*
X548184Y228390D01*
X547027Y230392D01*
X545392Y232027D01*
X543390Y233183D01*
X541156Y233782D01*
D02*
G37*
G36*
X761156Y228782D02*
X758844D01*
X756610Y228183D01*
X754608Y227027D01*
X752973Y225392D01*
X751816Y223390D01*
X751218Y221156D01*
Y218844D01*
X751816Y216610D01*
X752973Y214608D01*
X754608Y212973D01*
X756610Y211817D01*
X758844Y211218D01*
X761156D01*
X763390Y211817D01*
X765392Y212973D01*
X767027Y214608D01*
X768184Y216610D01*
X768782Y218844D01*
Y221156D01*
X768184Y223390D01*
X767027Y225392D01*
X765392Y227027D01*
X763390Y228183D01*
X761156Y228782D01*
D02*
G37*
G36*
X466156D02*
X463844D01*
X461610Y228183D01*
X459608Y227027D01*
X457973Y225392D01*
X456816Y223390D01*
X456218Y221156D01*
Y218844D01*
X456816Y216610D01*
X457973Y214608D01*
X459608Y212973D01*
X461610Y211817D01*
X463844Y211218D01*
X466156D01*
X468390Y211817D01*
X470392Y212973D01*
X472027Y214608D01*
X473184Y216610D01*
X473782Y218844D01*
Y221156D01*
X473184Y223390D01*
X472027Y225392D01*
X470392Y227027D01*
X468390Y228183D01*
X466156Y228782D01*
D02*
G37*
G36*
X96354Y224482D02*
X93646D01*
X91031Y223781D01*
X88687Y222428D01*
X86772Y220513D01*
X85419Y218169D01*
X84718Y215554D01*
Y212846D01*
X85419Y210231D01*
X86772Y207887D01*
X88687Y205972D01*
X91031Y204619D01*
X93646Y203918D01*
X96354D01*
X98969Y204619D01*
X101313Y205972D01*
X103228Y207887D01*
X104581Y210231D01*
X105282Y212846D01*
Y215554D01*
X104581Y218169D01*
X103228Y220513D01*
X101313Y222428D01*
X98969Y223781D01*
X96354Y224482D01*
D02*
G37*
G36*
X70954D02*
X68246D01*
X65631Y223781D01*
X63287Y222428D01*
X61372Y220513D01*
X60019Y218169D01*
X59318Y215554D01*
Y212846D01*
X60019Y210231D01*
X61372Y207887D01*
X63287Y205972D01*
X65631Y204619D01*
X68246Y203918D01*
X70954D01*
X73569Y204619D01*
X75913Y205972D01*
X77828Y207887D01*
X79181Y210231D01*
X79882Y212846D01*
Y215554D01*
X79181Y218169D01*
X77828Y220513D01*
X75913Y222428D01*
X73569Y223781D01*
X70954Y224482D01*
D02*
G37*
G36*
X841156Y220782D02*
X838844D01*
X836610Y220184D01*
X834608Y219027D01*
X832973Y217392D01*
X832177Y216014D01*
X804232D01*
X802696Y215709D01*
X801393Y214838D01*
X797162Y210607D01*
X796291Y209304D01*
X795986Y207768D01*
Y89014D01*
X445000D01*
X443464Y88709D01*
X442162Y87838D01*
X408714Y54391D01*
X406321Y55032D01*
X403679D01*
X401128Y54348D01*
X398840Y53028D01*
X396972Y51160D01*
X395652Y48872D01*
X394968Y46321D01*
Y43679D01*
X395609Y41286D01*
X383337Y29014D01*
X273614D01*
Y34968D01*
X279632D01*
Y55032D01*
X259568D01*
Y34968D01*
X265586D01*
Y27232D01*
X265891Y25696D01*
X266762Y24393D01*
X268993Y22162D01*
X270296Y21291D01*
X271832Y20986D01*
X385000D01*
X386536Y21291D01*
X387838Y22162D01*
X401286Y35609D01*
X403679Y34968D01*
X406321D01*
X408872Y35652D01*
X411160Y36972D01*
X413028Y38840D01*
X414348Y41128D01*
X415032Y43679D01*
Y46321D01*
X414391Y48714D01*
X419195Y53518D01*
X420368Y53032D01*
Y34968D01*
X434755D01*
X447562Y22162D01*
X448864Y21291D01*
X450400Y20986D01*
X640000D01*
X641536Y21291D01*
X642838Y22162D01*
X657511Y36834D01*
X658877Y36468D01*
X661123D01*
X663293Y37050D01*
X665239Y38173D01*
X666827Y39761D01*
X667951Y41707D01*
X668532Y43877D01*
Y46123D01*
X667951Y48293D01*
X666827Y50239D01*
X665239Y51827D01*
X663293Y52951D01*
X661123Y53532D01*
X658877D01*
X656707Y52951D01*
X654761Y51827D01*
X653173Y50239D01*
X652049Y48293D01*
X651468Y46123D01*
Y43877D01*
X651834Y42511D01*
X638337Y29014D01*
X452063D01*
X440432Y40645D01*
Y55032D01*
X422368D01*
X421882Y56205D01*
X446663Y80986D01*
X797768D01*
X799304Y81291D01*
X800607Y82162D01*
X802838Y84393D01*
X803709Y85696D01*
X804014Y87232D01*
Y206105D01*
X805895Y207986D01*
X832177D01*
X832973Y206608D01*
X834608Y204973D01*
X836610Y203817D01*
X838844Y203218D01*
X841156D01*
X843390Y203817D01*
X845392Y204973D01*
X847027Y206608D01*
X848184Y208610D01*
X848782Y210844D01*
Y213156D01*
X848184Y215390D01*
X847027Y217392D01*
X845392Y219027D01*
X843390Y220184D01*
X841156Y220782D01*
D02*
G37*
G36*
X303557Y203032D02*
X301443D01*
X299400Y202485D01*
X297568Y201427D01*
X296073Y199932D01*
X295015Y198100D01*
X294468Y196057D01*
Y193943D01*
X295015Y191900D01*
X296073Y190068D01*
X297568Y188573D01*
X299400Y187515D01*
X301443Y186968D01*
X303557D01*
X305600Y187515D01*
X307432Y188573D01*
X308927Y190068D01*
X309985Y191900D01*
X310532Y193943D01*
Y196057D01*
X309985Y198100D01*
X308927Y199932D01*
X307432Y201427D01*
X305600Y202485D01*
X303557Y203032D01*
D02*
G37*
G36*
X285532D02*
X269468D01*
Y186968D01*
X285532D01*
Y203032D01*
D02*
G37*
G36*
X96354Y199082D02*
X93646D01*
X91031Y198381D01*
X88687Y197028D01*
X86772Y195113D01*
X85419Y192769D01*
X84718Y190154D01*
Y187446D01*
X85419Y184831D01*
X86772Y182487D01*
X88687Y180572D01*
X91031Y179219D01*
X93646Y178518D01*
X96354D01*
X98969Y179219D01*
X101313Y180572D01*
X103228Y182487D01*
X104581Y184831D01*
X105282Y187446D01*
Y190154D01*
X104581Y192769D01*
X103228Y195113D01*
X101313Y197028D01*
X98969Y198381D01*
X96354Y199082D01*
D02*
G37*
G36*
X70954D02*
X68246D01*
X65631Y198381D01*
X63287Y197028D01*
X61372Y195113D01*
X60019Y192769D01*
X59318Y190154D01*
Y187446D01*
X60019Y184831D01*
X61372Y182487D01*
X63287Y180572D01*
X65631Y179219D01*
X68246Y178518D01*
X70954D01*
X73569Y179219D01*
X75913Y180572D01*
X77828Y182487D01*
X79181Y184831D01*
X79882Y187446D01*
Y190154D01*
X79181Y192769D01*
X77828Y195113D01*
X75913Y197028D01*
X73569Y198381D01*
X70954Y199082D01*
D02*
G37*
G36*
X96354Y173682D02*
X93646D01*
X91031Y172981D01*
X88687Y171628D01*
X86772Y169713D01*
X85419Y167369D01*
X84718Y164754D01*
Y162046D01*
X85419Y159431D01*
X86772Y157087D01*
X88687Y155172D01*
X91031Y153819D01*
X93646Y153118D01*
X96354D01*
X98969Y153819D01*
X101313Y155172D01*
X103228Y157087D01*
X104581Y159431D01*
X105282Y162046D01*
Y164754D01*
X104581Y167369D01*
X103228Y169713D01*
X101313Y171628D01*
X98969Y172981D01*
X96354Y173682D01*
D02*
G37*
G36*
X70954D02*
X68246D01*
X65631Y172981D01*
X63287Y171628D01*
X61372Y169713D01*
X60019Y167369D01*
X59318Y164754D01*
Y162046D01*
X60019Y159431D01*
X61372Y157087D01*
X63287Y155172D01*
X65631Y153819D01*
X68246Y153118D01*
X70954D01*
X73569Y153819D01*
X75913Y155172D01*
X77828Y157087D01*
X79181Y159431D01*
X79882Y162046D01*
Y164754D01*
X79181Y167369D01*
X77828Y169713D01*
X75913Y171628D01*
X73569Y172981D01*
X70954Y173682D01*
D02*
G37*
G36*
X617540Y143937D02*
Y137540D01*
X623937D01*
X623657Y138586D01*
X622434Y140704D01*
X620704Y142434D01*
X618586Y143657D01*
X617540Y143937D01*
D02*
G37*
G36*
X612460Y143937D02*
X611414Y143657D01*
X609296Y142434D01*
X607566Y140704D01*
X606343Y138586D01*
X606063Y137540D01*
X612460D01*
Y143937D01*
D02*
G37*
G36*
X548782Y143782D02*
X531218D01*
Y126218D01*
X548782D01*
Y143782D01*
D02*
G37*
G36*
X623937Y132460D02*
X617540D01*
Y126063D01*
X618586Y126343D01*
X620704Y127566D01*
X622434Y129296D01*
X623657Y131414D01*
X623937Y132460D01*
D02*
G37*
G36*
X612460D02*
X606063D01*
X606343Y131414D01*
X607566Y129296D01*
X609296Y127566D01*
X611414Y126343D01*
X612460Y126063D01*
Y132460D01*
D02*
G37*
G36*
X768782Y138782D02*
X751218D01*
Y121218D01*
X768782D01*
Y138782D01*
D02*
G37*
G36*
X693782D02*
X676218D01*
Y121218D01*
X693782D01*
Y138782D01*
D02*
G37*
G36*
X473782D02*
X456218D01*
Y121218D01*
X473782D01*
Y138782D01*
D02*
G37*
G36*
X393782D02*
X376218D01*
Y121218D01*
X393782D01*
Y138782D01*
D02*
G37*
G36*
X313532Y128532D02*
X296468D01*
Y111468D01*
X313532D01*
Y128532D01*
D02*
G37*
G36*
X286123D02*
X283877D01*
X281707Y127950D01*
X279761Y126827D01*
X278173Y125239D01*
X277050Y123293D01*
X276468Y121123D01*
Y118877D01*
X277050Y116707D01*
X278173Y114761D01*
X279761Y113173D01*
X281707Y112049D01*
X283877Y111468D01*
X286123D01*
X288293Y112049D01*
X290239Y113173D01*
X291827Y114761D01*
X292951Y116707D01*
X293532Y118877D01*
Y121123D01*
X292951Y123293D01*
X291827Y125239D01*
X290239Y126827D01*
X288293Y127950D01*
X286123Y128532D01*
D02*
G37*
G36*
X848782Y156782D02*
X831218D01*
Y139218D01*
X835986D01*
Y74014D01*
X815000D01*
X813464Y73709D01*
X812162Y72838D01*
X792489Y53166D01*
X791123Y53532D01*
X788877D01*
X786707Y52951D01*
X784761Y51827D01*
X783173Y50239D01*
X782049Y48293D01*
X781468Y46123D01*
Y43877D01*
X782049Y41707D01*
X783173Y39761D01*
X784761Y38173D01*
X786707Y37050D01*
X788877Y36468D01*
X791123D01*
X793293Y37050D01*
X795239Y38173D01*
X796827Y39761D01*
X797951Y41707D01*
X798532Y43877D01*
Y46123D01*
X798166Y47489D01*
X816663Y65986D01*
X837768D01*
X839304Y66291D01*
X840607Y67162D01*
X842838Y69393D01*
X843709Y70696D01*
X844014Y72232D01*
Y139218D01*
X848782D01*
Y156782D01*
D02*
G37*
G36*
X779156Y318782D02*
X776844D01*
X774610Y318183D01*
X772608Y317027D01*
X770973Y315392D01*
X769817Y313390D01*
X769218Y311156D01*
Y308844D01*
X769817Y306610D01*
X770973Y304608D01*
X772608Y302973D01*
X773986Y302177D01*
Y279232D01*
X774291Y277696D01*
X775162Y276393D01*
X779393Y272162D01*
X780696Y271291D01*
X782232Y270986D01*
X865986D01*
Y56663D01*
X858337Y49014D01*
X838532D01*
Y53532D01*
X821468D01*
Y36468D01*
X838532D01*
Y40986D01*
X860000D01*
X861536Y41291D01*
X862838Y42162D01*
X872838Y52162D01*
X873709Y53464D01*
X874014Y55000D01*
Y272768D01*
X873709Y274304D01*
X872838Y275607D01*
X870607Y277838D01*
X869304Y278709D01*
X867768Y279014D01*
X783895D01*
X782014Y280895D01*
Y302177D01*
X783392Y302973D01*
X785027Y304608D01*
X786183Y306610D01*
X786782Y308844D01*
Y311156D01*
X786183Y313390D01*
X785027Y315392D01*
X783392Y317027D01*
X781390Y318183D01*
X779156Y318782D01*
D02*
G37*
G36*
X532540Y53678D02*
Y47540D01*
X538678D01*
X538424Y48489D01*
X537234Y50551D01*
X535551Y52234D01*
X533489Y53424D01*
X532540Y53678D01*
D02*
G37*
G36*
X527460Y53678D02*
X526511Y53424D01*
X524449Y52234D01*
X522766Y50551D01*
X521576Y48489D01*
X521322Y47540D01*
X527460D01*
Y53678D01*
D02*
G37*
G36*
X681123Y53532D02*
X678877D01*
X676707Y52951D01*
X674761Y51827D01*
X673173Y50239D01*
X672049Y48293D01*
X671468Y46123D01*
Y43877D01*
X672049Y41707D01*
X673173Y39761D01*
X674761Y38173D01*
X676707Y37050D01*
X678877Y36468D01*
X681123D01*
X683293Y37050D01*
X685239Y38173D01*
X686827Y39761D01*
X687951Y41707D01*
X688532Y43877D01*
Y46123D01*
X687951Y48293D01*
X686827Y50239D01*
X685239Y51827D01*
X683293Y52951D01*
X681123Y53532D01*
D02*
G37*
G36*
X516226Y74081D02*
X514375D01*
X512586Y73602D01*
X510983Y72676D01*
X509674Y71367D01*
X508748Y69764D01*
X508269Y67975D01*
Y66124D01*
X508748Y64335D01*
X509674Y62732D01*
X510983Y61422D01*
X512586Y60497D01*
X514375Y60017D01*
X516226D01*
X518015Y60497D01*
X519618Y61422D01*
X519971Y61775D01*
X520696Y61291D01*
X522232Y60986D01*
X548337D01*
X561468Y47855D01*
Y36468D01*
X578532D01*
Y53532D01*
X567145D01*
X552838Y67838D01*
X551536Y68709D01*
X550000Y69014D01*
X523740D01*
X522903Y69573D01*
X521841Y69785D01*
X520927Y71367D01*
X519618Y72676D01*
X518015Y73602D01*
X516226Y74081D01*
D02*
G37*
G36*
X551123Y53532D02*
X548877D01*
X546707Y52951D01*
X544761Y51827D01*
X543173Y50239D01*
X542049Y48293D01*
X541468Y46123D01*
Y43877D01*
X542049Y41707D01*
X543173Y39761D01*
X544761Y38173D01*
X546707Y37050D01*
X548877Y36468D01*
X551123D01*
X553293Y37050D01*
X555239Y38173D01*
X556827Y39761D01*
X557951Y41707D01*
X558532Y43877D01*
Y46123D01*
X557951Y48293D01*
X556827Y50239D01*
X555239Y51827D01*
X553293Y52951D01*
X551123Y53532D01*
D02*
G37*
G36*
X527460Y42460D02*
X521322D01*
X521576Y41511D01*
X522766Y39449D01*
X524449Y37766D01*
X526511Y36576D01*
X527460Y36322D01*
Y42460D01*
D02*
G37*
G36*
X538678D02*
X532540D01*
Y36322D01*
X533489Y36576D01*
X535551Y37766D01*
X537234Y39449D01*
X538424Y41511D01*
X538678Y42460D01*
D02*
G37*
G36*
X811123Y53532D02*
X808877D01*
X806707Y52951D01*
X804761Y51827D01*
X803173Y50239D01*
X802049Y48293D01*
X801468Y46123D01*
Y43877D01*
X802049Y41707D01*
X803173Y39761D01*
X804761Y38173D01*
X805986Y37466D01*
Y29014D01*
X761663D01*
X742838Y47838D01*
X741536Y48709D01*
X740000Y49014D01*
X708532D01*
Y53532D01*
X691468D01*
Y36468D01*
X708532D01*
Y40986D01*
X738337D01*
X757162Y22162D01*
X758464Y21291D01*
X760000Y20986D01*
X807768D01*
X809304Y21291D01*
X810607Y22162D01*
X812838Y24393D01*
X813709Y25696D01*
X814014Y27232D01*
Y37466D01*
X815239Y38173D01*
X816827Y39761D01*
X817951Y41707D01*
X818532Y43877D01*
Y46123D01*
X817951Y48293D01*
X816827Y50239D01*
X815239Y51827D01*
X813293Y52951D01*
X811123Y53532D01*
D02*
G37*
%LPD*%
D18*
X910000Y70000D02*
D03*
Y90000D02*
D03*
X270000Y380000D02*
D03*
Y325000D02*
D03*
X274600Y265000D02*
D03*
X285000Y120000D02*
D03*
X780000Y555000D02*
D03*
X380000Y490000D02*
D03*
X915000Y255000D02*
D03*
Y235000D02*
D03*
X790000Y45000D02*
D03*
X810000D02*
D03*
X660000D02*
D03*
X680000D02*
D03*
X530000D02*
D03*
X550000D02*
D03*
X262300Y850000D02*
D03*
Y780000D02*
D03*
Y695000D02*
D03*
X365000Y625000D02*
D03*
X265000Y540000D02*
D03*
D19*
X910000Y110000D02*
D03*
X380000Y470000D02*
D03*
X915000Y215000D02*
D03*
X365000Y645000D02*
D03*
D24*
X292500Y435000D02*
D03*
X302500Y195000D02*
D03*
X635000Y530000D02*
D03*
X287500Y910000D02*
D03*
Y615000D02*
D03*
D25*
X267500Y435000D02*
D03*
X277500Y195000D02*
D03*
X262500Y910000D02*
D03*
Y615000D02*
D03*
D34*
X719500Y936075D02*
D03*
X745000D02*
D03*
X724500Y825000D02*
D03*
X750000D02*
D03*
D35*
X770500Y936075D02*
D03*
X775500Y825000D02*
D03*
D36*
X635000Y580000D02*
D03*
D39*
X295400Y380000D02*
D03*
Y325000D02*
D03*
X300000Y265000D02*
D03*
X305000Y120000D02*
D03*
X760000Y555000D02*
D03*
X830000Y45000D02*
D03*
X700000D02*
D03*
X570000D02*
D03*
X287700Y850000D02*
D03*
Y780000D02*
D03*
Y695000D02*
D03*
X285000Y540000D02*
D03*
D42*
X563645Y776837D02*
X590931D01*
X558708Y778100D02*
X559893Y776916D01*
X563567D01*
X563645Y776837D01*
X540000Y692232D02*
Y885000D01*
X536968Y689200D02*
X540000Y692232D01*
X517300Y907700D02*
X540000Y885000D01*
X506900Y689200D02*
X536968D01*
X595000Y726500D02*
Y772768D01*
X590931Y776837D02*
X595000Y772768D01*
X583100Y714600D02*
X595000Y726500D01*
Y645000D02*
X615000D01*
X560000Y610000D02*
X595000Y645000D01*
X518100Y364200D02*
X559200D01*
X560000Y365000D01*
X481263Y401037D02*
X614895D01*
X655932Y360000D01*
X441900Y440400D02*
X481263Y401037D01*
X855000Y745000D02*
Y771068D01*
X845000Y735000D02*
X855000Y745000D01*
X820000Y573325D02*
X825000Y578325D01*
X820000Y475000D02*
Y573325D01*
X825000Y578325D02*
Y580000D01*
X811063Y588702D02*
X856598Y634237D01*
X913419D01*
X811063Y571303D02*
Y588702D01*
X766063Y526303D02*
X811063Y571303D01*
X785000Y515000D02*
X798092Y501908D01*
Y476908D02*
Y501908D01*
X518100Y338800D02*
X603800D01*
X710000Y340000D02*
X730000Y320000D01*
X605000Y340000D02*
X710000D01*
X465700Y315000D02*
X595000D01*
X603800Y338800D02*
X605000Y340000D01*
X756068Y870000D02*
X855000Y771068D01*
X690000Y870000D02*
X756068D01*
X890000Y760000D02*
Y805000D01*
X820000Y687232D02*
Y690000D01*
X890000Y760000D01*
X817768Y685000D02*
X820000Y687232D01*
X752232Y685000D02*
X817768D01*
X836486Y691086D02*
X915000Y769600D01*
X836486Y672419D02*
Y691086D01*
X890000Y805000D02*
X915000Y830000D01*
Y892300D01*
X932768Y795000D02*
X935000Y792768D01*
Y647300D02*
Y792768D01*
X910000Y622300D02*
X935000Y647300D01*
X915000Y795000D02*
X932768D01*
X930000Y575000D02*
X935000Y570000D01*
X914945Y659637D02*
X921937Y652645D01*
X831967Y659637D02*
X914945D01*
X748172Y575842D02*
X831967Y659637D01*
X935000Y490000D02*
Y570000D01*
X913419Y634237D02*
X921937Y642756D01*
X900000Y455000D02*
X935000Y490000D01*
X921937Y642756D02*
Y652645D01*
X820000Y455000D02*
X900000D01*
X583100Y689200D02*
X605000Y711100D01*
Y865000D01*
X735000Y625000D02*
Y755000D01*
X595000Y895000D02*
X735000Y755000D01*
X550000Y895000D02*
X595000D01*
X542700Y902300D02*
X550000Y895000D01*
X542700Y902300D02*
Y935000D01*
X675715Y774285D02*
X685715D01*
X715000Y622232D02*
Y745000D01*
X675000Y775000D02*
X675715Y774285D01*
X685715D02*
X715000Y745000D01*
X745000Y735000D02*
X790000D01*
X588338Y620000D02*
X712768D01*
X715000Y622232D01*
X746705Y608937D02*
X750000Y612232D01*
X639095Y584095D02*
X663937Y608937D01*
X548338Y580000D02*
X588338Y620000D01*
X663937Y608937D02*
X746705D01*
X750000Y612232D02*
Y682768D01*
X857201Y647700D02*
X910000D01*
X700000Y515000D02*
X740000D01*
X779501Y570000D02*
X857201Y647700D01*
X518100Y491200D02*
X736200D01*
X670000Y510000D02*
X730000Y570000D01*
X736200Y491200D02*
X750000Y505000D01*
X730000Y570000D02*
X779501D01*
X518148Y510000D02*
X670000D01*
X441900Y491200D02*
X499347D01*
X518148Y510000D01*
X740000Y515000D02*
X780000Y555000D01*
X655932Y360000D02*
X865000D01*
X885000Y195000D02*
Y340000D01*
X865000Y360000D02*
X885000Y340000D01*
X656200Y663800D02*
X675000Y645000D01*
X583100Y663800D02*
X656200D01*
X748325Y260000D02*
X750000D01*
X744270Y255945D02*
X748325Y260000D01*
X733172Y260153D02*
X737380Y255945D01*
X744270D01*
X732694Y260153D02*
X733172D01*
X730000Y262847D02*
X732694Y260153D01*
X730000Y262847D02*
Y320000D01*
X635000Y580000D02*
X660000D01*
X683481Y575842D02*
X748172D01*
X515000Y560000D02*
X667639D01*
X683481Y575842D01*
X635000Y580000D02*
X639095Y584095D01*
X766063Y500675D02*
Y526303D01*
Y500675D02*
X817580Y449158D01*
X865842D01*
X880000Y435000D01*
X798092Y476908D02*
X820000Y455000D01*
X592697Y460000D02*
X695000D01*
X587060Y454363D02*
X592697Y460000D01*
X750000Y682768D02*
X752232Y685000D01*
X405000Y45000D02*
X445000Y85000D01*
X800000Y87232D02*
Y207768D01*
X445000Y85000D02*
X797768D01*
X800000Y87232D01*
X515300Y67049D02*
X516485Y65865D01*
X521367D01*
X522232Y65000D01*
X550000D01*
X570000Y45000D01*
X665000Y200000D02*
X685000Y220000D01*
X580000Y200000D02*
X665000D01*
X555000Y175000D02*
X580000Y200000D01*
X260000Y175000D02*
X555000D01*
X190000Y105000D02*
X260000Y175000D01*
X50000Y105000D02*
X190000D01*
X22232Y915000D02*
X75000D01*
X20000Y912768D02*
X22232Y915000D01*
X20000Y135000D02*
Y912768D01*
Y135000D02*
X50000Y105000D01*
X437768Y965000D02*
X440000Y962768D01*
X125000Y965000D02*
X437768D01*
X440000Y883100D02*
Y962768D01*
X75000Y915000D02*
X125000Y965000D01*
X440000Y883100D02*
X506900Y816200D01*
X685000Y182232D02*
Y220000D01*
X682768Y180000D02*
X685000Y182232D01*
X575000Y180000D02*
X682768D01*
X764068Y600000D02*
X836486Y672419D01*
X720000Y600000D02*
X764068D01*
X420000Y580000D02*
X548338D01*
X365000Y625000D02*
X527768D01*
X554364Y651595D02*
Y711264D01*
X527768Y625000D02*
X554364Y651595D01*
X441900Y338800D02*
X465700Y315000D01*
X915000Y215000D02*
X935000Y235000D01*
Y445000D01*
X489601Y454363D02*
X587060D01*
X441900Y465800D02*
X478164D01*
X489601Y454363D01*
X660000Y270000D02*
X710000Y320000D01*
X435000Y270000D02*
X660000D01*
X778000Y279232D02*
Y310000D01*
X782232Y275000D02*
X867768D01*
X778000Y279232D02*
X782232Y275000D01*
X385000Y220000D02*
X435000Y270000D01*
X885000Y195000D02*
X920437Y159563D01*
X910000Y90000D02*
X920437Y100437D01*
Y159563D01*
X435326Y380000D02*
X439689Y375637D01*
X295400Y380000D02*
X435326D01*
X439689Y375637D02*
X506663D01*
X518100Y364200D01*
X517300Y907700D02*
Y935000D01*
X380000Y890000D02*
Y935000D01*
X335000Y760000D02*
Y845000D01*
X380000Y890000D01*
X365000Y730000D02*
X380000D01*
X335000Y760000D02*
X365000Y730000D01*
X440400Y765400D02*
X506900D01*
X405000Y730000D02*
X440400Y765400D01*
X380000Y730000D02*
X405000D01*
X505700Y815000D02*
X506900Y816200D01*
X485000Y815000D02*
X505700D01*
X380000Y820000D02*
X480000D01*
X485000Y815000D01*
X870000Y55000D02*
Y272768D01*
X867768Y275000D02*
X870000Y272768D01*
X860000Y45000D02*
X870000Y55000D01*
X830000Y45000D02*
X860000D01*
X365000Y100000D02*
X567768D01*
X570000Y102232D01*
Y175000D01*
X310000Y45000D02*
X365000Y100000D01*
X506663Y350237D02*
X518100Y338800D01*
X77469Y350237D02*
X506663D01*
X70000Y342768D02*
X77469Y350237D01*
X70000Y290800D02*
Y342768D01*
X69600Y290400D02*
X70000Y290800D01*
X554364Y711264D02*
X583100Y740000D01*
X840000Y72232D02*
Y148000D01*
X837768Y70000D02*
X840000Y72232D01*
X815000Y70000D02*
X837768D01*
X790000Y45000D02*
X815000Y70000D01*
X810000Y27232D02*
Y45000D01*
X760000Y25000D02*
X807768D01*
X810000Y27232D01*
X700000Y45000D02*
X740000D01*
X760000Y25000D01*
X640000D02*
X660000Y45000D01*
X430400D02*
X450400Y25000D01*
X640000D01*
X804232Y212000D02*
X840000D01*
X800000Y207768D02*
X804232Y212000D01*
X385000Y25000D02*
X405000Y45000D01*
X269600Y27232D02*
Y45000D01*
X271832Y25000D02*
X385000D01*
X269600Y27232D02*
X271832Y25000D01*
X570000Y175000D02*
X575000Y180000D01*
X295000Y45000D02*
X310000D01*
D43*
X25000Y25000D02*
D03*
X925000D02*
D03*
Y975000D02*
D03*
X25000D02*
D03*
D44*
X915000Y892300D02*
D03*
Y769600D02*
D03*
X910000Y622300D02*
D03*
D45*
X915000Y917700D02*
D03*
Y795000D02*
D03*
X910000Y647700D02*
D03*
X405000Y45000D02*
D03*
X295000D02*
D03*
X517300Y935000D02*
D03*
X405400D02*
D03*
D46*
X518100Y338800D02*
D03*
Y364200D02*
D03*
Y389600D02*
D03*
Y415000D02*
D03*
Y440400D02*
D03*
Y465800D02*
D03*
Y491200D02*
D03*
X441900Y338800D02*
D03*
Y364200D02*
D03*
Y389600D02*
D03*
Y415000D02*
D03*
Y440400D02*
D03*
Y465800D02*
D03*
X583100Y663800D02*
D03*
Y689200D02*
D03*
Y714600D02*
D03*
Y740000D02*
D03*
Y765400D02*
D03*
Y790800D02*
D03*
Y816200D02*
D03*
X506900Y663800D02*
D03*
Y689200D02*
D03*
Y714600D02*
D03*
Y740000D02*
D03*
Y765400D02*
D03*
Y790800D02*
D03*
D47*
X441900Y491200D02*
D03*
X506900Y816200D02*
D03*
D48*
X69600Y214200D02*
D03*
X95000D02*
D03*
X69600Y265000D02*
D03*
X95000D02*
D03*
X69600Y290400D02*
D03*
X95000Y239600D02*
D03*
X69600D02*
D03*
X95000Y188800D02*
D03*
Y163400D02*
D03*
X69600Y188800D02*
D03*
Y163400D02*
D03*
X62300Y762300D02*
D03*
X87700D02*
D03*
X62300Y813100D02*
D03*
X87700D02*
D03*
X62300Y838500D02*
D03*
X87700Y787700D02*
D03*
X62300D02*
D03*
X87700Y736900D02*
D03*
Y711500D02*
D03*
X62300Y736900D02*
D03*
Y711500D02*
D03*
D49*
X95000Y290400D02*
D03*
X87700Y838500D02*
D03*
D50*
X790000Y645000D02*
D03*
X760000Y130000D02*
D03*
X385000D02*
D03*
X675000Y645000D02*
D03*
X625000Y410000D02*
D03*
X840000Y148000D02*
D03*
X615000Y225000D02*
D03*
X540000Y135000D02*
D03*
X465000Y130000D02*
D03*
X685000D02*
D03*
X380000Y820000D02*
D03*
D51*
X790000Y735000D02*
D03*
X760000Y220000D02*
D03*
X385000D02*
D03*
X675000Y735000D02*
D03*
X785000Y460000D02*
D03*
X778000Y310000D02*
D03*
X625000Y320000D02*
D03*
X840000Y212000D02*
D03*
X615000Y135000D02*
D03*
X540000Y225000D02*
D03*
X465000Y220000D02*
D03*
X685000D02*
D03*
X380000Y730000D02*
D03*
D52*
X880000Y514248D02*
D03*
X135000Y425564D02*
D03*
D53*
X880000Y474624D02*
D03*
Y435000D02*
D03*
Y395376D02*
D03*
X135000Y465188D02*
D03*
Y504812D02*
D03*
Y544436D02*
D03*
D54*
X695000Y460000D02*
D03*
X842000Y310000D02*
D03*
D55*
X430400Y45000D02*
D03*
X269600D02*
D03*
X542700Y935000D02*
D03*
X380000D02*
D03*
D56*
X558708Y778100D02*
D03*
X615000Y645000D02*
D03*
X560000Y610000D02*
D03*
Y365000D02*
D03*
X845000Y735000D02*
D03*
X825000Y580000D02*
D03*
X785000Y515000D02*
D03*
X595000Y315000D02*
D03*
X930000Y575000D02*
D03*
X690000Y870000D02*
D03*
X605000Y865000D02*
D03*
X745000Y735000D02*
D03*
X700000Y515000D02*
D03*
X750000Y260000D02*
D03*
X660000Y580000D02*
D03*
X515000Y560000D02*
D03*
X750000Y505000D02*
D03*
X820000Y475000D02*
D03*
X515300Y67049D02*
D03*
X675000Y775000D02*
D03*
X420000Y580000D02*
D03*
X935000Y445000D02*
D03*
X710000Y320000D02*
D03*
X735000Y625000D02*
D03*
X720000Y600000D02*
D03*
M02*
