G04*
G04 #@! TF.GenerationSoftware,Altium Limited,Altium Designer,22.9.1 (49)*
G04*
G04 Layer_Color=128*
%FSLAX44Y44*%
%MOMM*%
G71*
G04*
G04 #@! TF.SameCoordinates,DBEF2CFB-25A5-4AA8-B732-6DF96BC3893C*
G04*
G04*
G04 #@! TF.FilePolarity,Positive*
G04*
G01*
G75*
%ADD61C,0.0508*%
D61*
X10000Y25000D02*
X40000D01*
X25000Y10000D02*
Y40000D01*
X910000Y25000D02*
X940000D01*
X925000Y10000D02*
Y40000D01*
X910000Y975000D02*
X940000D01*
X925000Y960000D02*
Y990000D01*
X10000Y975000D02*
X40000D01*
X25000Y960000D02*
Y990000D01*
X906000Y70000D02*
X914000D01*
X910000Y66000D02*
Y74000D01*
X906000Y90000D02*
X914000D01*
X910000Y86000D02*
Y94000D01*
X906000Y110000D02*
X914000D01*
X910000Y106000D02*
Y114000D01*
X909500Y892300D02*
X920500D01*
X915000Y886800D02*
Y897800D01*
X909500Y917700D02*
X920500D01*
X915000Y912200D02*
Y923200D01*
X513600Y338800D02*
X522600D01*
X518100Y334300D02*
Y343300D01*
X513600Y364200D02*
X522600D01*
X518100Y359700D02*
Y368700D01*
X513600Y389600D02*
X522600D01*
X518100Y385100D02*
Y394100D01*
X513600Y415000D02*
X522600D01*
X518100Y410500D02*
Y419500D01*
X513600Y440400D02*
X522600D01*
X518100Y435900D02*
Y444900D01*
X513600Y465800D02*
X522600D01*
X518100Y461300D02*
Y470300D01*
X513600Y491200D02*
X522600D01*
X518100Y486700D02*
Y495700D01*
X437400Y338800D02*
X446400D01*
X441900Y334300D02*
Y343300D01*
X437400Y364200D02*
X446400D01*
X441900Y359700D02*
Y368700D01*
X437400Y389600D02*
X446400D01*
X441900Y385100D02*
Y394100D01*
X437400Y415000D02*
X446400D01*
X441900Y410500D02*
Y419500D01*
X437400Y440400D02*
X446400D01*
X441900Y435900D02*
Y444900D01*
X437400Y465800D02*
X446400D01*
X441900Y461300D02*
Y470300D01*
X437400Y491200D02*
X446400D01*
X441900Y486700D02*
Y495700D01*
X289000Y435000D02*
X296000D01*
X292500Y431500D02*
Y438500D01*
X264000Y435000D02*
X271000D01*
X267500Y431500D02*
Y438500D01*
X291400Y380000D02*
X299400D01*
X295400Y376000D02*
Y384000D01*
X266000Y380000D02*
X274000D01*
X270000Y376000D02*
Y384000D01*
X291400Y325000D02*
X299400D01*
X295400Y321000D02*
Y329000D01*
X266000Y325000D02*
X274000D01*
X270000Y321000D02*
Y329000D01*
X64100Y214200D02*
X75100D01*
X69600Y208700D02*
Y219700D01*
X89500Y214200D02*
X100500D01*
X95000Y208700D02*
Y219700D01*
X64100Y265000D02*
X75100D01*
X69600Y259500D02*
Y270500D01*
X89500Y265000D02*
X100500D01*
X95000Y259500D02*
Y270500D01*
X89500Y290400D02*
X100500D01*
X95000Y284900D02*
Y295900D01*
X64100Y290400D02*
X75100D01*
X69600Y284900D02*
Y295900D01*
X89500Y239600D02*
X100500D01*
X95000Y234100D02*
Y245100D01*
X64100Y239600D02*
X75100D01*
X69600Y234100D02*
Y245100D01*
X89500Y188800D02*
X100500D01*
X95000Y183300D02*
Y194300D01*
X89500Y163400D02*
X100500D01*
X95000Y157900D02*
Y168900D01*
X64100Y188800D02*
X75100D01*
X69600Y183300D02*
Y194300D01*
X64100Y163400D02*
X75100D01*
X69600Y157900D02*
Y168900D01*
X296000Y265000D02*
X304000D01*
X300000Y261000D02*
Y269000D01*
X270600Y265000D02*
X278600D01*
X274600Y261000D02*
Y269000D01*
X299000Y195000D02*
X306000D01*
X302500Y191500D02*
Y198500D01*
X274000Y195000D02*
X281000D01*
X277500Y191500D02*
Y198500D01*
X281000Y120000D02*
X289000D01*
X285000Y116000D02*
Y124000D01*
X301000Y120000D02*
X309000D01*
X305000Y116000D02*
Y124000D01*
X909500Y769600D02*
X920500D01*
X915000Y764100D02*
Y775100D01*
X909500Y795000D02*
X920500D01*
X915000Y789500D02*
Y800500D01*
X785750Y645000D02*
X794250D01*
X790000Y640750D02*
Y649250D01*
X785750Y735000D02*
X794250D01*
X790000Y730750D02*
Y739250D01*
X904500Y622300D02*
X915500D01*
X910000Y616800D02*
Y627800D01*
X904500Y647700D02*
X915500D01*
X910000Y642200D02*
Y653200D01*
X871110Y514248D02*
X888890D01*
X880000Y505358D02*
Y523138D01*
X871110Y474624D02*
X888890D01*
X880000Y465734D02*
Y483514D01*
X871110Y435000D02*
X888890D01*
X880000Y426110D02*
Y443890D01*
X871110Y395376D02*
X888890D01*
X880000Y386486D02*
Y404266D01*
X776000Y555000D02*
X784000D01*
X780000Y551000D02*
Y559000D01*
X756000Y555000D02*
X764000D01*
X760000Y551000D02*
Y559000D01*
X713000Y936075D02*
X726000D01*
X719500Y929575D02*
Y942575D01*
X738500Y936075D02*
X751500D01*
X745000Y929575D02*
Y942575D01*
X764000Y936075D02*
X777000D01*
X770500Y929575D02*
Y942575D01*
X631500Y530000D02*
X638500D01*
X635000Y526500D02*
Y533500D01*
X631500Y580000D02*
X638500D01*
X635000Y576500D02*
Y583500D01*
X755750Y130000D02*
X764250D01*
X760000Y125750D02*
Y134250D01*
X755750Y220000D02*
X764250D01*
X760000Y215750D02*
Y224250D01*
X380750Y130000D02*
X389250D01*
X385000Y125750D02*
Y134250D01*
X380750Y220000D02*
X389250D01*
X385000Y215750D02*
Y224250D01*
X670750Y645000D02*
X679250D01*
X675000Y640750D02*
Y649250D01*
X670750Y735000D02*
X679250D01*
X675000Y730750D02*
Y739250D01*
X690750Y460000D02*
X699250D01*
X695000Y455750D02*
Y464250D01*
X780750Y460000D02*
X789250D01*
X785000Y455750D02*
Y464250D01*
X718000Y825000D02*
X731000D01*
X724500Y818500D02*
Y831500D01*
X743500Y825000D02*
X756500D01*
X750000Y818500D02*
Y831500D01*
X769000Y825000D02*
X782000D01*
X775500Y818500D02*
Y831500D01*
X376000Y490000D02*
X384000D01*
X380000Y486000D02*
Y494000D01*
X376000Y470000D02*
X384000D01*
X380000Y466000D02*
Y474000D01*
X911000Y255000D02*
X919000D01*
X915000Y251000D02*
Y259000D01*
X911000Y235000D02*
X919000D01*
X915000Y231000D02*
Y239000D01*
X911000Y215000D02*
X919000D01*
X915000Y211000D02*
Y219000D01*
X786000Y45000D02*
X794000D01*
X790000Y41000D02*
Y49000D01*
X806000Y45000D02*
X814000D01*
X810000Y41000D02*
Y49000D01*
X826000Y45000D02*
X834000D01*
X830000Y41000D02*
Y49000D01*
X773750Y310000D02*
X782250D01*
X778000Y305750D02*
Y314250D01*
X837750Y310000D02*
X846250D01*
X842000Y305750D02*
Y314250D01*
X620750Y410000D02*
X629250D01*
X625000Y405750D02*
Y414250D01*
X620750Y320000D02*
X629250D01*
X625000Y315750D02*
Y324250D01*
X656000Y45000D02*
X664000D01*
X660000Y41000D02*
Y49000D01*
X676000Y45000D02*
X684000D01*
X680000Y41000D02*
Y49000D01*
X696000Y45000D02*
X704000D01*
X700000Y41000D02*
Y49000D01*
X526000Y45000D02*
X534000D01*
X530000Y41000D02*
Y49000D01*
X546000Y45000D02*
X554000D01*
X550000Y41000D02*
Y49000D01*
X566000Y45000D02*
X574000D01*
X570000Y41000D02*
Y49000D01*
X835750Y212000D02*
X844250D01*
X840000Y207750D02*
Y216250D01*
X835750Y148000D02*
X844250D01*
X840000Y143750D02*
Y152250D01*
X424900Y45000D02*
X435900D01*
X430400Y39500D02*
Y50500D01*
X399500Y45000D02*
X410500D01*
X405000Y39500D02*
Y50500D01*
X284000Y910000D02*
X291000D01*
X287500Y906500D02*
Y913500D01*
X259000Y910000D02*
X266000D01*
X262500Y906500D02*
Y913500D01*
X610750Y225000D02*
X619250D01*
X615000Y220750D02*
Y229250D01*
X610750Y135000D02*
X619250D01*
X615000Y130750D02*
Y139250D01*
X264100Y45000D02*
X275100D01*
X269600Y39500D02*
Y50500D01*
X289500Y45000D02*
X300500D01*
X295000Y39500D02*
Y50500D01*
X535750Y135000D02*
X544250D01*
X540000Y130750D02*
Y139250D01*
X535750Y225000D02*
X544250D01*
X540000Y220750D02*
Y229250D01*
X283700Y850000D02*
X291700D01*
X287700Y846000D02*
Y854000D01*
X258300Y850000D02*
X266300D01*
X262300Y846000D02*
Y854000D01*
X460750Y130000D02*
X469250D01*
X465000Y125750D02*
Y134250D01*
X460750Y220000D02*
X469250D01*
X465000Y215750D02*
Y224250D01*
X56800Y762300D02*
X67800D01*
X62300Y756800D02*
Y767800D01*
X82200Y762300D02*
X93200D01*
X87700Y756800D02*
Y767800D01*
X56800Y813100D02*
X67800D01*
X62300Y807600D02*
Y818600D01*
X82200Y813100D02*
X93200D01*
X87700Y807600D02*
Y818600D01*
X82200Y838500D02*
X93200D01*
X87700Y833000D02*
Y844000D01*
X56800Y838500D02*
X67800D01*
X62300Y833000D02*
Y844000D01*
X82200Y787700D02*
X93200D01*
X87700Y782200D02*
Y793200D01*
X56800Y787700D02*
X67800D01*
X62300Y782200D02*
Y793200D01*
X82200Y736900D02*
X93200D01*
X87700Y731400D02*
Y742400D01*
X82200Y711500D02*
X93200D01*
X87700Y706000D02*
Y717000D01*
X56800Y736900D02*
X67800D01*
X62300Y731400D02*
Y742400D01*
X56800Y711500D02*
X67800D01*
X62300Y706000D02*
Y717000D01*
X537200Y935000D02*
X548200D01*
X542700Y929500D02*
Y940500D01*
X511800Y935000D02*
X522800D01*
X517300Y929500D02*
Y940500D01*
X578600Y663800D02*
X587600D01*
X583100Y659300D02*
Y668300D01*
X578600Y689200D02*
X587600D01*
X583100Y684700D02*
Y693700D01*
X578600Y714600D02*
X587600D01*
X583100Y710100D02*
Y719100D01*
X578600Y740000D02*
X587600D01*
X583100Y735500D02*
Y744500D01*
X578600Y765400D02*
X587600D01*
X583100Y760900D02*
Y769900D01*
X578600Y790800D02*
X587600D01*
X583100Y786300D02*
Y795300D01*
X578600Y816200D02*
X587600D01*
X583100Y811700D02*
Y820700D01*
X502400Y663800D02*
X511400D01*
X506900Y659300D02*
Y668300D01*
X502400Y689200D02*
X511400D01*
X506900Y684700D02*
Y693700D01*
X502400Y714600D02*
X511400D01*
X506900Y710100D02*
Y719100D01*
X502400Y740000D02*
X511400D01*
X506900Y735500D02*
Y744500D01*
X502400Y765400D02*
X511400D01*
X506900Y760900D02*
Y769900D01*
X502400Y790800D02*
X511400D01*
X506900Y786300D02*
Y795300D01*
X502400Y816200D02*
X511400D01*
X506900Y811700D02*
Y820700D01*
X283700Y780000D02*
X291700D01*
X287700Y776000D02*
Y784000D01*
X258300Y780000D02*
X266300D01*
X262300Y776000D02*
Y784000D01*
X680750Y130000D02*
X689250D01*
X685000Y125750D02*
Y134250D01*
X680750Y220000D02*
X689250D01*
X685000Y215750D02*
Y224250D01*
X283700Y695000D02*
X291700D01*
X287700Y691000D02*
Y699000D01*
X258300Y695000D02*
X266300D01*
X262300Y691000D02*
Y699000D01*
X126110Y425564D02*
X143890D01*
X135000Y416674D02*
Y434454D01*
X126110Y465188D02*
X143890D01*
X135000Y456298D02*
Y474078D01*
X126110Y504812D02*
X143890D01*
X135000Y495922D02*
Y513702D01*
X126110Y544436D02*
X143890D01*
X135000Y535546D02*
Y553326D01*
X375750Y820000D02*
X384250D01*
X380000Y815750D02*
Y824250D01*
X375750Y730000D02*
X384250D01*
X380000Y725750D02*
Y734250D01*
X361000Y625000D02*
X369000D01*
X365000Y621000D02*
Y629000D01*
X361000Y645000D02*
X369000D01*
X365000Y641000D02*
Y649000D01*
X284000Y615000D02*
X291000D01*
X287500Y611500D02*
Y618500D01*
X259000Y615000D02*
X266000D01*
X262500Y611500D02*
Y618500D01*
X374500Y935000D02*
X385500D01*
X380000Y929500D02*
Y940500D01*
X399900Y935000D02*
X410900D01*
X405400Y929500D02*
Y940500D01*
X261000Y540000D02*
X269000D01*
X265000Y536000D02*
Y544000D01*
X281000Y540000D02*
X289000D01*
X285000Y536000D02*
Y544000D01*
X556208Y778100D02*
X561208D01*
X558708Y775600D02*
Y780600D01*
X612500Y645000D02*
X617500D01*
X615000Y642500D02*
Y647500D01*
X557500Y610000D02*
X562500D01*
X560000Y607500D02*
Y612500D01*
X557500Y365000D02*
X562500D01*
X560000Y362500D02*
Y367500D01*
X842500Y735000D02*
X847500D01*
X845000Y732500D02*
Y737500D01*
X822500Y580000D02*
X827500D01*
X825000Y577500D02*
Y582500D01*
X782500Y515000D02*
X787500D01*
X785000Y512500D02*
Y517500D01*
X592500Y315000D02*
X597500D01*
X595000Y312500D02*
Y317500D01*
X927500Y575000D02*
X932500D01*
X930000Y572500D02*
Y577500D01*
X687500Y870000D02*
X692500D01*
X690000Y867500D02*
Y872500D01*
X602500Y865000D02*
X607500D01*
X605000Y862500D02*
Y867500D01*
X742500Y735000D02*
X747500D01*
X745000Y732500D02*
Y737500D01*
X697500Y515000D02*
X702500D01*
X700000Y512500D02*
Y517500D01*
X747500Y260000D02*
X752500D01*
X750000Y257500D02*
Y262500D01*
X657500Y580000D02*
X662500D01*
X660000Y577500D02*
Y582500D01*
X512500Y560000D02*
X517500D01*
X515000Y557500D02*
Y562500D01*
X747500Y505000D02*
X752500D01*
X750000Y502500D02*
Y507500D01*
X817500Y475000D02*
X822500D01*
X820000Y472500D02*
Y477500D01*
X512800Y67049D02*
X517800D01*
X515300Y64549D02*
Y69549D01*
X672500Y775000D02*
X677500D01*
X675000Y772500D02*
Y777500D01*
X417500Y580000D02*
X422500D01*
X420000Y577500D02*
Y582500D01*
X932500Y445000D02*
X937500D01*
X935000Y442500D02*
Y447500D01*
X707500Y320000D02*
X712500D01*
X710000Y317500D02*
Y322500D01*
X732500Y625000D02*
X737500D01*
X735000Y622500D02*
Y627500D01*
X717500Y600000D02*
X722500D01*
X720000Y597500D02*
Y602500D01*
M02*
